<svg width="108" height="30" viewBox="0 0 108 30" fill="none" xmlns="http://www.w3.org/2000/svg">
<path d="M9.20448 19.8465C7.21432 19.8465 5.7528 18.3148 5.7528 16.2426C5.7528 14.1404 7.18323 12.6689 9.20448 12.6689C10.6971 12.6689 11.972 13.5098 12.4696 14.8312H18.0669C17.445 10.5366 13.9311 7.68359 9.23558 7.68359C3.85593 7.68359 0 11.2273 0 16.2126C0 21.1979 3.85593 24.8317 9.20448 24.8317C13.9 24.8317 17.4761 21.8886 18.1291 17.504H12.4696C12.0031 18.9155 10.7282 19.8465 9.20448 19.8465Z" fill="white"/>
<path d="M48.1445 7.6582C48.0201 7.6582 47.8646 7.6582 47.7403 7.6582C47.647 7.6582 47.5848 7.6582 47.4915 7.6582C47.3982 7.6582 47.336 7.6582 47.2427 7.6582C47.1183 7.6582 46.9628 7.6582 46.8385 7.6582H47.3049C42.2673 7.83839 38.6602 11.4122 38.6602 16.2173C38.6602 21.1425 42.5161 24.8063 47.7403 24.8063C51.9382 24.8063 55.2966 22.4939 56.4783 18.83H50.7566C50.1969 19.761 49.0774 20.3316 47.7403 20.3316C45.9367 20.3316 44.6928 19.3706 44.3197 17.5387H56.7271C56.7893 17.0281 56.8514 16.5476 56.8514 16.0671C56.8203 11.4722 53.3065 7.83839 48.1445 7.6582ZM44.413 14.4754C44.8794 12.8837 46.03 11.9828 47.7092 11.9828C49.4505 11.9828 50.6322 12.8537 51.1608 14.4754H44.413Z" fill="white"/>
<path d="M68.3846 8.16557H67.0786C65.9902 8.16557 64.2177 8.58602 63.1293 9.90741C62.7562 9.06652 62.3208 8.31573 61.8544 7.625H53.7383C53.9249 7.74513 54.1425 7.86525 54.3291 7.98538C57.1278 9.84735 58.6515 12.7304 58.8692 16.5444V24.2626H64.622V16.094C64.622 16.094 64.311 13.1809 67.5139 13.1809H72.8003C72.3649 11.8595 71.1833 9.24671 68.3846 8.16557Z" fill="white"/>
<path d="M33.4644 8.43892C32.5626 7.89835 31.1633 7.32775 29.3286 7.32775C26.6233 7.32775 24.8819 8.55905 24.2599 9.09962C22.7984 5.97632 20.5595 3.93416 18.5693 2.67283C15.0555 0.420444 11.6349 0.0300318 11.2617 0V5.61594C12.1635 5.79613 13.9049 6.27664 15.5841 7.38781C18.5071 9.33988 20.0309 12.4031 20.1552 16.4874L20.1863 24.2657H25.908V14.3852C25.908 13.0638 27.0275 11.9827 28.3957 11.9827C29.764 11.9827 30.9456 13.0638 30.9456 14.3852L30.9145 24.2657H36.6673V14.5954C36.6362 11.7124 35.4546 9.52007 33.4644 8.43892Z" fill="white"/>
<path d="M101.841 7.6582L98.5447 16.5476L94.9997 7.6582L88.625 7.68823L95.6527 22.4639C94.8753 24.476 94.2223 25.0166 92.0145 25.0166H90.4286V29.7916H92.3876C96.71 29.7916 98.7624 28.0197 101.001 23.0645L107.998 7.6582H101.841Z" fill="white"/>
<path d="M84.7948 8.16557H84.546H83.4887C82.4003 8.16557 80.6279 8.58602 79.5395 9.90741C79.1663 9.06652 78.731 8.31573 78.2646 7.625H70.1484C70.335 7.74513 70.5527 7.86525 70.7393 7.98538C73.5379 9.84735 75.0616 12.7304 75.2793 16.5444V24.2626H81.0321V16.094C81.0321 16.094 80.7211 13.1809 83.9241 13.1809H84.546H89.2104H89.397L87.0648 8.16557H84.7948Z" fill="white"/>
</svg>
