<svg width="375" height="301" viewBox="0 0 375 301" fill="none" xmlns="http://www.w3.org/2000/svg">
<rect width="375" height="301" fill="white"/>
<rect x="75" y="203" width="33" height="28" fill="#27354F"/>
<rect x="165" y="147" width="33" height="84" fill="#27354F"/>
<rect x="263" y="63" width="33" height="168" fill="#2B35F3"/>
<path d="M54 231L308 231" stroke="black"/>
<path d="M83.1932 183.4V181.336H87.0492V193H84.7452V183.4H83.1932ZM96.2061 193L93.7901 189.24L91.5981 193H89.0701L92.5901 187.368L89.0221 181.832H91.5981L94.0141 185.576L96.1901 181.832H98.7181L95.2141 187.448L98.7821 193H96.2061Z" fill="#797979"/>
<path d="M71.4714 243.692C71.7754 243.74 72.0514 243.864 72.2994 244.064C72.5554 244.264 72.7554 244.512 72.8994 244.808C73.0514 245.104 73.1274 245.42 73.1274 245.756C73.1274 246.18 73.0194 246.564 72.8034 246.908C72.5874 247.244 72.2714 247.512 71.8554 247.712C71.4474 247.904 70.9634 248 70.4034 248H67.2834V239.636H70.2834C70.8514 239.636 71.3354 239.732 71.7354 239.924C72.1354 240.108 72.4354 240.36 72.6354 240.68C72.8354 241 72.9354 241.36 72.9354 241.76C72.9354 242.256 72.7994 242.668 72.5274 242.996C72.2634 243.316 71.9114 243.548 71.4714 243.692ZM68.3754 243.248H70.2114C70.7234 243.248 71.1194 243.128 71.3994 242.888C71.6794 242.648 71.8194 242.316 71.8194 241.892C71.8194 241.468 71.6794 241.136 71.3994 240.896C71.1194 240.656 70.7154 240.536 70.1874 240.536H68.3754V243.248ZM70.3074 247.1C70.8514 247.1 71.2754 246.972 71.5794 246.716C71.8834 246.46 72.0354 246.104 72.0354 245.648C72.0354 245.184 71.8754 244.82 71.5554 244.556C71.2354 244.284 70.8074 244.148 70.2714 244.148H68.3754V247.1H70.3074ZM75.7348 242.492C75.9268 242.116 76.1988 241.824 76.5508 241.616C76.9108 241.408 77.3468 241.304 77.8588 241.304V242.432H77.5708C76.3468 242.432 75.7348 243.096 75.7348 244.424V248H74.6428V241.424H75.7348V242.492ZM78.7113 244.688C78.7113 244.016 78.8473 243.428 79.1193 242.924C79.3913 242.412 79.7633 242.016 80.2353 241.736C80.7153 241.456 81.2473 241.316 81.8313 241.316C82.4073 241.316 82.9073 241.44 83.3313 241.688C83.7553 241.936 84.0713 242.248 84.2793 242.624V241.424H85.3833V248H84.2793V246.776C84.0633 247.16 83.7393 247.48 83.3073 247.736C82.8833 247.984 82.3873 248.108 81.8193 248.108C81.2353 248.108 80.7073 247.964 80.2353 247.676C79.7633 247.388 79.3913 246.984 79.1193 246.464C78.8473 245.944 78.7113 245.352 78.7113 244.688ZM84.2793 244.7C84.2793 244.204 84.1793 243.772 83.9793 243.404C83.7793 243.036 83.5073 242.756 83.1633 242.564C82.8273 242.364 82.4553 242.264 82.0473 242.264C81.6393 242.264 81.2673 242.36 80.9313 242.552C80.5953 242.744 80.3273 243.024 80.1273 243.392C79.9273 243.76 79.8273 244.192 79.8273 244.688C79.8273 245.192 79.9273 245.632 80.1273 246.008C80.3273 246.376 80.5953 246.66 80.9313 246.86C81.2673 247.052 81.6393 247.148 82.0473 247.148C82.4553 247.148 82.8273 247.052 83.1633 246.86C83.5073 246.66 83.7793 246.376 83.9793 246.008C84.1793 245.632 84.2793 245.196 84.2793 244.7ZM90.4327 241.304C91.2327 241.304 91.8807 241.548 92.3767 242.036C92.8727 242.516 93.1207 243.212 93.1207 244.124V248H92.0407V244.28C92.0407 243.624 91.8767 243.124 91.5487 242.78C91.2207 242.428 90.7727 242.252 90.2047 242.252C89.6287 242.252 89.1687 242.432 88.8247 242.792C88.4887 243.152 88.3207 243.676 88.3207 244.364V248H87.2287V241.424H88.3207V242.36C88.5367 242.024 88.8287 241.764 89.1967 241.58C89.5727 241.396 89.9847 241.304 90.4327 241.304ZM94.4965 244.688C94.4965 244.016 94.6325 243.428 94.9045 242.924C95.1765 242.412 95.5485 242.016 96.0205 241.736C96.5005 241.456 97.0365 241.316 97.6285 241.316C98.1405 241.316 98.6165 241.436 99.0565 241.676C99.4965 241.908 99.8325 242.216 100.064 242.6V239.12H101.168V248H100.064V246.764C99.8485 247.156 99.5285 247.48 99.1045 247.736C98.6805 247.984 98.1845 248.108 97.6165 248.108C97.0325 248.108 96.5005 247.964 96.0205 247.676C95.5485 247.388 95.1765 246.984 94.9045 246.464C94.6325 245.944 94.4965 245.352 94.4965 244.688ZM100.064 244.7C100.064 244.204 99.9645 243.772 99.7645 243.404C99.5645 243.036 99.2925 242.756 98.9485 242.564C98.6125 242.364 98.2405 242.264 97.8325 242.264C97.4245 242.264 97.0525 242.36 96.7165 242.552C96.3805 242.744 96.1125 243.024 95.9125 243.392C95.7125 243.76 95.6125 244.192 95.6125 244.688C95.6125 245.192 95.7125 245.632 95.9125 246.008C96.1125 246.376 96.3805 246.66 96.7165 246.86C97.0525 247.052 97.4245 247.148 97.8325 247.148C98.2405 247.148 98.6125 247.052 98.9485 246.86C99.2925 246.66 99.5645 246.376 99.7645 246.008C99.9645 245.632 100.064 245.196 100.064 244.7ZM109.014 244.46C109.014 244.668 109.002 244.888 108.978 245.12H103.722C103.762 245.768 103.982 246.276 104.382 246.644C104.79 247.004 105.282 247.184 105.858 247.184C106.33 247.184 106.722 247.076 107.034 246.86C107.354 246.636 107.578 246.34 107.706 245.972H108.882C108.706 246.604 108.354 247.12 107.826 247.52C107.298 247.912 106.642 248.108 105.858 248.108C105.234 248.108 104.674 247.968 104.178 247.688C103.69 247.408 103.306 247.012 103.026 246.5C102.746 245.98 102.606 245.38 102.606 244.7C102.606 244.02 102.742 243.424 103.014 242.912C103.286 242.4 103.666 242.008 104.154 241.736C104.65 241.456 105.218 241.316 105.858 241.316C106.482 241.316 107.034 241.452 107.514 241.724C107.994 241.996 108.362 242.372 108.618 242.852C108.882 243.324 109.014 243.86 109.014 244.46ZM107.886 244.232C107.886 243.816 107.794 243.46 107.61 243.164C107.426 242.86 107.174 242.632 106.854 242.48C106.542 242.32 106.194 242.24 105.81 242.24C105.258 242.24 104.786 242.416 104.394 242.768C104.01 243.12 103.79 243.608 103.734 244.232H107.886ZM110.047 244.688C110.047 244.016 110.183 243.428 110.455 242.924C110.727 242.412 111.099 242.016 111.571 241.736C112.051 241.456 112.587 241.316 113.179 241.316C113.691 241.316 114.167 241.436 114.607 241.676C115.047 241.908 115.383 242.216 115.615 242.6V239.12H116.719V248H115.615V246.764C115.399 247.156 115.079 247.48 114.655 247.736C114.231 247.984 113.735 248.108 113.167 248.108C112.583 248.108 112.051 247.964 111.571 247.676C111.099 247.388 110.727 246.984 110.455 246.464C110.183 245.944 110.047 245.352 110.047 244.688ZM115.615 244.7C115.615 244.204 115.515 243.772 115.315 243.404C115.115 243.036 114.843 242.756 114.499 242.564C114.163 242.364 113.791 242.264 113.383 242.264C112.975 242.264 112.603 242.36 112.267 242.552C111.931 242.744 111.663 243.024 111.463 243.392C111.263 243.76 111.163 244.192 111.163 244.688C111.163 245.192 111.263 245.632 111.463 246.008C111.663 246.376 111.931 246.66 112.267 246.86C112.603 247.052 112.975 247.148 113.383 247.148C113.791 247.148 114.163 247.052 114.499 246.86C114.843 246.66 115.115 246.376 115.315 246.008C115.515 245.632 115.615 245.196 115.615 244.7ZM69.266 256.7C69.266 256.02 69.402 255.428 69.674 254.924C69.946 254.412 70.322 254.016 70.802 253.736C71.29 253.456 71.846 253.316 72.47 253.316C73.278 253.316 73.942 253.512 74.462 253.904C74.99 254.296 75.338 254.84 75.506 255.536H74.33C74.218 255.136 73.998 254.82 73.67 254.588C73.35 254.356 72.95 254.24 72.47 254.24C71.846 254.24 71.342 254.456 70.958 254.888C70.574 255.312 70.382 255.916 70.382 256.7C70.382 257.492 70.574 258.104 70.958 258.536C71.342 258.968 71.846 259.184 72.47 259.184C72.95 259.184 73.35 259.072 73.67 258.848C73.99 258.624 74.21 258.304 74.33 257.888H75.506C75.33 258.56 74.978 259.1 74.45 259.508C73.922 259.908 73.262 260.108 72.47 260.108C71.846 260.108 71.29 259.968 70.802 259.688C70.322 259.408 69.946 259.012 69.674 258.5C69.402 257.988 69.266 257.388 69.266 256.7ZM79.8311 260.108C79.2151 260.108 78.6551 259.968 78.1511 259.688C77.6551 259.408 77.2631 259.012 76.9751 258.5C76.6951 257.98 76.5551 257.38 76.5551 256.7C76.5551 256.028 76.6991 255.436 76.9871 254.924C77.2831 254.404 77.6831 254.008 78.1871 253.736C78.6911 253.456 79.2551 253.316 79.8791 253.316C80.5031 253.316 81.0671 253.456 81.5711 253.736C82.0751 254.008 82.4711 254.4 82.7591 254.912C83.0551 255.424 83.2031 256.02 83.2031 256.7C83.2031 257.38 83.0511 257.98 82.7471 258.5C82.4511 259.012 82.0471 259.408 81.5351 259.688C81.0231 259.968 80.4551 260.108 79.8311 260.108ZM79.8311 259.148C80.2231 259.148 80.5911 259.056 80.9351 258.872C81.2791 258.688 81.5551 258.412 81.7631 258.044C81.9791 257.676 82.0871 257.228 82.0871 256.7C82.0871 256.172 81.9831 255.724 81.7751 255.356C81.5671 254.988 81.2951 254.716 80.9591 254.54C80.6231 254.356 80.2591 254.264 79.8671 254.264C79.4671 254.264 79.0991 254.356 78.7631 254.54C78.4351 254.716 78.1711 254.988 77.9711 255.356C77.7711 255.724 77.6711 256.172 77.6711 256.7C77.6711 257.236 77.7671 257.688 77.9591 258.056C78.1591 258.424 78.4231 258.7 78.7511 258.884C79.0791 259.06 79.4391 259.148 79.8311 259.148ZM87.8428 253.304C88.6428 253.304 89.2908 253.548 89.7868 254.036C90.2828 254.516 90.5308 255.212 90.5308 256.124V260H89.4508V256.28C89.4508 255.624 89.2868 255.124 88.9588 254.78C88.6308 254.428 88.1828 254.252 87.6148 254.252C87.0388 254.252 86.5788 254.432 86.2348 254.792C85.8988 255.152 85.7308 255.676 85.7308 256.364V260H84.6388V253.424H85.7308V254.36C85.9468 254.024 86.2388 253.764 86.6068 253.58C86.9828 253.396 87.3948 253.304 87.8428 253.304ZM93.6466 254.324V258.2C93.6466 258.52 93.7146 258.748 93.8506 258.884C93.9866 259.012 94.2226 259.076 94.5586 259.076H95.3626V260H94.3786C93.7706 260 93.3146 259.86 93.0106 259.58C92.7066 259.3 92.5546 258.84 92.5546 258.2V254.324H91.7026V253.424H92.5546V251.768H93.6466V253.424H95.3626V254.324H93.6466ZM102.686 256.46C102.686 256.668 102.674 256.888 102.65 257.12H97.3937C97.4337 257.768 97.6537 258.276 98.0537 258.644C98.4617 259.004 98.9537 259.184 99.5297 259.184C100.002 259.184 100.394 259.076 100.706 258.86C101.026 258.636 101.25 258.34 101.378 257.972H102.554C102.378 258.604 102.026 259.12 101.498 259.52C100.97 259.912 100.314 260.108 99.5297 260.108C98.9057 260.108 98.3457 259.968 97.8497 259.688C97.3617 259.408 96.9777 259.012 96.6977 258.5C96.4177 257.98 96.2777 257.38 96.2777 256.7C96.2777 256.02 96.4137 255.424 96.6857 254.912C96.9577 254.4 97.3377 254.008 97.8257 253.736C98.3217 253.456 98.8897 253.316 99.5297 253.316C100.154 253.316 100.706 253.452 101.186 253.724C101.666 253.996 102.034 254.372 102.29 254.852C102.554 255.324 102.686 255.86 102.686 256.46ZM101.558 256.232C101.558 255.816 101.466 255.46 101.282 255.164C101.098 254.86 100.846 254.632 100.526 254.48C100.214 254.32 99.8657 254.24 99.4817 254.24C98.9297 254.24 98.4577 254.416 98.0657 254.768C97.6817 255.12 97.4617 255.608 97.4057 256.232H101.558ZM107.331 253.304C108.131 253.304 108.779 253.548 109.275 254.036C109.771 254.516 110.019 255.212 110.019 256.124V260H108.939V256.28C108.939 255.624 108.775 255.124 108.447 254.78C108.119 254.428 107.671 254.252 107.103 254.252C106.527 254.252 106.067 254.432 105.723 254.792C105.387 255.152 105.219 255.676 105.219 256.364V260H104.127V253.424H105.219V254.36C105.435 254.024 105.727 253.764 106.095 253.58C106.471 253.396 106.883 253.304 107.331 253.304ZM113.135 254.324V258.2C113.135 258.52 113.203 258.748 113.339 258.884C113.475 259.012 113.711 259.076 114.047 259.076H114.851V260H113.867C113.259 260 112.803 259.86 112.499 259.58C112.195 259.3 112.043 258.84 112.043 258.2V254.324H111.191V253.424H112.043V251.768H113.135V253.424H114.851V254.324H113.135Z" fill="#797979"/>
<path d="M154.25 239.636V248H153.158V239.636H154.25ZM159.316 241.304C160.116 241.304 160.764 241.548 161.26 242.036C161.756 242.516 162.004 243.212 162.004 244.124V248H160.924V244.28C160.924 243.624 160.76 243.124 160.432 242.78C160.104 242.428 159.656 242.252 159.088 242.252C158.512 242.252 158.052 242.432 157.708 242.792C157.372 243.152 157.204 243.676 157.204 244.364V248H156.112V241.424H157.204V242.36C157.42 242.024 157.712 241.764 158.08 241.58C158.456 241.396 158.868 241.304 159.316 241.304ZM166.463 242.324H165.083V248H163.991V242.324H163.139V241.424H163.991V240.956C163.991 240.22 164.179 239.684 164.555 239.348C164.939 239.004 165.551 238.832 166.391 238.832V239.744C165.911 239.744 165.571 239.84 165.371 240.032C165.179 240.216 165.083 240.524 165.083 240.956V241.424H166.463V242.324ZM168.829 239.12V248H167.737V239.12H168.829ZM176.522 241.424V248H175.43V247.028C175.222 247.364 174.93 247.628 174.554 247.82C174.186 248.004 173.778 248.096 173.33 248.096C172.818 248.096 172.358 247.992 171.95 247.784C171.542 247.568 171.218 247.248 170.978 246.824C170.746 246.4 170.63 245.884 170.63 245.276V241.424H171.71V245.132C171.71 245.78 171.874 246.28 172.202 246.632C172.53 246.976 172.978 247.148 173.546 247.148C174.13 247.148 174.59 246.968 174.926 246.608C175.262 246.248 175.43 245.724 175.43 245.036V241.424H176.522ZM184.365 244.46C184.365 244.668 184.353 244.888 184.329 245.12H179.073C179.113 245.768 179.333 246.276 179.733 246.644C180.141 247.004 180.633 247.184 181.209 247.184C181.681 247.184 182.073 247.076 182.385 246.86C182.705 246.636 182.929 246.34 183.057 245.972H184.233C184.057 246.604 183.705 247.12 183.177 247.52C182.649 247.912 181.993 248.108 181.209 248.108C180.585 248.108 180.025 247.968 179.529 247.688C179.041 247.408 178.657 247.012 178.377 246.5C178.097 245.98 177.957 245.38 177.957 244.7C177.957 244.02 178.093 243.424 178.365 242.912C178.637 242.4 179.017 242.008 179.505 241.736C180.001 241.456 180.569 241.316 181.209 241.316C181.833 241.316 182.385 241.452 182.865 241.724C183.345 241.996 183.713 242.372 183.969 242.852C184.233 243.324 184.365 243.86 184.365 244.46ZM183.237 244.232C183.237 243.816 183.145 243.46 182.961 243.164C182.777 242.86 182.525 242.632 182.205 242.48C181.893 242.32 181.545 242.24 181.161 242.24C180.609 242.24 180.137 242.416 179.745 242.768C179.361 243.12 179.141 243.608 179.085 244.232H183.237ZM189.011 241.304C189.811 241.304 190.459 241.548 190.955 242.036C191.451 242.516 191.699 243.212 191.699 244.124V248H190.619V244.28C190.619 243.624 190.455 243.124 190.127 242.78C189.799 242.428 189.351 242.252 188.783 242.252C188.207 242.252 187.747 242.432 187.403 242.792C187.067 243.152 186.899 243.676 186.899 244.364V248H185.807V241.424H186.899V242.36C187.115 242.024 187.407 241.764 187.775 241.58C188.151 241.396 188.563 241.304 189.011 241.304ZM193.075 244.7C193.075 244.02 193.211 243.428 193.483 242.924C193.755 242.412 194.131 242.016 194.611 241.736C195.099 241.456 195.655 241.316 196.279 241.316C197.087 241.316 197.751 241.512 198.271 241.904C198.799 242.296 199.147 242.84 199.315 243.536H198.139C198.027 243.136 197.807 242.82 197.479 242.588C197.159 242.356 196.759 242.24 196.279 242.24C195.655 242.24 195.151 242.456 194.767 242.888C194.383 243.312 194.191 243.916 194.191 244.7C194.191 245.492 194.383 246.104 194.767 246.536C195.151 246.968 195.655 247.184 196.279 247.184C196.759 247.184 197.159 247.072 197.479 246.848C197.799 246.624 198.019 246.304 198.139 245.888H199.315C199.139 246.56 198.787 247.1 198.259 247.508C197.731 247.908 197.071 248.108 196.279 248.108C195.655 248.108 195.099 247.968 194.611 247.688C194.131 247.408 193.755 247.012 193.483 246.5C193.211 245.988 193.075 245.388 193.075 244.7ZM206.772 244.46C206.772 244.668 206.76 244.888 206.736 245.12H201.48C201.52 245.768 201.74 246.276 202.14 246.644C202.548 247.004 203.04 247.184 203.616 247.184C204.088 247.184 204.48 247.076 204.792 246.86C205.112 246.636 205.336 246.34 205.464 245.972H206.64C206.464 246.604 206.112 247.12 205.584 247.52C205.056 247.912 204.4 248.108 203.616 248.108C202.992 248.108 202.432 247.968 201.936 247.688C201.448 247.408 201.064 247.012 200.784 246.5C200.504 245.98 200.364 245.38 200.364 244.7C200.364 244.02 200.5 243.424 200.772 242.912C201.044 242.4 201.424 242.008 201.912 241.736C202.408 241.456 202.976 241.316 203.616 241.316C204.24 241.316 204.792 241.452 205.272 241.724C205.752 241.996 206.12 242.372 206.376 242.852C206.64 243.324 206.772 243.86 206.772 244.46ZM205.644 244.232C205.644 243.816 205.552 243.46 205.368 243.164C205.184 242.86 204.932 242.632 204.612 242.48C204.3 242.32 203.952 242.24 203.568 242.24C203.016 242.24 202.544 242.416 202.152 242.768C201.768 243.12 201.548 243.608 201.492 244.232H205.644ZM209.305 242.492C209.497 242.116 209.769 241.824 210.121 241.616C210.481 241.408 210.917 241.304 211.429 241.304V242.432H211.141C209.917 242.432 209.305 243.096 209.305 244.424V248H208.213V241.424H209.305V242.492ZM159.266 256.7C159.266 256.02 159.402 255.428 159.674 254.924C159.946 254.412 160.322 254.016 160.802 253.736C161.29 253.456 161.846 253.316 162.47 253.316C163.278 253.316 163.942 253.512 164.462 253.904C164.99 254.296 165.338 254.84 165.506 255.536H164.33C164.218 255.136 163.998 254.82 163.67 254.588C163.35 254.356 162.95 254.24 162.47 254.24C161.846 254.24 161.342 254.456 160.958 254.888C160.574 255.312 160.382 255.916 160.382 256.7C160.382 257.492 160.574 258.104 160.958 258.536C161.342 258.968 161.846 259.184 162.47 259.184C162.95 259.184 163.35 259.072 163.67 258.848C163.99 258.624 164.21 258.304 164.33 257.888H165.506C165.33 258.56 164.978 259.1 164.45 259.508C163.922 259.908 163.262 260.108 162.47 260.108C161.846 260.108 161.29 259.968 160.802 259.688C160.322 259.408 159.946 259.012 159.674 258.5C159.402 257.988 159.266 257.388 159.266 256.7ZM169.831 260.108C169.215 260.108 168.655 259.968 168.151 259.688C167.655 259.408 167.263 259.012 166.975 258.5C166.695 257.98 166.555 257.38 166.555 256.7C166.555 256.028 166.699 255.436 166.987 254.924C167.283 254.404 167.683 254.008 168.187 253.736C168.691 253.456 169.255 253.316 169.879 253.316C170.503 253.316 171.067 253.456 171.571 253.736C172.075 254.008 172.471 254.4 172.759 254.912C173.055 255.424 173.203 256.02 173.203 256.7C173.203 257.38 173.051 257.98 172.747 258.5C172.451 259.012 172.047 259.408 171.535 259.688C171.023 259.968 170.455 260.108 169.831 260.108ZM169.831 259.148C170.223 259.148 170.591 259.056 170.935 258.872C171.279 258.688 171.555 258.412 171.763 258.044C171.979 257.676 172.087 257.228 172.087 256.7C172.087 256.172 171.983 255.724 171.775 255.356C171.567 254.988 171.295 254.716 170.959 254.54C170.623 254.356 170.259 254.264 169.867 254.264C169.467 254.264 169.099 254.356 168.763 254.54C168.435 254.716 168.171 254.988 167.971 255.356C167.771 255.724 167.671 256.172 167.671 256.7C167.671 257.236 167.767 257.688 167.959 258.056C168.159 258.424 168.423 258.7 168.751 258.884C169.079 259.06 169.439 259.148 169.831 259.148ZM177.843 253.304C178.643 253.304 179.291 253.548 179.787 254.036C180.283 254.516 180.531 255.212 180.531 256.124V260H179.451V256.28C179.451 255.624 179.287 255.124 178.959 254.78C178.631 254.428 178.183 254.252 177.615 254.252C177.039 254.252 176.579 254.432 176.235 254.792C175.899 255.152 175.731 255.676 175.731 256.364V260H174.639V253.424H175.731V254.36C175.947 254.024 176.239 253.764 176.607 253.58C176.983 253.396 177.395 253.304 177.843 253.304ZM183.647 254.324V258.2C183.647 258.52 183.715 258.748 183.851 258.884C183.987 259.012 184.223 259.076 184.559 259.076H185.363V260H184.379C183.771 260 183.315 259.86 183.011 259.58C182.707 259.3 182.555 258.84 182.555 258.2V254.324H181.703V253.424H182.555V251.768H183.647V253.424H185.363V254.324H183.647ZM192.686 256.46C192.686 256.668 192.674 256.888 192.65 257.12H187.394C187.434 257.768 187.654 258.276 188.054 258.644C188.462 259.004 188.954 259.184 189.53 259.184C190.002 259.184 190.394 259.076 190.706 258.86C191.026 258.636 191.25 258.34 191.378 257.972H192.554C192.378 258.604 192.026 259.12 191.498 259.52C190.97 259.912 190.314 260.108 189.53 260.108C188.906 260.108 188.346 259.968 187.85 259.688C187.362 259.408 186.978 259.012 186.698 258.5C186.418 257.98 186.278 257.38 186.278 256.7C186.278 256.02 186.414 255.424 186.686 254.912C186.958 254.4 187.338 254.008 187.826 253.736C188.322 253.456 188.89 253.316 189.53 253.316C190.154 253.316 190.706 253.452 191.186 253.724C191.666 253.996 192.034 254.372 192.29 254.852C192.554 255.324 192.686 255.86 192.686 256.46ZM191.558 256.232C191.558 255.816 191.466 255.46 191.282 255.164C191.098 254.86 190.846 254.632 190.526 254.48C190.214 254.32 189.866 254.24 189.482 254.24C188.93 254.24 188.458 254.416 188.066 254.768C187.682 255.12 187.462 255.608 187.406 256.232H191.558ZM197.331 253.304C198.131 253.304 198.779 253.548 199.275 254.036C199.771 254.516 200.019 255.212 200.019 256.124V260H198.939V256.28C198.939 255.624 198.775 255.124 198.447 254.78C198.119 254.428 197.671 254.252 197.103 254.252C196.527 254.252 196.067 254.432 195.723 254.792C195.387 255.152 195.219 255.676 195.219 256.364V260H194.127V253.424H195.219V254.36C195.435 254.024 195.727 253.764 196.095 253.58C196.471 253.396 196.883 253.304 197.331 253.304ZM203.135 254.324V258.2C203.135 258.52 203.203 258.748 203.339 258.884C203.475 259.012 203.711 259.076 204.047 259.076H204.851V260H203.867C203.259 260 202.803 259.86 202.499 259.58C202.195 259.3 202.043 258.84 202.043 258.2V254.324H201.191V253.424H202.043V251.768H203.135V253.424H204.851V254.324H203.135Z" fill="#797979"/>
<path d="M235.047 239.636V244.928C235.047 245.672 235.227 246.224 235.587 246.584C235.955 246.944 236.463 247.124 237.111 247.124C237.751 247.124 238.251 246.944 238.611 246.584C238.979 246.224 239.163 245.672 239.163 244.928V239.636H240.255V244.916C240.255 245.612 240.115 246.2 239.835 246.68C239.555 247.152 239.175 247.504 238.695 247.736C238.223 247.968 237.691 248.084 237.099 248.084C236.507 248.084 235.971 247.968 235.491 247.736C235.019 247.504 234.643 247.152 234.363 246.68C234.091 246.2 233.955 245.612 233.955 244.916V239.636H235.047ZM244.404 248.108C243.9 248.108 243.448 248.024 243.048 247.856C242.648 247.68 242.332 247.44 242.1 247.136C241.868 246.824 241.74 246.468 241.716 246.068H242.844C242.876 246.396 243.028 246.664 243.3 246.872C243.58 247.08 243.944 247.184 244.392 247.184C244.808 247.184 245.136 247.092 245.376 246.908C245.616 246.724 245.736 246.492 245.736 246.212C245.736 245.924 245.608 245.712 245.352 245.576C245.096 245.432 244.7 245.292 244.164 245.156C243.676 245.028 243.276 244.9 242.964 244.772C242.66 244.636 242.396 244.44 242.172 244.184C241.956 243.92 241.848 243.576 241.848 243.152C241.848 242.816 241.948 242.508 242.148 242.228C242.348 241.948 242.632 241.728 243 241.568C243.368 241.4 243.788 241.316 244.26 241.316C244.988 241.316 245.576 241.5 246.024 241.868C246.472 242.236 246.712 242.74 246.744 243.38H245.652C245.628 243.036 245.488 242.76 245.232 242.552C244.984 242.344 244.648 242.24 244.224 242.24C243.832 242.24 243.52 242.324 243.288 242.492C243.056 242.66 242.94 242.88 242.94 243.152C242.94 243.368 243.008 243.548 243.144 243.692C243.288 243.828 243.464 243.94 243.672 244.028C243.888 244.108 244.184 244.2 244.56 244.304C245.032 244.432 245.416 244.56 245.712 244.688C246.008 244.808 246.26 244.992 246.468 245.24C246.684 245.488 246.796 245.812 246.804 246.212C246.804 246.572 246.704 246.896 246.504 247.184C246.304 247.472 246.02 247.7 245.652 247.868C245.292 248.028 244.876 248.108 244.404 248.108ZM254.346 244.46C254.346 244.668 254.334 244.888 254.31 245.12H249.054C249.094 245.768 249.314 246.276 249.714 246.644C250.122 247.004 250.614 247.184 251.19 247.184C251.662 247.184 252.054 247.076 252.366 246.86C252.686 246.636 252.91 246.34 253.038 245.972H254.214C254.038 246.604 253.686 247.12 253.158 247.52C252.63 247.912 251.974 248.108 251.19 248.108C250.566 248.108 250.006 247.968 249.51 247.688C249.022 247.408 248.638 247.012 248.358 246.5C248.078 245.98 247.938 245.38 247.938 244.7C247.938 244.02 248.074 243.424 248.346 242.912C248.618 242.4 248.998 242.008 249.486 241.736C249.982 241.456 250.55 241.316 251.19 241.316C251.814 241.316 252.366 241.452 252.846 241.724C253.326 241.996 253.694 242.372 253.95 242.852C254.214 243.324 254.346 243.86 254.346 244.46ZM253.218 244.232C253.218 243.816 253.126 243.46 252.942 243.164C252.758 242.86 252.506 242.632 252.186 242.48C251.874 242.32 251.526 242.24 251.142 242.24C250.59 242.24 250.118 242.416 249.726 242.768C249.342 243.12 249.122 243.608 249.066 244.232H253.218ZM256.879 242.492C257.071 242.116 257.343 241.824 257.695 241.616C258.055 241.408 258.491 241.304 259.003 241.304V242.432H258.715C257.491 242.432 256.879 243.096 256.879 244.424V248H255.787V241.424H256.879V242.492ZM269.799 242.06C269.567 241.572 269.231 241.196 268.791 240.932C268.351 240.66 267.839 240.524 267.255 240.524C266.671 240.524 266.143 240.66 265.671 240.932C265.207 241.196 264.839 241.58 264.567 242.084C264.303 242.58 264.171 243.156 264.171 243.812C264.171 244.468 264.303 245.044 264.567 245.54C264.839 246.036 265.207 246.42 265.671 246.692C266.143 246.956 266.671 247.088 267.255 247.088C268.071 247.088 268.743 246.844 269.271 246.356C269.799 245.868 270.107 245.208 270.195 244.376H266.859V243.488H271.359V244.328C271.295 245.016 271.079 245.648 270.711 246.224C270.343 246.792 269.859 247.244 269.259 247.58C268.659 247.908 267.991 248.072 267.255 248.072C266.479 248.072 265.771 247.892 265.131 247.532C264.491 247.164 263.983 246.656 263.607 246.008C263.239 245.36 263.055 244.628 263.055 243.812C263.055 242.996 263.239 242.264 263.607 241.616C263.983 240.96 264.491 240.452 265.131 240.092C265.771 239.724 266.479 239.54 267.255 239.54C268.143 239.54 268.927 239.76 269.607 240.2C270.295 240.64 270.795 241.26 271.107 242.06H269.799ZM278.803 244.46C278.803 244.668 278.791 244.888 278.767 245.12H273.511C273.551 245.768 273.771 246.276 274.171 246.644C274.579 247.004 275.071 247.184 275.647 247.184C276.119 247.184 276.511 247.076 276.823 246.86C277.143 246.636 277.367 246.34 277.495 245.972H278.671C278.495 246.604 278.143 247.12 277.615 247.52C277.087 247.912 276.431 248.108 275.647 248.108C275.023 248.108 274.463 247.968 273.967 247.688C273.479 247.408 273.095 247.012 272.815 246.5C272.535 245.98 272.395 245.38 272.395 244.7C272.395 244.02 272.531 243.424 272.803 242.912C273.075 242.4 273.455 242.008 273.943 241.736C274.439 241.456 275.007 241.316 275.647 241.316C276.271 241.316 276.823 241.452 277.303 241.724C277.783 241.996 278.151 242.372 278.407 242.852C278.671 243.324 278.803 243.86 278.803 244.46ZM277.675 244.232C277.675 243.816 277.583 243.46 277.399 243.164C277.215 242.86 276.963 242.632 276.643 242.48C276.331 242.32 275.983 242.24 275.599 242.24C275.047 242.24 274.575 242.416 274.183 242.768C273.799 243.12 273.579 243.608 273.523 244.232H277.675ZM283.448 241.304C284.248 241.304 284.896 241.548 285.392 242.036C285.888 242.516 286.136 243.212 286.136 244.124V248H285.056V244.28C285.056 243.624 284.892 243.124 284.564 242.78C284.236 242.428 283.788 242.252 283.22 242.252C282.644 242.252 282.184 242.432 281.84 242.792C281.504 243.152 281.336 243.676 281.336 244.364V248H280.244V241.424H281.336V242.36C281.552 242.024 281.844 241.764 282.212 241.58C282.588 241.396 283 241.304 283.448 241.304ZM293.92 244.46C293.92 244.668 293.908 244.888 293.884 245.12H288.628C288.668 245.768 288.888 246.276 289.288 246.644C289.696 247.004 290.188 247.184 290.764 247.184C291.236 247.184 291.628 247.076 291.94 246.86C292.26 246.636 292.484 246.34 292.612 245.972H293.788C293.612 246.604 293.26 247.12 292.732 247.52C292.204 247.912 291.548 248.108 290.764 248.108C290.14 248.108 289.58 247.968 289.084 247.688C288.596 247.408 288.212 247.012 287.932 246.5C287.652 245.98 287.512 245.38 287.512 244.7C287.512 244.02 287.648 243.424 287.92 242.912C288.192 242.4 288.572 242.008 289.06 241.736C289.556 241.456 290.124 241.316 290.764 241.316C291.388 241.316 291.94 241.452 292.42 241.724C292.9 241.996 293.268 242.372 293.524 242.852C293.788 243.324 293.92 243.86 293.92 244.46ZM292.792 244.232C292.792 243.816 292.7 243.46 292.516 243.164C292.332 242.86 292.08 242.632 291.76 242.48C291.448 242.32 291.1 242.24 290.716 242.24C290.164 242.24 289.692 242.416 289.3 242.768C288.916 243.12 288.696 243.608 288.64 244.232H292.792ZM296.454 242.492C296.646 242.116 296.918 241.824 297.27 241.616C297.63 241.408 298.066 241.304 298.578 241.304V242.432H298.29C297.066 242.432 296.454 243.096 296.454 244.424V248H295.362V241.424H296.454V242.492ZM299.43 244.688C299.43 244.016 299.566 243.428 299.838 242.924C300.11 242.412 300.482 242.016 300.954 241.736C301.434 241.456 301.966 241.316 302.55 241.316C303.126 241.316 303.626 241.44 304.05 241.688C304.474 241.936 304.79 242.248 304.998 242.624V241.424H306.102V248H304.998V246.776C304.782 247.16 304.458 247.48 304.026 247.736C303.602 247.984 303.106 248.108 302.538 248.108C301.954 248.108 301.426 247.964 300.954 247.676C300.482 247.388 300.11 246.984 299.838 246.464C299.566 245.944 299.43 245.352 299.43 244.688ZM304.998 244.7C304.998 244.204 304.898 243.772 304.698 243.404C304.498 243.036 304.226 242.756 303.882 242.564C303.546 242.364 303.174 242.264 302.766 242.264C302.358 242.264 301.986 242.36 301.65 242.552C301.314 242.744 301.046 243.024 300.846 243.392C300.646 243.76 300.546 244.192 300.546 244.688C300.546 245.192 300.646 245.632 300.846 246.008C301.046 246.376 301.314 246.66 301.65 246.86C301.986 247.052 302.358 247.148 302.766 247.148C303.174 247.148 303.546 247.052 303.882 246.86C304.226 246.66 304.498 246.376 304.698 246.008C304.898 245.632 304.998 245.196 304.998 244.7ZM309.279 242.324V246.2C309.279 246.52 309.347 246.748 309.483 246.884C309.619 247.012 309.855 247.076 310.191 247.076H310.995V248H310.011C309.403 248 308.947 247.86 308.643 247.58C308.339 247.3 308.187 246.84 308.187 246.2V242.324H307.335V241.424H308.187V239.768H309.279V241.424H310.995V242.324H309.279ZM318.319 244.46C318.319 244.668 318.307 244.888 318.283 245.12H313.027C313.067 245.768 313.287 246.276 313.687 246.644C314.095 247.004 314.587 247.184 315.163 247.184C315.635 247.184 316.027 247.076 316.339 246.86C316.659 246.636 316.883 246.34 317.011 245.972H318.187C318.011 246.604 317.659 247.12 317.131 247.52C316.603 247.912 315.947 248.108 315.163 248.108C314.539 248.108 313.979 247.968 313.483 247.688C312.995 247.408 312.611 247.012 312.331 246.5C312.051 245.98 311.911 245.38 311.911 244.7C311.911 244.02 312.047 243.424 312.319 242.912C312.591 242.4 312.971 242.008 313.459 241.736C313.955 241.456 314.523 241.316 315.163 241.316C315.787 241.316 316.339 241.452 316.819 241.724C317.299 241.996 317.667 242.372 317.923 242.852C318.187 243.324 318.319 243.86 318.319 244.46ZM317.191 244.232C317.191 243.816 317.099 243.46 316.915 243.164C316.731 242.86 316.479 242.632 316.159 242.48C315.847 242.32 315.499 242.24 315.115 242.24C314.563 242.24 314.091 242.416 313.699 242.768C313.315 243.12 313.095 243.608 313.039 244.232H317.191ZM319.352 244.688C319.352 244.016 319.488 243.428 319.76 242.924C320.032 242.412 320.404 242.016 320.876 241.736C321.356 241.456 321.892 241.316 322.484 241.316C322.996 241.316 323.472 241.436 323.912 241.676C324.352 241.908 324.688 242.216 324.92 242.6V239.12H326.024V248H324.92V246.764C324.704 247.156 324.384 247.48 323.96 247.736C323.536 247.984 323.04 248.108 322.472 248.108C321.888 248.108 321.356 247.964 320.876 247.676C320.404 247.388 320.032 246.984 319.76 246.464C319.488 245.944 319.352 245.352 319.352 244.688ZM324.92 244.7C324.92 244.204 324.82 243.772 324.62 243.404C324.42 243.036 324.148 242.756 323.804 242.564C323.468 242.364 323.096 242.264 322.688 242.264C322.28 242.264 321.908 242.36 321.572 242.552C321.236 242.744 320.968 243.024 320.768 243.392C320.568 243.76 320.468 244.192 320.468 244.688C320.468 245.192 320.568 245.632 320.768 246.008C320.968 246.376 321.236 246.66 321.572 246.86C321.908 247.052 322.28 247.148 322.688 247.148C323.096 247.148 323.468 247.052 323.804 246.86C324.148 246.66 324.42 246.376 324.62 246.008C324.82 245.632 324.92 245.196 324.92 244.7ZM256.276 255.812C256.276 254.996 256.46 254.264 256.828 253.616C257.196 252.96 257.696 252.448 258.328 252.08C258.968 251.712 259.676 251.528 260.452 251.528C261.364 251.528 262.16 251.748 262.84 252.188C263.52 252.628 264.016 253.252 264.328 254.06H263.02C262.788 253.556 262.452 253.168 262.012 252.896C261.58 252.624 261.06 252.488 260.452 252.488C259.868 252.488 259.344 252.624 258.88 252.896C258.416 253.168 258.052 253.556 257.788 254.06C257.524 254.556 257.392 255.14 257.392 255.812C257.392 256.476 257.524 257.06 257.788 257.564C258.052 258.06 258.416 258.444 258.88 258.716C259.344 258.988 259.868 259.124 260.452 259.124C261.06 259.124 261.58 258.992 262.012 258.728C262.452 258.456 262.788 258.068 263.02 257.564H264.328C264.016 258.364 263.52 258.984 262.84 259.424C262.16 259.856 261.364 260.072 260.452 260.072C259.676 260.072 258.968 259.892 258.328 259.532C257.696 259.164 257.196 258.656 256.828 258.008C256.46 257.36 256.276 256.628 256.276 255.812ZM268.821 260.108C268.205 260.108 267.645 259.968 267.141 259.688C266.645 259.408 266.253 259.012 265.965 258.5C265.685 257.98 265.545 257.38 265.545 256.7C265.545 256.028 265.689 255.436 265.977 254.924C266.273 254.404 266.673 254.008 267.177 253.736C267.681 253.456 268.245 253.316 268.869 253.316C269.493 253.316 270.057 253.456 270.561 253.736C271.065 254.008 271.461 254.4 271.749 254.912C272.045 255.424 272.193 256.02 272.193 256.7C272.193 257.38 272.041 257.98 271.737 258.5C271.441 259.012 271.037 259.408 270.525 259.688C270.013 259.968 269.445 260.108 268.821 260.108ZM268.821 259.148C269.213 259.148 269.581 259.056 269.925 258.872C270.269 258.688 270.545 258.412 270.753 258.044C270.969 257.676 271.077 257.228 271.077 256.7C271.077 256.172 270.973 255.724 270.765 255.356C270.557 254.988 270.285 254.716 269.949 254.54C269.613 254.356 269.249 254.264 268.857 254.264C268.457 254.264 268.089 254.356 267.753 254.54C267.425 254.716 267.161 254.988 266.961 255.356C266.761 255.724 266.661 256.172 266.661 256.7C266.661 257.236 266.757 257.688 266.949 258.056C267.149 258.424 267.413 258.7 267.741 258.884C268.069 259.06 268.429 259.148 268.821 259.148ZM276.833 253.304C277.633 253.304 278.281 253.548 278.777 254.036C279.273 254.516 279.521 255.212 279.521 256.124V260H278.441V256.28C278.441 255.624 278.277 255.124 277.949 254.78C277.621 254.428 277.173 254.252 276.605 254.252C276.029 254.252 275.569 254.432 275.225 254.792C274.889 255.152 274.721 255.676 274.721 256.364V260H273.629V253.424H274.721V254.36C274.937 254.024 275.229 253.764 275.597 253.58C275.973 253.396 276.385 253.304 276.833 253.304ZM282.637 254.324V258.2C282.637 258.52 282.705 258.748 282.841 258.884C282.977 259.012 283.213 259.076 283.549 259.076H284.353V260H283.369C282.761 260 282.305 259.86 282.001 259.58C281.697 259.3 281.545 258.84 281.545 258.2V254.324H280.693V253.424H281.545V251.768H282.637V253.424H284.353V254.324H282.637ZM291.676 256.46C291.676 256.668 291.664 256.888 291.64 257.12H286.384C286.424 257.768 286.644 258.276 287.044 258.644C287.452 259.004 287.944 259.184 288.52 259.184C288.992 259.184 289.384 259.076 289.696 258.86C290.016 258.636 290.24 258.34 290.368 257.972H291.544C291.368 258.604 291.016 259.12 290.488 259.52C289.96 259.912 289.304 260.108 288.52 260.108C287.896 260.108 287.336 259.968 286.84 259.688C286.352 259.408 285.968 259.012 285.688 258.5C285.408 257.98 285.268 257.38 285.268 256.7C285.268 256.02 285.404 255.424 285.676 254.912C285.948 254.4 286.328 254.008 286.816 253.736C287.312 253.456 287.88 253.316 288.52 253.316C289.144 253.316 289.696 253.452 290.176 253.724C290.656 253.996 291.024 254.372 291.28 254.852C291.544 255.324 291.676 255.86 291.676 256.46ZM290.548 256.232C290.548 255.816 290.456 255.46 290.272 255.164C290.088 254.86 289.836 254.632 289.516 254.48C289.204 254.32 288.856 254.24 288.472 254.24C287.92 254.24 287.448 254.416 287.056 254.768C286.672 255.12 286.452 255.608 286.396 256.232H290.548ZM296.321 253.304C297.121 253.304 297.769 253.548 298.265 254.036C298.761 254.516 299.009 255.212 299.009 256.124V260H297.929V256.28C297.929 255.624 297.765 255.124 297.437 254.78C297.109 254.428 296.661 254.252 296.093 254.252C295.517 254.252 295.057 254.432 294.713 254.792C294.377 255.152 294.209 255.676 294.209 256.364V260H293.117V253.424H294.209V254.36C294.425 254.024 294.717 253.764 295.085 253.58C295.461 253.396 295.873 253.304 296.321 253.304ZM302.125 254.324V258.2C302.125 258.52 302.193 258.748 302.329 258.884C302.465 259.012 302.701 259.076 303.037 259.076H303.841V260H302.857C302.249 260 301.793 259.86 301.489 259.58C301.185 259.3 301.033 258.84 301.033 258.2V254.324H300.181V253.424H301.033V251.768H302.125V253.424H303.841V254.324H302.125Z" fill="#797979"/>
<path d="M170.979 141.728V139.968L176.211 132.48H178.819V139.776H180.227V141.728H178.819V144H176.579V141.728H170.979ZM176.723 134.88L173.443 139.776H176.723V134.88ZM188.597 144L186.181 140.24L183.989 144H181.461L184.981 138.368L181.413 132.832H183.989L186.405 136.576L188.581 132.832H191.109L187.605 138.448L191.173 144H188.597Z" fill="#797979"/>
<path d="M265.214 53.824C264.147 53.2693 263.614 52.4107 263.614 51.248C263.614 50.672 263.758 50.1493 264.046 49.68C264.345 49.2 264.787 48.8213 265.374 48.544C265.971 48.256 266.697 48.112 267.55 48.112C268.403 48.112 269.123 48.256 269.71 48.544C270.307 48.8213 270.75 49.2 271.038 49.68C271.337 50.1493 271.486 50.672 271.486 51.248C271.486 51.8347 271.342 52.352 271.054 52.8C270.766 53.2373 270.382 53.5787 269.902 53.824C270.489 54.08 270.947 54.4533 271.278 54.944C271.609 55.4347 271.774 56.016 271.774 56.688C271.774 57.4133 271.587 58.048 271.214 58.592C270.851 59.1253 270.35 59.536 269.71 59.824C269.07 60.112 268.35 60.256 267.55 60.256C266.75 60.256 266.03 60.112 265.39 59.824C264.761 59.536 264.259 59.1253 263.886 58.592C263.523 58.048 263.342 57.4133 263.342 56.688C263.342 56.016 263.507 55.4347 263.838 54.944C264.169 54.4427 264.627 54.0693 265.214 53.824ZM269.31 51.568C269.31 51.0453 269.15 50.64 268.83 50.352C268.521 50.064 268.094 49.92 267.55 49.92C267.017 49.92 266.59 50.064 266.27 50.352C265.961 50.64 265.806 51.0507 265.806 51.584C265.806 52.064 265.966 52.448 266.286 52.736C266.617 53.024 267.038 53.168 267.55 53.168C268.062 53.168 268.483 53.024 268.814 52.736C269.145 52.4373 269.31 52.048 269.31 51.568ZM267.55 54.8C266.942 54.8 266.446 54.9547 266.062 55.264C265.689 55.5733 265.502 56.016 265.502 56.592C265.502 57.1253 265.683 57.5627 266.046 57.904C266.419 58.2347 266.921 58.4 267.55 58.4C268.179 58.4 268.675 58.2293 269.038 57.888C269.401 57.5467 269.582 57.1147 269.582 56.592C269.582 56.0267 269.395 55.5893 269.022 55.28C268.649 54.96 268.158 54.8 267.55 54.8ZM274.791 60.112C274.386 60.112 274.05 59.9893 273.783 59.744C273.527 59.488 273.399 59.1733 273.399 58.8C273.399 58.4267 273.527 58.1173 273.783 57.872C274.05 57.616 274.386 57.488 274.791 57.488C275.186 57.488 275.511 57.616 275.767 57.872C276.023 58.1173 276.151 58.4267 276.151 58.8C276.151 59.1733 276.023 59.488 275.767 59.744C275.511 59.9893 275.186 60.112 274.791 60.112ZM285.124 50.032L280.868 60H278.596L282.884 50.288H277.412V48.368H285.124V50.032ZM293.409 60L290.993 56.24L288.801 60H286.273L289.793 54.368L286.225 48.832H288.801L291.217 52.576L293.393 48.832H295.921L292.417 54.448L295.985 60H293.409Z" fill="#797979"/>
<path d="M134.993 37.524V40.32H138.041V41.22H134.993V44.1H138.401V45H133.901V36.624H138.401V37.524H134.993ZM143.257 38.304C144.057 38.304 144.705 38.548 145.201 39.036C145.697 39.516 145.945 40.212 145.945 41.124V45H144.865V41.28C144.865 40.624 144.701 40.124 144.373 39.78C144.045 39.428 143.597 39.252 143.029 39.252C142.453 39.252 141.993 39.432 141.649 39.792C141.313 40.152 141.145 40.676 141.145 41.364V45H140.053V38.424H141.145V39.36C141.361 39.024 141.653 38.764 142.021 38.58C142.397 38.396 142.809 38.304 143.257 38.304ZM150.441 38.316C151.009 38.316 151.505 38.44 151.929 38.688C152.361 38.936 152.681 39.248 152.889 39.624V38.424H153.993V45.144C153.993 45.744 153.865 46.276 153.609 46.74C153.353 47.212 152.985 47.58 152.505 47.844C152.033 48.108 151.481 48.24 150.849 48.24C149.985 48.24 149.265 48.036 148.689 47.628C148.113 47.22 147.773 46.664 147.669 45.96H148.749C148.869 46.36 149.117 46.68 149.493 46.92C149.869 47.168 150.321 47.292 150.849 47.292C151.449 47.292 151.937 47.104 152.313 46.728C152.697 46.352 152.889 45.824 152.889 45.144V43.764C152.673 44.148 152.353 44.468 151.929 44.724C151.505 44.98 151.009 45.108 150.441 45.108C149.857 45.108 149.325 44.964 148.845 44.676C148.373 44.388 148.001 43.984 147.729 43.464C147.457 42.944 147.321 42.352 147.321 41.688C147.321 41.016 147.457 40.428 147.729 39.924C148.001 39.412 148.373 39.016 148.845 38.736C149.325 38.456 149.857 38.316 150.441 38.316ZM152.889 41.7C152.889 41.204 152.789 40.772 152.589 40.404C152.389 40.036 152.117 39.756 151.773 39.564C151.437 39.364 151.065 39.264 150.657 39.264C150.249 39.264 149.877 39.36 149.541 39.552C149.205 39.744 148.937 40.024 148.737 40.392C148.537 40.76 148.437 41.192 148.437 41.688C148.437 42.192 148.537 42.632 148.737 43.008C148.937 43.376 149.205 43.66 149.541 43.86C149.877 44.052 150.249 44.148 150.657 44.148C151.065 44.148 151.437 44.052 151.773 43.86C152.117 43.66 152.389 43.376 152.589 43.008C152.789 42.632 152.889 42.196 152.889 41.7ZM155.43 41.688C155.43 41.016 155.566 40.428 155.838 39.924C156.11 39.412 156.482 39.016 156.954 38.736C157.434 38.456 157.966 38.316 158.55 38.316C159.126 38.316 159.626 38.44 160.05 38.688C160.474 38.936 160.79 39.248 160.998 39.624V38.424H162.102V45H160.998V43.776C160.782 44.16 160.458 44.48 160.026 44.736C159.602 44.984 159.106 45.108 158.538 45.108C157.954 45.108 157.426 44.964 156.954 44.676C156.482 44.388 156.11 43.984 155.838 43.464C155.566 42.944 155.43 42.352 155.43 41.688ZM160.998 41.7C160.998 41.204 160.898 40.772 160.698 40.404C160.498 40.036 160.226 39.756 159.882 39.564C159.546 39.364 159.174 39.264 158.766 39.264C158.358 39.264 157.986 39.36 157.65 39.552C157.314 39.744 157.046 40.024 156.846 40.392C156.646 40.76 156.546 41.192 156.546 41.688C156.546 42.192 156.646 42.632 156.846 43.008C157.046 43.376 157.314 43.66 157.65 43.86C157.986 44.052 158.358 44.148 158.766 44.148C159.174 44.148 159.546 44.052 159.882 43.86C160.226 43.66 160.498 43.376 160.698 43.008C160.898 42.632 160.998 42.196 160.998 41.7ZM166.659 38.316C167.227 38.316 167.723 38.44 168.147 38.688C168.579 38.936 168.899 39.248 169.107 39.624V38.424H170.211V45.144C170.211 45.744 170.083 46.276 169.827 46.74C169.571 47.212 169.203 47.58 168.723 47.844C168.251 48.108 167.699 48.24 167.067 48.24C166.203 48.24 165.483 48.036 164.907 47.628C164.331 47.22 163.991 46.664 163.887 45.96H164.967C165.087 46.36 165.335 46.68 165.711 46.92C166.087 47.168 166.539 47.292 167.067 47.292C167.667 47.292 168.155 47.104 168.531 46.728C168.915 46.352 169.107 45.824 169.107 45.144V43.764C168.891 44.148 168.571 44.468 168.147 44.724C167.723 44.98 167.227 45.108 166.659 45.108C166.075 45.108 165.543 44.964 165.063 44.676C164.591 44.388 164.219 43.984 163.947 43.464C163.675 42.944 163.539 42.352 163.539 41.688C163.539 41.016 163.675 40.428 163.947 39.924C164.219 39.412 164.591 39.016 165.063 38.736C165.543 38.456 166.075 38.316 166.659 38.316ZM169.107 41.7C169.107 41.204 169.007 40.772 168.807 40.404C168.607 40.036 168.335 39.756 167.991 39.564C167.655 39.364 167.283 39.264 166.875 39.264C166.467 39.264 166.095 39.36 165.759 39.552C165.423 39.744 165.155 40.024 164.955 40.392C164.755 40.76 164.655 41.192 164.655 41.688C164.655 42.192 164.755 42.632 164.955 43.008C165.155 43.376 165.423 43.66 165.759 43.86C166.095 44.052 166.467 44.148 166.875 44.148C167.283 44.148 167.655 44.052 167.991 43.86C168.335 43.66 168.607 43.376 168.807 43.008C169.007 42.632 169.107 42.196 169.107 41.7ZM178.057 41.46C178.057 41.668 178.045 41.888 178.021 42.12H172.765C172.805 42.768 173.025 43.276 173.425 43.644C173.833 44.004 174.325 44.184 174.901 44.184C175.373 44.184 175.765 44.076 176.077 43.86C176.397 43.636 176.621 43.34 176.749 42.972H177.925C177.749 43.604 177.397 44.12 176.869 44.52C176.341 44.912 175.685 45.108 174.901 45.108C174.277 45.108 173.717 44.968 173.221 44.688C172.733 44.408 172.349 44.012 172.069 43.5C171.789 42.98 171.649 42.38 171.649 41.7C171.649 41.02 171.785 40.424 172.057 39.912C172.329 39.4 172.709 39.008 173.197 38.736C173.693 38.456 174.261 38.316 174.901 38.316C175.525 38.316 176.077 38.452 176.557 38.724C177.037 38.996 177.405 39.372 177.661 39.852C177.925 40.324 178.057 40.86 178.057 41.46ZM176.929 41.232C176.929 40.816 176.837 40.46 176.653 40.164C176.469 39.86 176.217 39.632 175.897 39.48C175.585 39.32 175.237 39.24 174.853 39.24C174.301 39.24 173.829 39.416 173.437 39.768C173.053 40.12 172.833 40.608 172.777 41.232H176.929ZM187.406 38.304C187.918 38.304 188.374 38.412 188.774 38.628C189.174 38.836 189.49 39.152 189.722 39.576C189.954 40 190.07 40.516 190.07 41.124V45H188.99V41.28C188.99 40.624 188.826 40.124 188.498 39.78C188.178 39.428 187.742 39.252 187.19 39.252C186.622 39.252 186.17 39.436 185.834 39.804C185.498 40.164 185.33 40.688 185.33 41.376V45H184.25V41.28C184.25 40.624 184.086 40.124 183.758 39.78C183.438 39.428 183.002 39.252 182.45 39.252C181.882 39.252 181.43 39.436 181.094 39.804C180.758 40.164 180.59 40.688 180.59 41.376V45H179.498V38.424H180.59V39.372C180.806 39.028 181.094 38.764 181.454 38.58C181.822 38.396 182.226 38.304 182.666 38.304C183.218 38.304 183.706 38.428 184.13 38.676C184.554 38.924 184.87 39.288 185.078 39.768C185.262 39.304 185.566 38.944 185.99 38.688C186.414 38.432 186.886 38.304 187.406 38.304ZM197.862 41.46C197.862 41.668 197.85 41.888 197.826 42.12H192.57C192.61 42.768 192.83 43.276 193.23 43.644C193.638 44.004 194.13 44.184 194.706 44.184C195.178 44.184 195.57 44.076 195.882 43.86C196.202 43.636 196.426 43.34 196.554 42.972H197.73C197.554 43.604 197.202 44.12 196.674 44.52C196.146 44.912 195.49 45.108 194.706 45.108C194.082 45.108 193.522 44.968 193.026 44.688C192.538 44.408 192.154 44.012 191.874 43.5C191.594 42.98 191.454 42.38 191.454 41.7C191.454 41.02 191.59 40.424 191.862 39.912C192.134 39.4 192.514 39.008 193.002 38.736C193.498 38.456 194.066 38.316 194.706 38.316C195.33 38.316 195.882 38.452 196.362 38.724C196.842 38.996 197.21 39.372 197.466 39.852C197.73 40.324 197.862 40.86 197.862 41.46ZM196.734 41.232C196.734 40.816 196.642 40.46 196.458 40.164C196.274 39.86 196.022 39.632 195.702 39.48C195.39 39.32 195.042 39.24 194.658 39.24C194.106 39.24 193.634 39.416 193.242 39.768C192.858 40.12 192.638 40.608 192.582 41.232H196.734ZM202.507 38.304C203.307 38.304 203.955 38.548 204.451 39.036C204.947 39.516 205.195 40.212 205.195 41.124V45H204.115V41.28C204.115 40.624 203.951 40.124 203.623 39.78C203.295 39.428 202.847 39.252 202.279 39.252C201.703 39.252 201.243 39.432 200.899 39.792C200.563 40.152 200.395 40.676 200.395 41.364V45H199.303V38.424H200.395V39.36C200.611 39.024 200.903 38.764 201.271 38.58C201.647 38.396 202.059 38.304 202.507 38.304ZM208.311 39.324V43.2C208.311 43.52 208.379 43.748 208.515 43.884C208.651 44.012 208.887 44.076 209.223 44.076H210.027V45H209.043C208.435 45 207.979 44.86 207.675 44.58C207.371 44.3 207.219 43.84 207.219 43.2V39.324H206.367V38.424H207.219V36.768H208.311V38.424H210.027V39.324H208.311ZM215.641 39.492C215.833 39.116 216.105 38.824 216.457 38.616C216.817 38.408 217.253 38.304 217.765 38.304V39.432H217.477C216.253 39.432 215.641 40.096 215.641 41.424V45H214.549V38.424H215.641V39.492ZM218.618 41.688C218.618 41.016 218.754 40.428 219.026 39.924C219.298 39.412 219.67 39.016 220.142 38.736C220.622 38.456 221.154 38.316 221.738 38.316C222.314 38.316 222.814 38.44 223.238 38.688C223.662 38.936 223.978 39.248 224.186 39.624V38.424H225.29V45H224.186V43.776C223.97 44.16 223.646 44.48 223.214 44.736C222.79 44.984 222.294 45.108 221.726 45.108C221.142 45.108 220.614 44.964 220.142 44.676C219.67 44.388 219.298 43.984 219.026 43.464C218.754 42.944 218.618 42.352 218.618 41.688ZM224.186 41.7C224.186 41.204 224.086 40.772 223.886 40.404C223.686 40.036 223.414 39.756 223.07 39.564C222.734 39.364 222.362 39.264 221.954 39.264C221.546 39.264 221.174 39.36 220.838 39.552C220.502 39.744 220.234 40.024 220.034 40.392C219.834 40.76 219.734 41.192 219.734 41.688C219.734 42.192 219.834 42.632 220.034 43.008C220.234 43.376 220.502 43.66 220.838 43.86C221.174 44.052 221.546 44.148 221.954 44.148C222.362 44.148 222.734 44.052 223.07 43.86C223.414 43.66 223.686 43.376 223.886 43.008C224.086 42.632 224.186 42.196 224.186 41.7ZM228.467 39.324V43.2C228.467 43.52 228.535 43.748 228.671 43.884C228.807 44.012 229.043 44.076 229.379 44.076H230.183V45H229.199C228.591 45 228.135 44.86 227.831 44.58C227.527 44.3 227.375 43.84 227.375 43.2V39.324H226.523V38.424H227.375V36.768H228.467V38.424H230.183V39.324H228.467ZM237.506 41.46C237.506 41.668 237.494 41.888 237.47 42.12H232.214C232.254 42.768 232.474 43.276 232.874 43.644C233.282 44.004 233.774 44.184 234.35 44.184C234.822 44.184 235.214 44.076 235.526 43.86C235.846 43.636 236.07 43.34 236.198 42.972H237.374C237.198 43.604 236.846 44.12 236.318 44.52C235.79 44.912 235.134 45.108 234.35 45.108C233.726 45.108 233.166 44.968 232.67 44.688C232.182 44.408 231.798 44.012 231.518 43.5C231.238 42.98 231.098 42.38 231.098 41.7C231.098 41.02 231.234 40.424 231.506 39.912C231.778 39.4 232.158 39.008 232.646 38.736C233.142 38.456 233.71 38.316 234.35 38.316C234.974 38.316 235.526 38.452 236.006 38.724C236.486 38.996 236.854 39.372 237.11 39.852C237.374 40.324 237.506 40.86 237.506 41.46ZM236.378 41.232C236.378 40.816 236.286 40.46 236.102 40.164C235.918 39.86 235.666 39.632 235.346 39.48C235.034 39.32 234.686 39.24 234.302 39.24C233.75 39.24 233.278 39.416 232.886 39.768C232.502 40.12 232.282 40.608 232.226 41.232H236.378Z" fill="black"/>
<path d="M132.977 46.2H139.133V46.8H132.977V46.2ZM139.129 46.2H146.809V46.8H139.129V46.2ZM146.805 46.2H154.917V46.8H146.805V46.2ZM154.914 46.2H163.026V46.8H154.914V46.2ZM163.023 46.2H171.135V46.8H163.023V46.2ZM171.133 46.2H206.059V46.8H171.133V46.2ZM206.055 46.2H213.63V46.8H206.055V46.2ZM213.625 46.2H226.214V46.8H213.625V46.2ZM226.211 46.2H238.022V46.8H226.211V46.2Z" fill="black"/>
</svg>
