<svg width="335" height="247" viewBox="0 0 335 247" fill="none" xmlns="http://www.w3.org/2000/svg">
<rect width="335" height="247" rx="6" fill="#F2F2F2"/>
<rect x="51" y="162" width="33" height="28" fill="#2B35F3"/>
<rect x="141" y="100" width="33" height="90" fill="#2B35F3"/>
<rect x="239" y="63" width="33" height="127" fill="#2B35F3"/>
<path d="M30 190L284 190" stroke="black"/>
<path d="M58.1932 142.4V140.336H62.0492V152H59.7452V142.4H58.1932ZM71.2061 152L68.7901 148.24L66.5981 152H64.0701L67.5901 146.368L64.0221 140.832H66.5981L69.0141 144.576L71.1901 140.832H73.7181L70.2141 146.448L73.7821 152H71.2061Z" fill="#797979"/>
<path d="M44.0004 201.648C44.2244 201.256 44.5524 200.936 44.9844 200.688C45.4164 200.44 45.9084 200.316 46.4604 200.316C47.0524 200.316 47.5844 200.456 48.0564 200.736C48.5284 201.016 48.9004 201.412 49.1724 201.924C49.4444 202.428 49.5804 203.016 49.5804 203.688C49.5804 204.352 49.4444 204.944 49.1724 205.464C48.9004 205.984 48.5244 206.388 48.0444 206.676C47.5724 206.964 47.0444 207.108 46.4604 207.108C45.8924 207.108 45.3924 206.984 44.9604 206.736C44.5364 206.488 44.2164 206.172 44.0004 205.788V207H42.9084V198.12H44.0004V201.648ZM48.4644 203.688C48.4644 203.192 48.3644 202.76 48.1644 202.392C47.9644 202.024 47.6924 201.744 47.3484 201.552C47.0124 201.36 46.6404 201.264 46.2324 201.264C45.8324 201.264 45.4604 201.364 45.1164 201.564C44.7804 201.756 44.5084 202.04 44.3004 202.416C44.1004 202.784 44.0004 203.212 44.0004 203.7C44.0004 204.196 44.1004 204.632 44.3004 205.008C44.5084 205.376 44.7804 205.66 45.1164 205.86C45.4604 206.052 45.8324 206.148 46.2324 206.148C46.6404 206.148 47.0124 206.052 47.3484 205.86C47.6924 205.66 47.9644 205.376 48.1644 205.008C48.3644 204.632 48.4644 204.192 48.4644 203.688ZM52.1098 201.492C52.3018 201.116 52.5738 200.824 52.9258 200.616C53.2858 200.408 53.7218 200.304 54.2338 200.304V201.432H53.9458C52.7218 201.432 52.1098 202.096 52.1098 203.424V207H51.0178V200.424H52.1098V201.492ZM55.0863 203.688C55.0863 203.016 55.2223 202.428 55.4943 201.924C55.7663 201.412 56.1383 201.016 56.6103 200.736C57.0903 200.456 57.6223 200.316 58.2063 200.316C58.7823 200.316 59.2823 200.44 59.7063 200.688C60.1303 200.936 60.4463 201.248 60.6543 201.624V200.424H61.7583V207H60.6543V205.776C60.4383 206.16 60.1143 206.48 59.6823 206.736C59.2583 206.984 58.7623 207.108 58.1943 207.108C57.6103 207.108 57.0823 206.964 56.6103 206.676C56.1383 206.388 55.7663 205.984 55.4943 205.464C55.2223 204.944 55.0863 204.352 55.0863 203.688ZM60.6543 203.7C60.6543 203.204 60.5543 202.772 60.3543 202.404C60.1543 202.036 59.8823 201.756 59.5383 201.564C59.2023 201.364 58.8303 201.264 58.4223 201.264C58.0143 201.264 57.6423 201.36 57.3063 201.552C56.9703 201.744 56.7023 202.024 56.5023 202.392C56.3023 202.76 56.2023 203.192 56.2023 203.688C56.2023 204.192 56.3023 204.632 56.5023 205.008C56.7023 205.376 56.9703 205.66 57.3063 205.86C57.6423 206.052 58.0143 206.148 58.4223 206.148C58.8303 206.148 59.2023 206.052 59.5383 205.86C59.8823 205.66 60.1543 205.376 60.3543 205.008C60.5543 204.632 60.6543 204.196 60.6543 203.7ZM66.8077 200.304C67.6077 200.304 68.2557 200.548 68.7517 201.036C69.2477 201.516 69.4957 202.212 69.4957 203.124V207H68.4157V203.28C68.4157 202.624 68.2517 202.124 67.9237 201.78C67.5957 201.428 67.1477 201.252 66.5797 201.252C66.0037 201.252 65.5437 201.432 65.1997 201.792C64.8637 202.152 64.6957 202.676 64.6957 203.364V207H63.6037V200.424H64.6957V201.36C64.9117 201.024 65.2037 200.764 65.5717 200.58C65.9477 200.396 66.3597 200.304 66.8077 200.304ZM70.8715 203.688C70.8715 203.016 71.0075 202.428 71.2795 201.924C71.5515 201.412 71.9235 201.016 72.3955 200.736C72.8755 200.456 73.4115 200.316 74.0035 200.316C74.5155 200.316 74.9915 200.436 75.4315 200.676C75.8715 200.908 76.2075 201.216 76.4395 201.6V198.12H77.5435V207H76.4395V205.764C76.2235 206.156 75.9035 206.48 75.4795 206.736C75.0555 206.984 74.5595 207.108 73.9915 207.108C73.4075 207.108 72.8755 206.964 72.3955 206.676C71.9235 206.388 71.5515 205.984 71.2795 205.464C71.0075 204.944 70.8715 204.352 70.8715 203.688ZM76.4395 203.7C76.4395 203.204 76.3395 202.772 76.1395 202.404C75.9395 202.036 75.6675 201.756 75.3235 201.564C74.9875 201.364 74.6155 201.264 74.2075 201.264C73.7995 201.264 73.4275 201.36 73.0915 201.552C72.7555 201.744 72.4875 202.024 72.2875 202.392C72.0875 202.76 71.9875 203.192 71.9875 203.688C71.9875 204.192 72.0875 204.632 72.2875 205.008C72.4875 205.376 72.7555 205.66 73.0915 205.86C73.4275 206.052 73.7995 206.148 74.2075 206.148C74.6155 206.148 74.9875 206.052 75.3235 205.86C75.6675 205.66 75.9395 205.376 76.1395 205.008C76.3395 204.632 76.4395 204.196 76.4395 203.7ZM85.3888 203.46C85.3888 203.668 85.3768 203.888 85.3528 204.12H80.0968C80.1368 204.768 80.3568 205.276 80.7568 205.644C81.1648 206.004 81.6568 206.184 82.2328 206.184C82.7048 206.184 83.0968 206.076 83.4088 205.86C83.7288 205.636 83.9528 205.34 84.0808 204.972H85.2568C85.0808 205.604 84.7288 206.12 84.2008 206.52C83.6728 206.912 83.0168 207.108 82.2328 207.108C81.6088 207.108 81.0488 206.968 80.5528 206.688C80.0648 206.408 79.6808 206.012 79.4008 205.5C79.1208 204.98 78.9808 204.38 78.9808 203.7C78.9808 203.02 79.1168 202.424 79.3888 201.912C79.6608 201.4 80.0408 201.008 80.5288 200.736C81.0248 200.456 81.5928 200.316 82.2328 200.316C82.8568 200.316 83.4088 200.452 83.8888 200.724C84.3688 200.996 84.7368 201.372 84.9928 201.852C85.2568 202.324 85.3888 202.86 85.3888 203.46ZM84.2608 203.232C84.2608 202.816 84.1688 202.46 83.9848 202.164C83.8008 201.86 83.5488 201.632 83.2288 201.48C82.9168 201.32 82.5688 201.24 82.1848 201.24C81.6328 201.24 81.1608 201.416 80.7688 201.768C80.3848 202.12 80.1648 202.608 80.1088 203.232H84.2608ZM86.4223 203.688C86.4223 203.016 86.5583 202.428 86.8303 201.924C87.1023 201.412 87.4743 201.016 87.9463 200.736C88.4263 200.456 88.9623 200.316 89.5543 200.316C90.0663 200.316 90.5423 200.436 90.9823 200.676C91.4223 200.908 91.7583 201.216 91.9903 201.6V198.12H93.0943V207H91.9903V205.764C91.7743 206.156 91.4543 206.48 91.0303 206.736C90.6063 206.984 90.1103 207.108 89.5423 207.108C88.9583 207.108 88.4263 206.964 87.9463 206.676C87.4743 206.388 87.1023 205.984 86.8303 205.464C86.5583 204.944 86.4223 204.352 86.4223 203.688ZM91.9903 203.7C91.9903 203.204 91.8903 202.772 91.6903 202.404C91.4903 202.036 91.2183 201.756 90.8743 201.564C90.5383 201.364 90.1663 201.264 89.7583 201.264C89.3503 201.264 88.9783 201.36 88.6423 201.552C88.3063 201.744 88.0383 202.024 87.8383 202.392C87.6383 202.76 87.5383 203.192 87.5383 203.688C87.5383 204.192 87.6383 204.632 87.8383 205.008C88.0383 205.376 88.3063 205.66 88.6423 205.86C88.9783 206.052 89.3503 206.148 89.7583 206.148C90.1663 206.148 90.5383 206.052 90.8743 205.86C91.2183 205.66 91.4903 205.376 91.6903 205.008C91.8903 204.632 91.9903 204.196 91.9903 203.7ZM45.266 215.7C45.266 215.02 45.402 214.428 45.674 213.924C45.946 213.412 46.322 213.016 46.802 212.736C47.29 212.456 47.846 212.316 48.47 212.316C49.278 212.316 49.942 212.512 50.462 212.904C50.99 213.296 51.338 213.84 51.506 214.536H50.33C50.218 214.136 49.998 213.82 49.67 213.588C49.35 213.356 48.95 213.24 48.47 213.24C47.846 213.24 47.342 213.456 46.958 213.888C46.574 214.312 46.382 214.916 46.382 215.7C46.382 216.492 46.574 217.104 46.958 217.536C47.342 217.968 47.846 218.184 48.47 218.184C48.95 218.184 49.35 218.072 49.67 217.848C49.99 217.624 50.21 217.304 50.33 216.888H51.506C51.33 217.56 50.978 218.1 50.45 218.508C49.922 218.908 49.262 219.108 48.47 219.108C47.846 219.108 47.29 218.968 46.802 218.688C46.322 218.408 45.946 218.012 45.674 217.5C45.402 216.988 45.266 216.388 45.266 215.7ZM55.8311 219.108C55.2151 219.108 54.6551 218.968 54.1511 218.688C53.6551 218.408 53.2631 218.012 52.9751 217.5C52.6951 216.98 52.5551 216.38 52.5551 215.7C52.5551 215.028 52.6991 214.436 52.9871 213.924C53.2831 213.404 53.6831 213.008 54.1871 212.736C54.6911 212.456 55.2551 212.316 55.8791 212.316C56.5031 212.316 57.0671 212.456 57.5711 212.736C58.0751 213.008 58.4711 213.4 58.7591 213.912C59.0551 214.424 59.2031 215.02 59.2031 215.7C59.2031 216.38 59.0511 216.98 58.7471 217.5C58.4511 218.012 58.0471 218.408 57.5351 218.688C57.0231 218.968 56.4551 219.108 55.8311 219.108ZM55.8311 218.148C56.2231 218.148 56.5911 218.056 56.9351 217.872C57.2791 217.688 57.5551 217.412 57.7631 217.044C57.9791 216.676 58.0871 216.228 58.0871 215.7C58.0871 215.172 57.9831 214.724 57.7751 214.356C57.5671 213.988 57.2951 213.716 56.9591 213.54C56.6231 213.356 56.2591 213.264 55.8671 213.264C55.4671 213.264 55.0991 213.356 54.7631 213.54C54.4351 213.716 54.1711 213.988 53.9711 214.356C53.7711 214.724 53.6711 215.172 53.6711 215.7C53.6711 216.236 53.7671 216.688 53.9591 217.056C54.1591 217.424 54.4231 217.7 54.7511 217.884C55.0791 218.06 55.4391 218.148 55.8311 218.148ZM63.8428 212.304C64.6428 212.304 65.2908 212.548 65.7868 213.036C66.2828 213.516 66.5308 214.212 66.5308 215.124V219H65.4508V215.28C65.4508 214.624 65.2868 214.124 64.9588 213.78C64.6308 213.428 64.1828 213.252 63.6148 213.252C63.0388 213.252 62.5788 213.432 62.2348 213.792C61.8988 214.152 61.7308 214.676 61.7308 215.364V219H60.6388V212.424H61.7308V213.36C61.9468 213.024 62.2388 212.764 62.6068 212.58C62.9828 212.396 63.3948 212.304 63.8428 212.304ZM69.6466 213.324V217.2C69.6466 217.52 69.7146 217.748 69.8506 217.884C69.9866 218.012 70.2226 218.076 70.5586 218.076H71.3626V219H70.3786C69.7706 219 69.3146 218.86 69.0106 218.58C68.7066 218.3 68.5546 217.84 68.5546 217.2V213.324H67.7026V212.424H68.5546V210.768H69.6466V212.424H71.3626V213.324H69.6466ZM78.6857 215.46C78.6857 215.668 78.6737 215.888 78.6497 216.12H73.3937C73.4337 216.768 73.6537 217.276 74.0537 217.644C74.4617 218.004 74.9537 218.184 75.5297 218.184C76.0017 218.184 76.3937 218.076 76.7057 217.86C77.0257 217.636 77.2497 217.34 77.3777 216.972H78.5537C78.3777 217.604 78.0257 218.12 77.4977 218.52C76.9697 218.912 76.3137 219.108 75.5297 219.108C74.9057 219.108 74.3457 218.968 73.8497 218.688C73.3617 218.408 72.9777 218.012 72.6977 217.5C72.4177 216.98 72.2777 216.38 72.2777 215.7C72.2777 215.02 72.4137 214.424 72.6857 213.912C72.9577 213.4 73.3377 213.008 73.8257 212.736C74.3217 212.456 74.8897 212.316 75.5297 212.316C76.1537 212.316 76.7057 212.452 77.1857 212.724C77.6657 212.996 78.0337 213.372 78.2897 213.852C78.5537 214.324 78.6857 214.86 78.6857 215.46ZM77.5577 215.232C77.5577 214.816 77.4657 214.46 77.2817 214.164C77.0977 213.86 76.8457 213.632 76.5257 213.48C76.2137 213.32 75.8657 213.24 75.4817 213.24C74.9297 213.24 74.4577 213.416 74.0657 213.768C73.6817 214.12 73.4617 214.608 73.4057 215.232H77.5577ZM83.3311 212.304C84.1311 212.304 84.7791 212.548 85.2751 213.036C85.7711 213.516 86.0191 214.212 86.0191 215.124V219H84.9391V215.28C84.9391 214.624 84.7751 214.124 84.4471 213.78C84.1191 213.428 83.6711 213.252 83.1031 213.252C82.5271 213.252 82.0671 213.432 81.7231 213.792C81.3871 214.152 81.2191 214.676 81.2191 215.364V219H80.1271V212.424H81.2191V213.36C81.4351 213.024 81.7271 212.764 82.0951 212.58C82.4711 212.396 82.8831 212.304 83.3311 212.304ZM89.1349 213.324V217.2C89.1349 217.52 89.2029 217.748 89.3389 217.884C89.4749 218.012 89.7109 218.076 90.0469 218.076H90.8509V219H89.8669C89.2589 219 88.8029 218.86 88.4989 218.58C88.1949 218.3 88.0429 217.84 88.0429 217.2V213.324H87.1909V212.424H88.0429V210.768H89.1349V212.424H90.8509V213.324H89.1349Z" fill="#797979"/>
<path d="M130.25 198.636V207H129.158V198.636H130.25ZM135.316 200.304C136.116 200.304 136.764 200.548 137.26 201.036C137.756 201.516 138.004 202.212 138.004 203.124V207H136.924V203.28C136.924 202.624 136.76 202.124 136.432 201.78C136.104 201.428 135.656 201.252 135.088 201.252C134.512 201.252 134.052 201.432 133.708 201.792C133.372 202.152 133.204 202.676 133.204 203.364V207H132.112V200.424H133.204V201.36C133.42 201.024 133.712 200.764 134.08 200.58C134.456 200.396 134.868 200.304 135.316 200.304ZM142.463 201.324H141.083V207H139.991V201.324H139.139V200.424H139.991V199.956C139.991 199.22 140.179 198.684 140.555 198.348C140.939 198.004 141.551 197.832 142.391 197.832V198.744C141.911 198.744 141.571 198.84 141.371 199.032C141.179 199.216 141.083 199.524 141.083 199.956V200.424H142.463V201.324ZM144.829 198.12V207H143.737V198.12H144.829ZM152.522 200.424V207H151.43V206.028C151.222 206.364 150.93 206.628 150.554 206.82C150.186 207.004 149.778 207.096 149.33 207.096C148.818 207.096 148.358 206.992 147.95 206.784C147.542 206.568 147.218 206.248 146.978 205.824C146.746 205.4 146.63 204.884 146.63 204.276V200.424H147.71V204.132C147.71 204.78 147.874 205.28 148.202 205.632C148.53 205.976 148.978 206.148 149.546 206.148C150.13 206.148 150.59 205.968 150.926 205.608C151.262 205.248 151.43 204.724 151.43 204.036V200.424H152.522ZM160.365 203.46C160.365 203.668 160.353 203.888 160.329 204.12H155.073C155.113 204.768 155.333 205.276 155.733 205.644C156.141 206.004 156.633 206.184 157.209 206.184C157.681 206.184 158.073 206.076 158.385 205.86C158.705 205.636 158.929 205.34 159.057 204.972H160.233C160.057 205.604 159.705 206.12 159.177 206.52C158.649 206.912 157.993 207.108 157.209 207.108C156.585 207.108 156.025 206.968 155.529 206.688C155.041 206.408 154.657 206.012 154.377 205.5C154.097 204.98 153.957 204.38 153.957 203.7C153.957 203.02 154.093 202.424 154.365 201.912C154.637 201.4 155.017 201.008 155.505 200.736C156.001 200.456 156.569 200.316 157.209 200.316C157.833 200.316 158.385 200.452 158.865 200.724C159.345 200.996 159.713 201.372 159.969 201.852C160.233 202.324 160.365 202.86 160.365 203.46ZM159.237 203.232C159.237 202.816 159.145 202.46 158.961 202.164C158.777 201.86 158.525 201.632 158.205 201.48C157.893 201.32 157.545 201.24 157.161 201.24C156.609 201.24 156.137 201.416 155.745 201.768C155.361 202.12 155.141 202.608 155.085 203.232H159.237ZM165.011 200.304C165.811 200.304 166.459 200.548 166.955 201.036C167.451 201.516 167.699 202.212 167.699 203.124V207H166.619V203.28C166.619 202.624 166.455 202.124 166.127 201.78C165.799 201.428 165.351 201.252 164.783 201.252C164.207 201.252 163.747 201.432 163.403 201.792C163.067 202.152 162.899 202.676 162.899 203.364V207H161.807V200.424H162.899V201.36C163.115 201.024 163.407 200.764 163.775 200.58C164.151 200.396 164.563 200.304 165.011 200.304ZM169.075 203.7C169.075 203.02 169.211 202.428 169.483 201.924C169.755 201.412 170.131 201.016 170.611 200.736C171.099 200.456 171.655 200.316 172.279 200.316C173.087 200.316 173.751 200.512 174.271 200.904C174.799 201.296 175.147 201.84 175.315 202.536H174.139C174.027 202.136 173.807 201.82 173.479 201.588C173.159 201.356 172.759 201.24 172.279 201.24C171.655 201.24 171.151 201.456 170.767 201.888C170.383 202.312 170.191 202.916 170.191 203.7C170.191 204.492 170.383 205.104 170.767 205.536C171.151 205.968 171.655 206.184 172.279 206.184C172.759 206.184 173.159 206.072 173.479 205.848C173.799 205.624 174.019 205.304 174.139 204.888H175.315C175.139 205.56 174.787 206.1 174.259 206.508C173.731 206.908 173.071 207.108 172.279 207.108C171.655 207.108 171.099 206.968 170.611 206.688C170.131 206.408 169.755 206.012 169.483 205.5C169.211 204.988 169.075 204.388 169.075 203.7ZM182.772 203.46C182.772 203.668 182.76 203.888 182.736 204.12H177.48C177.52 204.768 177.74 205.276 178.14 205.644C178.548 206.004 179.04 206.184 179.616 206.184C180.088 206.184 180.48 206.076 180.792 205.86C181.112 205.636 181.336 205.34 181.464 204.972H182.64C182.464 205.604 182.112 206.12 181.584 206.52C181.056 206.912 180.4 207.108 179.616 207.108C178.992 207.108 178.432 206.968 177.936 206.688C177.448 206.408 177.064 206.012 176.784 205.5C176.504 204.98 176.364 204.38 176.364 203.7C176.364 203.02 176.5 202.424 176.772 201.912C177.044 201.4 177.424 201.008 177.912 200.736C178.408 200.456 178.976 200.316 179.616 200.316C180.24 200.316 180.792 200.452 181.272 200.724C181.752 200.996 182.12 201.372 182.376 201.852C182.64 202.324 182.772 202.86 182.772 203.46ZM181.644 203.232C181.644 202.816 181.552 202.46 181.368 202.164C181.184 201.86 180.932 201.632 180.612 201.48C180.3 201.32 179.952 201.24 179.568 201.24C179.016 201.24 178.544 201.416 178.152 201.768C177.768 202.12 177.548 202.608 177.492 203.232H181.644ZM185.305 201.492C185.497 201.116 185.769 200.824 186.121 200.616C186.481 200.408 186.917 200.304 187.429 200.304V201.432H187.141C185.917 201.432 185.305 202.096 185.305 203.424V207H184.213V200.424H185.305V201.492ZM135.266 215.7C135.266 215.02 135.402 214.428 135.674 213.924C135.946 213.412 136.322 213.016 136.802 212.736C137.29 212.456 137.846 212.316 138.47 212.316C139.278 212.316 139.942 212.512 140.462 212.904C140.99 213.296 141.338 213.84 141.506 214.536H140.33C140.218 214.136 139.998 213.82 139.67 213.588C139.35 213.356 138.95 213.24 138.47 213.24C137.846 213.24 137.342 213.456 136.958 213.888C136.574 214.312 136.382 214.916 136.382 215.7C136.382 216.492 136.574 217.104 136.958 217.536C137.342 217.968 137.846 218.184 138.47 218.184C138.95 218.184 139.35 218.072 139.67 217.848C139.99 217.624 140.21 217.304 140.33 216.888H141.506C141.33 217.56 140.978 218.1 140.45 218.508C139.922 218.908 139.262 219.108 138.47 219.108C137.846 219.108 137.29 218.968 136.802 218.688C136.322 218.408 135.946 218.012 135.674 217.5C135.402 216.988 135.266 216.388 135.266 215.7ZM145.831 219.108C145.215 219.108 144.655 218.968 144.151 218.688C143.655 218.408 143.263 218.012 142.975 217.5C142.695 216.98 142.555 216.38 142.555 215.7C142.555 215.028 142.699 214.436 142.987 213.924C143.283 213.404 143.683 213.008 144.187 212.736C144.691 212.456 145.255 212.316 145.879 212.316C146.503 212.316 147.067 212.456 147.571 212.736C148.075 213.008 148.471 213.4 148.759 213.912C149.055 214.424 149.203 215.02 149.203 215.7C149.203 216.38 149.051 216.98 148.747 217.5C148.451 218.012 148.047 218.408 147.535 218.688C147.023 218.968 146.455 219.108 145.831 219.108ZM145.831 218.148C146.223 218.148 146.591 218.056 146.935 217.872C147.279 217.688 147.555 217.412 147.763 217.044C147.979 216.676 148.087 216.228 148.087 215.7C148.087 215.172 147.983 214.724 147.775 214.356C147.567 213.988 147.295 213.716 146.959 213.54C146.623 213.356 146.259 213.264 145.867 213.264C145.467 213.264 145.099 213.356 144.763 213.54C144.435 213.716 144.171 213.988 143.971 214.356C143.771 214.724 143.671 215.172 143.671 215.7C143.671 216.236 143.767 216.688 143.959 217.056C144.159 217.424 144.423 217.7 144.751 217.884C145.079 218.06 145.439 218.148 145.831 218.148ZM153.843 212.304C154.643 212.304 155.291 212.548 155.787 213.036C156.283 213.516 156.531 214.212 156.531 215.124V219H155.451V215.28C155.451 214.624 155.287 214.124 154.959 213.78C154.631 213.428 154.183 213.252 153.615 213.252C153.039 213.252 152.579 213.432 152.235 213.792C151.899 214.152 151.731 214.676 151.731 215.364V219H150.639V212.424H151.731V213.36C151.947 213.024 152.239 212.764 152.607 212.58C152.983 212.396 153.395 212.304 153.843 212.304ZM159.647 213.324V217.2C159.647 217.52 159.715 217.748 159.851 217.884C159.987 218.012 160.223 218.076 160.559 218.076H161.363V219H160.379C159.771 219 159.315 218.86 159.011 218.58C158.707 218.3 158.555 217.84 158.555 217.2V213.324H157.703V212.424H158.555V210.768H159.647V212.424H161.363V213.324H159.647ZM165.89 212.304C166.69 212.304 167.338 212.548 167.834 213.036C168.33 213.516 168.578 214.212 168.578 215.124V219H167.498V215.28C167.498 214.624 167.334 214.124 167.006 213.78C166.678 213.428 166.23 213.252 165.662 213.252C165.086 213.252 164.626 213.432 164.282 213.792C163.946 214.152 163.778 214.676 163.778 215.364V219H162.686V212.424H163.778V213.36C163.994 213.024 164.286 212.764 164.654 212.58C165.03 212.396 165.442 212.304 165.89 212.304ZM176.362 215.46C176.362 215.668 176.35 215.888 176.326 216.12H171.07C171.11 216.768 171.33 217.276 171.73 217.644C172.138 218.004 172.63 218.184 173.206 218.184C173.678 218.184 174.07 218.076 174.382 217.86C174.702 217.636 174.926 217.34 175.054 216.972H176.23C176.054 217.604 175.702 218.12 175.174 218.52C174.646 218.912 173.99 219.108 173.206 219.108C172.582 219.108 172.022 218.968 171.526 218.688C171.038 218.408 170.654 218.012 170.374 217.5C170.094 216.98 169.954 216.38 169.954 215.7C169.954 215.02 170.09 214.424 170.362 213.912C170.634 213.4 171.014 213.008 171.502 212.736C171.998 212.456 172.566 212.316 173.206 212.316C173.83 212.316 174.382 212.452 174.862 212.724C175.342 212.996 175.71 213.372 175.966 213.852C176.23 214.324 176.362 214.86 176.362 215.46ZM175.234 215.232C175.234 214.816 175.142 214.46 174.958 214.164C174.774 213.86 174.522 213.632 174.202 213.48C173.89 213.32 173.542 213.24 173.158 213.24C172.606 213.24 172.134 213.416 171.742 213.768C171.358 214.12 171.138 214.608 171.082 215.232H175.234ZM179.135 213.324V217.2C179.135 217.52 179.203 217.748 179.339 217.884C179.475 218.012 179.711 218.076 180.047 218.076H180.851V219H179.867C179.259 219 178.803 218.86 178.499 218.58C178.195 218.3 178.043 217.84 178.043 217.2V213.324H177.191V212.424H178.043V210.768H179.135V212.424H180.851V213.324H179.135Z" fill="#797979"/>
<path d="M211.662 198.636V203.928C211.662 204.672 211.842 205.224 212.202 205.584C212.57 205.944 213.078 206.124 213.726 206.124C214.366 206.124 214.866 205.944 215.226 205.584C215.594 205.224 215.778 204.672 215.778 203.928V198.636H216.87V203.916C216.87 204.612 216.73 205.2 216.45 205.68C216.17 206.152 215.79 206.504 215.31 206.736C214.838 206.968 214.306 207.084 213.714 207.084C213.122 207.084 212.586 206.968 212.106 206.736C211.634 206.504 211.258 206.152 210.978 205.68C210.706 205.2 210.57 204.612 210.57 203.916V198.636H211.662ZM221.02 207.108C220.516 207.108 220.064 207.024 219.664 206.856C219.264 206.68 218.948 206.44 218.716 206.136C218.484 205.824 218.356 205.468 218.332 205.068H219.46C219.492 205.396 219.644 205.664 219.916 205.872C220.196 206.08 220.56 206.184 221.008 206.184C221.424 206.184 221.752 206.092 221.992 205.908C222.232 205.724 222.352 205.492 222.352 205.212C222.352 204.924 222.224 204.712 221.968 204.576C221.712 204.432 221.316 204.292 220.78 204.156C220.292 204.028 219.892 203.9 219.58 203.772C219.276 203.636 219.012 203.44 218.788 203.184C218.572 202.92 218.464 202.576 218.464 202.152C218.464 201.816 218.564 201.508 218.764 201.228C218.964 200.948 219.248 200.728 219.616 200.568C219.984 200.4 220.404 200.316 220.876 200.316C221.604 200.316 222.192 200.5 222.64 200.868C223.088 201.236 223.328 201.74 223.36 202.38H222.268C222.244 202.036 222.104 201.76 221.848 201.552C221.6 201.344 221.264 201.24 220.84 201.24C220.448 201.24 220.136 201.324 219.904 201.492C219.672 201.66 219.556 201.88 219.556 202.152C219.556 202.368 219.624 202.548 219.76 202.692C219.904 202.828 220.08 202.94 220.288 203.028C220.504 203.108 220.8 203.2 221.176 203.304C221.648 203.432 222.032 203.56 222.328 203.688C222.624 203.808 222.876 203.992 223.084 204.24C223.3 204.488 223.412 204.812 223.42 205.212C223.42 205.572 223.32 205.896 223.12 206.184C222.92 206.472 222.636 206.7 222.268 206.868C221.908 207.028 221.492 207.108 221.02 207.108ZM230.961 203.46C230.961 203.668 230.949 203.888 230.925 204.12H225.669C225.709 204.768 225.929 205.276 226.329 205.644C226.737 206.004 227.229 206.184 227.805 206.184C228.277 206.184 228.669 206.076 228.981 205.86C229.301 205.636 229.525 205.34 229.653 204.972H230.829C230.653 205.604 230.301 206.12 229.773 206.52C229.245 206.912 228.589 207.108 227.805 207.108C227.181 207.108 226.621 206.968 226.125 206.688C225.637 206.408 225.253 206.012 224.973 205.5C224.693 204.98 224.553 204.38 224.553 203.7C224.553 203.02 224.689 202.424 224.961 201.912C225.233 201.4 225.613 201.008 226.101 200.736C226.597 200.456 227.165 200.316 227.805 200.316C228.429 200.316 228.981 200.452 229.461 200.724C229.941 200.996 230.309 201.372 230.565 201.852C230.829 202.324 230.961 202.86 230.961 203.46ZM229.833 203.232C229.833 202.816 229.741 202.46 229.557 202.164C229.373 201.86 229.121 201.632 228.801 201.48C228.489 201.32 228.141 201.24 227.757 201.24C227.205 201.24 226.733 201.416 226.341 201.768C225.957 202.12 225.737 202.608 225.681 203.232H229.833ZM233.495 201.492C233.687 201.116 233.959 200.824 234.311 200.616C234.671 200.408 235.107 200.304 235.619 200.304V201.432H235.331C234.107 201.432 233.495 202.096 233.495 203.424V207H232.403V200.424H233.495V201.492ZM242.79 200.316C243.358 200.316 243.854 200.44 244.278 200.688C244.71 200.936 245.03 201.248 245.238 201.624V200.424H246.342V207.144C246.342 207.744 246.214 208.276 245.958 208.74C245.702 209.212 245.334 209.58 244.854 209.844C244.382 210.108 243.83 210.24 243.198 210.24C242.334 210.24 241.614 210.036 241.038 209.628C240.462 209.22 240.122 208.664 240.018 207.96H241.098C241.218 208.36 241.466 208.68 241.842 208.92C242.218 209.168 242.67 209.292 243.198 209.292C243.798 209.292 244.286 209.104 244.662 208.728C245.046 208.352 245.238 207.824 245.238 207.144V205.764C245.022 206.148 244.702 206.468 244.278 206.724C243.854 206.98 243.358 207.108 242.79 207.108C242.206 207.108 241.674 206.964 241.194 206.676C240.722 206.388 240.35 205.984 240.078 205.464C239.806 204.944 239.67 204.352 239.67 203.688C239.67 203.016 239.806 202.428 240.078 201.924C240.35 201.412 240.722 201.016 241.194 200.736C241.674 200.456 242.206 200.316 242.79 200.316ZM245.238 203.7C245.238 203.204 245.138 202.772 244.938 202.404C244.738 202.036 244.466 201.756 244.122 201.564C243.786 201.364 243.414 201.264 243.006 201.264C242.598 201.264 242.226 201.36 241.89 201.552C241.554 201.744 241.286 202.024 241.086 202.392C240.886 202.76 240.786 203.192 240.786 203.688C240.786 204.192 240.886 204.632 241.086 205.008C241.286 205.376 241.554 205.66 241.89 205.86C242.226 206.052 242.598 206.148 243.006 206.148C243.414 206.148 243.786 206.052 244.122 205.86C244.466 205.66 244.738 205.376 244.938 205.008C245.138 204.632 245.238 204.196 245.238 203.7ZM254.188 203.46C254.188 203.668 254.176 203.888 254.152 204.12H248.896C248.936 204.768 249.156 205.276 249.556 205.644C249.964 206.004 250.456 206.184 251.032 206.184C251.504 206.184 251.896 206.076 252.208 205.86C252.528 205.636 252.752 205.34 252.88 204.972H254.056C253.88 205.604 253.528 206.12 253 206.52C252.472 206.912 251.816 207.108 251.032 207.108C250.408 207.108 249.848 206.968 249.352 206.688C248.864 206.408 248.48 206.012 248.2 205.5C247.92 204.98 247.78 204.38 247.78 203.7C247.78 203.02 247.916 202.424 248.188 201.912C248.46 201.4 248.84 201.008 249.328 200.736C249.824 200.456 250.392 200.316 251.032 200.316C251.656 200.316 252.208 200.452 252.688 200.724C253.168 200.996 253.536 201.372 253.792 201.852C254.056 202.324 254.188 202.86 254.188 203.46ZM253.06 203.232C253.06 202.816 252.968 202.46 252.784 202.164C252.6 201.86 252.348 201.632 252.028 201.48C251.716 201.32 251.368 201.24 250.984 201.24C250.432 201.24 249.96 201.416 249.568 201.768C249.184 202.12 248.964 202.608 248.908 203.232H253.06ZM258.833 200.304C259.633 200.304 260.281 200.548 260.777 201.036C261.273 201.516 261.521 202.212 261.521 203.124V207H260.441V203.28C260.441 202.624 260.277 202.124 259.949 201.78C259.621 201.428 259.173 201.252 258.605 201.252C258.029 201.252 257.569 201.432 257.225 201.792C256.889 202.152 256.721 202.676 256.721 203.364V207H255.629V200.424H256.721V201.36C256.937 201.024 257.229 200.764 257.597 200.58C257.973 200.396 258.385 200.304 258.833 200.304ZM269.305 203.46C269.305 203.668 269.293 203.888 269.269 204.12H264.013C264.053 204.768 264.273 205.276 264.673 205.644C265.081 206.004 265.573 206.184 266.149 206.184C266.621 206.184 267.013 206.076 267.325 205.86C267.645 205.636 267.869 205.34 267.997 204.972H269.173C268.997 205.604 268.645 206.12 268.117 206.52C267.589 206.912 266.933 207.108 266.149 207.108C265.525 207.108 264.965 206.968 264.469 206.688C263.981 206.408 263.597 206.012 263.317 205.5C263.037 204.98 262.897 204.38 262.897 203.7C262.897 203.02 263.033 202.424 263.305 201.912C263.577 201.4 263.957 201.008 264.445 200.736C264.941 200.456 265.509 200.316 266.149 200.316C266.773 200.316 267.325 200.452 267.805 200.724C268.285 200.996 268.653 201.372 268.909 201.852C269.173 202.324 269.305 202.86 269.305 203.46ZM268.177 203.232C268.177 202.816 268.085 202.46 267.901 202.164C267.717 201.86 267.465 201.632 267.145 201.48C266.833 201.32 266.485 201.24 266.101 201.24C265.549 201.24 265.077 201.416 264.685 201.768C264.301 202.12 264.081 202.608 264.025 203.232H268.177ZM271.838 201.492C272.03 201.116 272.302 200.824 272.654 200.616C273.014 200.408 273.45 200.304 273.962 200.304V201.432H273.674C272.45 201.432 271.838 202.096 271.838 203.424V207H270.746V200.424H271.838V201.492ZM274.815 203.688C274.815 203.016 274.951 202.428 275.223 201.924C275.495 201.412 275.867 201.016 276.339 200.736C276.819 200.456 277.351 200.316 277.935 200.316C278.511 200.316 279.011 200.44 279.435 200.688C279.859 200.936 280.175 201.248 280.383 201.624V200.424H281.487V207H280.383V205.776C280.167 206.16 279.843 206.48 279.411 206.736C278.987 206.984 278.491 207.108 277.923 207.108C277.339 207.108 276.811 206.964 276.339 206.676C275.867 206.388 275.495 205.984 275.223 205.464C274.951 204.944 274.815 204.352 274.815 203.688ZM280.383 203.7C280.383 203.204 280.283 202.772 280.083 202.404C279.883 202.036 279.611 201.756 279.267 201.564C278.931 201.364 278.559 201.264 278.151 201.264C277.743 201.264 277.371 201.36 277.035 201.552C276.699 201.744 276.431 202.024 276.231 202.392C276.031 202.76 275.931 203.192 275.931 203.688C275.931 204.192 276.031 204.632 276.231 205.008C276.431 205.376 276.699 205.66 277.035 205.86C277.371 206.052 277.743 206.148 278.151 206.148C278.559 206.148 278.931 206.052 279.267 205.86C279.611 205.66 279.883 205.376 280.083 205.008C280.283 204.632 280.383 204.196 280.383 203.7ZM284.664 201.324V205.2C284.664 205.52 284.732 205.748 284.868 205.884C285.004 206.012 285.24 206.076 285.576 206.076H286.38V207H285.396C284.788 207 284.332 206.86 284.028 206.58C283.724 206.3 283.572 205.84 283.572 205.2V201.324H282.72V200.424H283.572V198.768H284.664V200.424H286.38V201.324H284.664ZM293.703 203.46C293.703 203.668 293.691 203.888 293.667 204.12H288.411C288.451 204.768 288.671 205.276 289.071 205.644C289.479 206.004 289.971 206.184 290.547 206.184C291.019 206.184 291.411 206.076 291.723 205.86C292.043 205.636 292.267 205.34 292.395 204.972H293.571C293.395 205.604 293.043 206.12 292.515 206.52C291.987 206.912 291.331 207.108 290.547 207.108C289.923 207.108 289.363 206.968 288.867 206.688C288.379 206.408 287.995 206.012 287.715 205.5C287.435 204.98 287.295 204.38 287.295 203.7C287.295 203.02 287.431 202.424 287.703 201.912C287.975 201.4 288.355 201.008 288.843 200.736C289.339 200.456 289.907 200.316 290.547 200.316C291.171 200.316 291.723 200.452 292.203 200.724C292.683 200.996 293.051 201.372 293.307 201.852C293.571 202.324 293.703 202.86 293.703 203.46ZM292.575 203.232C292.575 202.816 292.483 202.46 292.299 202.164C292.115 201.86 291.863 201.632 291.543 201.48C291.231 201.32 290.883 201.24 290.499 201.24C289.947 201.24 289.475 201.416 289.083 201.768C288.699 202.12 288.479 202.608 288.423 203.232H292.575ZM294.737 203.688C294.737 203.016 294.873 202.428 295.145 201.924C295.417 201.412 295.789 201.016 296.261 200.736C296.741 200.456 297.277 200.316 297.869 200.316C298.381 200.316 298.857 200.436 299.297 200.676C299.737 200.908 300.073 201.216 300.305 201.6V198.12H301.409V207H300.305V205.764C300.089 206.156 299.769 206.48 299.345 206.736C298.921 206.984 298.425 207.108 297.857 207.108C297.273 207.108 296.741 206.964 296.261 206.676C295.789 206.388 295.417 205.984 295.145 205.464C294.873 204.944 294.737 204.352 294.737 203.688ZM300.305 203.7C300.305 203.204 300.205 202.772 300.005 202.404C299.805 202.036 299.533 201.756 299.189 201.564C298.853 201.364 298.481 201.264 298.073 201.264C297.665 201.264 297.293 201.36 296.957 201.552C296.621 201.744 296.353 202.024 296.153 202.392C295.953 202.76 295.853 203.192 295.853 203.688C295.853 204.192 295.953 204.632 296.153 205.008C296.353 205.376 296.621 205.66 296.957 205.86C297.293 206.052 297.665 206.148 298.073 206.148C298.481 206.148 298.853 206.052 299.189 205.86C299.533 205.66 299.805 205.376 300.005 205.008C300.205 204.632 300.305 204.196 300.305 203.7ZM233.266 215.7C233.266 215.02 233.402 214.428 233.674 213.924C233.946 213.412 234.322 213.016 234.802 212.736C235.29 212.456 235.846 212.316 236.47 212.316C237.278 212.316 237.942 212.512 238.462 212.904C238.99 213.296 239.338 213.84 239.506 214.536H238.33C238.218 214.136 237.998 213.82 237.67 213.588C237.35 213.356 236.95 213.24 236.47 213.24C235.846 213.24 235.342 213.456 234.958 213.888C234.574 214.312 234.382 214.916 234.382 215.7C234.382 216.492 234.574 217.104 234.958 217.536C235.342 217.968 235.846 218.184 236.47 218.184C236.95 218.184 237.35 218.072 237.67 217.848C237.99 217.624 238.21 217.304 238.33 216.888H239.506C239.33 217.56 238.978 218.1 238.45 218.508C237.922 218.908 237.262 219.108 236.47 219.108C235.846 219.108 235.29 218.968 234.802 218.688C234.322 218.408 233.946 218.012 233.674 217.5C233.402 216.988 233.266 216.388 233.266 215.7ZM243.831 219.108C243.215 219.108 242.655 218.968 242.151 218.688C241.655 218.408 241.263 218.012 240.975 217.5C240.695 216.98 240.555 216.38 240.555 215.7C240.555 215.028 240.699 214.436 240.987 213.924C241.283 213.404 241.683 213.008 242.187 212.736C242.691 212.456 243.255 212.316 243.879 212.316C244.503 212.316 245.067 212.456 245.571 212.736C246.075 213.008 246.471 213.4 246.759 213.912C247.055 214.424 247.203 215.02 247.203 215.7C247.203 216.38 247.051 216.98 246.747 217.5C246.451 218.012 246.047 218.408 245.535 218.688C245.023 218.968 244.455 219.108 243.831 219.108ZM243.831 218.148C244.223 218.148 244.591 218.056 244.935 217.872C245.279 217.688 245.555 217.412 245.763 217.044C245.979 216.676 246.087 216.228 246.087 215.7C246.087 215.172 245.983 214.724 245.775 214.356C245.567 213.988 245.295 213.716 244.959 213.54C244.623 213.356 244.259 213.264 243.867 213.264C243.467 213.264 243.099 213.356 242.763 213.54C242.435 213.716 242.171 213.988 241.971 214.356C241.771 214.724 241.671 215.172 241.671 215.7C241.671 216.236 241.767 216.688 241.959 217.056C242.159 217.424 242.423 217.7 242.751 217.884C243.079 218.06 243.439 218.148 243.831 218.148ZM251.843 212.304C252.643 212.304 253.291 212.548 253.787 213.036C254.283 213.516 254.531 214.212 254.531 215.124V219H253.451V215.28C253.451 214.624 253.287 214.124 252.959 213.78C252.631 213.428 252.183 213.252 251.615 213.252C251.039 213.252 250.579 213.432 250.235 213.792C249.899 214.152 249.731 214.676 249.731 215.364V219H248.639V212.424H249.731V213.36C249.947 213.024 250.239 212.764 250.607 212.58C250.983 212.396 251.395 212.304 251.843 212.304ZM257.647 213.324V217.2C257.647 217.52 257.715 217.748 257.851 217.884C257.987 218.012 258.223 218.076 258.559 218.076H259.363V219H258.379C257.771 219 257.315 218.86 257.011 218.58C256.707 218.3 256.555 217.84 256.555 217.2V213.324H255.703V212.424H256.555V210.768H257.647V212.424H259.363V213.324H257.647ZM266.686 215.46C266.686 215.668 266.674 215.888 266.65 216.12H261.394C261.434 216.768 261.654 217.276 262.054 217.644C262.462 218.004 262.954 218.184 263.53 218.184C264.002 218.184 264.394 218.076 264.706 217.86C265.026 217.636 265.25 217.34 265.378 216.972H266.554C266.378 217.604 266.026 218.12 265.498 218.52C264.97 218.912 264.314 219.108 263.53 219.108C262.906 219.108 262.346 218.968 261.85 218.688C261.362 218.408 260.978 218.012 260.698 217.5C260.418 216.98 260.278 216.38 260.278 215.7C260.278 215.02 260.414 214.424 260.686 213.912C260.958 213.4 261.338 213.008 261.826 212.736C262.322 212.456 262.89 212.316 263.53 212.316C264.154 212.316 264.706 212.452 265.186 212.724C265.666 212.996 266.034 213.372 266.29 213.852C266.554 214.324 266.686 214.86 266.686 215.46ZM265.558 215.232C265.558 214.816 265.466 214.46 265.282 214.164C265.098 213.86 264.846 213.632 264.526 213.48C264.214 213.32 263.866 213.24 263.482 213.24C262.93 213.24 262.458 213.416 262.066 213.768C261.682 214.12 261.462 214.608 261.406 215.232H265.558ZM271.331 212.304C272.131 212.304 272.779 212.548 273.275 213.036C273.771 213.516 274.019 214.212 274.019 215.124V219H272.939V215.28C272.939 214.624 272.775 214.124 272.447 213.78C272.119 213.428 271.671 213.252 271.103 213.252C270.527 213.252 270.067 213.432 269.723 213.792C269.387 214.152 269.219 214.676 269.219 215.364V219H268.127V212.424H269.219V213.36C269.435 213.024 269.727 212.764 270.095 212.58C270.471 212.396 270.883 212.304 271.331 212.304ZM277.135 213.324V217.2C277.135 217.52 277.203 217.748 277.339 217.884C277.475 218.012 277.711 218.076 278.047 218.076H278.851V219H277.867C277.259 219 276.803 218.86 276.499 218.58C276.195 218.3 276.043 217.84 276.043 217.2V213.324H275.191V212.424H276.043V210.768H277.135V212.424H278.851V213.324H277.135Z" fill="#797979"/>
<path d="M156.405 84.032L152.149 94H149.877L154.165 84.288H148.693V82.368H156.405V84.032ZM164.69 94L162.274 90.24L160.082 94H157.554L161.074 88.368L157.506 82.832H160.082L162.498 86.576L164.674 82.832H167.202L163.698 88.448L167.266 94H164.69Z" fill="#797979"/>
<path d="M241.214 49.824C240.147 49.2693 239.614 48.4107 239.614 47.248C239.614 46.672 239.758 46.1493 240.046 45.68C240.345 45.2 240.787 44.8213 241.374 44.544C241.971 44.256 242.697 44.112 243.55 44.112C244.403 44.112 245.123 44.256 245.71 44.544C246.307 44.8213 246.75 45.2 247.038 45.68C247.337 46.1493 247.486 46.672 247.486 47.248C247.486 47.8347 247.342 48.352 247.054 48.8C246.766 49.2373 246.382 49.5787 245.902 49.824C246.489 50.08 246.947 50.4533 247.278 50.944C247.609 51.4347 247.774 52.016 247.774 52.688C247.774 53.4133 247.587 54.048 247.214 54.592C246.851 55.1253 246.35 55.536 245.71 55.824C245.07 56.112 244.35 56.256 243.55 56.256C242.75 56.256 242.03 56.112 241.39 55.824C240.761 55.536 240.259 55.1253 239.886 54.592C239.523 54.048 239.342 53.4133 239.342 52.688C239.342 52.016 239.507 51.4347 239.838 50.944C240.169 50.4427 240.627 50.0693 241.214 49.824ZM245.31 47.568C245.31 47.0453 245.15 46.64 244.83 46.352C244.521 46.064 244.094 45.92 243.55 45.92C243.017 45.92 242.59 46.064 242.27 46.352C241.961 46.64 241.806 47.0507 241.806 47.584C241.806 48.064 241.966 48.448 242.286 48.736C242.617 49.024 243.038 49.168 243.55 49.168C244.062 49.168 244.483 49.024 244.814 48.736C245.145 48.4373 245.31 48.048 245.31 47.568ZM243.55 50.8C242.942 50.8 242.446 50.9547 242.062 51.264C241.689 51.5733 241.502 52.016 241.502 52.592C241.502 53.1253 241.683 53.5627 242.046 53.904C242.419 54.2347 242.921 54.4 243.55 54.4C244.179 54.4 244.675 54.2293 245.038 53.888C245.401 53.5467 245.582 53.1147 245.582 52.592C245.582 52.0267 245.395 51.5893 245.022 51.28C244.649 50.96 244.158 50.8 243.55 50.8ZM250.791 56.112C250.386 56.112 250.05 55.9893 249.783 55.744C249.527 55.488 249.399 55.1733 249.399 54.8C249.399 54.4267 249.527 54.1173 249.783 53.872C250.05 53.616 250.386 53.488 250.791 53.488C251.186 53.488 251.511 53.616 251.767 53.872C252.023 54.1173 252.151 54.4267 252.151 54.8C252.151 55.1733 252.023 55.488 251.767 55.744C251.511 55.9893 251.186 56.112 250.791 56.112ZM261.124 46.032L256.868 56H254.596L258.884 46.288H253.412V44.368H261.124V46.032ZM269.409 56L266.993 52.24L264.801 56H262.273L265.793 50.368L262.225 44.832H264.801L267.217 48.576L269.393 44.832H271.921L268.417 50.448L271.985 56H269.409Z" fill="#797979"/>
<path d="M110.993 18.524V21.32H114.041V22.22H110.993V25.1H114.401V26H109.901V17.624H114.401V18.524H110.993ZM119.257 19.304C120.057 19.304 120.705 19.548 121.201 20.036C121.697 20.516 121.945 21.212 121.945 22.124V26H120.865V22.28C120.865 21.624 120.701 21.124 120.373 20.78C120.045 20.428 119.597 20.252 119.029 20.252C118.453 20.252 117.993 20.432 117.649 20.792C117.313 21.152 117.145 21.676 117.145 22.364V26H116.053V19.424H117.145V20.36C117.361 20.024 117.653 19.764 118.021 19.58C118.397 19.396 118.809 19.304 119.257 19.304ZM126.441 19.316C127.009 19.316 127.505 19.44 127.929 19.688C128.361 19.936 128.681 20.248 128.889 20.624V19.424H129.993V26.144C129.993 26.744 129.865 27.276 129.609 27.74C129.353 28.212 128.985 28.58 128.505 28.844C128.033 29.108 127.481 29.24 126.849 29.24C125.985 29.24 125.265 29.036 124.689 28.628C124.113 28.22 123.773 27.664 123.669 26.96H124.749C124.869 27.36 125.117 27.68 125.493 27.92C125.869 28.168 126.321 28.292 126.849 28.292C127.449 28.292 127.937 28.104 128.313 27.728C128.697 27.352 128.889 26.824 128.889 26.144V24.764C128.673 25.148 128.353 25.468 127.929 25.724C127.505 25.98 127.009 26.108 126.441 26.108C125.857 26.108 125.325 25.964 124.845 25.676C124.373 25.388 124.001 24.984 123.729 24.464C123.457 23.944 123.321 23.352 123.321 22.688C123.321 22.016 123.457 21.428 123.729 20.924C124.001 20.412 124.373 20.016 124.845 19.736C125.325 19.456 125.857 19.316 126.441 19.316ZM128.889 22.7C128.889 22.204 128.789 21.772 128.589 21.404C128.389 21.036 128.117 20.756 127.773 20.564C127.437 20.364 127.065 20.264 126.657 20.264C126.249 20.264 125.877 20.36 125.541 20.552C125.205 20.744 124.937 21.024 124.737 21.392C124.537 21.76 124.437 22.192 124.437 22.688C124.437 23.192 124.537 23.632 124.737 24.008C124.937 24.376 125.205 24.66 125.541 24.86C125.877 25.052 126.249 25.148 126.657 25.148C127.065 25.148 127.437 25.052 127.773 24.86C128.117 24.66 128.389 24.376 128.589 24.008C128.789 23.632 128.889 23.196 128.889 22.7ZM131.43 22.688C131.43 22.016 131.566 21.428 131.838 20.924C132.11 20.412 132.482 20.016 132.954 19.736C133.434 19.456 133.966 19.316 134.55 19.316C135.126 19.316 135.626 19.44 136.05 19.688C136.474 19.936 136.79 20.248 136.998 20.624V19.424H138.102V26H136.998V24.776C136.782 25.16 136.458 25.48 136.026 25.736C135.602 25.984 135.106 26.108 134.538 26.108C133.954 26.108 133.426 25.964 132.954 25.676C132.482 25.388 132.11 24.984 131.838 24.464C131.566 23.944 131.43 23.352 131.43 22.688ZM136.998 22.7C136.998 22.204 136.898 21.772 136.698 21.404C136.498 21.036 136.226 20.756 135.882 20.564C135.546 20.364 135.174 20.264 134.766 20.264C134.358 20.264 133.986 20.36 133.65 20.552C133.314 20.744 133.046 21.024 132.846 21.392C132.646 21.76 132.546 22.192 132.546 22.688C132.546 23.192 132.646 23.632 132.846 24.008C133.046 24.376 133.314 24.66 133.65 24.86C133.986 25.052 134.358 25.148 134.766 25.148C135.174 25.148 135.546 25.052 135.882 24.86C136.226 24.66 136.498 24.376 136.698 24.008C136.898 23.632 136.998 23.196 136.998 22.7ZM142.659 19.316C143.227 19.316 143.723 19.44 144.147 19.688C144.579 19.936 144.899 20.248 145.107 20.624V19.424H146.211V26.144C146.211 26.744 146.083 27.276 145.827 27.74C145.571 28.212 145.203 28.58 144.723 28.844C144.251 29.108 143.699 29.24 143.067 29.24C142.203 29.24 141.483 29.036 140.907 28.628C140.331 28.22 139.991 27.664 139.887 26.96H140.967C141.087 27.36 141.335 27.68 141.711 27.92C142.087 28.168 142.539 28.292 143.067 28.292C143.667 28.292 144.155 28.104 144.531 27.728C144.915 27.352 145.107 26.824 145.107 26.144V24.764C144.891 25.148 144.571 25.468 144.147 25.724C143.723 25.98 143.227 26.108 142.659 26.108C142.075 26.108 141.543 25.964 141.063 25.676C140.591 25.388 140.219 24.984 139.947 24.464C139.675 23.944 139.539 23.352 139.539 22.688C139.539 22.016 139.675 21.428 139.947 20.924C140.219 20.412 140.591 20.016 141.063 19.736C141.543 19.456 142.075 19.316 142.659 19.316ZM145.107 22.7C145.107 22.204 145.007 21.772 144.807 21.404C144.607 21.036 144.335 20.756 143.991 20.564C143.655 20.364 143.283 20.264 142.875 20.264C142.467 20.264 142.095 20.36 141.759 20.552C141.423 20.744 141.155 21.024 140.955 21.392C140.755 21.76 140.655 22.192 140.655 22.688C140.655 23.192 140.755 23.632 140.955 24.008C141.155 24.376 141.423 24.66 141.759 24.86C142.095 25.052 142.467 25.148 142.875 25.148C143.283 25.148 143.655 25.052 143.991 24.86C144.335 24.66 144.607 24.376 144.807 24.008C145.007 23.632 145.107 23.196 145.107 22.7ZM154.057 22.46C154.057 22.668 154.045 22.888 154.021 23.12H148.765C148.805 23.768 149.025 24.276 149.425 24.644C149.833 25.004 150.325 25.184 150.901 25.184C151.373 25.184 151.765 25.076 152.077 24.86C152.397 24.636 152.621 24.34 152.749 23.972H153.925C153.749 24.604 153.397 25.12 152.869 25.52C152.341 25.912 151.685 26.108 150.901 26.108C150.277 26.108 149.717 25.968 149.221 25.688C148.733 25.408 148.349 25.012 148.069 24.5C147.789 23.98 147.649 23.38 147.649 22.7C147.649 22.02 147.785 21.424 148.057 20.912C148.329 20.4 148.709 20.008 149.197 19.736C149.693 19.456 150.261 19.316 150.901 19.316C151.525 19.316 152.077 19.452 152.557 19.724C153.037 19.996 153.405 20.372 153.661 20.852C153.925 21.324 154.057 21.86 154.057 22.46ZM152.929 22.232C152.929 21.816 152.837 21.46 152.653 21.164C152.469 20.86 152.217 20.632 151.897 20.48C151.585 20.32 151.237 20.24 150.853 20.24C150.301 20.24 149.829 20.416 149.437 20.768C149.053 21.12 148.833 21.608 148.777 22.232H152.929ZM163.406 19.304C163.918 19.304 164.374 19.412 164.774 19.628C165.174 19.836 165.49 20.152 165.722 20.576C165.954 21 166.07 21.516 166.07 22.124V26H164.99V22.28C164.99 21.624 164.826 21.124 164.498 20.78C164.178 20.428 163.742 20.252 163.19 20.252C162.622 20.252 162.17 20.436 161.834 20.804C161.498 21.164 161.33 21.688 161.33 22.376V26H160.25V22.28C160.25 21.624 160.086 21.124 159.758 20.78C159.438 20.428 159.002 20.252 158.45 20.252C157.882 20.252 157.43 20.436 157.094 20.804C156.758 21.164 156.59 21.688 156.59 22.376V26H155.498V19.424H156.59V20.372C156.806 20.028 157.094 19.764 157.454 19.58C157.822 19.396 158.226 19.304 158.666 19.304C159.218 19.304 159.706 19.428 160.13 19.676C160.554 19.924 160.87 20.288 161.078 20.768C161.262 20.304 161.566 19.944 161.99 19.688C162.414 19.432 162.886 19.304 163.406 19.304ZM173.862 22.46C173.862 22.668 173.85 22.888 173.826 23.12H168.57C168.61 23.768 168.83 24.276 169.23 24.644C169.638 25.004 170.13 25.184 170.706 25.184C171.178 25.184 171.57 25.076 171.882 24.86C172.202 24.636 172.426 24.34 172.554 23.972H173.73C173.554 24.604 173.202 25.12 172.674 25.52C172.146 25.912 171.49 26.108 170.706 26.108C170.082 26.108 169.522 25.968 169.026 25.688C168.538 25.408 168.154 25.012 167.874 24.5C167.594 23.98 167.454 23.38 167.454 22.7C167.454 22.02 167.59 21.424 167.862 20.912C168.134 20.4 168.514 20.008 169.002 19.736C169.498 19.456 170.066 19.316 170.706 19.316C171.33 19.316 171.882 19.452 172.362 19.724C172.842 19.996 173.21 20.372 173.466 20.852C173.73 21.324 173.862 21.86 173.862 22.46ZM172.734 22.232C172.734 21.816 172.642 21.46 172.458 21.164C172.274 20.86 172.022 20.632 171.702 20.48C171.39 20.32 171.042 20.24 170.658 20.24C170.106 20.24 169.634 20.416 169.242 20.768C168.858 21.12 168.638 21.608 168.582 22.232H172.734ZM178.507 19.304C179.307 19.304 179.955 19.548 180.451 20.036C180.947 20.516 181.195 21.212 181.195 22.124V26H180.115V22.28C180.115 21.624 179.951 21.124 179.623 20.78C179.295 20.428 178.847 20.252 178.279 20.252C177.703 20.252 177.243 20.432 176.899 20.792C176.563 21.152 176.395 21.676 176.395 22.364V26H175.303V19.424H176.395V20.36C176.611 20.024 176.903 19.764 177.271 19.58C177.647 19.396 178.059 19.304 178.507 19.304ZM184.311 20.324V24.2C184.311 24.52 184.379 24.748 184.515 24.884C184.651 25.012 184.887 25.076 185.223 25.076H186.027V26H185.043C184.435 26 183.979 25.86 183.675 25.58C183.371 25.3 183.219 24.84 183.219 24.2V20.324H182.367V19.424H183.219V17.768H184.311V19.424H186.027V20.324H184.311ZM191.641 20.492C191.833 20.116 192.105 19.824 192.457 19.616C192.817 19.408 193.253 19.304 193.765 19.304V20.432H193.477C192.253 20.432 191.641 21.096 191.641 22.424V26H190.549V19.424H191.641V20.492ZM194.618 22.688C194.618 22.016 194.754 21.428 195.026 20.924C195.298 20.412 195.67 20.016 196.142 19.736C196.622 19.456 197.154 19.316 197.738 19.316C198.314 19.316 198.814 19.44 199.238 19.688C199.662 19.936 199.978 20.248 200.186 20.624V19.424H201.29V26H200.186V24.776C199.97 25.16 199.646 25.48 199.214 25.736C198.79 25.984 198.294 26.108 197.726 26.108C197.142 26.108 196.614 25.964 196.142 25.676C195.67 25.388 195.298 24.984 195.026 24.464C194.754 23.944 194.618 23.352 194.618 22.688ZM200.186 22.7C200.186 22.204 200.086 21.772 199.886 21.404C199.686 21.036 199.414 20.756 199.07 20.564C198.734 20.364 198.362 20.264 197.954 20.264C197.546 20.264 197.174 20.36 196.838 20.552C196.502 20.744 196.234 21.024 196.034 21.392C195.834 21.76 195.734 22.192 195.734 22.688C195.734 23.192 195.834 23.632 196.034 24.008C196.234 24.376 196.502 24.66 196.838 24.86C197.174 25.052 197.546 25.148 197.954 25.148C198.362 25.148 198.734 25.052 199.07 24.86C199.414 24.66 199.686 24.376 199.886 24.008C200.086 23.632 200.186 23.196 200.186 22.7ZM204.467 20.324V24.2C204.467 24.52 204.535 24.748 204.671 24.884C204.807 25.012 205.043 25.076 205.379 25.076H206.183V26H205.199C204.591 26 204.135 25.86 203.831 25.58C203.527 25.3 203.375 24.84 203.375 24.2V20.324H202.523V19.424H203.375V17.768H204.467V19.424H206.183V20.324H204.467ZM213.506 22.46C213.506 22.668 213.494 22.888 213.47 23.12H208.214C208.254 23.768 208.474 24.276 208.874 24.644C209.282 25.004 209.774 25.184 210.35 25.184C210.822 25.184 211.214 25.076 211.526 24.86C211.846 24.636 212.07 24.34 212.198 23.972H213.374C213.198 24.604 212.846 25.12 212.318 25.52C211.79 25.912 211.134 26.108 210.35 26.108C209.726 26.108 209.166 25.968 208.67 25.688C208.182 25.408 207.798 25.012 207.518 24.5C207.238 23.98 207.098 23.38 207.098 22.7C207.098 22.02 207.234 21.424 207.506 20.912C207.778 20.4 208.158 20.008 208.646 19.736C209.142 19.456 209.71 19.316 210.35 19.316C210.974 19.316 211.526 19.452 212.006 19.724C212.486 19.996 212.854 20.372 213.11 20.852C213.374 21.324 213.506 21.86 213.506 22.46ZM212.378 22.232C212.378 21.816 212.286 21.46 212.102 21.164C211.918 20.86 211.666 20.632 211.346 20.48C211.034 20.32 210.686 20.24 210.302 20.24C209.75 20.24 209.278 20.416 208.886 20.768C208.502 21.12 208.282 21.608 208.226 22.232H212.378Z" fill="black"/>
<path d="M108.977 27.2H115.133V27.8H108.977V27.2ZM115.129 27.2H122.809V27.8H115.129V27.2ZM122.805 27.2H130.917V27.8H122.805V27.2ZM130.914 27.2H139.026V27.8H130.914V27.2ZM139.023 27.2H147.135V27.8H139.023V27.2ZM147.133 27.2H182.059V27.8H147.133V27.2ZM182.055 27.2H189.63V27.8H182.055V27.2ZM189.625 27.2H202.214V27.8H189.625V27.2ZM202.211 27.2H214.022V27.8H202.211V27.2Z" fill="black"/>
</svg>
