<svg width="335" height="247" viewBox="0 0 335 247" fill="none" xmlns="http://www.w3.org/2000/svg">
<rect width="335" height="247" rx="6" fill="#F2F2F2"/>
<path d="M49.6392 51.032L45.3832 61H43.1112L47.3992 51.288H41.9272V49.368H49.6392V51.032ZM57.0288 52.248C56.9221 51.8 56.7355 51.464 56.4688 51.24C56.2128 51.016 55.8395 50.904 55.3488 50.904C54.6128 50.904 54.0688 51.2027 53.7168 51.8C53.3755 52.3867 53.1995 53.3467 53.1888 54.68C53.4448 54.2533 53.8181 53.9227 54.3088 53.688C54.7995 53.4427 55.3328 53.32 55.9088 53.32C56.6021 53.32 57.2155 53.4693 57.7488 53.768C58.2821 54.0667 58.6981 54.504 58.9968 55.08C59.2955 55.6453 59.4448 56.328 59.4448 57.128C59.4448 57.8853 59.2901 58.5627 58.9808 59.16C58.6821 59.7467 58.2395 60.2053 57.6528 60.536C57.0661 60.8667 56.3675 61.032 55.5568 61.032C54.4475 61.032 53.5728 60.7867 52.9328 60.296C52.3035 59.8053 51.8608 59.1227 51.6048 58.248C51.3595 57.3627 51.2368 56.2747 51.2368 54.984C51.2368 53.032 51.5728 51.56 52.2448 50.568C52.9168 49.5653 53.9781 49.064 55.4288 49.064C56.5488 49.064 57.4181 49.368 58.0368 49.976C58.6555 50.584 59.0128 51.3413 59.1088 52.248H57.0288ZM55.3968 55.16C54.8315 55.16 54.3568 55.3253 53.9728 55.656C53.5888 55.9867 53.3968 56.4667 53.3968 57.096C53.3968 57.7253 53.5728 58.2213 53.9248 58.584C54.2875 58.9467 54.7941 59.128 55.4448 59.128C56.0208 59.128 56.4741 58.952 56.8048 58.6C57.1461 58.248 57.3168 57.7733 57.3168 57.176C57.3168 56.5573 57.1515 56.0667 56.8208 55.704C56.5008 55.3413 56.0261 55.16 55.3968 55.16ZM60.9592 52.2C60.9592 51.3893 61.1939 50.7547 61.6632 50.296C62.1432 49.8373 62.7565 49.608 63.5032 49.608C64.2499 49.608 64.8579 49.8373 65.3272 50.296C65.8072 50.7547 66.0472 51.3893 66.0472 52.2C66.0472 53.0213 65.8072 53.6613 65.3272 54.12C64.8579 54.5787 64.2499 54.808 63.5032 54.808C62.7565 54.808 62.1432 54.5787 61.6632 54.12C61.1939 53.6613 60.9592 53.0213 60.9592 52.2ZM71.2312 49.8L64.9432 61H62.7672L69.0392 49.8H71.2312ZM63.4872 50.952C62.9005 50.952 62.6072 51.368 62.6072 52.2C62.6072 53.0427 62.9005 53.464 63.4872 53.464C63.7752 53.464 63.9992 53.3627 64.1592 53.16C64.3192 52.9467 64.3992 52.6267 64.3992 52.2C64.3992 51.368 64.0952 50.952 63.4872 50.952ZM67.9832 58.584C67.9832 57.7627 68.2179 57.128 68.6872 56.68C69.1672 56.2213 69.7805 55.992 70.5272 55.992C71.2739 55.992 71.8765 56.2213 72.3352 56.68C72.8045 57.128 73.0392 57.7627 73.0392 58.584C73.0392 59.4053 72.8045 60.0453 72.3352 60.504C71.8765 60.9627 71.2739 61.192 70.5272 61.192C69.7699 61.192 69.1565 60.9627 68.6872 60.504C68.2179 60.0453 67.9832 59.4053 67.9832 58.584ZM70.5112 57.336C69.9032 57.336 69.5992 57.752 69.5992 58.584C69.5992 59.4267 69.9032 59.848 70.5112 59.848C71.1085 59.848 71.4072 59.4267 71.4072 58.584C71.4072 57.752 71.1085 57.336 70.5112 57.336Z" fill="#797979"/>
<path d="M116.537 134.4V132.336H120.393V144H118.089V134.4H116.537ZM125.198 140.72C125.283 141.189 125.475 141.552 125.774 141.808C126.083 142.053 126.494 142.176 127.006 142.176C127.667 142.176 128.147 141.904 128.446 141.36C128.744 140.805 128.894 139.877 128.894 138.576C128.648 138.917 128.302 139.184 127.854 139.376C127.416 139.568 126.942 139.664 126.43 139.664C125.747 139.664 125.128 139.525 124.574 139.248C124.03 138.96 123.598 138.539 123.278 137.984C122.958 137.419 122.798 136.736 122.798 135.936C122.798 134.752 123.15 133.813 123.854 133.12C124.558 132.416 125.518 132.064 126.734 132.064C128.248 132.064 129.315 132.549 129.934 133.52C130.563 134.491 130.878 135.952 130.878 137.904C130.878 139.291 130.755 140.427 130.51 141.312C130.275 142.197 129.864 142.869 129.278 143.328C128.702 143.787 127.912 144.016 126.91 144.016C126.12 144.016 125.448 143.867 124.894 143.568C124.339 143.259 123.912 142.859 123.614 142.368C123.326 141.867 123.16 141.317 123.118 140.72H125.198ZM126.894 137.84C127.448 137.84 127.886 137.669 128.206 137.328C128.526 136.987 128.686 136.528 128.686 135.952C128.686 135.323 128.515 134.837 128.174 134.496C127.843 134.144 127.39 133.968 126.814 133.968C126.238 133.968 125.779 134.149 125.438 134.512C125.107 134.864 124.942 135.333 124.942 135.92C124.942 136.485 125.102 136.949 125.422 137.312C125.752 137.664 126.243 137.84 126.894 137.84ZM132.365 135.2C132.365 134.389 132.6 133.755 133.069 133.296C133.549 132.837 134.163 132.608 134.909 132.608C135.656 132.608 136.264 132.837 136.733 133.296C137.213 133.755 137.453 134.389 137.453 135.2C137.453 136.021 137.213 136.661 136.733 137.12C136.264 137.579 135.656 137.808 134.909 137.808C134.163 137.808 133.549 137.579 133.069 137.12C132.6 136.661 132.365 136.021 132.365 135.2ZM142.637 132.8L136.349 144H134.173L140.445 132.8H142.637ZM134.893 133.952C134.307 133.952 134.013 134.368 134.013 135.2C134.013 136.043 134.307 136.464 134.893 136.464C135.181 136.464 135.405 136.363 135.565 136.16C135.725 135.947 135.805 135.627 135.805 135.2C135.805 134.368 135.501 133.952 134.893 133.952ZM139.389 141.584C139.389 140.763 139.624 140.128 140.093 139.68C140.573 139.221 141.187 138.992 141.933 138.992C142.68 138.992 143.283 139.221 143.741 139.68C144.211 140.128 144.445 140.763 144.445 141.584C144.445 142.405 144.211 143.045 143.741 143.504C143.283 143.963 142.68 144.192 141.933 144.192C141.176 144.192 140.563 143.963 140.093 143.504C139.624 143.045 139.389 142.405 139.389 141.584ZM141.917 140.336C141.309 140.336 141.005 140.752 141.005 141.584C141.005 142.427 141.309 142.848 141.917 142.848C142.515 142.848 142.813 142.427 142.813 141.584C142.813 140.752 142.515 140.336 141.917 140.336Z" fill="#797979"/>
<path d="M193.33 170.728V168.968L198.562 161.48H201.17V168.776H202.578V170.728H201.17V173H198.93V170.728H193.33ZM199.074 163.88L195.794 168.776H199.074V163.88ZM203.748 164.2C203.748 163.389 203.983 162.755 204.452 162.296C204.932 161.837 205.546 161.608 206.292 161.608C207.039 161.608 207.647 161.837 208.116 162.296C208.596 162.755 208.836 163.389 208.836 164.2C208.836 165.021 208.596 165.661 208.116 166.12C207.647 166.579 207.039 166.808 206.292 166.808C205.546 166.808 204.932 166.579 204.452 166.12C203.983 165.661 203.748 165.021 203.748 164.2ZM214.02 161.8L207.732 173H205.556L211.828 161.8H214.02ZM206.276 162.952C205.69 162.952 205.396 163.368 205.396 164.2C205.396 165.043 205.69 165.464 206.276 165.464C206.564 165.464 206.788 165.363 206.948 165.16C207.108 164.947 207.188 164.627 207.188 164.2C207.188 163.368 206.884 162.952 206.276 162.952ZM210.772 170.584C210.772 169.763 211.007 169.128 211.476 168.68C211.956 168.221 212.57 167.992 213.316 167.992C214.063 167.992 214.666 168.221 215.124 168.68C215.594 169.128 215.828 169.763 215.828 170.584C215.828 171.405 215.594 172.045 215.124 172.504C214.666 172.963 214.063 173.192 213.316 173.192C212.559 173.192 211.946 172.963 211.476 172.504C211.007 172.045 210.772 171.405 210.772 170.584ZM213.3 169.336C212.692 169.336 212.388 169.752 212.388 170.584C212.388 171.427 212.692 171.848 213.3 171.848C213.898 171.848 214.196 171.427 214.196 170.584C214.196 169.752 213.898 169.336 213.3 169.336Z" fill="#797979"/>
<path d="M269.545 169.4V167.336H273.401V179H271.097V169.4H269.545ZM275.358 170.2C275.358 169.389 275.592 168.755 276.062 168.296C276.542 167.837 277.155 167.608 277.902 167.608C278.648 167.608 279.256 167.837 279.726 168.296C280.206 168.755 280.446 169.389 280.446 170.2C280.446 171.021 280.206 171.661 279.726 172.12C279.256 172.579 278.648 172.808 277.902 172.808C277.155 172.808 276.542 172.579 276.062 172.12C275.592 171.661 275.358 171.021 275.358 170.2ZM285.63 167.8L279.342 179H277.166L283.438 167.8H285.63ZM277.886 168.952C277.299 168.952 277.006 169.368 277.006 170.2C277.006 171.043 277.299 171.464 277.886 171.464C278.174 171.464 278.398 171.363 278.558 171.16C278.718 170.947 278.798 170.627 278.798 170.2C278.798 169.368 278.494 168.952 277.886 168.952ZM282.382 176.584C282.382 175.763 282.616 175.128 283.086 174.68C283.566 174.221 284.179 173.992 284.926 173.992C285.672 173.992 286.275 174.221 286.734 174.68C287.203 175.128 287.438 175.763 287.438 176.584C287.438 177.405 287.203 178.045 286.734 178.504C286.275 178.963 285.672 179.192 284.926 179.192C284.168 179.192 283.555 178.963 283.086 178.504C282.616 178.045 282.382 177.405 282.382 176.584ZM284.91 175.336C284.302 175.336 283.998 175.752 283.998 176.584C283.998 177.427 284.302 177.848 284.91 177.848C285.507 177.848 285.806 177.427 285.806 176.584C285.806 175.752 285.507 175.336 284.91 175.336Z" fill="#797979"/>
<path d="M37.6727 205.14H34.0247L33.3527 207H32.2007L35.2247 198.684H36.4847L39.4967 207H38.3447L37.6727 205.14ZM37.3607 204.252L35.8487 200.028L34.3367 204.252H37.3607ZM43.2626 205.992L45.3026 200.424H46.4666L43.8866 207H42.6146L40.0346 200.424H41.2106L43.2626 205.992ZM53.5412 203.46C53.5412 203.668 53.5292 203.888 53.5052 204.12H48.2492C48.2892 204.768 48.5092 205.276 48.9092 205.644C49.3172 206.004 49.8092 206.184 50.3852 206.184C50.8572 206.184 51.2492 206.076 51.5612 205.86C51.8812 205.636 52.1052 205.34 52.2332 204.972H53.4092C53.2332 205.604 52.8812 206.12 52.3532 206.52C51.8252 206.912 51.1692 207.108 50.3852 207.108C49.7612 207.108 49.2012 206.968 48.7052 206.688C48.2172 206.408 47.8332 206.012 47.5532 205.5C47.2732 204.98 47.1332 204.38 47.1332 203.7C47.1332 203.02 47.2692 202.424 47.5412 201.912C47.8132 201.4 48.1932 201.008 48.6812 200.736C49.1772 200.456 49.7452 200.316 50.3852 200.316C51.0092 200.316 51.5612 200.452 52.0412 200.724C52.5212 200.996 52.8892 201.372 53.1452 201.852C53.4092 202.324 53.5412 202.86 53.5412 203.46ZM52.4132 203.232C52.4132 202.816 52.3212 202.46 52.1372 202.164C51.9532 201.86 51.7012 201.632 51.3812 201.48C51.0692 201.32 50.7212 201.24 50.3372 201.24C49.7852 201.24 49.3132 201.416 48.9212 201.768C48.5372 202.12 48.3172 202.608 48.2612 203.232H52.4132ZM56.0746 201.492C56.2666 201.116 56.5386 200.824 56.8906 200.616C57.2506 200.408 57.6866 200.304 58.1986 200.304V201.432H57.9106C56.6866 201.432 56.0746 202.096 56.0746 203.424V207H54.9826V200.424H56.0746V201.492ZM59.0512 203.688C59.0512 203.016 59.1872 202.428 59.4592 201.924C59.7312 201.412 60.1032 201.016 60.5752 200.736C61.0552 200.456 61.5872 200.316 62.1712 200.316C62.7472 200.316 63.2472 200.44 63.6712 200.688C64.0952 200.936 64.4112 201.248 64.6192 201.624V200.424H65.7232V207H64.6192V205.776C64.4032 206.16 64.0792 206.48 63.6472 206.736C63.2232 206.984 62.7272 207.108 62.1592 207.108C61.5752 207.108 61.0472 206.964 60.5752 206.676C60.1032 206.388 59.7312 205.984 59.4592 205.464C59.1872 204.944 59.0512 204.352 59.0512 203.688ZM64.6192 203.7C64.6192 203.204 64.5192 202.772 64.3192 202.404C64.1192 202.036 63.8472 201.756 63.5032 201.564C63.1672 201.364 62.7952 201.264 62.3872 201.264C61.9792 201.264 61.6072 201.36 61.2712 201.552C60.9352 201.744 60.6672 202.024 60.4672 202.392C60.2672 202.76 60.1672 203.192 60.1672 203.688C60.1672 204.192 60.2672 204.632 60.4672 205.008C60.6672 205.376 60.9352 205.66 61.2712 205.86C61.6072 206.052 61.9792 206.148 62.3872 206.148C62.7952 206.148 63.1672 206.052 63.5032 205.86C63.8472 205.66 64.1192 205.376 64.3192 205.008C64.5192 204.632 64.6192 204.196 64.6192 203.7ZM70.2805 200.316C70.8485 200.316 71.3445 200.44 71.7685 200.688C72.2005 200.936 72.5205 201.248 72.7285 201.624V200.424H73.8325V207.144C73.8325 207.744 73.7045 208.276 73.4485 208.74C73.1925 209.212 72.8245 209.58 72.3445 209.844C71.8725 210.108 71.3205 210.24 70.6885 210.24C69.8245 210.24 69.1045 210.036 68.5285 209.628C67.9525 209.22 67.6125 208.664 67.5085 207.96H68.5885C68.7085 208.36 68.9565 208.68 69.3325 208.92C69.7085 209.168 70.1605 209.292 70.6885 209.292C71.2885 209.292 71.7765 209.104 72.1525 208.728C72.5365 208.352 72.7285 207.824 72.7285 207.144V205.764C72.5125 206.148 72.1925 206.468 71.7685 206.724C71.3445 206.98 70.8485 207.108 70.2805 207.108C69.6965 207.108 69.1645 206.964 68.6845 206.676C68.2125 206.388 67.8405 205.984 67.5685 205.464C67.2965 204.944 67.1605 204.352 67.1605 203.688C67.1605 203.016 67.2965 202.428 67.5685 201.924C67.8405 201.412 68.2125 201.016 68.6845 200.736C69.1645 200.456 69.6965 200.316 70.2805 200.316ZM72.7285 203.7C72.7285 203.204 72.6285 202.772 72.4285 202.404C72.2285 202.036 71.9565 201.756 71.6125 201.564C71.2765 201.364 70.9045 201.264 70.4965 201.264C70.0885 201.264 69.7165 201.36 69.3805 201.552C69.0445 201.744 68.7765 202.024 68.5765 202.392C68.3765 202.76 68.2765 203.192 68.2765 203.688C68.2765 204.192 68.3765 204.632 68.5765 205.008C68.7765 205.376 69.0445 205.66 69.3805 205.86C69.7165 206.052 70.0885 206.148 70.4965 206.148C70.9045 206.148 71.2765 206.052 71.6125 205.86C71.9565 205.66 72.2285 205.376 72.4285 205.008C72.6285 204.632 72.7285 204.196 72.7285 203.7ZM81.6779 203.46C81.6779 203.668 81.6659 203.888 81.6419 204.12H76.3859C76.4259 204.768 76.6459 205.276 77.0459 205.644C77.4539 206.004 77.9459 206.184 78.5219 206.184C78.9939 206.184 79.3859 206.076 79.6979 205.86C80.0179 205.636 80.2419 205.34 80.3699 204.972H81.5459C81.3699 205.604 81.0179 206.12 80.4899 206.52C79.9619 206.912 79.3059 207.108 78.5219 207.108C77.8979 207.108 77.3379 206.968 76.8419 206.688C76.3539 206.408 75.9699 206.012 75.6899 205.5C75.4099 204.98 75.2699 204.38 75.2699 203.7C75.2699 203.02 75.4059 202.424 75.6779 201.912C75.9499 201.4 76.3299 201.008 76.8179 200.736C77.3139 200.456 77.8819 200.316 78.5219 200.316C79.1459 200.316 79.6979 200.452 80.1779 200.724C80.6579 200.996 81.0259 201.372 81.2819 201.852C81.5459 202.324 81.6779 202.86 81.6779 203.46ZM80.5499 203.232C80.5499 202.816 80.4579 202.46 80.2739 202.164C80.0899 201.86 79.8379 201.632 79.5179 201.48C79.2059 201.32 78.8579 201.24 78.4739 201.24C77.9219 201.24 77.4499 201.416 77.0579 201.768C76.6739 202.12 76.4539 202.608 76.3979 203.232H80.5499ZM28.7348 215.7C28.7348 215.02 28.8708 214.428 29.1428 213.924C29.4148 213.412 29.7908 213.016 30.2708 212.736C30.7588 212.456 31.3148 212.316 31.9388 212.316C32.7468 212.316 33.4108 212.512 33.9308 212.904C34.4588 213.296 34.8068 213.84 34.9748 214.536H33.7988C33.6868 214.136 33.4668 213.82 33.1388 213.588C32.8188 213.356 32.4188 213.24 31.9388 213.24C31.3148 213.24 30.8108 213.456 30.4268 213.888C30.0428 214.312 29.8508 214.916 29.8508 215.7C29.8508 216.492 30.0428 217.104 30.4268 217.536C30.8108 217.968 31.3148 218.184 31.9388 218.184C32.4188 218.184 32.8188 218.072 33.1388 217.848C33.4588 217.624 33.6788 217.304 33.7988 216.888H34.9748C34.7988 217.56 34.4468 218.1 33.9188 218.508C33.3908 218.908 32.7308 219.108 31.9388 219.108C31.3148 219.108 30.7588 218.968 30.2708 218.688C29.7908 218.408 29.4148 218.012 29.1428 217.5C28.8708 216.988 28.7348 216.388 28.7348 215.7ZM42.2638 212.424V219H41.1718V218.028C40.9638 218.364 40.6718 218.628 40.2958 218.82C39.9278 219.004 39.5198 219.096 39.0718 219.096C38.5598 219.096 38.0998 218.992 37.6918 218.784C37.2838 218.568 36.9598 218.248 36.7198 217.824C36.4878 217.4 36.3718 216.884 36.3718 216.276V212.424H37.4518V216.132C37.4518 216.78 37.6158 217.28 37.9438 217.632C38.2718 217.976 38.7198 218.148 39.2878 218.148C39.8718 218.148 40.3318 217.968 40.6678 217.608C41.0038 217.248 41.1718 216.724 41.1718 216.036V212.424H42.2638ZM46.4356 219.108C45.9316 219.108 45.4796 219.024 45.0796 218.856C44.6796 218.68 44.3636 218.44 44.1316 218.136C43.8996 217.824 43.7716 217.468 43.7476 217.068H44.8756C44.9076 217.396 45.0596 217.664 45.3316 217.872C45.6116 218.08 45.9756 218.184 46.4236 218.184C46.8396 218.184 47.1676 218.092 47.4076 217.908C47.6476 217.724 47.7676 217.492 47.7676 217.212C47.7676 216.924 47.6396 216.712 47.3836 216.576C47.1276 216.432 46.7316 216.292 46.1956 216.156C45.7076 216.028 45.3076 215.9 44.9956 215.772C44.6916 215.636 44.4276 215.44 44.2036 215.184C43.9876 214.92 43.8796 214.576 43.8796 214.152C43.8796 213.816 43.9796 213.508 44.1796 213.228C44.3796 212.948 44.6636 212.728 45.0316 212.568C45.3996 212.4 45.8196 212.316 46.2916 212.316C47.0196 212.316 47.6076 212.5 48.0556 212.868C48.5036 213.236 48.7436 213.74 48.7756 214.38H47.6836C47.6596 214.036 47.5196 213.76 47.2636 213.552C47.0156 213.344 46.6796 213.24 46.2556 213.24C45.8636 213.24 45.5516 213.324 45.3196 213.492C45.0876 213.66 44.9716 213.88 44.9716 214.152C44.9716 214.368 45.0396 214.548 45.1756 214.692C45.3196 214.828 45.4956 214.94 45.7036 215.028C45.9196 215.108 46.2156 215.2 46.5916 215.304C47.0636 215.432 47.4476 215.56 47.7436 215.688C48.0396 215.808 48.2916 215.992 48.4996 216.24C48.7156 216.488 48.8276 216.812 48.8356 217.212C48.8356 217.572 48.7356 217.896 48.5356 218.184C48.3356 218.472 48.0516 218.7 47.6836 218.868C47.3236 219.028 46.9076 219.108 46.4356 219.108ZM51.7091 213.324V217.2C51.7091 217.52 51.7771 217.748 51.9131 217.884C52.0491 218.012 52.2851 218.076 52.6211 218.076H53.4251V219H52.4411C51.8331 219 51.3771 218.86 51.0731 218.58C50.7691 218.3 50.6171 217.84 50.6171 217.2V213.324H49.7651V212.424H50.6171V210.768H51.7091V212.424H53.4251V213.324H51.7091ZM57.6162 219.108C57.0002 219.108 56.4402 218.968 55.9362 218.688C55.4402 218.408 55.0482 218.012 54.7602 217.5C54.4802 216.98 54.3402 216.38 54.3402 215.7C54.3402 215.028 54.4842 214.436 54.7722 213.924C55.0682 213.404 55.4682 213.008 55.9722 212.736C56.4762 212.456 57.0402 212.316 57.6642 212.316C58.2882 212.316 58.8522 212.456 59.3562 212.736C59.8602 213.008 60.2562 213.4 60.5442 213.912C60.8402 214.424 60.9882 215.02 60.9882 215.7C60.9882 216.38 60.8362 216.98 60.5322 217.5C60.2362 218.012 59.8322 218.408 59.3202 218.688C58.8082 218.968 58.2402 219.108 57.6162 219.108ZM57.6162 218.148C58.0082 218.148 58.3762 218.056 58.7202 217.872C59.0642 217.688 59.3402 217.412 59.5482 217.044C59.7642 216.676 59.8722 216.228 59.8722 215.7C59.8722 215.172 59.7682 214.724 59.5602 214.356C59.3522 213.988 59.0802 213.716 58.7442 213.54C58.4082 213.356 58.0442 213.264 57.6522 213.264C57.2522 213.264 56.8842 213.356 56.5482 213.54C56.2202 213.716 55.9562 213.988 55.7562 214.356C55.5562 214.724 55.4562 215.172 55.4562 215.7C55.4562 216.236 55.5522 216.688 55.7442 217.056C55.9442 217.424 56.2082 217.7 56.5362 217.884C56.8642 218.06 57.2242 218.148 57.6162 218.148ZM70.332 212.304C70.844 212.304 71.3 212.412 71.7 212.628C72.1 212.836 72.416 213.152 72.648 213.576C72.88 214 72.996 214.516 72.996 215.124V219H71.916V215.28C71.916 214.624 71.752 214.124 71.424 213.78C71.104 213.428 70.668 213.252 70.116 213.252C69.548 213.252 69.096 213.436 68.76 213.804C68.424 214.164 68.256 214.688 68.256 215.376V219H67.176V215.28C67.176 214.624 67.012 214.124 66.684 213.78C66.364 213.428 65.928 213.252 65.376 213.252C64.808 213.252 64.356 213.436 64.02 213.804C63.684 214.164 63.516 214.688 63.516 215.376V219H62.424V212.424H63.516V213.372C63.732 213.028 64.02 212.764 64.38 212.58C64.748 212.396 65.152 212.304 65.592 212.304C66.144 212.304 66.632 212.428 67.056 212.676C67.48 212.924 67.796 213.288 68.004 213.768C68.188 213.304 68.492 212.944 68.916 212.688C69.34 212.432 69.812 212.304 70.332 212.304ZM80.7873 215.46C80.7873 215.668 80.7753 215.888 80.7513 216.12H75.4953C75.5353 216.768 75.7553 217.276 76.1553 217.644C76.5633 218.004 77.0553 218.184 77.6313 218.184C78.1033 218.184 78.4953 218.076 78.8073 217.86C79.1273 217.636 79.3513 217.34 79.4793 216.972H80.6553C80.4793 217.604 80.1273 218.12 79.5993 218.52C79.0713 218.912 78.4153 219.108 77.6313 219.108C77.0073 219.108 76.4473 218.968 75.9513 218.688C75.4633 218.408 75.0793 218.012 74.7993 217.5C74.5193 216.98 74.3793 216.38 74.3793 215.7C74.3793 215.02 74.5153 214.424 74.7873 213.912C75.0593 213.4 75.4393 213.008 75.9273 212.736C76.4233 212.456 76.9913 212.316 77.6313 212.316C78.2553 212.316 78.8073 212.452 79.2873 212.724C79.7673 212.996 80.1353 213.372 80.3913 213.852C80.6553 214.324 80.7873 214.86 80.7873 215.46ZM79.6593 215.232C79.6593 214.816 79.5673 214.46 79.3833 214.164C79.1993 213.86 78.9473 213.632 78.6273 213.48C78.3153 213.32 77.9673 213.24 77.5833 213.24C77.0313 213.24 76.5593 213.416 76.1673 213.768C75.7833 214.12 75.5633 214.608 75.5073 215.232H79.6593ZM83.3207 213.492C83.5127 213.116 83.7847 212.824 84.1367 212.616C84.4967 212.408 84.9327 212.304 85.4447 212.304V213.432H85.1567C83.9327 213.432 83.3207 214.096 83.3207 215.424V219H82.2287V212.424H83.3207V213.492Z" fill="#797979"/>
<path d="M190.358 206.112H193.286V207H189.266V198.636H190.358V206.112ZM194.037 203.688C194.037 203.016 194.173 202.428 194.445 201.924C194.717 201.412 195.089 201.016 195.561 200.736C196.041 200.456 196.573 200.316 197.157 200.316C197.733 200.316 198.233 200.44 198.657 200.688C199.081 200.936 199.397 201.248 199.605 201.624V200.424H200.709V207H199.605V205.776C199.389 206.16 199.065 206.48 198.633 206.736C198.209 206.984 197.713 207.108 197.145 207.108C196.561 207.108 196.033 206.964 195.561 206.676C195.089 206.388 194.717 205.984 194.445 205.464C194.173 204.944 194.037 204.352 194.037 203.688ZM199.605 203.7C199.605 203.204 199.505 202.772 199.305 202.404C199.105 202.036 198.833 201.756 198.489 201.564C198.153 201.364 197.781 201.264 197.373 201.264C196.965 201.264 196.593 201.36 196.257 201.552C195.921 201.744 195.653 202.024 195.453 202.392C195.253 202.76 195.153 203.192 195.153 203.688C195.153 204.192 195.253 204.632 195.453 205.008C195.653 205.376 195.921 205.66 196.257 205.86C196.593 206.052 196.965 206.148 197.373 206.148C197.781 206.148 198.153 206.052 198.489 205.86C198.833 205.66 199.105 205.376 199.305 205.008C199.505 204.632 199.605 204.196 199.605 203.7ZM203.647 201.492C203.839 201.116 204.111 200.824 204.463 200.616C204.823 200.408 205.259 200.304 205.771 200.304V201.432H205.483C204.259 201.432 203.647 202.096 203.647 203.424V207H202.555V200.424H203.647V201.492ZM209.743 200.316C210.311 200.316 210.807 200.44 211.231 200.688C211.663 200.936 211.983 201.248 212.191 201.624V200.424H213.295V207.144C213.295 207.744 213.167 208.276 212.911 208.74C212.655 209.212 212.287 209.58 211.807 209.844C211.335 210.108 210.783 210.24 210.151 210.24C209.287 210.24 208.567 210.036 207.991 209.628C207.415 209.22 207.075 208.664 206.971 207.96H208.051C208.171 208.36 208.419 208.68 208.795 208.92C209.171 209.168 209.623 209.292 210.151 209.292C210.751 209.292 211.239 209.104 211.615 208.728C211.999 208.352 212.191 207.824 212.191 207.144V205.764C211.975 206.148 211.655 206.468 211.231 206.724C210.807 206.98 210.311 207.108 209.743 207.108C209.159 207.108 208.627 206.964 208.147 206.676C207.675 206.388 207.303 205.984 207.031 205.464C206.759 204.944 206.623 204.352 206.623 203.688C206.623 203.016 206.759 202.428 207.031 201.924C207.303 201.412 207.675 201.016 208.147 200.736C208.627 200.456 209.159 200.316 209.743 200.316ZM212.191 203.7C212.191 203.204 212.091 202.772 211.891 202.404C211.691 202.036 211.419 201.756 211.075 201.564C210.739 201.364 210.367 201.264 209.959 201.264C209.551 201.264 209.179 201.36 208.843 201.552C208.507 201.744 208.239 202.024 208.039 202.392C207.839 202.76 207.739 203.192 207.739 203.688C207.739 204.192 207.839 204.632 208.039 205.008C208.239 205.376 208.507 205.66 208.843 205.86C209.179 206.052 209.551 206.148 209.959 206.148C210.367 206.148 210.739 206.052 211.075 205.86C211.419 205.66 211.691 205.376 211.891 205.008C212.091 204.632 212.191 204.196 212.191 203.7ZM221.141 203.46C221.141 203.668 221.129 203.888 221.105 204.12H215.849C215.889 204.768 216.109 205.276 216.509 205.644C216.917 206.004 217.409 206.184 217.985 206.184C218.457 206.184 218.849 206.076 219.161 205.86C219.481 205.636 219.705 205.34 219.833 204.972H221.009C220.833 205.604 220.481 206.12 219.953 206.52C219.425 206.912 218.769 207.108 217.985 207.108C217.361 207.108 216.801 206.968 216.305 206.688C215.817 206.408 215.433 206.012 215.153 205.5C214.873 204.98 214.733 204.38 214.733 203.7C214.733 203.02 214.869 202.424 215.141 201.912C215.413 201.4 215.793 201.008 216.281 200.736C216.777 200.456 217.345 200.316 217.985 200.316C218.609 200.316 219.161 200.452 219.641 200.724C220.121 200.996 220.489 201.372 220.745 201.852C221.009 202.324 221.141 202.86 221.141 203.46ZM220.013 203.232C220.013 202.816 219.921 202.46 219.737 202.164C219.553 201.86 219.301 201.632 218.981 201.48C218.669 201.32 218.321 201.24 217.937 201.24C217.385 201.24 216.913 201.416 216.521 201.768C216.137 202.12 215.917 202.608 215.861 203.232H220.013ZM173.588 211.356C173.38 211.356 173.204 211.284 173.06 211.14C172.916 210.996 172.844 210.82 172.844 210.612C172.844 210.404 172.916 210.228 173.06 210.084C173.204 209.94 173.38 209.868 173.588 209.868C173.788 209.868 173.956 209.94 174.092 210.084C174.236 210.228 174.308 210.404 174.308 210.612C174.308 210.82 174.236 210.996 174.092 211.14C173.956 211.284 173.788 211.356 173.588 211.356ZM174.116 212.424V219H173.024V212.424H174.116ZM179.181 212.304C179.981 212.304 180.629 212.548 181.125 213.036C181.621 213.516 181.869 214.212 181.869 215.124V219H180.789V215.28C180.789 214.624 180.625 214.124 180.297 213.78C179.969 213.428 179.521 213.252 178.953 213.252C178.377 213.252 177.917 213.432 177.573 213.792C177.237 214.152 177.069 214.676 177.069 215.364V219H175.977V212.424H177.069V213.36C177.285 213.024 177.577 212.764 177.945 212.58C178.321 212.396 178.733 212.304 179.181 212.304ZM186.329 213.324H184.949V219H183.857V213.324H183.005V212.424H183.857V211.956C183.857 211.22 184.045 210.684 184.421 210.348C184.805 210.004 185.417 209.832 186.257 209.832V210.744C185.777 210.744 185.437 210.84 185.237 211.032C185.045 211.216 184.949 211.524 184.949 211.956V212.424H186.329V213.324ZM188.694 210.12V219H187.602V210.12H188.694ZM196.387 212.424V219H195.295V218.028C195.087 218.364 194.795 218.628 194.419 218.82C194.051 219.004 193.643 219.096 193.195 219.096C192.683 219.096 192.223 218.992 191.815 218.784C191.407 218.568 191.083 218.248 190.843 217.824C190.611 217.4 190.495 216.884 190.495 216.276V212.424H191.575V216.132C191.575 216.78 191.739 217.28 192.067 217.632C192.395 217.976 192.843 218.148 193.411 218.148C193.995 218.148 194.455 217.968 194.791 217.608C195.127 217.248 195.295 216.724 195.295 216.036V212.424H196.387ZM204.231 215.46C204.231 215.668 204.219 215.888 204.195 216.12H198.939C198.979 216.768 199.199 217.276 199.599 217.644C200.007 218.004 200.499 218.184 201.075 218.184C201.547 218.184 201.939 218.076 202.251 217.86C202.571 217.636 202.795 217.34 202.923 216.972H204.099C203.923 217.604 203.571 218.12 203.043 218.52C202.515 218.912 201.859 219.108 201.075 219.108C200.451 219.108 199.891 218.968 199.395 218.688C198.907 218.408 198.523 218.012 198.243 217.5C197.963 216.98 197.823 216.38 197.823 215.7C197.823 215.02 197.959 214.424 198.231 213.912C198.503 213.4 198.883 213.008 199.371 212.736C199.867 212.456 200.435 212.316 201.075 212.316C201.699 212.316 202.251 212.452 202.731 212.724C203.211 212.996 203.579 213.372 203.835 213.852C204.099 214.324 204.231 214.86 204.231 215.46ZM203.103 215.232C203.103 214.816 203.011 214.46 202.827 214.164C202.643 213.86 202.391 213.632 202.071 213.48C201.759 213.32 201.411 213.24 201.027 213.24C200.475 213.24 200.003 213.416 199.611 213.768C199.227 214.12 199.007 214.608 198.951 215.232H203.103ZM208.876 212.304C209.676 212.304 210.324 212.548 210.82 213.036C211.316 213.516 211.564 214.212 211.564 215.124V219H210.484V215.28C210.484 214.624 210.32 214.124 209.992 213.78C209.664 213.428 209.216 213.252 208.648 213.252C208.072 213.252 207.612 213.432 207.268 213.792C206.932 214.152 206.764 214.676 206.764 215.364V219H205.672V212.424H206.764V213.36C206.98 213.024 207.272 212.764 207.64 212.58C208.016 212.396 208.428 212.304 208.876 212.304ZM212.94 215.7C212.94 215.02 213.076 214.428 213.348 213.924C213.62 213.412 213.996 213.016 214.476 212.736C214.964 212.456 215.52 212.316 216.144 212.316C216.952 212.316 217.616 212.512 218.136 212.904C218.664 213.296 219.012 213.84 219.18 214.536H218.004C217.892 214.136 217.672 213.82 217.344 213.588C217.024 213.356 216.624 213.24 216.144 213.24C215.52 213.24 215.016 213.456 214.632 213.888C214.248 214.312 214.056 214.916 214.056 215.7C214.056 216.492 214.248 217.104 214.632 217.536C215.016 217.968 215.52 218.184 216.144 218.184C216.624 218.184 217.024 218.072 217.344 217.848C217.664 217.624 217.884 217.304 218.004 216.888H219.18C219.004 217.56 218.652 218.1 218.124 218.508C217.596 218.908 216.936 219.108 216.144 219.108C215.52 219.108 214.964 218.968 214.476 218.688C213.996 218.408 213.62 218.012 213.348 217.5C213.076 216.988 212.94 216.388 212.94 215.7ZM226.637 215.46C226.637 215.668 226.625 215.888 226.601 216.12H221.345C221.385 216.768 221.605 217.276 222.005 217.644C222.413 218.004 222.905 218.184 223.481 218.184C223.953 218.184 224.345 218.076 224.657 217.86C224.977 217.636 225.201 217.34 225.329 216.972H226.505C226.329 217.604 225.977 218.12 225.449 218.52C224.921 218.912 224.265 219.108 223.481 219.108C222.857 219.108 222.297 218.968 221.801 218.688C221.313 218.408 220.929 218.012 220.649 217.5C220.369 216.98 220.229 216.38 220.229 215.7C220.229 215.02 220.365 214.424 220.637 213.912C220.909 213.4 221.289 213.008 221.777 212.736C222.273 212.456 222.841 212.316 223.481 212.316C224.105 212.316 224.657 212.452 225.137 212.724C225.617 212.996 225.985 213.372 226.241 213.852C226.505 214.324 226.637 214.86 226.637 215.46ZM225.509 215.232C225.509 214.816 225.417 214.46 225.233 214.164C225.049 213.86 224.797 213.632 224.477 213.48C224.165 213.32 223.817 213.24 223.433 213.24C222.881 213.24 222.409 213.416 222.017 213.768C221.633 214.12 221.413 214.608 221.357 215.232H225.509ZM229.17 213.492C229.362 213.116 229.634 212.824 229.986 212.616C230.346 212.408 230.782 212.304 231.294 212.304V213.432H231.006C229.782 213.432 229.17 214.096 229.17 215.424V219H228.078V212.424H229.17V213.492ZM234.883 219.108C234.379 219.108 233.927 219.024 233.527 218.856C233.127 218.68 232.811 218.44 232.579 218.136C232.347 217.824 232.219 217.468 232.195 217.068H233.323C233.355 217.396 233.507 217.664 233.779 217.872C234.059 218.08 234.423 218.184 234.871 218.184C235.287 218.184 235.615 218.092 235.855 217.908C236.095 217.724 236.215 217.492 236.215 217.212C236.215 216.924 236.087 216.712 235.831 216.576C235.575 216.432 235.179 216.292 234.643 216.156C234.155 216.028 233.755 215.9 233.443 215.772C233.139 215.636 232.875 215.44 232.651 215.184C232.435 214.92 232.327 214.576 232.327 214.152C232.327 213.816 232.427 213.508 232.627 213.228C232.827 212.948 233.111 212.728 233.479 212.568C233.847 212.4 234.267 212.316 234.739 212.316C235.467 212.316 236.055 212.5 236.503 212.868C236.951 213.236 237.191 213.74 237.223 214.38H236.131C236.107 214.036 235.967 213.76 235.711 213.552C235.463 213.344 235.127 213.24 234.703 213.24C234.311 213.24 233.999 213.324 233.767 213.492C233.535 213.66 233.419 213.88 233.419 214.152C233.419 214.368 233.487 214.548 233.623 214.692C233.767 214.828 233.943 214.94 234.151 215.028C234.367 215.108 234.663 215.2 235.039 215.304C235.511 215.432 235.895 215.56 236.191 215.688C236.487 215.808 236.739 215.992 236.947 216.24C237.163 216.488 237.275 216.812 237.283 217.212C237.283 217.572 237.183 217.896 236.983 218.184C236.783 218.472 236.499 218.7 236.131 218.868C235.771 219.028 235.355 219.108 234.883 219.108Z" fill="#797979"/>
<path d="M246.676 202.812C246.676 201.996 246.86 201.264 247.228 200.616C247.596 199.96 248.096 199.448 248.728 199.08C249.368 198.712 250.076 198.528 250.852 198.528C251.764 198.528 252.56 198.748 253.24 199.188C253.92 199.628 254.416 200.252 254.728 201.06H253.42C253.188 200.556 252.852 200.168 252.412 199.896C251.98 199.624 251.46 199.488 250.852 199.488C250.268 199.488 249.744 199.624 249.28 199.896C248.816 200.168 248.452 200.556 248.188 201.06C247.924 201.556 247.792 202.14 247.792 202.812C247.792 203.476 247.924 204.06 248.188 204.564C248.452 205.06 248.816 205.444 249.28 205.716C249.744 205.988 250.268 206.124 250.852 206.124C251.46 206.124 251.98 205.992 252.412 205.728C252.852 205.456 253.188 205.068 253.42 204.564H254.728C254.416 205.364 253.92 205.984 253.24 206.424C252.56 206.856 251.764 207.072 250.852 207.072C250.076 207.072 249.368 206.892 248.728 206.532C248.096 206.164 247.596 205.656 247.228 205.008C246.86 204.36 246.676 203.628 246.676 202.812ZM262.354 203.46C262.354 203.668 262.342 203.888 262.318 204.12H257.062C257.102 204.768 257.322 205.276 257.722 205.644C258.13 206.004 258.622 206.184 259.198 206.184C259.67 206.184 260.062 206.076 260.374 205.86C260.694 205.636 260.918 205.34 261.046 204.972H262.222C262.046 205.604 261.694 206.12 261.166 206.52C260.638 206.912 259.982 207.108 259.198 207.108C258.574 207.108 258.014 206.968 257.518 206.688C257.03 206.408 256.646 206.012 256.366 205.5C256.086 204.98 255.946 204.38 255.946 203.7C255.946 203.02 256.082 202.424 256.354 201.912C256.626 201.4 257.006 201.008 257.494 200.736C257.99 200.456 258.558 200.316 259.198 200.316C259.822 200.316 260.374 200.452 260.854 200.724C261.334 200.996 261.702 201.372 261.958 201.852C262.222 202.324 262.354 202.86 262.354 203.46ZM261.226 203.232C261.226 202.816 261.134 202.46 260.95 202.164C260.766 201.86 260.514 201.632 260.194 201.48C259.882 201.32 259.534 201.24 259.15 201.24C258.598 201.24 258.126 201.416 257.734 201.768C257.35 202.12 257.13 202.608 257.074 203.232H261.226ZM264.887 198.12V207H263.795V198.12H264.887ZM272.748 203.46C272.748 203.668 272.736 203.888 272.712 204.12H267.456C267.496 204.768 267.716 205.276 268.116 205.644C268.524 206.004 269.016 206.184 269.592 206.184C270.064 206.184 270.456 206.076 270.768 205.86C271.088 205.636 271.312 205.34 271.44 204.972H272.616C272.44 205.604 272.088 206.12 271.56 206.52C271.032 206.912 270.376 207.108 269.592 207.108C268.968 207.108 268.408 206.968 267.912 206.688C267.424 206.408 267.04 206.012 266.76 205.5C266.48 204.98 266.34 204.38 266.34 203.7C266.34 203.02 266.476 202.424 266.748 201.912C267.02 201.4 267.4 201.008 267.888 200.736C268.384 200.456 268.952 200.316 269.592 200.316C270.216 200.316 270.768 200.452 271.248 200.724C271.728 200.996 272.096 201.372 272.352 201.852C272.616 202.324 272.748 202.86 272.748 203.46ZM271.62 203.232C271.62 202.816 271.528 202.46 271.344 202.164C271.16 201.86 270.908 201.632 270.588 201.48C270.276 201.32 269.928 201.24 269.544 201.24C268.992 201.24 268.52 201.416 268.128 201.768C267.744 202.12 267.524 202.608 267.468 203.232H271.62ZM275.282 201.648C275.506 201.256 275.834 200.936 276.266 200.688C276.698 200.44 277.19 200.316 277.742 200.316C278.334 200.316 278.866 200.456 279.338 200.736C279.81 201.016 280.182 201.412 280.454 201.924C280.726 202.428 280.862 203.016 280.862 203.688C280.862 204.352 280.726 204.944 280.454 205.464C280.182 205.984 279.806 206.388 279.326 206.676C278.854 206.964 278.326 207.108 277.742 207.108C277.174 207.108 276.674 206.984 276.242 206.736C275.818 206.488 275.498 206.172 275.282 205.788V207H274.19V198.12H275.282V201.648ZM279.746 203.688C279.746 203.192 279.646 202.76 279.446 202.392C279.246 202.024 278.974 201.744 278.63 201.552C278.294 201.36 277.922 201.264 277.514 201.264C277.114 201.264 276.742 201.364 276.398 201.564C276.062 201.756 275.79 202.04 275.582 202.416C275.382 202.784 275.282 203.212 275.282 203.7C275.282 204.196 275.382 204.632 275.582 205.008C275.79 205.376 276.062 205.66 276.398 205.86C276.742 206.052 277.114 206.148 277.514 206.148C277.922 206.148 278.294 206.052 278.63 205.86C278.974 205.66 279.246 205.376 279.446 205.008C279.646 204.632 279.746 204.192 279.746 203.688ZM283.391 201.492C283.583 201.116 283.855 200.824 284.207 200.616C284.567 200.408 285.003 200.304 285.515 200.304V201.432H285.227C284.003 201.432 283.391 202.096 283.391 203.424V207H282.299V200.424H283.391V201.492ZM287.34 199.356C287.132 199.356 286.956 199.284 286.812 199.14C286.668 198.996 286.596 198.82 286.596 198.612C286.596 198.404 286.668 198.228 286.812 198.084C286.956 197.94 287.132 197.868 287.34 197.868C287.54 197.868 287.708 197.94 287.844 198.084C287.988 198.228 288.06 198.404 288.06 198.612C288.06 198.82 287.988 198.996 287.844 199.14C287.708 199.284 287.54 199.356 287.34 199.356ZM287.868 200.424V207H286.776V200.424H287.868ZM291.061 201.324V205.2C291.061 205.52 291.129 205.748 291.265 205.884C291.401 206.012 291.637 206.076 291.973 206.076H292.777V207H291.793C291.185 207 290.729 206.86 290.425 206.58C290.121 206.3 289.969 205.84 289.969 205.2V201.324H289.117V200.424H289.969V198.768H291.061V200.424H292.777V201.324H291.061ZM294.664 199.356C294.456 199.356 294.28 199.284 294.136 199.14C293.992 198.996 293.92 198.82 293.92 198.612C293.92 198.404 293.992 198.228 294.136 198.084C294.28 197.94 294.456 197.868 294.664 197.868C294.864 197.868 295.032 197.94 295.168 198.084C295.312 198.228 295.384 198.404 295.384 198.612C295.384 198.82 295.312 198.996 295.168 199.14C295.032 199.284 294.864 199.356 294.664 199.356ZM295.192 200.424V207H294.1V200.424H295.192ZM303.053 203.46C303.053 203.668 303.041 203.888 303.017 204.12H297.761C297.801 204.768 298.021 205.276 298.421 205.644C298.829 206.004 299.321 206.184 299.897 206.184C300.369 206.184 300.761 206.076 301.073 205.86C301.393 205.636 301.617 205.34 301.745 204.972H302.921C302.745 205.604 302.393 206.12 301.865 206.52C301.337 206.912 300.681 207.108 299.897 207.108C299.273 207.108 298.713 206.968 298.217 206.688C297.729 206.408 297.345 206.012 297.065 205.5C296.785 204.98 296.645 204.38 296.645 203.7C296.645 203.02 296.781 202.424 297.053 201.912C297.325 201.4 297.705 201.008 298.193 200.736C298.689 200.456 299.257 200.316 299.897 200.316C300.521 200.316 301.073 200.452 301.553 200.724C302.033 200.996 302.401 201.372 302.657 201.852C302.921 202.324 303.053 202.86 303.053 203.46ZM301.925 203.232C301.925 202.816 301.833 202.46 301.649 202.164C301.465 201.86 301.213 201.632 300.893 201.48C300.581 201.32 300.233 201.24 299.849 201.24C299.297 201.24 298.825 201.416 298.433 201.768C298.049 202.12 297.829 202.608 297.773 203.232H301.925ZM306.822 207.108C306.318 207.108 305.866 207.024 305.466 206.856C305.066 206.68 304.75 206.44 304.518 206.136C304.286 205.824 304.158 205.468 304.134 205.068H305.262C305.294 205.396 305.446 205.664 305.718 205.872C305.998 206.08 306.362 206.184 306.81 206.184C307.226 206.184 307.554 206.092 307.794 205.908C308.034 205.724 308.154 205.492 308.154 205.212C308.154 204.924 308.026 204.712 307.77 204.576C307.514 204.432 307.118 204.292 306.582 204.156C306.094 204.028 305.694 203.9 305.382 203.772C305.078 203.636 304.814 203.44 304.59 203.184C304.374 202.92 304.266 202.576 304.266 202.152C304.266 201.816 304.366 201.508 304.566 201.228C304.766 200.948 305.05 200.728 305.418 200.568C305.786 200.4 306.206 200.316 306.678 200.316C307.406 200.316 307.994 200.5 308.442 200.868C308.89 201.236 309.13 201.74 309.162 202.38H308.07C308.046 202.036 307.906 201.76 307.65 201.552C307.402 201.344 307.066 201.24 306.642 201.24C306.25 201.24 305.938 201.324 305.706 201.492C305.474 201.66 305.358 201.88 305.358 202.152C305.358 202.368 305.426 202.548 305.562 202.692C305.706 202.828 305.882 202.94 306.09 203.028C306.306 203.108 306.602 203.2 306.978 203.304C307.45 203.432 307.834 203.56 308.13 203.688C308.426 203.808 308.678 203.992 308.886 204.24C309.102 204.488 309.214 204.812 309.222 205.212C309.222 205.572 309.122 205.896 308.922 206.184C308.722 206.472 308.438 206.7 308.07 206.868C307.71 207.028 307.294 207.108 306.822 207.108Z" fill="#797979"/>
<path d="M117.865 207.084C117.313 207.084 116.817 206.988 116.377 206.796C115.945 206.596 115.605 206.324 115.357 205.98C115.109 205.628 114.981 205.224 114.973 204.768H116.137C116.177 205.16 116.337 205.492 116.617 205.764C116.905 206.028 117.321 206.16 117.865 206.16C118.385 206.16 118.793 206.032 119.089 205.776C119.393 205.512 119.545 205.176 119.545 204.768C119.545 204.448 119.457 204.188 119.281 203.988C119.105 203.788 118.885 203.636 118.621 203.532C118.357 203.428 118.001 203.316 117.553 203.196C117.001 203.052 116.557 202.908 116.221 202.764C115.893 202.62 115.609 202.396 115.369 202.092C115.137 201.78 115.021 201.364 115.021 200.844C115.021 200.388 115.137 199.984 115.369 199.632C115.601 199.28 115.925 199.008 116.341 198.816C116.765 198.624 117.249 198.528 117.793 198.528C118.577 198.528 119.217 198.724 119.713 199.116C120.217 199.508 120.501 200.028 120.565 200.676H119.365C119.325 200.356 119.157 200.076 118.861 199.836C118.565 199.588 118.173 199.464 117.685 199.464C117.229 199.464 116.857 199.584 116.569 199.824C116.281 200.056 116.137 200.384 116.137 200.808C116.137 201.112 116.221 201.36 116.389 201.552C116.565 201.744 116.777 201.892 117.025 201.996C117.281 202.092 117.637 202.204 118.093 202.332C118.645 202.484 119.089 202.636 119.425 202.788C119.761 202.932 120.049 203.16 120.289 203.472C120.529 203.776 120.649 204.192 120.649 204.72C120.649 205.128 120.541 205.512 120.325 205.872C120.109 206.232 119.789 206.524 119.365 206.748C118.941 206.972 118.441 207.084 117.865 207.084ZM130.164 200.304C130.676 200.304 131.132 200.412 131.532 200.628C131.932 200.836 132.248 201.152 132.48 201.576C132.712 202 132.828 202.516 132.828 203.124V207H131.748V203.28C131.748 202.624 131.584 202.124 131.256 201.78C130.936 201.428 130.5 201.252 129.948 201.252C129.38 201.252 128.928 201.436 128.592 201.804C128.256 202.164 128.088 202.688 128.088 203.376V207H127.008V203.28C127.008 202.624 126.844 202.124 126.516 201.78C126.196 201.428 125.76 201.252 125.208 201.252C124.64 201.252 124.188 201.436 123.852 201.804C123.516 202.164 123.348 202.688 123.348 203.376V207H122.256V200.424H123.348V201.372C123.564 201.028 123.852 200.764 124.212 200.58C124.58 200.396 124.984 200.304 125.424 200.304C125.976 200.304 126.464 200.428 126.888 200.676C127.312 200.924 127.628 201.288 127.836 201.768C128.02 201.304 128.324 200.944 128.748 200.688C129.172 200.432 129.644 200.304 130.164 200.304ZM134.211 203.688C134.211 203.016 134.347 202.428 134.619 201.924C134.891 201.412 135.263 201.016 135.735 200.736C136.215 200.456 136.747 200.316 137.331 200.316C137.907 200.316 138.407 200.44 138.831 200.688C139.255 200.936 139.571 201.248 139.779 201.624V200.424H140.883V207H139.779V205.776C139.563 206.16 139.239 206.48 138.807 206.736C138.383 206.984 137.887 207.108 137.319 207.108C136.735 207.108 136.207 206.964 135.735 206.676C135.263 206.388 134.891 205.984 134.619 205.464C134.347 204.944 134.211 204.352 134.211 203.688ZM139.779 203.7C139.779 203.204 139.679 202.772 139.479 202.404C139.279 202.036 139.007 201.756 138.663 201.564C138.327 201.364 137.955 201.264 137.547 201.264C137.139 201.264 136.767 201.36 136.431 201.552C136.095 201.744 135.827 202.024 135.627 202.392C135.427 202.76 135.327 203.192 135.327 203.688C135.327 204.192 135.427 204.632 135.627 205.008C135.827 205.376 136.095 205.66 136.431 205.86C136.767 206.052 137.139 206.148 137.547 206.148C137.955 206.148 138.327 206.052 138.663 205.86C139.007 205.66 139.279 205.376 139.479 205.008C139.679 204.632 139.779 204.196 139.779 203.7ZM143.821 198.12V207H142.729V198.12H143.821ZM146.774 198.12V207H145.682V198.12H146.774ZM109.596 215.7C109.596 215.02 109.732 214.428 110.004 213.924C110.276 213.412 110.652 213.016 111.132 212.736C111.62 212.456 112.176 212.316 112.8 212.316C113.608 212.316 114.272 212.512 114.792 212.904C115.32 213.296 115.668 213.84 115.836 214.536H114.66C114.548 214.136 114.328 213.82 114 213.588C113.68 213.356 113.28 213.24 112.8 213.24C112.176 213.24 111.672 213.456 111.288 213.888C110.904 214.312 110.712 214.916 110.712 215.7C110.712 216.492 110.904 217.104 111.288 217.536C111.672 217.968 112.176 218.184 112.8 218.184C113.28 218.184 113.68 218.072 114 217.848C114.32 217.624 114.54 217.304 114.66 216.888H115.836C115.66 217.56 115.308 218.1 114.78 218.508C114.252 218.908 113.592 219.108 112.8 219.108C112.176 219.108 111.62 218.968 111.132 218.688C110.652 218.408 110.276 218.012 110.004 217.5C109.732 216.988 109.596 216.388 109.596 215.7ZM118.385 213.492C118.577 213.116 118.849 212.824 119.201 212.616C119.561 212.408 119.997 212.304 120.509 212.304V213.432H120.221C118.997 213.432 118.385 214.096 118.385 215.424V219H117.293V212.424H118.385V213.492ZM127.77 215.46C127.77 215.668 127.758 215.888 127.734 216.12H122.478C122.518 216.768 122.738 217.276 123.138 217.644C123.546 218.004 124.038 218.184 124.614 218.184C125.086 218.184 125.478 218.076 125.79 217.86C126.11 217.636 126.334 217.34 126.462 216.972H127.638C127.462 217.604 127.11 218.12 126.582 218.52C126.054 218.912 125.398 219.108 124.614 219.108C123.99 219.108 123.43 218.968 122.934 218.688C122.446 218.408 122.062 218.012 121.782 217.5C121.502 216.98 121.362 216.38 121.362 215.7C121.362 215.02 121.498 214.424 121.77 213.912C122.042 213.4 122.422 213.008 122.91 212.736C123.406 212.456 123.974 212.316 124.614 212.316C125.238 212.316 125.79 212.452 126.27 212.724C126.75 212.996 127.118 213.372 127.374 213.852C127.638 214.324 127.77 214.86 127.77 215.46ZM126.642 215.232C126.642 214.816 126.55 214.46 126.366 214.164C126.182 213.86 125.93 213.632 125.61 213.48C125.298 213.32 124.95 213.24 124.566 213.24C124.014 213.24 123.542 213.416 123.15 213.768C122.766 214.12 122.546 214.608 122.49 215.232H126.642ZM128.803 215.688C128.803 215.016 128.939 214.428 129.211 213.924C129.483 213.412 129.855 213.016 130.327 212.736C130.807 212.456 131.339 212.316 131.923 212.316C132.499 212.316 132.999 212.44 133.423 212.688C133.847 212.936 134.163 213.248 134.371 213.624V212.424H135.475V219H134.371V217.776C134.155 218.16 133.831 218.48 133.399 218.736C132.975 218.984 132.479 219.108 131.911 219.108C131.327 219.108 130.799 218.964 130.327 218.676C129.855 218.388 129.483 217.984 129.211 217.464C128.939 216.944 128.803 216.352 128.803 215.688ZM134.371 215.7C134.371 215.204 134.271 214.772 134.071 214.404C133.871 214.036 133.599 213.756 133.255 213.564C132.919 213.364 132.547 213.264 132.139 213.264C131.731 213.264 131.359 213.36 131.023 213.552C130.687 213.744 130.419 214.024 130.219 214.392C130.019 214.76 129.919 215.192 129.919 215.688C129.919 216.192 130.019 216.632 130.219 217.008C130.419 217.376 130.687 217.66 131.023 217.86C131.359 218.052 131.731 218.148 132.139 218.148C132.547 218.148 132.919 218.052 133.255 217.86C133.599 217.66 133.871 217.376 134.071 217.008C134.271 216.632 134.371 216.196 134.371 215.7ZM138.652 213.324V217.2C138.652 217.52 138.72 217.748 138.856 217.884C138.992 218.012 139.228 218.076 139.564 218.076H140.368V219H139.384C138.776 219 138.32 218.86 138.016 218.58C137.712 218.3 137.56 217.84 137.56 217.2V213.324H136.708V212.424H137.56V210.768H138.652V212.424H140.368V213.324H138.652ZM144.56 219.108C143.944 219.108 143.384 218.968 142.88 218.688C142.384 218.408 141.992 218.012 141.704 217.5C141.424 216.98 141.284 216.38 141.284 215.7C141.284 215.028 141.428 214.436 141.716 213.924C142.012 213.404 142.412 213.008 142.916 212.736C143.42 212.456 143.984 212.316 144.608 212.316C145.232 212.316 145.796 212.456 146.3 212.736C146.804 213.008 147.2 213.4 147.488 213.912C147.784 214.424 147.932 215.02 147.932 215.7C147.932 216.38 147.78 216.98 147.476 217.5C147.18 218.012 146.776 218.408 146.264 218.688C145.752 218.968 145.184 219.108 144.56 219.108ZM144.56 218.148C144.952 218.148 145.32 218.056 145.664 217.872C146.008 217.688 146.284 217.412 146.492 217.044C146.708 216.676 146.816 216.228 146.816 215.7C146.816 215.172 146.712 214.724 146.504 214.356C146.296 213.988 146.024 213.716 145.688 213.54C145.352 213.356 144.988 213.264 144.596 213.264C144.196 213.264 143.828 213.356 143.492 213.54C143.164 213.716 142.9 213.988 142.7 214.356C142.5 214.724 142.4 215.172 142.4 215.7C142.4 216.236 142.496 216.688 142.688 217.056C142.888 217.424 143.152 217.7 143.48 217.884C143.808 218.06 144.168 218.148 144.56 218.148ZM150.459 213.492C150.651 213.116 150.923 212.824 151.275 212.616C151.635 212.408 152.071 212.304 152.583 212.304V213.432H152.295C151.071 213.432 150.459 214.096 150.459 215.424V219H149.367V212.424H150.459V213.492Z" fill="#797979"/>
<path d="M107.976 28.084C107.424 28.084 106.928 27.988 106.488 27.796C106.056 27.596 105.716 27.324 105.468 26.98C105.22 26.628 105.092 26.224 105.084 25.768H106.248C106.288 26.16 106.448 26.492 106.728 26.764C107.016 27.028 107.432 27.16 107.976 27.16C108.496 27.16 108.904 27.032 109.2 26.776C109.504 26.512 109.656 26.176 109.656 25.768C109.656 25.448 109.568 25.188 109.392 24.988C109.216 24.788 108.996 24.636 108.732 24.532C108.468 24.428 108.112 24.316 107.664 24.196C107.112 24.052 106.668 23.908 106.332 23.764C106.004 23.62 105.72 23.396 105.48 23.092C105.248 22.78 105.132 22.364 105.132 21.844C105.132 21.388 105.248 20.984 105.48 20.632C105.712 20.28 106.036 20.008 106.452 19.816C106.876 19.624 107.36 19.528 107.904 19.528C108.688 19.528 109.328 19.724 109.824 20.116C110.328 20.508 110.612 21.028 110.676 21.676H109.476C109.436 21.356 109.268 21.076 108.972 20.836C108.676 20.588 108.284 20.464 107.796 20.464C107.34 20.464 106.968 20.584 106.68 20.824C106.392 21.056 106.248 21.384 106.248 21.808C106.248 22.112 106.332 22.36 106.5 22.552C106.676 22.744 106.888 22.892 107.136 22.996C107.392 23.092 107.748 23.204 108.204 23.332C108.756 23.484 109.2 23.636 109.536 23.788C109.872 23.932 110.16 24.16 110.4 24.472C110.64 24.776 110.76 25.192 110.76 25.72C110.76 26.128 110.652 26.512 110.436 26.872C110.22 27.232 109.9 27.524 109.476 27.748C109.052 27.972 108.552 28.084 107.976 28.084ZM112.931 20.356C112.723 20.356 112.547 20.284 112.403 20.14C112.259 19.996 112.187 19.82 112.187 19.612C112.187 19.404 112.259 19.228 112.403 19.084C112.547 18.94 112.723 18.868 112.931 18.868C113.131 18.868 113.299 18.94 113.435 19.084C113.579 19.228 113.651 19.404 113.651 19.612C113.651 19.82 113.579 19.996 113.435 20.14C113.299 20.284 113.131 20.356 112.931 20.356ZM113.459 21.424V28H112.367V21.424H113.459ZM123.228 21.304C123.74 21.304 124.196 21.412 124.596 21.628C124.996 21.836 125.312 22.152 125.544 22.576C125.776 23 125.892 23.516 125.892 24.124V28H124.812V24.28C124.812 23.624 124.648 23.124 124.32 22.78C124 22.428 123.564 22.252 123.012 22.252C122.444 22.252 121.992 22.436 121.656 22.804C121.32 23.164 121.152 23.688 121.152 24.376V28H120.072V24.28C120.072 23.624 119.908 23.124 119.58 22.78C119.26 22.428 118.824 22.252 118.272 22.252C117.704 22.252 117.252 22.436 116.916 22.804C116.58 23.164 116.412 23.688 116.412 24.376V28H115.32V21.424H116.412V22.372C116.628 22.028 116.916 21.764 117.276 21.58C117.644 21.396 118.048 21.304 118.488 21.304C119.04 21.304 119.528 21.428 119.952 21.676C120.376 21.924 120.692 22.288 120.9 22.768C121.084 22.304 121.388 21.944 121.812 21.688C122.236 21.432 122.708 21.304 123.228 21.304ZM128.248 20.356C128.04 20.356 127.864 20.284 127.72 20.14C127.576 19.996 127.504 19.82 127.504 19.612C127.504 19.404 127.576 19.228 127.72 19.084C127.864 18.94 128.04 18.868 128.248 18.868C128.448 18.868 128.616 18.94 128.752 19.084C128.896 19.228 128.968 19.404 128.968 19.612C128.968 19.82 128.896 19.996 128.752 20.14C128.616 20.284 128.448 20.356 128.248 20.356ZM128.776 21.424V28H127.684V21.424H128.776ZM131.729 19.12V28H130.637V19.12H131.729ZM133.182 24.688C133.182 24.016 133.318 23.428 133.59 22.924C133.862 22.412 134.234 22.016 134.706 21.736C135.186 21.456 135.718 21.316 136.302 21.316C136.878 21.316 137.378 21.44 137.802 21.688C138.226 21.936 138.542 22.248 138.75 22.624V21.424H139.854V28H138.75V26.776C138.534 27.16 138.21 27.48 137.778 27.736C137.354 27.984 136.858 28.108 136.29 28.108C135.706 28.108 135.178 27.964 134.706 27.676C134.234 27.388 133.862 26.984 133.59 26.464C133.318 25.944 133.182 25.352 133.182 24.688ZM138.75 24.7C138.75 24.204 138.65 23.772 138.45 23.404C138.25 23.036 137.978 22.756 137.634 22.564C137.298 22.364 136.926 22.264 136.518 22.264C136.11 22.264 135.738 22.36 135.402 22.552C135.066 22.744 134.798 23.024 134.598 23.392C134.398 23.76 134.298 24.192 134.298 24.688C134.298 25.192 134.398 25.632 134.598 26.008C134.798 26.376 135.066 26.66 135.402 26.86C135.738 27.052 136.11 27.148 136.518 27.148C136.926 27.148 137.298 27.052 137.634 26.86C137.978 26.66 138.25 26.376 138.45 26.008C138.65 25.632 138.75 25.196 138.75 24.7ZM142.791 22.492C142.983 22.116 143.255 21.824 143.607 21.616C143.967 21.408 144.403 21.304 144.915 21.304V22.432H144.627C143.403 22.432 142.791 23.096 142.791 24.424V28H141.699V21.424H142.791V22.492ZM146.74 20.356C146.532 20.356 146.356 20.284 146.212 20.14C146.068 19.996 145.996 19.82 145.996 19.612C145.996 19.404 146.068 19.228 146.212 19.084C146.356 18.94 146.532 18.868 146.74 18.868C146.94 18.868 147.108 18.94 147.244 19.084C147.388 19.228 147.46 19.404 147.46 19.612C147.46 19.82 147.388 19.996 147.244 20.14C147.108 20.284 146.94 20.356 146.74 20.356ZM147.268 21.424V28H146.176V21.424H147.268ZM150.461 22.324V26.2C150.461 26.52 150.529 26.748 150.665 26.884C150.801 27.012 151.037 27.076 151.373 27.076H152.177V28H151.193C150.585 28 150.129 27.86 149.825 27.58C149.521 27.3 149.369 26.84 149.369 26.2V22.324H148.517V21.424H149.369V19.768H150.461V21.424H152.177V22.324H150.461ZM159.164 21.424L155.204 31.096H154.076L155.372 27.928L152.72 21.424H153.932L155.996 26.752L158.036 21.424H159.164ZM166.329 28.108C165.713 28.108 165.153 27.968 164.649 27.688C164.153 27.408 163.761 27.012 163.473 26.5C163.193 25.98 163.053 25.38 163.053 24.7C163.053 24.028 163.197 23.436 163.485 22.924C163.781 22.404 164.181 22.008 164.685 21.736C165.189 21.456 165.753 21.316 166.377 21.316C167.001 21.316 167.565 21.456 168.069 21.736C168.573 22.008 168.969 22.4 169.257 22.912C169.553 23.424 169.701 24.02 169.701 24.7C169.701 25.38 169.549 25.98 169.245 26.5C168.949 27.012 168.545 27.408 168.033 27.688C167.521 27.968 166.953 28.108 166.329 28.108ZM166.329 27.148C166.721 27.148 167.089 27.056 167.433 26.872C167.777 26.688 168.053 26.412 168.261 26.044C168.477 25.676 168.585 25.228 168.585 24.7C168.585 24.172 168.481 23.724 168.273 23.356C168.065 22.988 167.793 22.716 167.457 22.54C167.121 22.356 166.757 22.264 166.365 22.264C165.965 22.264 165.597 22.356 165.261 22.54C164.933 22.716 164.669 22.988 164.469 23.356C164.269 23.724 164.169 24.172 164.169 24.7C164.169 25.236 164.265 25.688 164.457 26.056C164.657 26.424 164.921 26.7 165.249 26.884C165.577 27.06 165.937 27.148 166.329 27.148ZM173.813 22.324H172.433V28H171.341V22.324H170.489V21.424H171.341V20.956C171.341 20.22 171.529 19.684 171.905 19.348C172.289 19.004 172.901 18.832 173.741 18.832V19.744C173.261 19.744 172.921 19.84 172.721 20.032C172.529 20.216 172.433 20.524 172.433 20.956V21.424H173.813V22.324ZM180.961 22.324H179.581V28H178.489V22.324H177.637V21.424H178.489V20.956C178.489 20.22 178.677 19.684 179.053 19.348C179.437 19.004 180.049 18.832 180.889 18.832V19.744C180.409 19.744 180.069 19.84 179.869 20.032C179.677 20.216 179.581 20.524 179.581 20.956V21.424H180.961V22.324ZM185.103 28.108C184.487 28.108 183.927 27.968 183.423 27.688C182.927 27.408 182.535 27.012 182.247 26.5C181.967 25.98 181.827 25.38 181.827 24.7C181.827 24.028 181.971 23.436 182.259 22.924C182.555 22.404 182.955 22.008 183.459 21.736C183.963 21.456 184.527 21.316 185.151 21.316C185.775 21.316 186.339 21.456 186.843 21.736C187.347 22.008 187.743 22.4 188.031 22.912C188.327 23.424 188.475 24.02 188.475 24.7C188.475 25.38 188.323 25.98 188.019 26.5C187.723 27.012 187.319 27.408 186.807 27.688C186.295 27.968 185.727 28.108 185.103 28.108ZM185.103 27.148C185.495 27.148 185.863 27.056 186.207 26.872C186.551 26.688 186.827 26.412 187.035 26.044C187.251 25.676 187.359 25.228 187.359 24.7C187.359 24.172 187.255 23.724 187.047 23.356C186.839 22.988 186.567 22.716 186.231 22.54C185.895 22.356 185.531 22.264 185.139 22.264C184.739 22.264 184.371 22.356 184.035 22.54C183.707 22.716 183.443 22.988 183.243 23.356C183.043 23.724 182.943 24.172 182.943 24.7C182.943 25.236 183.039 25.688 183.231 26.056C183.431 26.424 183.695 26.7 184.023 26.884C184.351 27.06 184.711 27.148 185.103 27.148ZM191.002 19.12V28H189.91V19.12H191.002ZM193.955 19.12V28H192.863V19.12H193.955ZM198.685 28.108C198.069 28.108 197.509 27.968 197.005 27.688C196.509 27.408 196.117 27.012 195.829 26.5C195.549 25.98 195.409 25.38 195.409 24.7C195.409 24.028 195.553 23.436 195.841 22.924C196.137 22.404 196.537 22.008 197.041 21.736C197.545 21.456 198.109 21.316 198.733 21.316C199.357 21.316 199.921 21.456 200.425 21.736C200.929 22.008 201.325 22.4 201.613 22.912C201.909 23.424 202.057 24.02 202.057 24.7C202.057 25.38 201.905 25.98 201.601 26.5C201.305 27.012 200.901 27.408 200.389 27.688C199.877 27.968 199.309 28.108 198.685 28.108ZM198.685 27.148C199.077 27.148 199.445 27.056 199.789 26.872C200.133 26.688 200.409 26.412 200.617 26.044C200.833 25.676 200.941 25.228 200.941 24.7C200.941 24.172 200.837 23.724 200.629 23.356C200.421 22.988 200.149 22.716 199.813 22.54C199.477 22.356 199.113 22.264 198.721 22.264C198.321 22.264 197.953 22.356 197.617 22.54C197.289 22.716 197.025 22.988 196.825 23.356C196.625 23.724 196.525 24.172 196.525 24.7C196.525 25.236 196.621 25.688 196.813 26.056C197.013 26.424 197.277 26.7 197.605 26.884C197.933 27.06 198.293 27.148 198.685 27.148ZM212.252 21.424L210.2 28H209.072L207.488 22.78L205.904 28H204.776L202.712 21.424H203.828L205.34 26.944L206.972 21.424H208.088L209.684 26.956L211.172 21.424H212.252ZM219.336 24.46C219.336 24.668 219.324 24.888 219.3 25.12H214.044C214.084 25.768 214.304 26.276 214.704 26.644C215.112 27.004 215.604 27.184 216.18 27.184C216.652 27.184 217.044 27.076 217.356 26.86C217.676 26.636 217.9 26.34 218.028 25.972H219.204C219.028 26.604 218.676 27.12 218.148 27.52C217.62 27.912 216.964 28.108 216.18 28.108C215.556 28.108 214.996 27.968 214.5 27.688C214.012 27.408 213.628 27.012 213.348 26.5C213.068 25.98 212.928 25.38 212.928 24.7C212.928 24.02 213.064 23.424 213.336 22.912C213.608 22.4 213.988 22.008 214.476 21.736C214.972 21.456 215.54 21.316 216.18 21.316C216.804 21.316 217.356 21.452 217.836 21.724C218.316 21.996 218.684 22.372 218.94 22.852C219.204 23.324 219.336 23.86 219.336 24.46ZM218.208 24.232C218.208 23.816 218.116 23.46 217.932 23.164C217.748 22.86 217.496 22.632 217.176 22.48C216.864 22.32 216.516 22.24 216.132 22.24C215.58 22.24 215.108 22.416 214.716 22.768C214.332 23.12 214.112 23.608 214.056 24.232H218.208ZM221.87 22.492C222.062 22.116 222.334 21.824 222.686 21.616C223.046 21.408 223.482 21.304 223.994 21.304V22.432H223.706C222.482 22.432 221.87 23.096 221.87 24.424V28H220.778V21.424H221.87V22.492ZM227.582 28.108C227.078 28.108 226.626 28.024 226.226 27.856C225.826 27.68 225.51 27.44 225.278 27.136C225.046 26.824 224.918 26.468 224.894 26.068H226.022C226.054 26.396 226.206 26.664 226.478 26.872C226.758 27.08 227.122 27.184 227.57 27.184C227.986 27.184 228.314 27.092 228.554 26.908C228.794 26.724 228.914 26.492 228.914 26.212C228.914 25.924 228.786 25.712 228.53 25.576C228.274 25.432 227.878 25.292 227.342 25.156C226.854 25.028 226.454 24.9 226.142 24.772C225.838 24.636 225.574 24.44 225.35 24.184C225.134 23.92 225.026 23.576 225.026 23.152C225.026 22.816 225.126 22.508 225.326 22.228C225.526 21.948 225.81 21.728 226.178 21.568C226.546 21.4 226.966 21.316 227.438 21.316C228.166 21.316 228.754 21.5 229.202 21.868C229.65 22.236 229.89 22.74 229.922 23.38H228.83C228.806 23.036 228.666 22.76 228.41 22.552C228.162 22.344 227.826 22.24 227.402 22.24C227.01 22.24 226.698 22.324 226.466 22.492C226.234 22.66 226.118 22.88 226.118 23.152C226.118 23.368 226.186 23.548 226.322 23.692C226.466 23.828 226.642 23.94 226.85 24.028C227.066 24.108 227.362 24.2 227.738 24.304C228.21 24.432 228.594 24.56 228.89 24.688C229.186 24.808 229.438 24.992 229.646 25.24C229.862 25.488 229.974 25.812 229.982 26.212C229.982 26.572 229.882 26.896 229.682 27.184C229.482 27.472 229.198 27.7 228.83 27.868C228.47 28.028 228.054 28.108 227.582 28.108Z" fill="black"/>
<path d="M104.4 29.2H111.444V29.8H104.4V29.2ZM111.443 29.2H140.778V29.8H111.443V29.2ZM140.775 29.2H162.542V29.8H140.775V29.2ZM162.537 29.2H170.217V29.8H162.537V29.2ZM170.213 29.2H177.366V29.8H170.213V29.2ZM177.361 29.2H188.991V29.8H177.361V29.2ZM188.986 29.2H202.573V29.8H188.986V29.2ZM202.568 29.2H230.594V29.8H202.568V29.2Z" fill="black"/>
<rect x="40" y="67" width="33" height="125" fill="#2B35F3"/>
<rect x="114" y="150" width="33" height="42" fill="#2B35F3"/>
<rect x="188" y="176" width="33" height="16" fill="#2B35F3"/>
<rect x="262" y="184" width="33" height="8" fill="#2B35F3"/>
<path d="M18 192H314" stroke="black"/>
</svg>
