<svg width="375" height="317" viewBox="0 0 375 317" fill="none" xmlns="http://www.w3.org/2000/svg">
<rect width="375" height="317" rx="6" fill="white"/>
<path d="M56.5061 63.2175L52.2501 73.1855H49.9781L54.2661 63.4735H48.7941V61.5535H56.5061V63.2175ZM63.8957 64.4335C63.789 63.9855 63.6024 63.6495 63.3357 63.4255C63.0797 63.2015 62.7064 63.0895 62.2157 63.0895C61.4797 63.0895 60.9357 63.3882 60.5837 63.9855C60.2424 64.5722 60.0664 65.5322 60.0557 66.8655C60.3117 66.4389 60.685 66.1082 61.1757 65.8735C61.6664 65.6282 62.1997 65.5055 62.7757 65.5055C63.469 65.5055 64.0824 65.6549 64.6157 65.9535C65.149 66.2522 65.565 66.6895 65.8637 67.2655C66.1624 67.8309 66.3117 68.5135 66.3117 69.3135C66.3117 70.0709 66.157 70.7482 65.8477 71.3455C65.549 71.9322 65.1064 72.3909 64.5197 72.7215C63.933 73.0522 63.2344 73.2175 62.4237 73.2175C61.3144 73.2175 60.4397 72.9722 59.7997 72.4815C59.1704 71.9909 58.7277 71.3082 58.4717 70.4335C58.2264 69.5482 58.1037 68.4602 58.1037 67.1695C58.1037 65.2175 58.4397 63.7455 59.1117 62.7535C59.7837 61.7509 60.845 61.2495 62.2957 61.2495C63.4157 61.2495 64.285 61.5535 64.9037 62.1615C65.5224 62.7695 65.8797 63.5269 65.9757 64.4335H63.8957ZM62.2637 67.3455C61.6984 67.3455 61.2237 67.5109 60.8397 67.8415C60.4557 68.1722 60.2637 68.6522 60.2637 69.2815C60.2637 69.9109 60.4397 70.4069 60.7917 70.7695C61.1544 71.1322 61.661 71.3135 62.3117 71.3135C62.8877 71.3135 63.341 71.1375 63.6717 70.7855C64.013 70.4335 64.1837 69.9589 64.1837 69.3615C64.1837 68.7429 64.0184 68.2522 63.6877 67.8895C63.3677 67.5269 62.893 67.3455 62.2637 67.3455ZM67.8261 64.3855C67.8261 63.5749 68.0607 62.9402 68.5301 62.4815C69.0101 62.0229 69.6234 61.7935 70.3701 61.7935C71.1167 61.7935 71.7247 62.0229 72.1941 62.4815C72.6741 62.9402 72.9141 63.5749 72.9141 64.3855C72.9141 65.2069 72.6741 65.8469 72.1941 66.3055C71.7247 66.7642 71.1167 66.9935 70.3701 66.9935C69.6234 66.9935 69.0101 66.7642 68.5301 66.3055C68.0607 65.8469 67.8261 65.2069 67.8261 64.3855ZM78.0981 61.9855L71.8101 73.1855H69.6341L75.9061 61.9855H78.0981ZM70.3541 63.1375C69.7674 63.1375 69.4741 63.5535 69.4741 64.3855C69.4741 65.2282 69.7674 65.6495 70.3541 65.6495C70.6421 65.6495 70.8661 65.5482 71.0261 65.3455C71.1861 65.1322 71.2661 64.8122 71.2661 64.3855C71.2661 63.5535 70.9621 63.1375 70.3541 63.1375ZM74.8501 70.7695C74.8501 69.9482 75.0848 69.3135 75.5541 68.8655C76.0341 68.4069 76.6474 68.1775 77.3941 68.1775C78.1408 68.1775 78.7434 68.4069 79.2021 68.8655C79.6714 69.3135 79.9061 69.9482 79.9061 70.7695C79.9061 71.5909 79.6714 72.2309 79.2021 72.6895C78.7434 73.1482 78.1408 73.3775 77.3941 73.3775C76.6368 73.3775 76.0234 73.1482 75.5541 72.6895C75.0848 72.2309 74.8501 71.5909 74.8501 70.7695ZM77.3781 69.5215C76.7701 69.5215 76.4661 69.9375 76.4661 70.7695C76.4661 71.6122 76.7701 72.0335 77.3781 72.0335C77.9754 72.0335 78.2741 71.6122 78.2741 70.7695C78.2741 69.9375 77.9754 69.5215 77.3781 69.5215Z" fill="#797979"/>
<path d="M132.121 170.108V168.044H135.977V179.708H133.673V170.108H132.121ZM140.782 176.428C140.867 176.897 141.059 177.26 141.358 177.516C141.667 177.761 142.078 177.884 142.59 177.884C143.251 177.884 143.731 177.612 144.03 177.068C144.328 176.513 144.478 175.585 144.478 174.284C144.232 174.625 143.886 174.892 143.438 175.084C143 175.276 142.526 175.372 142.014 175.372C141.331 175.372 140.712 175.233 140.158 174.956C139.614 174.668 139.182 174.247 138.862 173.692C138.542 173.127 138.382 172.444 138.382 171.644C138.382 170.46 138.734 169.521 139.438 168.828C140.142 168.124 141.102 167.772 142.318 167.772C143.832 167.772 144.899 168.257 145.518 169.228C146.147 170.199 146.462 171.66 146.462 173.612C146.462 174.999 146.339 176.135 146.094 177.02C145.859 177.905 145.448 178.577 144.862 179.036C144.286 179.495 143.496 179.724 142.494 179.724C141.704 179.724 141.032 179.575 140.478 179.276C139.923 178.967 139.496 178.567 139.198 178.076C138.91 177.575 138.744 177.025 138.702 176.428H140.782ZM142.478 173.548C143.032 173.548 143.47 173.377 143.79 173.036C144.11 172.695 144.27 172.236 144.27 171.66C144.27 171.031 144.099 170.545 143.758 170.204C143.427 169.852 142.974 169.676 142.398 169.676C141.822 169.676 141.363 169.857 141.022 170.22C140.691 170.572 140.526 171.041 140.526 171.628C140.526 172.193 140.686 172.657 141.006 173.02C141.336 173.372 141.827 173.548 142.478 173.548ZM147.949 170.908C147.949 170.097 148.184 169.463 148.653 169.004C149.133 168.545 149.746 168.316 150.493 168.316C151.24 168.316 151.848 168.545 152.317 169.004C152.797 169.463 153.037 170.097 153.037 170.908C153.037 171.729 152.797 172.369 152.317 172.828C151.848 173.287 151.24 173.516 150.493 173.516C149.746 173.516 149.133 173.287 148.653 172.828C148.184 172.369 147.949 171.729 147.949 170.908ZM158.221 168.508L151.933 179.708H149.757L156.029 168.508H158.221ZM150.477 169.66C149.89 169.66 149.597 170.076 149.597 170.908C149.597 171.751 149.89 172.172 150.477 172.172C150.765 172.172 150.989 172.071 151.149 171.868C151.309 171.655 151.389 171.335 151.389 170.908C151.389 170.076 151.085 169.66 150.477 169.66ZM154.973 177.292C154.973 176.471 155.208 175.836 155.677 175.388C156.157 174.929 156.77 174.7 157.517 174.7C158.264 174.7 158.866 174.929 159.325 175.388C159.794 175.836 160.029 176.471 160.029 177.292C160.029 178.113 159.794 178.753 159.325 179.212C158.866 179.671 158.264 179.9 157.517 179.9C156.76 179.9 156.146 179.671 155.677 179.212C155.208 178.753 154.973 178.113 154.973 177.292ZM157.501 176.044C156.893 176.044 156.589 176.46 156.589 177.292C156.589 178.135 156.893 178.556 157.501 178.556C158.098 178.556 158.397 178.135 158.397 177.292C158.397 176.46 158.098 176.044 157.501 176.044Z" fill="#797979"/>
<path d="M217.75 214.655V212.895L222.982 205.407H225.59V212.703H226.998V214.655H225.59V216.927H223.35V214.655H217.75ZM223.494 207.807L220.214 212.703H223.494V207.807ZM228.168 208.127C228.168 207.316 228.403 206.681 228.872 206.223C229.352 205.764 229.965 205.535 230.712 205.535C231.459 205.535 232.067 205.764 232.536 206.223C233.016 206.681 233.256 207.316 233.256 208.127C233.256 208.948 233.016 209.588 232.536 210.047C232.067 210.505 231.459 210.735 230.712 210.735C229.965 210.735 229.352 210.505 228.872 210.047C228.403 209.588 228.168 208.948 228.168 208.127ZM238.44 205.727L232.152 216.927H229.976L236.248 205.727H238.44ZM230.696 206.879C230.109 206.879 229.816 207.295 229.816 208.127C229.816 208.969 230.109 209.391 230.696 209.391C230.984 209.391 231.208 209.289 231.368 209.087C231.528 208.873 231.608 208.553 231.608 208.127C231.608 207.295 231.304 206.879 230.696 206.879ZM235.192 214.511C235.192 213.689 235.427 213.055 235.896 212.607C236.376 212.148 236.989 211.919 237.736 211.919C238.483 211.919 239.085 212.148 239.544 212.607C240.013 213.055 240.248 213.689 240.248 214.511C240.248 215.332 240.013 215.972 239.544 216.431C239.085 216.889 238.483 217.119 237.736 217.119C236.979 217.119 236.365 216.889 235.896 216.431C235.427 215.972 235.192 215.332 235.192 214.511ZM237.72 213.263C237.112 213.263 236.808 213.679 236.808 214.511C236.808 215.353 237.112 215.775 237.72 215.775C238.317 215.775 238.616 215.353 238.616 214.511C238.616 213.679 238.317 213.263 237.72 213.263Z" fill="#797979"/>
<path d="M302.798 215.028V212.964H306.654V224.628H304.35V215.028H302.798ZM308.611 215.828C308.611 215.017 308.846 214.383 309.315 213.924C309.795 213.465 310.409 213.236 311.155 213.236C311.902 213.236 312.51 213.465 312.979 213.924C313.459 214.383 313.699 215.017 313.699 215.828C313.699 216.649 313.459 217.289 312.979 217.748C312.51 218.207 311.902 218.436 311.155 218.436C310.409 218.436 309.795 218.207 309.315 217.748C308.846 217.289 308.611 216.649 308.611 215.828ZM318.883 213.428L312.595 224.628H310.419L316.691 213.428H318.883ZM311.139 214.58C310.553 214.58 310.259 214.996 310.259 215.828C310.259 216.671 310.553 217.092 311.139 217.092C311.427 217.092 311.651 216.991 311.811 216.788C311.971 216.575 312.051 216.255 312.051 215.828C312.051 214.996 311.747 214.58 311.139 214.58ZM315.635 222.212C315.635 221.391 315.87 220.756 316.339 220.308C316.819 219.849 317.433 219.62 318.179 219.62C318.926 219.62 319.529 219.849 319.987 220.308C320.457 220.756 320.691 221.391 320.691 222.212C320.691 223.033 320.457 223.673 319.987 224.132C319.529 224.591 318.926 224.82 318.179 224.82C317.422 224.82 316.809 224.591 316.339 224.132C315.87 223.673 315.635 223.033 315.635 222.212ZM318.163 220.964C317.555 220.964 317.251 221.38 317.251 222.212C317.251 223.055 317.555 223.476 318.163 223.476C318.761 223.476 319.059 223.055 319.059 222.212C319.059 221.38 318.761 220.964 318.163 220.964Z" fill="#797979"/>
<path d="M44.4781 260.97H40.8301L40.1581 262.83H39.0061L42.0301 254.514H43.2901L46.3021 262.83H45.1501L44.4781 260.97ZM44.1661 260.082L42.6541 255.858L41.1421 260.082H44.1661ZM50.068 261.822L52.108 256.254H53.272L50.692 262.83H49.42L46.84 256.254H48.016L50.068 261.822ZM60.3466 259.29C60.3466 259.498 60.3346 259.718 60.3106 259.95H55.0546C55.0946 260.598 55.3146 261.106 55.7146 261.474C56.1226 261.834 56.6146 262.014 57.1906 262.014C57.6626 262.014 58.0546 261.906 58.3666 261.69C58.6866 261.466 58.9106 261.17 59.0386 260.802H60.2146C60.0386 261.434 59.6866 261.95 59.1586 262.35C58.6306 262.742 57.9746 262.938 57.1906 262.938C56.5666 262.938 56.0066 262.798 55.5106 262.518C55.0226 262.238 54.6386 261.842 54.3586 261.33C54.0786 260.81 53.9386 260.21 53.9386 259.53C53.9386 258.85 54.0746 258.254 54.3466 257.742C54.6186 257.23 54.9986 256.838 55.4866 256.566C55.9826 256.286 56.5506 256.146 57.1906 256.146C57.8146 256.146 58.3666 256.282 58.8466 256.554C59.3266 256.826 59.6946 257.202 59.9506 257.682C60.2146 258.154 60.3466 258.69 60.3466 259.29ZM59.2186 259.062C59.2186 258.646 59.1266 258.29 58.9426 257.994C58.7586 257.69 58.5066 257.462 58.1866 257.31C57.8746 257.15 57.5266 257.07 57.1426 257.07C56.5906 257.07 56.1186 257.246 55.7266 257.598C55.3426 257.95 55.1226 258.438 55.0666 259.062H59.2186ZM62.88 257.322C63.072 256.946 63.344 256.654 63.696 256.446C64.056 256.238 64.492 256.134 65.004 256.134V257.262H64.716C63.492 257.262 62.88 257.926 62.88 259.254V262.83H61.788V256.254H62.88V257.322ZM65.8566 259.518C65.8566 258.846 65.9926 258.258 66.2646 257.754C66.5366 257.242 66.9086 256.846 67.3806 256.566C67.8606 256.286 68.3926 256.146 68.9766 256.146C69.5526 256.146 70.0526 256.27 70.4766 256.518C70.9006 256.766 71.2166 257.078 71.4246 257.454V256.254H72.5286V262.83H71.4246V261.606C71.2086 261.99 70.8846 262.31 70.4526 262.566C70.0286 262.814 69.5326 262.938 68.9646 262.938C68.3806 262.938 67.8526 262.794 67.3806 262.506C66.9086 262.218 66.5366 261.814 66.2646 261.294C65.9926 260.774 65.8566 260.182 65.8566 259.518ZM71.4246 259.53C71.4246 259.034 71.3246 258.602 71.1246 258.234C70.9246 257.866 70.6526 257.586 70.3086 257.394C69.9726 257.194 69.6006 257.094 69.1926 257.094C68.7846 257.094 68.4126 257.19 68.0766 257.382C67.7406 257.574 67.4726 257.854 67.2726 258.222C67.0726 258.59 66.9726 259.022 66.9726 259.518C66.9726 260.022 67.0726 260.462 67.2726 260.838C67.4726 261.206 67.7406 261.49 68.0766 261.69C68.4126 261.882 68.7846 261.978 69.1926 261.978C69.6006 261.978 69.9726 261.882 70.3086 261.69C70.6526 261.49 70.9246 261.206 71.1246 260.838C71.3246 260.462 71.4246 260.026 71.4246 259.53ZM77.086 256.146C77.654 256.146 78.15 256.27 78.574 256.518C79.006 256.766 79.326 257.078 79.534 257.454V256.254H80.638V262.974C80.638 263.574 80.51 264.106 80.254 264.57C79.998 265.042 79.63 265.41 79.15 265.674C78.678 265.938 78.126 266.07 77.494 266.07C76.63 266.07 75.91 265.866 75.334 265.458C74.758 265.05 74.418 264.494 74.314 263.79H75.394C75.514 264.19 75.762 264.51 76.138 264.75C76.514 264.998 76.966 265.122 77.494 265.122C78.094 265.122 78.582 264.934 78.958 264.558C79.342 264.182 79.534 263.654 79.534 262.974V261.594C79.318 261.978 78.998 262.298 78.574 262.554C78.15 262.81 77.654 262.938 77.086 262.938C76.502 262.938 75.97 262.794 75.49 262.506C75.018 262.218 74.646 261.814 74.374 261.294C74.102 260.774 73.966 260.182 73.966 259.518C73.966 258.846 74.102 258.258 74.374 257.754C74.646 257.242 75.018 256.846 75.49 256.566C75.97 256.286 76.502 256.146 77.086 256.146ZM79.534 259.53C79.534 259.034 79.434 258.602 79.234 258.234C79.034 257.866 78.762 257.586 78.418 257.394C78.082 257.194 77.71 257.094 77.302 257.094C76.894 257.094 76.522 257.19 76.186 257.382C75.85 257.574 75.582 257.854 75.382 258.222C75.182 258.59 75.082 259.022 75.082 259.518C75.082 260.022 75.182 260.462 75.382 260.838C75.582 261.206 75.85 261.49 76.186 261.69C76.522 261.882 76.894 261.978 77.302 261.978C77.71 261.978 78.082 261.882 78.418 261.69C78.762 261.49 79.034 261.206 79.234 260.838C79.434 260.462 79.534 260.026 79.534 259.53ZM88.4833 259.29C88.4833 259.498 88.4713 259.718 88.4473 259.95H83.1913C83.2313 260.598 83.4513 261.106 83.8513 261.474C84.2593 261.834 84.7513 262.014 85.3273 262.014C85.7993 262.014 86.1913 261.906 86.5033 261.69C86.8233 261.466 87.0473 261.17 87.1753 260.802H88.3513C88.1753 261.434 87.8233 261.95 87.2953 262.35C86.7673 262.742 86.1113 262.938 85.3273 262.938C84.7033 262.938 84.1433 262.798 83.6473 262.518C83.1593 262.238 82.7753 261.842 82.4953 261.33C82.2153 260.81 82.0753 260.21 82.0753 259.53C82.0753 258.85 82.2113 258.254 82.4833 257.742C82.7553 257.23 83.1353 256.838 83.6233 256.566C84.1193 256.286 84.6873 256.146 85.3273 256.146C85.9513 256.146 86.5033 256.282 86.9833 256.554C87.4633 256.826 87.8313 257.202 88.0873 257.682C88.3513 258.154 88.4833 258.69 88.4833 259.29ZM87.3553 259.062C87.3553 258.646 87.2633 258.29 87.0793 257.994C86.8953 257.69 86.6433 257.462 86.3233 257.31C86.0113 257.15 85.6633 257.07 85.2793 257.07C84.7273 257.07 84.2553 257.246 83.8633 257.598C83.4793 257.95 83.2593 258.438 83.2033 259.062H87.3553ZM35.5402 271.53C35.5402 270.85 35.6762 270.258 35.9482 269.754C36.2202 269.242 36.5962 268.846 37.0762 268.566C37.5642 268.286 38.1202 268.146 38.7442 268.146C39.5522 268.146 40.2162 268.342 40.7362 268.734C41.2642 269.126 41.6122 269.67 41.7802 270.366H40.6042C40.4922 269.966 40.2722 269.65 39.9442 269.418C39.6242 269.186 39.2242 269.07 38.7442 269.07C38.1202 269.07 37.6162 269.286 37.2322 269.718C36.8482 270.142 36.6562 270.746 36.6562 271.53C36.6562 272.322 36.8482 272.934 37.2322 273.366C37.6162 273.798 38.1202 274.014 38.7442 274.014C39.2242 274.014 39.6242 273.902 39.9442 273.678C40.2642 273.454 40.4842 273.134 40.6042 272.718H41.7802C41.6042 273.39 41.2522 273.93 40.7242 274.338C40.1962 274.738 39.5362 274.938 38.7442 274.938C38.1202 274.938 37.5642 274.798 37.0762 274.518C36.5962 274.238 36.2202 273.842 35.9482 273.33C35.6762 272.818 35.5402 272.218 35.5402 271.53ZM49.0692 268.254V274.83H47.9772V273.858C47.7692 274.194 47.4772 274.458 47.1012 274.65C46.7332 274.834 46.3252 274.926 45.8772 274.926C45.3652 274.926 44.9052 274.822 44.4972 274.614C44.0892 274.398 43.7652 274.078 43.5252 273.654C43.2932 273.23 43.1772 272.714 43.1772 272.106V268.254H44.2572V271.962C44.2572 272.61 44.4212 273.11 44.7492 273.462C45.0772 273.806 45.5252 273.978 46.0932 273.978C46.6772 273.978 47.1372 273.798 47.4732 273.438C47.8092 273.078 47.9772 272.554 47.9772 271.866V268.254H49.0692ZM53.241 274.938C52.737 274.938 52.285 274.854 51.885 274.686C51.485 274.51 51.169 274.27 50.937 273.966C50.705 273.654 50.577 273.298 50.553 272.898H51.681C51.713 273.226 51.865 273.494 52.137 273.702C52.417 273.91 52.781 274.014 53.229 274.014C53.645 274.014 53.973 273.922 54.213 273.738C54.453 273.554 54.573 273.322 54.573 273.042C54.573 272.754 54.445 272.542 54.189 272.406C53.933 272.262 53.537 272.122 53.001 271.986C52.513 271.858 52.113 271.73 51.801 271.602C51.497 271.466 51.233 271.27 51.009 271.014C50.793 270.75 50.685 270.406 50.685 269.982C50.685 269.646 50.785 269.338 50.985 269.058C51.185 268.778 51.469 268.558 51.837 268.398C52.205 268.23 52.625 268.146 53.097 268.146C53.825 268.146 54.413 268.33 54.861 268.698C55.309 269.066 55.549 269.57 55.581 270.21H54.489C54.465 269.866 54.325 269.59 54.069 269.382C53.821 269.174 53.485 269.07 53.061 269.07C52.669 269.07 52.357 269.154 52.125 269.322C51.893 269.49 51.777 269.71 51.777 269.982C51.777 270.198 51.845 270.378 51.981 270.522C52.125 270.658 52.301 270.77 52.509 270.858C52.725 270.938 53.021 271.03 53.397 271.134C53.869 271.262 54.253 271.39 54.549 271.518C54.845 271.638 55.097 271.822 55.305 272.07C55.521 272.318 55.633 272.642 55.641 273.042C55.641 273.402 55.541 273.726 55.341 274.014C55.141 274.302 54.857 274.53 54.489 274.698C54.129 274.858 53.713 274.938 53.241 274.938ZM58.5145 269.154V273.03C58.5145 273.35 58.5825 273.578 58.7185 273.714C58.8545 273.842 59.0905 273.906 59.4265 273.906H60.2305V274.83H59.2465C58.6385 274.83 58.1825 274.69 57.8785 274.41C57.5745 274.13 57.4225 273.67 57.4225 273.03V269.154H56.5705V268.254H57.4225V266.598H58.5145V268.254H60.2305V269.154H58.5145ZM64.4216 274.938C63.8056 274.938 63.2456 274.798 62.7416 274.518C62.2456 274.238 61.8536 273.842 61.5656 273.33C61.2856 272.81 61.1456 272.21 61.1456 271.53C61.1456 270.858 61.2896 270.266 61.5776 269.754C61.8736 269.234 62.2736 268.838 62.7776 268.566C63.2816 268.286 63.8456 268.146 64.4696 268.146C65.0936 268.146 65.6576 268.286 66.1616 268.566C66.6656 268.838 67.0616 269.23 67.3496 269.742C67.6456 270.254 67.7936 270.85 67.7936 271.53C67.7936 272.21 67.6416 272.81 67.3376 273.33C67.0416 273.842 66.6376 274.238 66.1256 274.518C65.6136 274.798 65.0456 274.938 64.4216 274.938ZM64.4216 273.978C64.8136 273.978 65.1816 273.886 65.5256 273.702C65.8696 273.518 66.1456 273.242 66.3536 272.874C66.5696 272.506 66.6776 272.058 66.6776 271.53C66.6776 271.002 66.5736 270.554 66.3656 270.186C66.1576 269.818 65.8856 269.546 65.5496 269.37C65.2136 269.186 64.8496 269.094 64.4576 269.094C64.0576 269.094 63.6896 269.186 63.3536 269.37C63.0256 269.546 62.7616 269.818 62.5616 270.186C62.3616 270.554 62.2616 271.002 62.2616 271.53C62.2616 272.066 62.3576 272.518 62.5496 272.886C62.7496 273.254 63.0136 273.53 63.3416 273.714C63.6696 273.89 64.0296 273.978 64.4216 273.978ZM77.1374 268.134C77.6494 268.134 78.1054 268.242 78.5054 268.458C78.9054 268.666 79.2214 268.982 79.4534 269.406C79.6854 269.83 79.8014 270.346 79.8014 270.954V274.83H78.7214V271.11C78.7214 270.454 78.5574 269.954 78.2294 269.61C77.9094 269.258 77.4734 269.082 76.9214 269.082C76.3534 269.082 75.9014 269.266 75.5654 269.634C75.2294 269.994 75.0614 270.518 75.0614 271.206V274.83H73.9814V271.11C73.9814 270.454 73.8174 269.954 73.4894 269.61C73.1694 269.258 72.7334 269.082 72.1814 269.082C71.6134 269.082 71.1614 269.266 70.8254 269.634C70.4894 269.994 70.3214 270.518 70.3214 271.206V274.83H69.2294V268.254H70.3214V269.202C70.5374 268.858 70.8254 268.594 71.1854 268.41C71.5534 268.226 71.9574 268.134 72.3974 268.134C72.9494 268.134 73.4374 268.258 73.8614 268.506C74.2854 268.754 74.6014 269.118 74.8094 269.598C74.9934 269.134 75.2974 268.774 75.7214 268.518C76.1454 268.262 76.6174 268.134 77.1374 268.134ZM87.5927 271.29C87.5927 271.498 87.5807 271.718 87.5567 271.95H82.3007C82.3407 272.598 82.5607 273.106 82.9607 273.474C83.3687 273.834 83.8607 274.014 84.4367 274.014C84.9087 274.014 85.3007 273.906 85.6127 273.69C85.9327 273.466 86.1567 273.17 86.2847 272.802H87.4607C87.2847 273.434 86.9327 273.95 86.4047 274.35C85.8767 274.742 85.2207 274.938 84.4367 274.938C83.8127 274.938 83.2527 274.798 82.7567 274.518C82.2687 274.238 81.8847 273.842 81.6047 273.33C81.3247 272.81 81.1847 272.21 81.1847 271.53C81.1847 270.85 81.3207 270.254 81.5927 269.742C81.8647 269.23 82.2447 268.838 82.7327 268.566C83.2287 268.286 83.7967 268.146 84.4367 268.146C85.0607 268.146 85.6127 268.282 86.0927 268.554C86.5727 268.826 86.9407 269.202 87.1967 269.682C87.4607 270.154 87.5927 270.69 87.5927 271.29ZM86.4647 271.062C86.4647 270.646 86.3727 270.29 86.1887 269.994C86.0047 269.69 85.7527 269.462 85.4327 269.31C85.1207 269.15 84.7727 269.07 84.3887 269.07C83.8367 269.07 83.3647 269.246 82.9727 269.598C82.5887 269.95 82.3687 270.438 82.3127 271.062H86.4647ZM90.1261 269.322C90.3181 268.946 90.5901 268.654 90.9421 268.446C91.3021 268.238 91.7381 268.134 92.2501 268.134V269.262H91.9621C90.7381 269.262 90.1261 269.926 90.1261 271.254V274.83H89.0341V268.254H90.1261V269.322Z" fill="#797979"/>
<path d="M214.835 261.942H217.763V262.83H213.743V254.466H214.835V261.942ZM218.515 259.518C218.515 258.846 218.651 258.258 218.923 257.754C219.195 257.242 219.567 256.846 220.039 256.566C220.519 256.286 221.051 256.146 221.635 256.146C222.211 256.146 222.711 256.27 223.135 256.518C223.559 256.766 223.875 257.078 224.083 257.454V256.254H225.187V262.83H224.083V261.606C223.867 261.99 223.543 262.31 223.111 262.566C222.687 262.814 222.191 262.938 221.623 262.938C221.039 262.938 220.511 262.794 220.039 262.506C219.567 262.218 219.195 261.814 218.923 261.294C218.651 260.774 218.515 260.182 218.515 259.518ZM224.083 259.53C224.083 259.034 223.983 258.602 223.783 258.234C223.583 257.866 223.311 257.586 222.967 257.394C222.631 257.194 222.259 257.094 221.851 257.094C221.443 257.094 221.071 257.19 220.735 257.382C220.399 257.574 220.131 257.854 219.931 258.222C219.731 258.59 219.631 259.022 219.631 259.518C219.631 260.022 219.731 260.462 219.931 260.838C220.131 261.206 220.399 261.49 220.735 261.69C221.071 261.882 221.443 261.978 221.851 261.978C222.259 261.978 222.631 261.882 222.967 261.69C223.311 261.49 223.583 261.206 223.783 260.838C223.983 260.462 224.083 260.026 224.083 259.53ZM228.124 257.322C228.316 256.946 228.588 256.654 228.94 256.446C229.3 256.238 229.736 256.134 230.248 256.134V257.262H229.96C228.736 257.262 228.124 257.926 228.124 259.254V262.83H227.032V256.254H228.124V257.322ZM234.221 256.146C234.789 256.146 235.285 256.27 235.709 256.518C236.141 256.766 236.461 257.078 236.669 257.454V256.254H237.773V262.974C237.773 263.574 237.645 264.106 237.389 264.57C237.133 265.042 236.765 265.41 236.285 265.674C235.813 265.938 235.261 266.07 234.629 266.07C233.765 266.07 233.045 265.866 232.469 265.458C231.893 265.05 231.553 264.494 231.449 263.79H232.529C232.649 264.19 232.897 264.51 233.273 264.75C233.649 264.998 234.101 265.122 234.629 265.122C235.229 265.122 235.717 264.934 236.093 264.558C236.477 264.182 236.669 263.654 236.669 262.974V261.594C236.453 261.978 236.133 262.298 235.709 262.554C235.285 262.81 234.789 262.938 234.221 262.938C233.637 262.938 233.105 262.794 232.625 262.506C232.153 262.218 231.781 261.814 231.509 261.294C231.237 260.774 231.101 260.182 231.101 259.518C231.101 258.846 231.237 258.258 231.509 257.754C231.781 257.242 232.153 256.846 232.625 256.566C233.105 256.286 233.637 256.146 234.221 256.146ZM236.669 259.53C236.669 259.034 236.569 258.602 236.369 258.234C236.169 257.866 235.897 257.586 235.553 257.394C235.217 257.194 234.845 257.094 234.437 257.094C234.029 257.094 233.657 257.19 233.321 257.382C232.985 257.574 232.717 257.854 232.517 258.222C232.317 258.59 232.217 259.022 232.217 259.518C232.217 260.022 232.317 260.462 232.517 260.838C232.717 261.206 232.985 261.49 233.321 261.69C233.657 261.882 234.029 261.978 234.437 261.978C234.845 261.978 235.217 261.882 235.553 261.69C235.897 261.49 236.169 261.206 236.369 260.838C236.569 260.462 236.669 260.026 236.669 259.53ZM245.618 259.29C245.618 259.498 245.606 259.718 245.582 259.95H240.326C240.366 260.598 240.586 261.106 240.986 261.474C241.394 261.834 241.886 262.014 242.462 262.014C242.934 262.014 243.326 261.906 243.638 261.69C243.958 261.466 244.182 261.17 244.31 260.802H245.486C245.31 261.434 244.958 261.95 244.43 262.35C243.902 262.742 243.246 262.938 242.462 262.938C241.838 262.938 241.278 262.798 240.782 262.518C240.294 262.238 239.91 261.842 239.63 261.33C239.35 260.81 239.21 260.21 239.21 259.53C239.21 258.85 239.346 258.254 239.618 257.742C239.89 257.23 240.27 256.838 240.758 256.566C241.254 256.286 241.822 256.146 242.462 256.146C243.086 256.146 243.638 256.282 244.118 256.554C244.598 256.826 244.966 257.202 245.222 257.682C245.486 258.154 245.618 258.69 245.618 259.29ZM244.49 259.062C244.49 258.646 244.398 258.29 244.214 257.994C244.03 257.69 243.778 257.462 243.458 257.31C243.146 257.15 242.798 257.07 242.414 257.07C241.862 257.07 241.39 257.246 240.998 257.598C240.614 257.95 240.394 258.438 240.338 259.062H244.49ZM198.065 267.186C197.857 267.186 197.681 267.114 197.537 266.97C197.393 266.826 197.321 266.65 197.321 266.442C197.321 266.234 197.393 266.058 197.537 265.914C197.681 265.77 197.857 265.698 198.065 265.698C198.265 265.698 198.433 265.77 198.569 265.914C198.713 266.058 198.785 266.234 198.785 266.442C198.785 266.65 198.713 266.826 198.569 266.97C198.433 267.114 198.265 267.186 198.065 267.186ZM198.593 268.254V274.83H197.501V268.254H198.593ZM203.658 268.134C204.458 268.134 205.106 268.378 205.602 268.866C206.098 269.346 206.346 270.042 206.346 270.954V274.83H205.266V271.11C205.266 270.454 205.102 269.954 204.774 269.61C204.446 269.258 203.998 269.082 203.43 269.082C202.854 269.082 202.394 269.262 202.05 269.622C201.714 269.982 201.546 270.506 201.546 271.194V274.83H200.454V268.254H201.546V269.19C201.762 268.854 202.054 268.594 202.422 268.41C202.798 268.226 203.21 268.134 203.658 268.134ZM210.806 269.154H209.426V274.83H208.334V269.154H207.482V268.254H208.334V267.786C208.334 267.05 208.522 266.514 208.898 266.178C209.282 265.834 209.894 265.662 210.734 265.662V266.574C210.254 266.574 209.914 266.67 209.714 266.862C209.522 267.046 209.426 267.354 209.426 267.786V268.254H210.806V269.154ZM213.171 265.95V274.83H212.079V265.95H213.171ZM220.864 268.254V274.83H219.772V273.858C219.564 274.194 219.272 274.458 218.896 274.65C218.528 274.834 218.12 274.926 217.672 274.926C217.16 274.926 216.7 274.822 216.292 274.614C215.884 274.398 215.56 274.078 215.32 273.654C215.088 273.23 214.972 272.714 214.972 272.106V268.254H216.052V271.962C216.052 272.61 216.216 273.11 216.544 273.462C216.872 273.806 217.32 273.978 217.888 273.978C218.472 273.978 218.932 273.798 219.268 273.438C219.604 273.078 219.772 272.554 219.772 271.866V268.254H220.864ZM228.708 271.29C228.708 271.498 228.696 271.718 228.672 271.95H223.416C223.456 272.598 223.676 273.106 224.076 273.474C224.484 273.834 224.976 274.014 225.552 274.014C226.024 274.014 226.416 273.906 226.728 273.69C227.048 273.466 227.272 273.17 227.4 272.802H228.576C228.4 273.434 228.048 273.95 227.52 274.35C226.992 274.742 226.336 274.938 225.552 274.938C224.928 274.938 224.368 274.798 223.872 274.518C223.384 274.238 223 273.842 222.72 273.33C222.44 272.81 222.3 272.21 222.3 271.53C222.3 270.85 222.436 270.254 222.708 269.742C222.98 269.23 223.36 268.838 223.848 268.566C224.344 268.286 224.912 268.146 225.552 268.146C226.176 268.146 226.728 268.282 227.208 268.554C227.688 268.826 228.056 269.202 228.312 269.682C228.576 270.154 228.708 270.69 228.708 271.29ZM227.58 271.062C227.58 270.646 227.488 270.29 227.304 269.994C227.12 269.69 226.868 269.462 226.548 269.31C226.236 269.15 225.888 269.07 225.504 269.07C224.952 269.07 224.48 269.246 224.088 269.598C223.704 269.95 223.484 270.438 223.428 271.062H227.58ZM233.353 268.134C234.153 268.134 234.801 268.378 235.297 268.866C235.793 269.346 236.041 270.042 236.041 270.954V274.83H234.961V271.11C234.961 270.454 234.797 269.954 234.469 269.61C234.141 269.258 233.693 269.082 233.125 269.082C232.549 269.082 232.089 269.262 231.745 269.622C231.409 269.982 231.241 270.506 231.241 271.194V274.83H230.149V268.254H231.241V269.19C231.457 268.854 231.749 268.594 232.117 268.41C232.493 268.226 232.905 268.134 233.353 268.134ZM237.417 271.53C237.417 270.85 237.553 270.258 237.825 269.754C238.097 269.242 238.473 268.846 238.953 268.566C239.441 268.286 239.997 268.146 240.621 268.146C241.429 268.146 242.093 268.342 242.613 268.734C243.141 269.126 243.489 269.67 243.657 270.366H242.481C242.369 269.966 242.149 269.65 241.821 269.418C241.501 269.186 241.101 269.07 240.621 269.07C239.997 269.07 239.493 269.286 239.109 269.718C238.725 270.142 238.533 270.746 238.533 271.53C238.533 272.322 238.725 272.934 239.109 273.366C239.493 273.798 239.997 274.014 240.621 274.014C241.101 274.014 241.501 273.902 241.821 273.678C242.141 273.454 242.361 273.134 242.481 272.718H243.657C243.481 273.39 243.129 273.93 242.601 274.338C242.073 274.738 241.413 274.938 240.621 274.938C239.997 274.938 239.441 274.798 238.953 274.518C238.473 274.238 238.097 273.842 237.825 273.33C237.553 272.818 237.417 272.218 237.417 271.53ZM251.114 271.29C251.114 271.498 251.102 271.718 251.078 271.95H245.822C245.862 272.598 246.082 273.106 246.482 273.474C246.89 273.834 247.382 274.014 247.958 274.014C248.43 274.014 248.822 273.906 249.134 273.69C249.454 273.466 249.678 273.17 249.806 272.802H250.982C250.806 273.434 250.454 273.95 249.926 274.35C249.398 274.742 248.742 274.938 247.958 274.938C247.334 274.938 246.774 274.798 246.278 274.518C245.79 274.238 245.406 273.842 245.126 273.33C244.846 272.81 244.706 272.21 244.706 271.53C244.706 270.85 244.842 270.254 245.114 269.742C245.386 269.23 245.766 268.838 246.254 268.566C246.75 268.286 247.318 268.146 247.958 268.146C248.582 268.146 249.134 268.282 249.614 268.554C250.094 268.826 250.462 269.202 250.718 269.682C250.982 270.154 251.114 270.69 251.114 271.29ZM249.986 271.062C249.986 270.646 249.894 270.29 249.71 269.994C249.526 269.69 249.274 269.462 248.954 269.31C248.642 269.15 248.294 269.07 247.91 269.07C247.358 269.07 246.886 269.246 246.494 269.598C246.11 269.95 245.89 270.438 245.834 271.062H249.986ZM253.648 269.322C253.84 268.946 254.112 268.654 254.464 268.446C254.824 268.238 255.26 268.134 255.772 268.134V269.262H255.484C254.26 269.262 253.648 269.926 253.648 271.254V274.83H252.556V268.254H253.648V269.322ZM259.36 274.938C258.856 274.938 258.404 274.854 258.004 274.686C257.604 274.51 257.288 274.27 257.056 273.966C256.824 273.654 256.696 273.298 256.672 272.898H257.8C257.832 273.226 257.984 273.494 258.256 273.702C258.536 273.91 258.9 274.014 259.348 274.014C259.764 274.014 260.092 273.922 260.332 273.738C260.572 273.554 260.692 273.322 260.692 273.042C260.692 272.754 260.564 272.542 260.308 272.406C260.052 272.262 259.656 272.122 259.12 271.986C258.632 271.858 258.232 271.73 257.92 271.602C257.616 271.466 257.352 271.27 257.128 271.014C256.912 270.75 256.804 270.406 256.804 269.982C256.804 269.646 256.904 269.338 257.104 269.058C257.304 268.778 257.588 268.558 257.956 268.398C258.324 268.23 258.744 268.146 259.216 268.146C259.944 268.146 260.532 268.33 260.98 268.698C261.428 269.066 261.668 269.57 261.7 270.21H260.608C260.584 269.866 260.444 269.59 260.188 269.382C259.94 269.174 259.604 269.07 259.18 269.07C258.788 269.07 258.476 269.154 258.244 269.322C258.012 269.49 257.896 269.71 257.896 269.982C257.896 270.198 257.964 270.378 258.1 270.522C258.244 270.658 258.42 270.77 258.628 270.858C258.844 270.938 259.14 271.03 259.516 271.134C259.988 271.262 260.372 271.39 260.668 271.518C260.964 271.638 261.216 271.822 261.424 272.07C261.64 272.318 261.752 272.642 261.76 273.042C261.76 273.402 261.66 273.726 261.46 274.014C261.26 274.302 260.976 274.53 260.608 274.698C260.248 274.858 259.832 274.938 259.36 274.938Z" fill="#797979"/>
<path d="M279.87 258.642C279.87 257.826 280.054 257.094 280.422 256.446C280.79 255.79 281.29 255.278 281.922 254.91C282.562 254.542 283.27 254.358 284.046 254.358C284.958 254.358 285.754 254.578 286.434 255.018C287.114 255.458 287.61 256.082 287.922 256.89H286.614C286.382 256.386 286.046 255.998 285.606 255.726C285.174 255.454 284.654 255.318 284.046 255.318C283.462 255.318 282.938 255.454 282.474 255.726C282.01 255.998 281.646 256.386 281.382 256.89C281.118 257.386 280.986 257.97 280.986 258.642C280.986 259.306 281.118 259.89 281.382 260.394C281.646 260.89 282.01 261.274 282.474 261.546C282.938 261.818 283.462 261.954 284.046 261.954C284.654 261.954 285.174 261.822 285.606 261.558C286.046 261.286 286.382 260.898 286.614 260.394H287.922C287.61 261.194 287.114 261.814 286.434 262.254C285.754 262.686 284.958 262.902 284.046 262.902C283.27 262.902 282.562 262.722 281.922 262.362C281.29 261.994 280.79 261.486 280.422 260.838C280.054 260.19 279.87 259.458 279.87 258.642ZM295.548 259.29C295.548 259.498 295.536 259.718 295.512 259.95H290.256C290.296 260.598 290.516 261.106 290.916 261.474C291.324 261.834 291.816 262.014 292.392 262.014C292.864 262.014 293.256 261.906 293.568 261.69C293.888 261.466 294.112 261.17 294.24 260.802H295.416C295.24 261.434 294.888 261.95 294.36 262.35C293.832 262.742 293.176 262.938 292.392 262.938C291.768 262.938 291.208 262.798 290.712 262.518C290.224 262.238 289.84 261.842 289.56 261.33C289.28 260.81 289.14 260.21 289.14 259.53C289.14 258.85 289.276 258.254 289.548 257.742C289.82 257.23 290.2 256.838 290.688 256.566C291.184 256.286 291.752 256.146 292.392 256.146C293.016 256.146 293.568 256.282 294.048 256.554C294.528 256.826 294.896 257.202 295.152 257.682C295.416 258.154 295.548 258.69 295.548 259.29ZM294.42 259.062C294.42 258.646 294.328 258.29 294.144 257.994C293.96 257.69 293.708 257.462 293.388 257.31C293.076 257.15 292.728 257.07 292.344 257.07C291.792 257.07 291.32 257.246 290.928 257.598C290.544 257.95 290.324 258.438 290.268 259.062H294.42ZM298.081 253.95V262.83H296.989V253.95H298.081ZM305.942 259.29C305.942 259.498 305.93 259.718 305.906 259.95H300.65C300.69 260.598 300.91 261.106 301.31 261.474C301.718 261.834 302.21 262.014 302.786 262.014C303.258 262.014 303.65 261.906 303.962 261.69C304.282 261.466 304.506 261.17 304.634 260.802H305.81C305.634 261.434 305.282 261.95 304.754 262.35C304.226 262.742 303.57 262.938 302.786 262.938C302.162 262.938 301.602 262.798 301.106 262.518C300.618 262.238 300.234 261.842 299.954 261.33C299.674 260.81 299.534 260.21 299.534 259.53C299.534 258.85 299.67 258.254 299.942 257.742C300.214 257.23 300.594 256.838 301.082 256.566C301.578 256.286 302.146 256.146 302.786 256.146C303.41 256.146 303.962 256.282 304.442 256.554C304.922 256.826 305.29 257.202 305.546 257.682C305.81 258.154 305.942 258.69 305.942 259.29ZM304.814 259.062C304.814 258.646 304.722 258.29 304.538 257.994C304.354 257.69 304.102 257.462 303.782 257.31C303.47 257.15 303.122 257.07 302.738 257.07C302.186 257.07 301.714 257.246 301.322 257.598C300.938 257.95 300.718 258.438 300.662 259.062H304.814ZM308.476 257.478C308.7 257.086 309.028 256.766 309.46 256.518C309.892 256.27 310.384 256.146 310.936 256.146C311.528 256.146 312.06 256.286 312.532 256.566C313.004 256.846 313.376 257.242 313.648 257.754C313.92 258.258 314.056 258.846 314.056 259.518C314.056 260.182 313.92 260.774 313.648 261.294C313.376 261.814 313 262.218 312.52 262.506C312.048 262.794 311.52 262.938 310.936 262.938C310.368 262.938 309.868 262.814 309.436 262.566C309.012 262.318 308.692 262.002 308.476 261.618V262.83H307.384V253.95H308.476V257.478ZM312.94 259.518C312.94 259.022 312.84 258.59 312.64 258.222C312.44 257.854 312.168 257.574 311.824 257.382C311.488 257.19 311.116 257.094 310.708 257.094C310.308 257.094 309.936 257.194 309.592 257.394C309.256 257.586 308.984 257.87 308.776 258.246C308.576 258.614 308.476 259.042 308.476 259.53C308.476 260.026 308.576 260.462 308.776 260.838C308.984 261.206 309.256 261.49 309.592 261.69C309.936 261.882 310.308 261.978 310.708 261.978C311.116 261.978 311.488 261.882 311.824 261.69C312.168 261.49 312.44 261.206 312.64 260.838C312.84 260.462 312.94 260.022 312.94 259.518ZM316.585 257.322C316.777 256.946 317.049 256.654 317.401 256.446C317.761 256.238 318.197 256.134 318.709 256.134V257.262H318.421C317.197 257.262 316.585 257.926 316.585 259.254V262.83H315.493V256.254H316.585V257.322ZM320.534 255.186C320.326 255.186 320.15 255.114 320.006 254.97C319.862 254.826 319.79 254.65 319.79 254.442C319.79 254.234 319.862 254.058 320.006 253.914C320.15 253.77 320.326 253.698 320.534 253.698C320.734 253.698 320.902 253.77 321.038 253.914C321.182 254.058 321.254 254.234 321.254 254.442C321.254 254.65 321.182 254.826 321.038 254.97C320.902 255.114 320.734 255.186 320.534 255.186ZM321.062 256.254V262.83H319.97V256.254H321.062ZM324.255 257.154V261.03C324.255 261.35 324.323 261.578 324.459 261.714C324.595 261.842 324.831 261.906 325.167 261.906H325.971V262.83H324.987C324.379 262.83 323.923 262.69 323.619 262.41C323.315 262.13 323.163 261.67 323.163 261.03V257.154H322.311V256.254H323.163V254.598H324.255V256.254H325.971V257.154H324.255ZM327.858 255.186C327.65 255.186 327.474 255.114 327.33 254.97C327.186 254.826 327.114 254.65 327.114 254.442C327.114 254.234 327.186 254.058 327.33 253.914C327.474 253.77 327.65 253.698 327.858 253.698C328.058 253.698 328.226 253.77 328.362 253.914C328.506 254.058 328.578 254.234 328.578 254.442C328.578 254.65 328.506 254.826 328.362 254.97C328.226 255.114 328.058 255.186 327.858 255.186ZM328.386 256.254V262.83H327.294V256.254H328.386ZM336.247 259.29C336.247 259.498 336.235 259.718 336.211 259.95H330.955C330.995 260.598 331.215 261.106 331.615 261.474C332.023 261.834 332.515 262.014 333.091 262.014C333.563 262.014 333.955 261.906 334.267 261.69C334.587 261.466 334.811 261.17 334.939 260.802H336.115C335.939 261.434 335.587 261.95 335.059 262.35C334.531 262.742 333.875 262.938 333.091 262.938C332.467 262.938 331.907 262.798 331.411 262.518C330.923 262.238 330.539 261.842 330.259 261.33C329.979 260.81 329.839 260.21 329.839 259.53C329.839 258.85 329.975 258.254 330.247 257.742C330.519 257.23 330.899 256.838 331.387 256.566C331.883 256.286 332.451 256.146 333.091 256.146C333.715 256.146 334.267 256.282 334.747 256.554C335.227 256.826 335.595 257.202 335.851 257.682C336.115 258.154 336.247 258.69 336.247 259.29ZM335.119 259.062C335.119 258.646 335.027 258.29 334.843 257.994C334.659 257.69 334.407 257.462 334.087 257.31C333.775 257.15 333.427 257.07 333.043 257.07C332.491 257.07 332.019 257.246 331.627 257.598C331.243 257.95 331.023 258.438 330.967 259.062H335.119ZM340.016 262.938C339.512 262.938 339.06 262.854 338.66 262.686C338.26 262.51 337.944 262.27 337.712 261.966C337.48 261.654 337.352 261.298 337.328 260.898H338.456C338.488 261.226 338.64 261.494 338.912 261.702C339.192 261.91 339.556 262.014 340.004 262.014C340.42 262.014 340.748 261.922 340.988 261.738C341.228 261.554 341.348 261.322 341.348 261.042C341.348 260.754 341.22 260.542 340.964 260.406C340.708 260.262 340.312 260.122 339.776 259.986C339.288 259.858 338.888 259.73 338.576 259.602C338.272 259.466 338.008 259.27 337.784 259.014C337.568 258.75 337.46 258.406 337.46 257.982C337.46 257.646 337.56 257.338 337.76 257.058C337.96 256.778 338.244 256.558 338.612 256.398C338.98 256.23 339.4 256.146 339.872 256.146C340.6 256.146 341.188 256.33 341.636 256.698C342.084 257.066 342.324 257.57 342.356 258.21H341.264C341.24 257.866 341.1 257.59 340.844 257.382C340.596 257.174 340.26 257.07 339.836 257.07C339.444 257.07 339.132 257.154 338.9 257.322C338.668 257.49 338.552 257.71 338.552 257.982C338.552 258.198 338.62 258.378 338.756 258.522C338.9 258.658 339.076 258.77 339.284 258.858C339.5 258.938 339.796 259.03 340.172 259.134C340.644 259.262 341.028 259.39 341.324 259.518C341.62 259.638 341.872 259.822 342.08 260.07C342.296 260.318 342.408 260.642 342.416 261.042C342.416 261.402 342.316 261.726 342.116 262.014C341.916 262.302 341.632 262.53 341.264 262.698C340.904 262.858 340.488 262.938 340.016 262.938Z" fill="#797979"/>
<path d="M133.506 262.914C132.954 262.914 132.458 262.818 132.018 262.626C131.586 262.426 131.246 262.154 130.998 261.81C130.75 261.458 130.622 261.054 130.614 260.598H131.778C131.818 260.99 131.978 261.322 132.258 261.594C132.546 261.858 132.962 261.99 133.506 261.99C134.026 261.99 134.434 261.862 134.73 261.606C135.034 261.342 135.186 261.006 135.186 260.598C135.186 260.278 135.098 260.018 134.922 259.818C134.746 259.618 134.526 259.466 134.262 259.362C133.998 259.258 133.642 259.146 133.194 259.026C132.642 258.882 132.198 258.738 131.862 258.594C131.534 258.45 131.25 258.226 131.01 257.922C130.778 257.61 130.662 257.194 130.662 256.674C130.662 256.218 130.778 255.814 131.01 255.462C131.242 255.11 131.566 254.838 131.982 254.646C132.406 254.454 132.89 254.358 133.434 254.358C134.218 254.358 134.858 254.554 135.354 254.946C135.858 255.338 136.142 255.858 136.206 256.506H135.006C134.966 256.186 134.798 255.906 134.502 255.666C134.206 255.418 133.814 255.294 133.326 255.294C132.87 255.294 132.498 255.414 132.21 255.654C131.922 255.886 131.778 256.214 131.778 256.638C131.778 256.942 131.862 257.19 132.03 257.382C132.206 257.574 132.418 257.722 132.666 257.826C132.922 257.922 133.278 258.034 133.734 258.162C134.286 258.314 134.73 258.466 135.066 258.618C135.402 258.762 135.69 258.99 135.93 259.302C136.17 259.606 136.29 260.022 136.29 260.55C136.29 260.958 136.182 261.342 135.966 261.702C135.75 262.062 135.43 262.354 135.006 262.578C134.582 262.802 134.082 262.914 133.506 262.914ZM145.805 256.134C146.317 256.134 146.773 256.242 147.173 256.458C147.573 256.666 147.889 256.982 148.121 257.406C148.353 257.83 148.469 258.346 148.469 258.954V262.83H147.389V259.11C147.389 258.454 147.225 257.954 146.897 257.61C146.577 257.258 146.141 257.082 145.589 257.082C145.021 257.082 144.569 257.266 144.233 257.634C143.897 257.994 143.729 258.518 143.729 259.206V262.83H142.649V259.11C142.649 258.454 142.485 257.954 142.157 257.61C141.837 257.258 141.401 257.082 140.849 257.082C140.281 257.082 139.829 257.266 139.493 257.634C139.157 257.994 138.989 258.518 138.989 259.206V262.83H137.897V256.254H138.989V257.202C139.205 256.858 139.493 256.594 139.853 256.41C140.221 256.226 140.625 256.134 141.065 256.134C141.617 256.134 142.105 256.258 142.529 256.506C142.953 256.754 143.269 257.118 143.477 257.598C143.661 257.134 143.965 256.774 144.389 256.518C144.813 256.262 145.285 256.134 145.805 256.134ZM149.853 259.518C149.853 258.846 149.989 258.258 150.261 257.754C150.533 257.242 150.905 256.846 151.377 256.566C151.857 256.286 152.389 256.146 152.973 256.146C153.549 256.146 154.049 256.27 154.473 256.518C154.897 256.766 155.213 257.078 155.421 257.454V256.254H156.525V262.83H155.421V261.606C155.205 261.99 154.881 262.31 154.449 262.566C154.025 262.814 153.529 262.938 152.961 262.938C152.377 262.938 151.849 262.794 151.377 262.506C150.905 262.218 150.533 261.814 150.261 261.294C149.989 260.774 149.853 260.182 149.853 259.518ZM155.421 259.53C155.421 259.034 155.321 258.602 155.121 258.234C154.921 257.866 154.649 257.586 154.305 257.394C153.969 257.194 153.597 257.094 153.189 257.094C152.781 257.094 152.409 257.19 152.073 257.382C151.737 257.574 151.469 257.854 151.269 258.222C151.069 258.59 150.969 259.022 150.969 259.518C150.969 260.022 151.069 260.462 151.269 260.838C151.469 261.206 151.737 261.49 152.073 261.69C152.409 261.882 152.781 261.978 153.189 261.978C153.597 261.978 153.969 261.882 154.305 261.69C154.649 261.49 154.921 261.206 155.121 260.838C155.321 260.462 155.421 260.026 155.421 259.53ZM159.462 253.95V262.83H158.37V253.95H159.462ZM162.415 253.95V262.83H161.323V253.95H162.415ZM125.237 271.53C125.237 270.85 125.373 270.258 125.645 269.754C125.917 269.242 126.293 268.846 126.773 268.566C127.261 268.286 127.817 268.146 128.441 268.146C129.249 268.146 129.913 268.342 130.433 268.734C130.961 269.126 131.309 269.67 131.477 270.366H130.301C130.189 269.966 129.969 269.65 129.641 269.418C129.321 269.186 128.921 269.07 128.441 269.07C127.817 269.07 127.313 269.286 126.929 269.718C126.545 270.142 126.353 270.746 126.353 271.53C126.353 272.322 126.545 272.934 126.929 273.366C127.313 273.798 127.817 274.014 128.441 274.014C128.921 274.014 129.321 273.902 129.641 273.678C129.961 273.454 130.181 273.134 130.301 272.718H131.477C131.301 273.39 130.949 273.93 130.421 274.338C129.893 274.738 129.233 274.938 128.441 274.938C127.817 274.938 127.261 274.798 126.773 274.518C126.293 274.238 125.917 273.842 125.645 273.33C125.373 272.818 125.237 272.218 125.237 271.53ZM134.026 269.322C134.218 268.946 134.49 268.654 134.842 268.446C135.202 268.238 135.638 268.134 136.15 268.134V269.262H135.862C134.638 269.262 134.026 269.926 134.026 271.254V274.83H132.934V268.254H134.026V269.322ZM143.411 271.29C143.411 271.498 143.399 271.718 143.375 271.95H138.119C138.159 272.598 138.379 273.106 138.779 273.474C139.187 273.834 139.679 274.014 140.255 274.014C140.727 274.014 141.119 273.906 141.431 273.69C141.751 273.466 141.975 273.17 142.103 272.802H143.279C143.103 273.434 142.751 273.95 142.223 274.35C141.695 274.742 141.039 274.938 140.255 274.938C139.631 274.938 139.071 274.798 138.575 274.518C138.087 274.238 137.703 273.842 137.423 273.33C137.143 272.81 137.003 272.21 137.003 271.53C137.003 270.85 137.139 270.254 137.411 269.742C137.683 269.23 138.063 268.838 138.551 268.566C139.047 268.286 139.615 268.146 140.255 268.146C140.879 268.146 141.431 268.282 141.911 268.554C142.391 268.826 142.759 269.202 143.015 269.682C143.279 270.154 143.411 270.69 143.411 271.29ZM142.283 271.062C142.283 270.646 142.191 270.29 142.007 269.994C141.823 269.69 141.571 269.462 141.251 269.31C140.939 269.15 140.591 269.07 140.207 269.07C139.655 269.07 139.183 269.246 138.791 269.598C138.407 269.95 138.187 270.438 138.131 271.062H142.283ZM144.444 271.518C144.444 270.846 144.58 270.258 144.852 269.754C145.124 269.242 145.496 268.846 145.968 268.566C146.448 268.286 146.98 268.146 147.564 268.146C148.14 268.146 148.64 268.27 149.064 268.518C149.488 268.766 149.804 269.078 150.012 269.454V268.254H151.116V274.83H150.012V273.606C149.796 273.99 149.472 274.31 149.04 274.566C148.616 274.814 148.12 274.938 147.552 274.938C146.968 274.938 146.44 274.794 145.968 274.506C145.496 274.218 145.124 273.814 144.852 273.294C144.58 272.774 144.444 272.182 144.444 271.518ZM150.012 271.53C150.012 271.034 149.912 270.602 149.712 270.234C149.512 269.866 149.24 269.586 148.896 269.394C148.56 269.194 148.188 269.094 147.78 269.094C147.372 269.094 147 269.19 146.664 269.382C146.328 269.574 146.06 269.854 145.86 270.222C145.66 270.59 145.56 271.022 145.56 271.518C145.56 272.022 145.66 272.462 145.86 272.838C146.06 273.206 146.328 273.49 146.664 273.69C147 273.882 147.372 273.978 147.78 273.978C148.188 273.978 148.56 273.882 148.896 273.69C149.24 273.49 149.512 273.206 149.712 272.838C149.912 272.462 150.012 272.026 150.012 271.53ZM154.294 269.154V273.03C154.294 273.35 154.362 273.578 154.498 273.714C154.634 273.842 154.87 273.906 155.206 273.906H156.01V274.83H155.026C154.418 274.83 153.962 274.69 153.658 274.41C153.354 274.13 153.202 273.67 153.202 273.03V269.154H152.35V268.254H153.202V266.598H154.294V268.254H156.01V269.154H154.294ZM160.201 274.938C159.585 274.938 159.025 274.798 158.521 274.518C158.025 274.238 157.633 273.842 157.345 273.33C157.065 272.81 156.925 272.21 156.925 271.53C156.925 270.858 157.069 270.266 157.357 269.754C157.653 269.234 158.053 268.838 158.557 268.566C159.061 268.286 159.625 268.146 160.249 268.146C160.873 268.146 161.437 268.286 161.941 268.566C162.445 268.838 162.841 269.23 163.129 269.742C163.425 270.254 163.573 270.85 163.573 271.53C163.573 272.21 163.421 272.81 163.117 273.33C162.821 273.842 162.417 274.238 161.905 274.518C161.393 274.798 160.825 274.938 160.201 274.938ZM160.201 273.978C160.593 273.978 160.961 273.886 161.305 273.702C161.649 273.518 161.925 273.242 162.133 272.874C162.349 272.506 162.457 272.058 162.457 271.53C162.457 271.002 162.353 270.554 162.145 270.186C161.937 269.818 161.665 269.546 161.329 269.37C160.993 269.186 160.629 269.094 160.237 269.094C159.837 269.094 159.469 269.186 159.133 269.37C158.805 269.546 158.541 269.818 158.341 270.186C158.141 270.554 158.041 271.002 158.041 271.53C158.041 272.066 158.137 272.518 158.329 272.886C158.529 273.254 158.793 273.53 159.121 273.714C159.449 273.89 159.809 273.978 160.201 273.978ZM166.101 269.322C166.293 268.946 166.565 268.654 166.917 268.446C167.277 268.238 167.713 268.134 168.225 268.134V269.262H167.937C166.713 269.262 166.101 269.926 166.101 271.254V274.83H165.009V268.254H166.101V269.322Z" fill="#797979"/>
<path d="M127.977 33.1856C127.425 33.1856 126.929 33.0896 126.489 32.8976C126.057 32.6976 125.717 32.4256 125.469 32.0816C125.221 31.7296 125.093 31.3256 125.085 30.8696H126.249C126.289 31.2616 126.449 31.5936 126.729 31.8656C127.017 32.1296 127.433 32.2616 127.977 32.2616C128.497 32.2616 128.905 32.1336 129.201 31.8776C129.505 31.6136 129.657 31.2776 129.657 30.8696C129.657 30.5496 129.569 30.2896 129.393 30.0896C129.217 29.8896 128.997 29.7376 128.733 29.6336C128.469 29.5296 128.113 29.4176 127.665 29.2976C127.113 29.1536 126.669 29.0096 126.333 28.8656C126.005 28.7216 125.721 28.4976 125.481 28.1936C125.249 27.8816 125.133 27.4656 125.133 26.9456C125.133 26.4896 125.249 26.0856 125.481 25.7336C125.713 25.3816 126.037 25.1096 126.453 24.9176C126.877 24.7256 127.361 24.6296 127.905 24.6296C128.689 24.6296 129.329 24.8256 129.825 25.2176C130.329 25.6096 130.613 26.1296 130.677 26.7776H129.477C129.437 26.4576 129.269 26.1776 128.973 25.9376C128.677 25.6896 128.285 25.5656 127.797 25.5656C127.341 25.5656 126.969 25.6856 126.681 25.9256C126.393 26.1576 126.249 26.4856 126.249 26.9096C126.249 27.2136 126.333 27.4616 126.501 27.6536C126.677 27.8456 126.889 27.9936 127.137 28.0976C127.393 28.1936 127.749 28.3056 128.205 28.4336C128.757 28.5856 129.201 28.7376 129.537 28.8896C129.873 29.0336 130.161 29.2616 130.401 29.5736C130.641 29.8776 130.761 30.2936 130.761 30.8216C130.761 31.2296 130.653 31.6136 130.437 31.9736C130.221 32.3336 129.901 32.6256 129.477 32.8496C129.053 33.0736 128.553 33.1856 127.977 33.1856ZM132.932 25.4576C132.724 25.4576 132.548 25.3856 132.404 25.2416C132.26 25.0976 132.188 24.9216 132.188 24.7136C132.188 24.5056 132.26 24.3296 132.404 24.1856C132.548 24.0416 132.724 23.9696 132.932 23.9696C133.132 23.9696 133.3 24.0416 133.436 24.1856C133.58 24.3296 133.652 24.5056 133.652 24.7136C133.652 24.9216 133.58 25.0976 133.436 25.2416C133.3 25.3856 133.132 25.4576 132.932 25.4576ZM133.46 26.5256V33.1016H132.368V26.5256H133.46ZM143.229 26.4056C143.741 26.4056 144.197 26.5136 144.597 26.7296C144.997 26.9376 145.313 27.2536 145.545 27.6776C145.777 28.1016 145.893 28.6176 145.893 29.2256V33.1016H144.813V29.3816C144.813 28.7256 144.649 28.2256 144.321 27.8816C144.001 27.5296 143.565 27.3536 143.013 27.3536C142.445 27.3536 141.993 27.5376 141.657 27.9056C141.321 28.2656 141.153 28.7896 141.153 29.4776V33.1016H140.073V29.3816C140.073 28.7256 139.909 28.2256 139.581 27.8816C139.261 27.5296 138.825 27.3536 138.273 27.3536C137.705 27.3536 137.253 27.5376 136.917 27.9056C136.581 28.2656 136.413 28.7896 136.413 29.4776V33.1016H135.321V26.5256H136.413V27.4736C136.629 27.1296 136.917 26.8656 137.277 26.6816C137.645 26.4976 138.049 26.4056 138.489 26.4056C139.041 26.4056 139.529 26.5296 139.953 26.7776C140.377 27.0256 140.693 27.3896 140.901 27.8696C141.085 27.4056 141.389 27.0456 141.813 26.7896C142.237 26.5336 142.709 26.4056 143.229 26.4056ZM148.248 25.4576C148.04 25.4576 147.864 25.3856 147.72 25.2416C147.576 25.0976 147.504 24.9216 147.504 24.7136C147.504 24.5056 147.576 24.3296 147.72 24.1856C147.864 24.0416 148.04 23.9696 148.248 23.9696C148.448 23.9696 148.616 24.0416 148.752 24.1856C148.896 24.3296 148.968 24.5056 148.968 24.7136C148.968 24.9216 148.896 25.0976 148.752 25.2416C148.616 25.3856 148.448 25.4576 148.248 25.4576ZM148.776 26.5256V33.1016H147.684V26.5256H148.776ZM151.729 24.2216V33.1016H150.637V24.2216H151.729ZM153.182 29.7896C153.182 29.1176 153.318 28.5296 153.59 28.0256C153.862 27.5136 154.234 27.1176 154.706 26.8376C155.186 26.5576 155.718 26.4176 156.302 26.4176C156.878 26.4176 157.378 26.5416 157.802 26.7896C158.226 27.0376 158.542 27.3496 158.75 27.7256V26.5256H159.854V33.1016H158.75V31.8776C158.534 32.2616 158.21 32.5816 157.778 32.8376C157.354 33.0856 156.858 33.2096 156.29 33.2096C155.706 33.2096 155.178 33.0656 154.706 32.7776C154.234 32.4896 153.862 32.0856 153.59 31.5656C153.318 31.0456 153.182 30.4536 153.182 29.7896ZM158.75 29.8016C158.75 29.3056 158.65 28.8736 158.45 28.5056C158.25 28.1376 157.978 27.8576 157.634 27.6656C157.298 27.4656 156.926 27.3656 156.518 27.3656C156.11 27.3656 155.738 27.4616 155.402 27.6536C155.066 27.8456 154.798 28.1256 154.598 28.4936C154.398 28.8616 154.298 29.2936 154.298 29.7896C154.298 30.2936 154.398 30.7336 154.598 31.1096C154.798 31.4776 155.066 31.7616 155.402 31.9616C155.738 32.1536 156.11 32.2496 156.518 32.2496C156.926 32.2496 157.298 32.1536 157.634 31.9616C157.978 31.7616 158.25 31.4776 158.45 31.1096C158.65 30.7336 158.75 30.2976 158.75 29.8016ZM162.792 27.5936C162.984 27.2176 163.256 26.9256 163.608 26.7176C163.968 26.5096 164.404 26.4056 164.916 26.4056V27.5336H164.628C163.404 27.5336 162.792 28.1976 162.792 29.5256V33.1016H161.7V26.5256H162.792V27.5936ZM166.74 25.4576C166.532 25.4576 166.356 25.3856 166.212 25.2416C166.068 25.0976 165.996 24.9216 165.996 24.7136C165.996 24.5056 166.068 24.3296 166.212 24.1856C166.356 24.0416 166.532 23.9696 166.74 23.9696C166.94 23.9696 167.108 24.0416 167.244 24.1856C167.388 24.3296 167.46 24.5056 167.46 24.7136C167.46 24.9216 167.388 25.0976 167.244 25.2416C167.108 25.3856 166.94 25.4576 166.74 25.4576ZM167.268 26.5256V33.1016H166.176V26.5256H167.268ZM170.461 27.4256V31.3016C170.461 31.6216 170.529 31.8496 170.665 31.9856C170.801 32.1136 171.037 32.1776 171.373 32.1776H172.177V33.1016H171.193C170.585 33.1016 170.129 32.9616 169.825 32.6816C169.521 32.4016 169.369 31.9416 169.369 31.3016V27.4256H168.517V26.5256H169.369V24.8696H170.461V26.5256H172.177V27.4256H170.461ZM179.164 26.5256L175.204 36.1976H174.076L175.372 33.0296L172.72 26.5256H173.932L175.996 31.8536L178.036 26.5256H179.164ZM186.329 33.2096C185.713 33.2096 185.153 33.0696 184.649 32.7896C184.153 32.5096 183.761 32.1136 183.473 31.6016C183.193 31.0816 183.053 30.4816 183.053 29.8016C183.053 29.1296 183.197 28.5376 183.485 28.0256C183.781 27.5056 184.181 27.1096 184.685 26.8376C185.189 26.5576 185.753 26.4176 186.377 26.4176C187.001 26.4176 187.565 26.5576 188.069 26.8376C188.573 27.1096 188.969 27.5016 189.257 28.0136C189.553 28.5256 189.701 29.1216 189.701 29.8016C189.701 30.4816 189.549 31.0816 189.245 31.6016C188.949 32.1136 188.545 32.5096 188.033 32.7896C187.521 33.0696 186.953 33.2096 186.329 33.2096ZM186.329 32.2496C186.721 32.2496 187.089 32.1576 187.433 31.9736C187.777 31.7896 188.053 31.5136 188.261 31.1456C188.477 30.7776 188.585 30.3296 188.585 29.8016C188.585 29.2736 188.481 28.8256 188.273 28.4576C188.065 28.0896 187.793 27.8176 187.457 27.6416C187.121 27.4576 186.757 27.3656 186.365 27.3656C185.965 27.3656 185.597 27.4576 185.261 27.6416C184.933 27.8176 184.669 28.0896 184.469 28.4576C184.269 28.8256 184.169 29.2736 184.169 29.8016C184.169 30.3376 184.265 30.7896 184.457 31.1576C184.657 31.5256 184.921 31.8016 185.249 31.9856C185.577 32.1616 185.937 32.2496 186.329 32.2496ZM193.813 27.4256H192.433V33.1016H191.341V27.4256H190.489V26.5256H191.341V26.0576C191.341 25.3216 191.529 24.7856 191.905 24.4496C192.289 24.1056 192.901 23.9336 193.741 23.9336V24.8456C193.261 24.8456 192.921 24.9416 192.721 25.1336C192.529 25.3176 192.433 25.6256 192.433 26.0576V26.5256H193.813V27.4256ZM200.962 27.4256H199.582V33.1016H198.49V27.4256H197.638V26.5256H198.49V26.0576C198.49 25.3216 198.678 24.7856 199.054 24.4496C199.438 24.1056 200.05 23.9336 200.89 23.9336V24.8456C200.41 24.8456 200.07 24.9416 199.87 25.1336C199.678 25.3176 199.582 25.6256 199.582 26.0576V26.5256H200.962V27.4256ZM205.103 33.2096C204.487 33.2096 203.927 33.0696 203.423 32.7896C202.927 32.5096 202.535 32.1136 202.247 31.6016C201.967 31.0816 201.827 30.4816 201.827 29.8016C201.827 29.1296 201.971 28.5376 202.259 28.0256C202.555 27.5056 202.955 27.1096 203.459 26.8376C203.963 26.5576 204.527 26.4176 205.151 26.4176C205.775 26.4176 206.339 26.5576 206.843 26.8376C207.347 27.1096 207.743 27.5016 208.031 28.0136C208.327 28.5256 208.475 29.1216 208.475 29.8016C208.475 30.4816 208.323 31.0816 208.019 31.6016C207.723 32.1136 207.319 32.5096 206.807 32.7896C206.295 33.0696 205.727 33.2096 205.103 33.2096ZM205.103 32.2496C205.495 32.2496 205.863 32.1576 206.207 31.9736C206.551 31.7896 206.827 31.5136 207.035 31.1456C207.251 30.7776 207.359 30.3296 207.359 29.8016C207.359 29.2736 207.255 28.8256 207.047 28.4576C206.839 28.0896 206.567 27.8176 206.231 27.6416C205.895 27.4576 205.531 27.3656 205.139 27.3656C204.739 27.3656 204.371 27.4576 204.035 27.6416C203.707 27.8176 203.443 28.0896 203.243 28.4576C203.043 28.8256 202.943 29.2736 202.943 29.8016C202.943 30.3376 203.039 30.7896 203.231 31.1576C203.431 31.5256 203.695 31.8016 204.023 31.9856C204.351 32.1616 204.711 32.2496 205.103 32.2496ZM211.003 24.2216V33.1016H209.911V24.2216H211.003ZM213.956 24.2216V33.1016H212.864V24.2216H213.956ZM218.685 33.2096C218.069 33.2096 217.509 33.0696 217.005 32.7896C216.509 32.5096 216.117 32.1136 215.829 31.6016C215.549 31.0816 215.409 30.4816 215.409 29.8016C215.409 29.1296 215.553 28.5376 215.841 28.0256C216.137 27.5056 216.537 27.1096 217.041 26.8376C217.545 26.5576 218.109 26.4176 218.733 26.4176C219.357 26.4176 219.921 26.5576 220.425 26.8376C220.929 27.1096 221.325 27.5016 221.613 28.0136C221.909 28.5256 222.057 29.1216 222.057 29.8016C222.057 30.4816 221.905 31.0816 221.601 31.6016C221.305 32.1136 220.901 32.5096 220.389 32.7896C219.877 33.0696 219.309 33.2096 218.685 33.2096ZM218.685 32.2496C219.077 32.2496 219.445 32.1576 219.789 31.9736C220.133 31.7896 220.409 31.5136 220.617 31.1456C220.833 30.7776 220.941 30.3296 220.941 29.8016C220.941 29.2736 220.837 28.8256 220.629 28.4576C220.421 28.0896 220.149 27.8176 219.813 27.6416C219.477 27.4576 219.113 27.3656 218.721 27.3656C218.321 27.3656 217.953 27.4576 217.617 27.6416C217.289 27.8176 217.025 28.0896 216.825 28.4576C216.625 28.8256 216.525 29.2736 216.525 29.8016C216.525 30.3376 216.621 30.7896 216.813 31.1576C217.013 31.5256 217.277 31.8016 217.605 31.9856C217.933 32.1616 218.293 32.2496 218.685 32.2496ZM232.253 26.5256L230.201 33.1016H229.073L227.489 27.8816L225.905 33.1016H224.777L222.713 26.5256H223.829L225.341 32.0456L226.973 26.5256H228.089L229.685 32.0576L231.173 26.5256H232.253ZM239.336 29.5616C239.336 29.7696 239.324 29.9896 239.3 30.2216H234.044C234.084 30.8696 234.304 31.3776 234.704 31.7456C235.112 32.1056 235.604 32.2856 236.18 32.2856C236.652 32.2856 237.044 32.1776 237.356 31.9616C237.676 31.7376 237.9 31.4416 238.028 31.0736H239.204C239.028 31.7056 238.676 32.2216 238.148 32.6216C237.62 33.0136 236.964 33.2096 236.18 33.2096C235.556 33.2096 234.996 33.0696 234.5 32.7896C234.012 32.5096 233.628 32.1136 233.348 31.6016C233.068 31.0816 232.928 30.4816 232.928 29.8016C232.928 29.1216 233.064 28.5256 233.336 28.0136C233.608 27.5016 233.988 27.1096 234.476 26.8376C234.972 26.5576 235.54 26.4176 236.18 26.4176C236.804 26.4176 237.356 26.5536 237.836 26.8256C238.316 27.0976 238.684 27.4736 238.94 27.9536C239.204 28.4256 239.336 28.9616 239.336 29.5616ZM238.208 29.3336C238.208 28.9176 238.116 28.5616 237.932 28.2656C237.748 27.9616 237.496 27.7336 237.176 27.5816C236.864 27.4216 236.516 27.3416 236.132 27.3416C235.58 27.3416 235.108 27.5176 234.716 27.8696C234.332 28.2216 234.112 28.7096 234.056 29.3336H238.208ZM241.87 27.5936C242.062 27.2176 242.334 26.9256 242.686 26.7176C243.046 26.5096 243.482 26.4056 243.994 26.4056V27.5336H243.706C242.482 27.5336 241.87 28.1976 241.87 29.5256V33.1016H240.778V26.5256H241.87V27.5936ZM247.582 33.2096C247.078 33.2096 246.626 33.1256 246.226 32.9576C245.826 32.7816 245.51 32.5416 245.278 32.2376C245.046 31.9256 244.918 31.5696 244.894 31.1696H246.022C246.054 31.4976 246.206 31.7656 246.478 31.9736C246.758 32.1816 247.122 32.2856 247.57 32.2856C247.986 32.2856 248.314 32.1936 248.554 32.0096C248.794 31.8256 248.914 31.5936 248.914 31.3136C248.914 31.0256 248.786 30.8136 248.53 30.6776C248.274 30.5336 247.878 30.3936 247.342 30.2576C246.854 30.1296 246.454 30.0016 246.142 29.8736C245.838 29.7376 245.574 29.5416 245.35 29.2856C245.134 29.0216 245.026 28.6776 245.026 28.2536C245.026 27.9176 245.126 27.6096 245.326 27.3296C245.526 27.0496 245.81 26.8296 246.178 26.6696C246.546 26.5016 246.966 26.4176 247.438 26.4176C248.166 26.4176 248.754 26.6016 249.202 26.9696C249.65 27.3376 249.89 27.8416 249.922 28.4816H248.83C248.806 28.1376 248.666 27.8616 248.41 27.6536C248.162 27.4456 247.826 27.3416 247.402 27.3416C247.01 27.3416 246.698 27.4256 246.466 27.5936C246.234 27.7616 246.118 27.9816 246.118 28.2536C246.118 28.4696 246.186 28.6496 246.322 28.7936C246.466 28.9296 246.642 29.0416 246.85 29.1296C247.066 29.2096 247.362 29.3016 247.738 29.4056C248.21 29.5336 248.594 29.6616 248.89 29.7896C249.186 29.9096 249.438 30.0936 249.646 30.3416C249.862 30.5896 249.974 30.9136 249.982 31.3136C249.982 31.6736 249.882 31.9976 249.682 32.2856C249.482 32.5736 249.198 32.8016 248.83 32.9696C248.47 33.1296 248.054 33.2096 247.582 33.2096Z" fill="black"/>
<path d="M124.401 34.3016H131.445V34.9016H124.401V34.3016ZM131.444 34.3016H160.778V34.9016H131.444V34.3016ZM160.776 34.3016H182.542V34.9016H160.776V34.3016ZM182.537 34.3016H190.217V34.9016H182.537V34.3016ZM190.213 34.3016H197.366V34.9016H190.213V34.3016ZM197.362 34.3016H208.991V34.9016H197.362V34.3016ZM208.987 34.3016H222.573V34.9016H208.987V34.3016ZM222.569 34.3016H250.594V34.9016H222.569V34.3016Z" fill="black"/>
<rect x="44.7773" y="85.9883" width="36.9403" height="160.425" fill="#2B35F3"/>
<rect x="127.611" y="192.51" width="36.9403" height="53.9028" fill="#27354F"/>
<rect x="210.447" y="225.878" width="36.9403" height="20.5344" fill="#27354F"/>
<rect x="293.283" y="236.146" width="36.9403" height="10.2672" fill="#27354F"/>
<path d="M20.1484 246.412H351.492" stroke="black"/>
</svg>
