<svg width="375" height="301" viewBox="0 0 375 301" fill="none" xmlns="http://www.w3.org/2000/svg">
<rect width="375" height="301" fill="white"/>
<rect width="375" height="301" fill="white"/>
<path d="M180.804 90.2107C199.681 88.1254 218.753 91.6793 235.613 100.424C252.472 109.168 266.363 122.711 275.532 139.344L191.357 185.748L180.804 90.2107Z" fill="#E0E0E0"/>
<path d="M275.069 138.514C282.843 152.29 287.096 167.771 287.452 183.585L191.357 185.748L275.069 138.514Z" fill="#D6D6D6"/>
<path d="M104.329 144.945C111.55 129.544 122.729 116.334 136.724 106.666C150.72 96.9972 167.03 91.216 183.991 89.9122L191.357 185.748L104.329 144.945Z" fill="#EDEDED"/>
<path d="M287.437 183.012C287.85 197.525 284.971 211.942 279.014 225.183C273.058 238.423 264.179 250.142 253.045 259.46C241.911 268.777 228.811 275.452 214.728 278.982C200.646 282.512 185.946 282.806 171.734 279.842C157.521 276.878 144.164 270.733 132.667 261.868C121.169 253.003 111.829 241.648 105.348 228.657C98.8666 215.665 95.4126 201.374 95.2452 186.856C95.0778 172.339 98.2013 157.972 104.381 144.835L191.357 185.748L287.437 183.012Z" fill="#27354F"/>
<path d="M126.067 208.161V216.525H124.975V208.161H126.067ZM134.391 209.829C134.887 209.829 135.335 209.937 135.735 210.153C136.135 210.361 136.447 210.677 136.671 211.101C136.903 211.525 137.019 212.041 137.019 212.649V216.525H135.939V212.805C135.939 212.149 135.775 211.649 135.447 211.305C135.119 210.953 134.671 210.777 134.103 210.777C133.527 210.777 133.067 210.957 132.723 211.317C132.387 211.677 132.219 212.201 132.219 212.889V216.525H131.127V207.645H132.219V210.885C132.435 210.549 132.731 210.289 133.107 210.105C133.491 209.921 133.919 209.829 134.391 209.829ZM144.803 212.985C144.803 213.193 144.791 213.413 144.767 213.645H139.511C139.551 214.293 139.771 214.801 140.171 215.169C140.579 215.529 141.071 215.709 141.647 215.709C142.119 215.709 142.511 215.601 142.823 215.385C143.143 215.161 143.367 214.865 143.495 214.497H144.671C144.495 215.129 144.143 215.645 143.615 216.045C143.087 216.437 142.431 216.633 141.647 216.633C141.023 216.633 140.463 216.493 139.967 216.213C139.479 215.933 139.095 215.537 138.815 215.025C138.535 214.505 138.395 213.905 138.395 213.225C138.395 212.545 138.531 211.949 138.803 211.437C139.075 210.925 139.455 210.533 139.943 210.261C140.439 209.981 141.007 209.841 141.647 209.841C142.271 209.841 142.823 209.977 143.303 210.249C143.783 210.521 144.151 210.897 144.407 211.377C144.671 211.849 144.803 212.385 144.803 212.985ZM143.675 212.757C143.675 212.341 143.583 211.985 143.399 211.689C143.215 211.385 142.963 211.157 142.643 211.005C142.331 210.845 141.983 210.765 141.599 210.765C141.047 210.765 140.575 210.941 140.183 211.293C139.799 211.645 139.579 212.133 139.523 212.757H143.675ZM145.836 213.213C145.836 212.541 145.972 211.953 146.244 211.449C146.516 210.937 146.888 210.541 147.36 210.261C147.84 209.981 148.372 209.841 148.956 209.841C149.532 209.841 150.032 209.965 150.456 210.213C150.88 210.461 151.196 210.773 151.404 211.149V209.949H152.508V216.525H151.404V215.301C151.188 215.685 150.864 216.005 150.432 216.261C150.008 216.509 149.512 216.633 148.944 216.633C148.36 216.633 147.832 216.489 147.36 216.201C146.888 215.913 146.516 215.509 146.244 214.989C145.972 214.469 145.836 213.877 145.836 213.213ZM151.404 213.225C151.404 212.729 151.304 212.297 151.104 211.929C150.904 211.561 150.632 211.281 150.288 211.089C149.952 210.889 149.58 210.789 149.172 210.789C148.764 210.789 148.392 210.885 148.056 211.077C147.72 211.269 147.452 211.549 147.252 211.917C147.052 212.285 146.952 212.717 146.952 213.213C146.952 213.717 147.052 214.157 147.252 214.533C147.452 214.901 147.72 215.185 148.056 215.385C148.392 215.577 148.764 215.673 149.172 215.673C149.58 215.673 149.952 215.577 150.288 215.385C150.632 215.185 150.904 214.901 151.104 214.533C151.304 214.157 151.404 213.721 151.404 213.225ZM155.446 211.017C155.638 210.641 155.91 210.349 156.262 210.141C156.622 209.933 157.058 209.829 157.57 209.829V210.957H157.282C156.058 210.957 155.446 211.621 155.446 212.949V216.525H154.354V209.949H155.446V211.017ZM158.422 213.213C158.422 212.541 158.558 211.953 158.83 211.449C159.102 210.937 159.474 210.541 159.946 210.261C160.426 209.981 160.962 209.841 161.554 209.841C162.066 209.841 162.542 209.961 162.982 210.201C163.422 210.433 163.758 210.741 163.99 211.125V207.645H165.094V216.525H163.99V215.289C163.774 215.681 163.454 216.005 163.03 216.261C162.606 216.509 162.11 216.633 161.542 216.633C160.958 216.633 160.426 216.489 159.946 216.201C159.474 215.913 159.102 215.509 158.83 214.989C158.558 214.469 158.422 213.877 158.422 213.213ZM163.99 213.225C163.99 212.729 163.89 212.297 163.69 211.929C163.49 211.561 163.218 211.281 162.874 211.089C162.538 210.889 162.166 210.789 161.758 210.789C161.35 210.789 160.978 210.885 160.642 211.077C160.306 211.269 160.038 211.549 159.838 211.917C159.638 212.285 159.538 212.717 159.538 213.213C159.538 213.717 159.638 214.157 159.838 214.533C160.038 214.901 160.306 215.185 160.642 215.385C160.978 215.577 161.35 215.673 161.758 215.673C162.166 215.673 162.538 215.577 162.874 215.385C163.218 215.185 163.49 214.901 163.69 214.533C163.89 214.157 163.99 213.721 163.99 213.225ZM169.731 213.213C169.731 212.541 169.867 211.953 170.139 211.449C170.411 210.937 170.783 210.541 171.255 210.261C171.735 209.981 172.267 209.841 172.851 209.841C173.427 209.841 173.927 209.965 174.351 210.213C174.775 210.461 175.091 210.773 175.299 211.149V209.949H176.403V216.525H175.299V215.301C175.083 215.685 174.759 216.005 174.327 216.261C173.903 216.509 173.407 216.633 172.839 216.633C172.255 216.633 171.727 216.489 171.255 216.201C170.783 215.913 170.411 215.509 170.139 214.989C169.867 214.469 169.731 213.877 169.731 213.213ZM175.299 213.225C175.299 212.729 175.199 212.297 174.999 211.929C174.799 211.561 174.527 211.281 174.183 211.089C173.847 210.889 173.475 210.789 173.067 210.789C172.659 210.789 172.287 210.885 171.951 211.077C171.615 211.269 171.347 211.549 171.147 211.917C170.947 212.285 170.847 212.717 170.847 213.213C170.847 213.717 170.947 214.157 171.147 214.533C171.347 214.901 171.615 215.185 171.951 215.385C172.287 215.577 172.659 215.673 173.067 215.673C173.475 215.673 173.847 215.577 174.183 215.385C174.527 215.185 174.799 214.901 174.999 214.533C175.199 214.157 175.299 213.721 175.299 213.225ZM179.34 211.173C179.564 210.781 179.892 210.461 180.324 210.213C180.756 209.965 181.248 209.841 181.8 209.841C182.392 209.841 182.924 209.981 183.396 210.261C183.868 210.541 184.24 210.937 184.512 211.449C184.784 211.953 184.92 212.541 184.92 213.213C184.92 213.877 184.784 214.469 184.512 214.989C184.24 215.509 183.864 215.913 183.384 216.201C182.912 216.489 182.384 216.633 181.8 216.633C181.232 216.633 180.732 216.509 180.3 216.261C179.876 216.013 179.556 215.697 179.34 215.313V216.525H178.248V207.645H179.34V211.173ZM183.804 213.213C183.804 212.717 183.704 212.285 183.504 211.917C183.304 211.549 183.032 211.269 182.688 211.077C182.352 210.885 181.98 210.789 181.572 210.789C181.172 210.789 180.8 210.889 180.456 211.089C180.12 211.281 179.848 211.565 179.64 211.941C179.44 212.309 179.34 212.737 179.34 213.225C179.34 213.721 179.44 214.157 179.64 214.533C179.848 214.901 180.12 215.185 180.456 215.385C180.8 215.577 181.172 215.673 181.572 215.673C181.98 215.673 182.352 215.577 182.688 215.385C183.032 215.185 183.304 214.901 183.504 214.533C183.704 214.157 183.804 213.717 183.804 213.213ZM189.226 216.633C188.61 216.633 188.05 216.493 187.546 216.213C187.05 215.933 186.658 215.537 186.37 215.025C186.09 214.505 185.95 213.905 185.95 213.225C185.95 212.553 186.094 211.961 186.382 211.449C186.678 210.929 187.078 210.533 187.582 210.261C188.086 209.981 188.65 209.841 189.274 209.841C189.898 209.841 190.462 209.981 190.966 210.261C191.47 210.533 191.866 210.925 192.154 211.437C192.45 211.949 192.598 212.545 192.598 213.225C192.598 213.905 192.446 214.505 192.142 215.025C191.846 215.537 191.442 215.933 190.93 216.213C190.418 216.493 189.85 216.633 189.226 216.633ZM189.226 215.673C189.618 215.673 189.986 215.581 190.33 215.397C190.674 215.213 190.95 214.937 191.158 214.569C191.374 214.201 191.482 213.753 191.482 213.225C191.482 212.697 191.378 212.249 191.17 211.881C190.962 211.513 190.69 211.241 190.354 211.065C190.018 210.881 189.654 210.789 189.262 210.789C188.862 210.789 188.494 210.881 188.158 211.065C187.83 211.241 187.566 211.513 187.366 211.881C187.166 212.249 187.066 212.697 187.066 213.225C187.066 213.761 187.162 214.213 187.354 214.581C187.554 214.949 187.818 215.225 188.146 215.409C188.474 215.585 188.834 215.673 189.226 215.673ZM199.865 209.949V216.525H198.773V215.553C198.565 215.889 198.273 216.153 197.897 216.345C197.529 216.529 197.121 216.621 196.673 216.621C196.161 216.621 195.701 216.517 195.293 216.309C194.885 216.093 194.561 215.773 194.321 215.349C194.089 214.925 193.973 214.409 193.973 213.801V209.949H195.053V213.657C195.053 214.305 195.217 214.805 195.545 215.157C195.873 215.501 196.321 215.673 196.889 215.673C197.473 215.673 197.933 215.493 198.269 215.133C198.605 214.773 198.773 214.249 198.773 213.561V209.949H199.865ZM203.041 210.849V214.725C203.041 215.045 203.109 215.273 203.245 215.409C203.381 215.537 203.617 215.601 203.953 215.601H204.757V216.525H203.773C203.165 216.525 202.709 216.385 202.405 216.105C202.101 215.825 201.949 215.365 201.949 214.725V210.849H201.097V209.949H201.949V208.293H203.041V209.949H204.757V210.849H203.041ZM209.843 208.881C209.635 208.881 209.459 208.809 209.315 208.665C209.171 208.521 209.099 208.345 209.099 208.137C209.099 207.929 209.171 207.753 209.315 207.609C209.459 207.465 209.635 207.393 209.843 207.393C210.043 207.393 210.211 207.465 210.347 207.609C210.491 207.753 210.563 207.929 210.563 208.137C210.563 208.345 210.491 208.521 210.347 208.665C210.211 208.809 210.043 208.881 209.843 208.881ZM210.371 209.949V216.525H209.279V209.949H210.371ZM213.565 210.849V214.725C213.565 215.045 213.633 215.273 213.769 215.409C213.905 215.537 214.141 215.601 214.477 215.601H215.281V216.525H214.297C213.689 216.525 213.233 216.385 212.929 216.105C212.625 215.825 212.473 215.365 212.473 214.725V210.849H211.621V209.949H212.473V208.293H213.565V209.949H215.281V210.849H213.565ZM222.479 210.849H221.099V216.525H220.007V210.849H219.155V209.949H220.007V209.481C220.007 208.745 220.195 208.209 220.571 207.873C220.955 207.529 221.567 207.357 222.407 207.357V208.269C221.927 208.269 221.587 208.365 221.387 208.557C221.195 208.741 221.099 209.049 221.099 209.481V209.949H222.479V210.849ZM224.844 211.017C225.036 210.641 225.308 210.349 225.66 210.141C226.02 209.933 226.456 209.829 226.968 209.829V210.957H226.68C225.456 210.957 224.844 211.621 224.844 212.949V216.525H223.752V209.949H224.844V211.017ZM231.097 216.633C230.481 216.633 229.921 216.493 229.417 216.213C228.921 215.933 228.529 215.537 228.241 215.025C227.961 214.505 227.821 213.905 227.821 213.225C227.821 212.553 227.965 211.961 228.253 211.449C228.549 210.929 228.949 210.533 229.453 210.261C229.957 209.981 230.521 209.841 231.145 209.841C231.769 209.841 232.333 209.981 232.837 210.261C233.341 210.533 233.737 210.925 234.025 211.437C234.321 211.949 234.469 212.545 234.469 213.225C234.469 213.905 234.317 214.505 234.013 215.025C233.717 215.537 233.313 215.933 232.801 216.213C232.289 216.493 231.721 216.633 231.097 216.633ZM231.097 215.673C231.489 215.673 231.857 215.581 232.201 215.397C232.545 215.213 232.821 214.937 233.029 214.569C233.245 214.201 233.353 213.753 233.353 213.225C233.353 212.697 233.249 212.249 233.041 211.881C232.833 211.513 232.561 211.241 232.225 211.065C231.889 210.881 231.525 210.789 231.133 210.789C230.733 210.789 230.365 210.881 230.029 211.065C229.701 211.241 229.437 211.513 229.237 211.881C229.037 212.249 228.937 212.697 228.937 213.225C228.937 213.761 229.033 214.213 229.225 214.581C229.425 214.949 229.689 215.225 230.017 215.409C230.345 215.585 230.705 215.673 231.097 215.673ZM243.812 209.829C244.324 209.829 244.78 209.937 245.18 210.153C245.58 210.361 245.896 210.677 246.128 211.101C246.36 211.525 246.476 212.041 246.476 212.649V216.525H245.396V212.805C245.396 212.149 245.232 211.649 244.904 211.305C244.584 210.953 244.148 210.777 243.596 210.777C243.028 210.777 242.576 210.961 242.24 211.329C241.904 211.689 241.736 212.213 241.736 212.901V216.525H240.656V212.805C240.656 212.149 240.492 211.649 240.164 211.305C239.844 210.953 239.408 210.777 238.856 210.777C238.288 210.777 237.836 210.961 237.5 211.329C237.164 211.689 236.996 212.213 236.996 212.901V216.525H235.904V209.949H236.996V210.897C237.212 210.553 237.5 210.289 237.86 210.105C238.228 209.921 238.632 209.829 239.072 209.829C239.624 209.829 240.112 209.953 240.536 210.201C240.96 210.449 241.276 210.813 241.484 211.293C241.668 210.829 241.972 210.469 242.396 210.213C242.82 209.957 243.292 209.829 243.812 209.829ZM251.059 213.213C251.059 212.541 251.195 211.953 251.467 211.449C251.739 210.937 252.111 210.541 252.583 210.261C253.063 209.981 253.595 209.841 254.179 209.841C254.755 209.841 255.255 209.965 255.679 210.213C256.103 210.461 256.419 210.773 256.627 211.149V209.949H257.731V216.525H256.627V215.301C256.411 215.685 256.087 216.005 255.655 216.261C255.231 216.509 254.735 216.633 254.167 216.633C253.583 216.633 253.055 216.489 252.583 216.201C252.111 215.913 251.739 215.509 251.467 214.989C251.195 214.469 251.059 213.877 251.059 213.213ZM256.627 213.225C256.627 212.729 256.527 212.297 256.327 211.929C256.127 211.561 255.855 211.281 255.511 211.089C255.175 210.889 254.803 210.789 254.395 210.789C253.987 210.789 253.615 210.885 253.279 211.077C252.943 211.269 252.675 211.549 252.475 211.917C252.275 212.285 252.175 212.717 252.175 213.213C252.175 213.717 252.275 214.157 252.475 214.533C252.675 214.901 252.943 215.185 253.279 215.385C253.615 215.577 253.987 215.673 254.395 215.673C254.803 215.673 255.175 215.577 255.511 215.385C255.855 215.185 256.127 214.901 256.327 214.533C256.527 214.157 256.627 213.721 256.627 213.225ZM177.649 228.849H176.269V234.525H175.177V228.849H174.325V227.949H175.177V227.481C175.177 226.745 175.365 226.209 175.741 225.873C176.125 225.529 176.737 225.357 177.577 225.357V226.269C177.097 226.269 176.757 226.365 176.557 226.557C176.365 226.741 176.269 227.049 176.269 227.481V227.949H177.649V228.849ZM180.014 229.017C180.206 228.641 180.478 228.349 180.83 228.141C181.19 227.933 181.626 227.829 182.138 227.829V228.957H181.85C180.626 228.957 180.014 229.621 180.014 230.949V234.525H178.922V227.949H180.014V229.017ZM183.963 226.881C183.755 226.881 183.579 226.809 183.435 226.665C183.291 226.521 183.219 226.345 183.219 226.137C183.219 225.929 183.291 225.753 183.435 225.609C183.579 225.465 183.755 225.393 183.963 225.393C184.163 225.393 184.331 225.465 184.467 225.609C184.611 225.753 184.683 225.929 184.683 226.137C184.683 226.345 184.611 226.521 184.467 226.665C184.331 226.809 184.163 226.881 183.963 226.881ZM184.491 227.949V234.525H183.399V227.949H184.491ZM192.352 230.985C192.352 231.193 192.34 231.413 192.316 231.645H187.06C187.1 232.293 187.32 232.801 187.72 233.169C188.128 233.529 188.62 233.709 189.196 233.709C189.668 233.709 190.06 233.601 190.372 233.385C190.692 233.161 190.916 232.865 191.044 232.497H192.22C192.044 233.129 191.692 233.645 191.164 234.045C190.636 234.437 189.98 234.633 189.196 234.633C188.572 234.633 188.012 234.493 187.516 234.213C187.028 233.933 186.644 233.537 186.364 233.025C186.084 232.505 185.944 231.905 185.944 231.225C185.944 230.545 186.08 229.949 186.352 229.437C186.624 228.925 187.004 228.533 187.492 228.261C187.988 227.981 188.556 227.841 189.196 227.841C189.82 227.841 190.372 227.977 190.852 228.249C191.332 228.521 191.7 228.897 191.956 229.377C192.22 229.849 192.352 230.385 192.352 230.985ZM191.224 230.757C191.224 230.341 191.132 229.985 190.948 229.689C190.764 229.385 190.512 229.157 190.192 229.005C189.88 228.845 189.532 228.765 189.148 228.765C188.596 228.765 188.124 228.941 187.732 229.293C187.348 229.645 187.128 230.133 187.072 230.757H191.224ZM196.997 227.829C197.797 227.829 198.445 228.073 198.941 228.561C199.437 229.041 199.685 229.737 199.685 230.649V234.525H198.605V230.805C198.605 230.149 198.441 229.649 198.113 229.305C197.785 228.953 197.337 228.777 196.769 228.777C196.193 228.777 195.733 228.957 195.389 229.317C195.053 229.677 194.885 230.201 194.885 230.889V234.525H193.793V227.949H194.885V228.885C195.101 228.549 195.393 228.289 195.761 228.105C196.137 227.921 196.549 227.829 196.997 227.829ZM201.061 231.213C201.061 230.541 201.197 229.953 201.469 229.449C201.741 228.937 202.113 228.541 202.585 228.261C203.065 227.981 203.601 227.841 204.193 227.841C204.705 227.841 205.181 227.961 205.621 228.201C206.061 228.433 206.397 228.741 206.629 229.125V225.645H207.733V234.525H206.629V233.289C206.413 233.681 206.093 234.005 205.669 234.261C205.245 234.509 204.749 234.633 204.181 234.633C203.597 234.633 203.065 234.489 202.585 234.201C202.113 233.913 201.741 233.509 201.469 232.989C201.197 232.469 201.061 231.877 201.061 231.213ZM206.629 231.225C206.629 230.729 206.529 230.297 206.329 229.929C206.129 229.561 205.857 229.281 205.513 229.089C205.177 228.889 204.805 228.789 204.397 228.789C203.989 228.789 203.617 228.885 203.281 229.077C202.945 229.269 202.677 229.549 202.477 229.917C202.277 230.285 202.177 230.717 202.177 231.213C202.177 231.717 202.277 232.157 202.477 232.533C202.677 232.901 202.945 233.185 203.281 233.385C203.617 233.577 203.989 233.673 204.397 233.673C204.805 233.673 205.177 233.577 205.513 233.385C205.857 233.185 206.129 232.901 206.329 232.533C206.529 232.157 206.629 231.721 206.629 231.225ZM178.039 254.757C177.271 254.005 176.671 253.049 176.239 251.889C175.815 250.729 175.603 249.477 175.603 248.133C175.603 246.757 175.827 245.473 176.275 244.281C176.731 243.081 177.379 242.093 178.219 241.317H179.359V241.425C178.463 242.265 177.787 243.277 177.331 244.461C176.883 245.637 176.659 246.861 176.659 248.133C176.659 249.373 176.871 250.557 177.295 251.685C177.727 252.813 178.355 253.801 179.179 254.649V254.757H178.039ZM186.032 244.797H181.82V247.533C182.004 247.277 182.276 247.069 182.636 246.909C182.996 246.741 183.384 246.657 183.8 246.657C184.464 246.657 185.004 246.797 185.42 247.077C185.836 247.349 186.132 247.705 186.308 248.145C186.492 248.577 186.584 249.037 186.584 249.525C186.584 250.101 186.476 250.617 186.26 251.073C186.044 251.529 185.712 251.889 185.264 252.153C184.824 252.417 184.276 252.549 183.62 252.549C182.78 252.549 182.1 252.333 181.58 251.901C181.06 251.469 180.744 250.893 180.632 250.173H181.7C181.804 250.629 182.024 250.985 182.36 251.241C182.696 251.497 183.12 251.625 183.632 251.625C184.264 251.625 184.74 251.437 185.06 251.061C185.38 250.677 185.54 250.173 185.54 249.549C185.54 248.925 185.38 248.445 185.06 248.109C184.74 247.765 184.268 247.593 183.644 247.593C183.22 247.593 182.848 247.697 182.528 247.905C182.216 248.105 181.988 248.381 181.844 248.733H180.812V243.837H186.032V244.797ZM193.375 244.701L190.039 252.525H188.935L192.319 244.809H187.687V243.873H193.375V244.701ZM194.346 245.805C194.346 245.261 194.51 244.829 194.838 244.509C195.166 244.181 195.586 244.017 196.098 244.017C196.61 244.017 197.03 244.181 197.358 244.509C197.686 244.829 197.85 245.261 197.85 245.805C197.85 246.357 197.686 246.797 197.358 247.125C197.03 247.445 196.61 247.605 196.098 247.605C195.586 247.605 195.166 247.445 194.838 247.125C194.51 246.797 194.346 246.357 194.346 245.805ZM201.354 244.149L196.494 252.525H195.414L200.274 244.149H201.354ZM196.098 244.689C195.826 244.689 195.61 244.785 195.45 244.977C195.298 245.161 195.222 245.437 195.222 245.805C195.222 246.173 195.298 246.453 195.45 246.645C195.61 246.837 195.826 246.933 196.098 246.933C196.37 246.933 196.586 246.837 196.746 246.645C196.906 246.445 196.986 246.165 196.986 245.805C196.986 245.437 196.906 245.161 196.746 244.977C196.586 244.785 196.37 244.689 196.098 244.689ZM198.942 250.869C198.942 250.317 199.106 249.881 199.434 249.561C199.762 249.233 200.182 249.069 200.694 249.069C201.206 249.069 201.622 249.233 201.942 249.561C202.27 249.881 202.434 250.317 202.434 250.869C202.434 251.413 202.27 251.849 201.942 252.177C201.622 252.505 201.206 252.669 200.694 252.669C200.182 252.669 199.762 252.509 199.434 252.189C199.106 251.861 198.942 251.421 198.942 250.869ZM200.682 249.753C200.41 249.753 200.194 249.849 200.034 250.041C199.874 250.225 199.794 250.501 199.794 250.869C199.794 251.229 199.874 251.505 200.034 251.697C200.194 251.881 200.41 251.973 200.682 251.973C200.954 251.973 201.17 251.881 201.33 251.697C201.49 251.505 201.57 251.229 201.57 250.869C201.57 250.501 201.49 250.225 201.33 250.041C201.17 249.849 200.954 249.753 200.682 249.753ZM203.523 254.757V254.649C204.347 253.801 204.971 252.813 205.395 251.685C205.827 250.557 206.043 249.373 206.043 248.133C206.043 246.861 205.815 245.637 205.359 244.461C204.911 243.277 204.239 242.265 203.343 241.425V241.317H204.483C205.323 242.093 205.967 243.081 206.415 244.281C206.871 245.473 207.099 246.757 207.099 248.133C207.099 249.477 206.883 250.729 206.451 251.889C206.027 253.049 205.431 254.005 204.663 254.757H203.523Z" fill="white"/>
<path d="M148.072 64.8623C147.52 64.8623 147.024 64.7663 146.584 64.5743C146.152 64.3743 145.812 64.1023 145.564 63.7583C145.316 63.4063 145.188 63.0023 145.18 62.5463H146.344C146.384 62.9383 146.544 63.2703 146.824 63.5423C147.112 63.8063 147.528 63.9383 148.072 63.9383C148.592 63.9383 149 63.8103 149.296 63.5543C149.6 63.2903 149.752 62.9543 149.752 62.5463C149.752 62.2263 149.664 61.9663 149.488 61.7663C149.312 61.5663 149.092 61.4143 148.828 61.3103C148.564 61.2063 148.208 61.0943 147.76 60.9743C147.208 60.8303 146.764 60.6863 146.428 60.5423C146.1 60.3983 145.816 60.1743 145.576 59.8703C145.344 59.5583 145.228 59.1423 145.228 58.6223C145.228 58.1663 145.344 57.7623 145.576 57.4103C145.808 57.0583 146.132 56.7863 146.548 56.5943C146.972 56.4023 147.456 56.3063 148 56.3063C148.784 56.3063 149.424 56.5023 149.92 56.8943C150.424 57.2863 150.708 57.8063 150.772 58.4543H149.572C149.532 58.1343 149.364 57.8543 149.068 57.6143C148.772 57.3663 148.38 57.2423 147.892 57.2423C147.436 57.2423 147.064 57.3623 146.776 57.6023C146.488 57.8343 146.344 58.1623 146.344 58.5863C146.344 58.8903 146.428 59.1383 146.596 59.3303C146.772 59.5223 146.984 59.6703 147.232 59.7743C147.488 59.8703 147.844 59.9823 148.3 60.1103C148.852 60.2623 149.296 60.4143 149.632 60.5663C149.968 60.7103 150.256 60.9383 150.496 61.2503C150.736 61.5543 150.856 61.9703 150.856 62.4983C150.856 62.9063 150.748 63.2903 150.532 63.6503C150.316 64.0103 149.996 64.3023 149.572 64.5263C149.148 64.7503 148.648 64.8623 148.072 64.8623ZM158.463 61.2383C158.463 61.4463 158.451 61.6663 158.427 61.8983H153.171C153.211 62.5463 153.431 63.0543 153.831 63.4223C154.239 63.7823 154.731 63.9623 155.307 63.9623C155.779 63.9623 156.171 63.8543 156.483 63.6383C156.803 63.4143 157.027 63.1183 157.155 62.7503H158.331C158.155 63.3823 157.803 63.8983 157.275 64.2983C156.747 64.6903 156.091 64.8863 155.307 64.8863C154.683 64.8863 154.123 64.7463 153.627 64.4663C153.139 64.1863 152.755 63.7903 152.475 63.2783C152.195 62.7583 152.055 62.1583 152.055 61.4783C152.055 60.7983 152.191 60.2023 152.463 59.6903C152.735 59.1783 153.115 58.7863 153.603 58.5143C154.099 58.2343 154.667 58.0943 155.307 58.0943C155.931 58.0943 156.483 58.2303 156.963 58.5023C157.443 58.7743 157.811 59.1503 158.067 59.6303C158.331 60.1023 158.463 60.6383 158.463 61.2383ZM157.335 61.0103C157.335 60.5943 157.243 60.2383 157.059 59.9423C156.875 59.6383 156.623 59.4103 156.303 59.2583C155.991 59.0983 155.643 59.0183 155.259 59.0183C154.707 59.0183 154.235 59.1943 153.843 59.5463C153.459 59.8983 153.239 60.3863 153.183 61.0103H157.335ZM159.496 61.4663C159.496 60.7943 159.632 60.2063 159.904 59.7023C160.176 59.1903 160.548 58.7943 161.02 58.5143C161.5 58.2343 162.032 58.0943 162.616 58.0943C163.192 58.0943 163.692 58.2183 164.116 58.4663C164.54 58.7143 164.856 59.0263 165.064 59.4023V58.2023H166.168V64.7783H165.064V63.5543C164.848 63.9383 164.524 64.2583 164.092 64.5143C163.668 64.7623 163.172 64.8863 162.604 64.8863C162.02 64.8863 161.492 64.7423 161.02 64.4543C160.548 64.1663 160.176 63.7623 159.904 63.2423C159.632 62.7223 159.496 62.1303 159.496 61.4663ZM165.064 61.4783C165.064 60.9823 164.964 60.5503 164.764 60.1823C164.564 59.8143 164.292 59.5343 163.948 59.3423C163.612 59.1423 163.24 59.0423 162.832 59.0423C162.424 59.0423 162.052 59.1383 161.716 59.3303C161.38 59.5223 161.112 59.8023 160.912 60.1703C160.712 60.5383 160.612 60.9703 160.612 61.4663C160.612 61.9703 160.712 62.4103 160.912 62.7863C161.112 63.1543 161.38 63.4383 161.716 63.6383C162.052 63.8303 162.424 63.9263 162.832 63.9263C163.24 63.9263 163.612 63.8303 163.948 63.6383C164.292 63.4383 164.564 63.1543 164.764 62.7863C164.964 62.4103 165.064 61.9743 165.064 61.4783ZM169.106 59.2703C169.298 58.8943 169.57 58.6023 169.922 58.3943C170.282 58.1863 170.718 58.0823 171.23 58.0823V59.2103H170.942C169.718 59.2103 169.106 59.8743 169.106 61.2023V64.7783H168.014V58.2023H169.106V59.2703ZM172.082 61.4783C172.082 60.7983 172.218 60.2063 172.49 59.7023C172.762 59.1903 173.138 58.7943 173.618 58.5143C174.106 58.2343 174.662 58.0943 175.286 58.0943C176.094 58.0943 176.758 58.2903 177.278 58.6823C177.806 59.0743 178.154 59.6183 178.322 60.3143H177.146C177.034 59.9143 176.814 59.5983 176.486 59.3663C176.166 59.1343 175.766 59.0183 175.286 59.0183C174.662 59.0183 174.158 59.2343 173.774 59.6663C173.39 60.0903 173.198 60.6943 173.198 61.4783C173.198 62.2703 173.39 62.8823 173.774 63.3143C174.158 63.7463 174.662 63.9623 175.286 63.9623C175.766 63.9623 176.166 63.8503 176.486 63.6263C176.806 63.4023 177.026 63.0823 177.146 62.6663H178.322C178.146 63.3383 177.794 63.8783 177.266 64.2863C176.738 64.6863 176.078 64.8863 175.286 64.8863C174.662 64.8863 174.106 64.7463 173.618 64.4663C173.138 64.1863 172.762 63.7903 172.49 63.2783C172.218 62.7663 172.082 62.1663 172.082 61.4783ZM183.043 58.0823C183.539 58.0823 183.987 58.1903 184.387 58.4063C184.787 58.6143 185.099 58.9303 185.323 59.3543C185.555 59.7783 185.671 60.2943 185.671 60.9023V64.7783H184.591V61.0583C184.591 60.4023 184.427 59.9023 184.099 59.5583C183.771 59.2063 183.323 59.0303 182.755 59.0303C182.179 59.0303 181.719 59.2103 181.375 59.5703C181.039 59.9303 180.871 60.4543 180.871 61.1423V64.7783H179.779V55.8983H180.871V59.1383C181.087 58.8023 181.383 58.5423 181.759 58.3583C182.143 58.1743 182.571 58.0823 183.043 58.0823ZM194.734 53.4743L191.446 66.8183H190.366L193.642 53.4743H194.734ZM208.045 56.4743V64.7783H206.953V58.5863L204.193 64.7783H203.425L200.653 58.5743V64.7783H199.561V56.4743H200.737L203.809 63.3383L206.881 56.4743H208.045ZM209.489 61.4663C209.489 60.7943 209.625 60.2063 209.897 59.7023C210.169 59.1903 210.541 58.7943 211.013 58.5143C211.493 58.2343 212.025 58.0943 212.609 58.0943C213.185 58.0943 213.685 58.2183 214.109 58.4663C214.533 58.7143 214.849 59.0263 215.057 59.4023V58.2023H216.161V64.7783H215.057V63.5543C214.841 63.9383 214.517 64.2583 214.085 64.5143C213.661 64.7623 213.165 64.8863 212.597 64.8863C212.013 64.8863 211.485 64.7423 211.013 64.4543C210.541 64.1663 210.169 63.7623 209.897 63.2423C209.625 62.7223 209.489 62.1303 209.489 61.4663ZM215.057 61.4783C215.057 60.9823 214.957 60.5503 214.757 60.1823C214.557 59.8143 214.285 59.5343 213.941 59.3423C213.605 59.1423 213.233 59.0423 212.825 59.0423C212.417 59.0423 212.045 59.1383 211.709 59.3303C211.373 59.5223 211.105 59.8023 210.905 60.1703C210.705 60.5383 210.605 60.9703 210.605 61.4663C210.605 61.9703 210.705 62.4103 210.905 62.7863C211.105 63.1543 211.373 63.4383 211.709 63.6383C212.045 63.8303 212.417 63.9263 212.825 63.9263C213.233 63.9263 213.605 63.8303 213.941 63.6383C214.285 63.4383 214.557 63.1543 214.757 62.7863C214.957 62.4103 215.057 61.9743 215.057 61.4783ZM219.098 59.2703C219.29 58.8943 219.562 58.6023 219.914 58.3943C220.274 58.1863 220.71 58.0823 221.222 58.0823V59.2103H220.934C219.71 59.2103 219.098 59.8743 219.098 61.2023V64.7783H218.006V58.2023H219.098V59.2703ZM226.155 64.7783L223.575 61.8743V64.7783H222.483V55.8983H223.575V61.1183L226.107 58.2023H227.631L224.535 61.4783L227.643 64.7783H226.155ZM234.658 61.2383C234.658 61.4463 234.646 61.6663 234.622 61.8983H229.366C229.406 62.5463 229.626 63.0543 230.026 63.4223C230.434 63.7823 230.926 63.9623 231.502 63.9623C231.974 63.9623 232.366 63.8543 232.678 63.6383C232.998 63.4143 233.222 63.1183 233.35 62.7503H234.526C234.35 63.3823 233.998 63.8983 233.47 64.2983C232.942 64.6903 232.286 64.8863 231.502 64.8863C230.878 64.8863 230.318 64.7463 229.822 64.4663C229.334 64.1863 228.95 63.7903 228.67 63.2783C228.39 62.7583 228.25 62.1583 228.25 61.4783C228.25 60.7983 228.386 60.2023 228.658 59.6903C228.93 59.1783 229.31 58.7863 229.798 58.5143C230.294 58.2343 230.862 58.0943 231.502 58.0943C232.126 58.0943 232.678 58.2303 233.158 58.5023C233.638 58.7743 234.006 59.1503 234.262 59.6303C234.526 60.1023 234.658 60.6383 234.658 61.2383ZM233.53 61.0103C233.53 60.5943 233.438 60.2383 233.254 59.9423C233.07 59.6383 232.818 59.4103 232.498 59.2583C232.186 59.0983 231.838 59.0183 231.454 59.0183C230.902 59.0183 230.43 59.1943 230.038 59.5463C229.654 59.8983 229.434 60.3863 229.378 61.0103H233.53ZM237.432 59.1023V62.9783C237.432 63.2983 237.5 63.5263 237.636 63.6623C237.772 63.7903 238.008 63.8543 238.344 63.8543H239.148V64.7783H238.164C237.556 64.7783 237.1 64.6383 236.796 64.3583C236.492 64.0783 236.34 63.6183 236.34 62.9783V59.1023H235.488V58.2023H236.34V56.5463H237.432V58.2023H239.148V59.1023H237.432ZM241.563 59.4143C241.779 59.0383 242.099 58.7263 242.523 58.4783C242.955 58.2223 243.455 58.0943 244.023 58.0943C244.607 58.0943 245.135 58.2343 245.607 58.5143C246.087 58.7943 246.463 59.1903 246.735 59.7023C247.007 60.2063 247.143 60.7943 247.143 61.4663C247.143 62.1303 247.007 62.7223 246.735 63.2423C246.463 63.7623 246.087 64.1663 245.607 64.4543C245.135 64.7423 244.607 64.8863 244.023 64.8863C243.463 64.8863 242.967 64.7623 242.535 64.5143C242.111 64.2583 241.787 63.9423 241.563 63.5663V67.8983H240.471V58.2023H241.563V59.4143ZM246.027 61.4663C246.027 60.9703 245.927 60.5383 245.727 60.1703C245.527 59.8023 245.255 59.5223 244.911 59.3303C244.575 59.1383 244.203 59.0423 243.795 59.0423C243.395 59.0423 243.023 59.1423 242.679 59.3423C242.343 59.5343 242.071 59.8183 241.863 60.1943C241.663 60.5623 241.563 60.9903 241.563 61.4783C241.563 61.9743 241.663 62.4103 241.863 62.7863C242.071 63.1543 242.343 63.4383 242.679 63.6383C243.023 63.8303 243.395 63.9263 243.795 63.9263C244.203 63.9263 244.575 63.8303 244.911 63.6383C245.255 63.4383 245.527 63.1543 245.727 62.7863C245.927 62.4103 246.027 61.9703 246.027 61.4663ZM249.672 55.8983V64.7783H248.58V55.8983H249.672ZM251.125 61.4663C251.125 60.7943 251.261 60.2063 251.533 59.7023C251.805 59.1903 252.177 58.7943 252.649 58.5143C253.129 58.2343 253.661 58.0943 254.245 58.0943C254.821 58.0943 255.321 58.2183 255.745 58.4663C256.169 58.7143 256.485 59.0263 256.693 59.4023V58.2023H257.797V64.7783H256.693V63.5543C256.477 63.9383 256.153 64.2583 255.721 64.5143C255.297 64.7623 254.801 64.8863 254.233 64.8863C253.649 64.8863 253.121 64.7423 252.649 64.4543C252.177 64.1663 251.805 63.7623 251.533 63.2423C251.261 62.7223 251.125 62.1303 251.125 61.4663ZM256.693 61.4783C256.693 60.9823 256.593 60.5503 256.393 60.1823C256.193 59.8143 255.921 59.5343 255.577 59.3423C255.241 59.1423 254.869 59.0423 254.461 59.0423C254.053 59.0423 253.681 59.1383 253.345 59.3303C253.009 59.5223 252.741 59.8023 252.541 60.1703C252.341 60.5383 252.241 60.9703 252.241 61.4663C252.241 61.9703 252.341 62.4103 252.541 62.7863C252.741 63.1543 253.009 63.4383 253.345 63.6383C253.681 63.8303 254.053 63.9263 254.461 63.9263C254.869 63.9263 255.241 63.8303 255.577 63.6383C255.921 63.4383 256.193 63.1543 256.393 62.7863C256.593 62.4103 256.693 61.9743 256.693 61.4783ZM259.235 61.4783C259.235 60.7983 259.371 60.2063 259.643 59.7023C259.915 59.1903 260.291 58.7943 260.771 58.5143C261.259 58.2343 261.815 58.0943 262.439 58.0943C263.247 58.0943 263.911 58.2903 264.431 58.6823C264.959 59.0743 265.307 59.6183 265.475 60.3143H264.299C264.187 59.9143 263.967 59.5983 263.639 59.3663C263.319 59.1343 262.919 59.0183 262.439 59.0183C261.815 59.0183 261.311 59.2343 260.927 59.6663C260.543 60.0903 260.351 60.6943 260.351 61.4783C260.351 62.2703 260.543 62.8823 260.927 63.3143C261.311 63.7463 261.815 63.9623 262.439 63.9623C262.919 63.9623 263.319 63.8503 263.639 63.6263C263.959 63.4023 264.179 63.0823 264.299 62.6663H265.475C265.299 63.3383 264.947 63.8783 264.419 64.2863C263.891 64.6863 263.231 64.8863 262.439 64.8863C261.815 64.8863 261.259 64.7463 260.771 64.4663C260.291 64.1863 259.915 63.7903 259.643 63.2783C259.371 62.7663 259.235 62.1663 259.235 61.4783ZM272.932 61.2383C272.932 61.4463 272.92 61.6663 272.896 61.8983H267.64C267.68 62.5463 267.9 63.0543 268.3 63.4223C268.708 63.7823 269.2 63.9623 269.776 63.9623C270.248 63.9623 270.64 63.8543 270.952 63.6383C271.272 63.4143 271.496 63.1183 271.624 62.7503H272.8C272.624 63.3823 272.272 63.8983 271.744 64.2983C271.216 64.6903 270.56 64.8863 269.776 64.8863C269.152 64.8863 268.592 64.7463 268.096 64.4663C267.608 64.1863 267.224 63.7903 266.944 63.2783C266.664 62.7583 266.524 62.1583 266.524 61.4783C266.524 60.7983 266.66 60.2023 266.932 59.6903C267.204 59.1783 267.584 58.7863 268.072 58.5143C268.568 58.2343 269.136 58.0943 269.776 58.0943C270.4 58.0943 270.952 58.2303 271.432 58.5023C271.912 58.7743 272.28 59.1503 272.536 59.6303C272.8 60.1023 272.932 60.6383 272.932 61.2383ZM271.804 61.0103C271.804 60.5943 271.712 60.2383 271.528 59.9423C271.344 59.6383 271.092 59.4103 270.772 59.2583C270.46 59.0983 270.112 59.0183 269.728 59.0183C269.176 59.0183 268.704 59.1943 268.312 59.5463C267.928 59.8983 267.708 60.3863 267.652 61.0103H271.804Z" fill="#797979"/>
<path d="M82.8609 11.636V20H81.7689V16.208H77.5089V20H76.4169V11.636H77.5089V15.308H81.7689V11.636H82.8609ZM87.5935 20.108C86.9775 20.108 86.4175 19.968 85.9135 19.688C85.4175 19.408 85.0255 19.012 84.7375 18.5C84.4575 17.98 84.3175 17.38 84.3175 16.7C84.3175 16.028 84.4615 15.436 84.7495 14.924C85.0455 14.404 85.4455 14.008 85.9495 13.736C86.4535 13.456 87.0175 13.316 87.6415 13.316C88.2655 13.316 88.8295 13.456 89.3335 13.736C89.8375 14.008 90.2335 14.4 90.5215 14.912C90.8175 15.424 90.9655 16.02 90.9655 16.7C90.9655 17.38 90.8135 17.98 90.5095 18.5C90.2135 19.012 89.8095 19.408 89.2975 19.688C88.7855 19.968 88.2175 20.108 87.5935 20.108ZM87.5935 19.148C87.9855 19.148 88.3535 19.056 88.6975 18.872C89.0415 18.688 89.3175 18.412 89.5255 18.044C89.7415 17.676 89.8495 17.228 89.8495 16.7C89.8495 16.172 89.7455 15.724 89.5375 15.356C89.3295 14.988 89.0575 14.716 88.7215 14.54C88.3855 14.356 88.0215 14.264 87.6295 14.264C87.2295 14.264 86.8615 14.356 86.5255 14.54C86.1975 14.716 85.9335 14.988 85.7335 15.356C85.5335 15.724 85.4335 16.172 85.4335 16.7C85.4335 17.236 85.5295 17.688 85.7215 18.056C85.9215 18.424 86.1855 18.7 86.5135 18.884C86.8415 19.06 87.2015 19.148 87.5935 19.148ZM101.161 13.424L99.1093 20H97.9813L96.3973 14.78L94.8133 20H93.6853L91.6213 13.424H92.7373L94.2493 18.944L95.8813 13.424H96.9973L98.5933 18.956L100.081 13.424H101.161ZM105.036 16.688C105.036 16.016 105.172 15.428 105.444 14.924C105.716 14.412 106.088 14.016 106.56 13.736C107.04 13.456 107.576 13.316 108.168 13.316C108.68 13.316 109.156 13.436 109.596 13.676C110.036 13.908 110.372 14.216 110.604 14.6V11.12H111.708V20H110.604V18.764C110.388 19.156 110.068 19.48 109.644 19.736C109.22 19.984 108.724 20.108 108.156 20.108C107.572 20.108 107.04 19.964 106.56 19.676C106.088 19.388 105.716 18.984 105.444 18.464C105.172 17.944 105.036 17.352 105.036 16.688ZM110.604 16.7C110.604 16.204 110.504 15.772 110.304 15.404C110.104 15.036 109.832 14.756 109.488 14.564C109.152 14.364 108.78 14.264 108.372 14.264C107.964 14.264 107.592 14.36 107.256 14.552C106.92 14.744 106.652 15.024 106.452 15.392C106.252 15.76 106.152 16.192 106.152 16.688C106.152 17.192 106.252 17.632 106.452 18.008C106.652 18.376 106.92 18.66 107.256 18.86C107.592 19.052 107.964 19.148 108.372 19.148C108.78 19.148 109.152 19.052 109.488 18.86C109.832 18.66 110.104 18.376 110.304 18.008C110.504 17.632 110.604 17.196 110.604 16.7ZM114.118 12.356C113.91 12.356 113.734 12.284 113.59 12.14C113.446 11.996 113.374 11.82 113.374 11.612C113.374 11.404 113.446 11.228 113.59 11.084C113.734 10.94 113.91 10.868 114.118 10.868C114.318 10.868 114.486 10.94 114.622 11.084C114.766 11.228 114.838 11.404 114.838 11.612C114.838 11.82 114.766 11.996 114.622 12.14C114.486 12.284 114.318 12.356 114.118 12.356ZM114.646 13.424V20H113.554V13.424H114.646ZM116.099 16.688C116.099 16.016 116.235 15.428 116.507 14.924C116.779 14.412 117.151 14.016 117.623 13.736C118.103 13.456 118.639 13.316 119.231 13.316C119.743 13.316 120.219 13.436 120.659 13.676C121.099 13.908 121.435 14.216 121.667 14.6V11.12H122.771V20H121.667V18.764C121.451 19.156 121.131 19.48 120.707 19.736C120.283 19.984 119.787 20.108 119.219 20.108C118.635 20.108 118.103 19.964 117.623 19.676C117.151 19.388 116.779 18.984 116.507 18.464C116.235 17.944 116.099 17.352 116.099 16.688ZM121.667 16.7C121.667 16.204 121.567 15.772 121.367 15.404C121.167 15.036 120.895 14.756 120.551 14.564C120.215 14.364 119.843 14.264 119.435 14.264C119.027 14.264 118.655 14.36 118.319 14.552C117.983 14.744 117.715 15.024 117.515 15.392C117.315 15.76 117.215 16.192 117.215 16.688C117.215 17.192 117.315 17.632 117.515 18.008C117.715 18.376 117.983 18.66 118.319 18.86C118.655 19.052 119.027 19.148 119.435 19.148C119.843 19.148 120.215 19.052 120.551 18.86C120.895 18.66 121.167 18.376 121.367 18.008C121.567 17.632 121.667 17.196 121.667 16.7ZM133.479 13.424L129.519 23.096H128.391L129.687 19.928L127.035 13.424H128.247L130.311 18.752L132.351 13.424H133.479ZM137.445 20.108C136.829 20.108 136.269 19.968 135.765 19.688C135.269 19.408 134.877 19.012 134.589 18.5C134.309 17.98 134.169 17.38 134.169 16.7C134.169 16.028 134.313 15.436 134.601 14.924C134.897 14.404 135.297 14.008 135.801 13.736C136.305 13.456 136.869 13.316 137.493 13.316C138.117 13.316 138.681 13.456 139.185 13.736C139.689 14.008 140.085 14.4 140.373 14.912C140.669 15.424 140.817 16.02 140.817 16.7C140.817 17.38 140.665 17.98 140.361 18.5C140.065 19.012 139.661 19.408 139.149 19.688C138.637 19.968 138.069 20.108 137.445 20.108ZM137.445 19.148C137.837 19.148 138.205 19.056 138.549 18.872C138.893 18.688 139.169 18.412 139.377 18.044C139.593 17.676 139.701 17.228 139.701 16.7C139.701 16.172 139.597 15.724 139.389 15.356C139.181 14.988 138.909 14.716 138.573 14.54C138.237 14.356 137.873 14.264 137.481 14.264C137.081 14.264 136.713 14.356 136.377 14.54C136.049 14.716 135.785 14.988 135.585 15.356C135.385 15.724 135.285 16.172 135.285 16.7C135.285 17.236 135.381 17.688 135.573 18.056C135.773 18.424 136.037 18.7 136.365 18.884C136.693 19.06 137.053 19.148 137.445 19.148ZM148.085 13.424V20H146.993V19.028C146.785 19.364 146.493 19.628 146.117 19.82C145.749 20.004 145.341 20.096 144.893 20.096C144.381 20.096 143.921 19.992 143.513 19.784C143.105 19.568 142.781 19.248 142.541 18.824C142.309 18.4 142.193 17.884 142.193 17.276V13.424H143.273V17.132C143.273 17.78 143.437 18.28 143.765 18.632C144.093 18.976 144.541 19.148 145.109 19.148C145.693 19.148 146.153 18.968 146.489 18.608C146.825 18.248 146.993 17.724 146.993 17.036V13.424H148.085ZM156.392 13.304C156.888 13.304 157.336 13.412 157.736 13.628C158.136 13.836 158.448 14.152 158.672 14.576C158.904 15 159.02 15.516 159.02 16.124V20H157.94V16.28C157.94 15.624 157.776 15.124 157.448 14.78C157.12 14.428 156.672 14.252 156.104 14.252C155.528 14.252 155.068 14.432 154.724 14.792C154.388 15.152 154.22 15.676 154.22 16.364V20H153.128V11.12H154.22V14.36C154.436 14.024 154.732 13.764 155.108 13.58C155.492 13.396 155.92 13.304 156.392 13.304ZM166.804 16.46C166.804 16.668 166.792 16.888 166.768 17.12H161.512C161.552 17.768 161.772 18.276 162.172 18.644C162.58 19.004 163.072 19.184 163.648 19.184C164.12 19.184 164.512 19.076 164.824 18.86C165.144 18.636 165.368 18.34 165.496 17.972H166.672C166.496 18.604 166.144 19.12 165.616 19.52C165.088 19.912 164.432 20.108 163.648 20.108C163.024 20.108 162.464 19.968 161.968 19.688C161.48 19.408 161.096 19.012 160.816 18.5C160.536 17.98 160.396 17.38 160.396 16.7C160.396 16.02 160.532 15.424 160.804 14.912C161.076 14.4 161.456 14.008 161.944 13.736C162.44 13.456 163.008 13.316 163.648 13.316C164.272 13.316 164.824 13.452 165.304 13.724C165.784 13.996 166.152 14.372 166.408 14.852C166.672 15.324 166.804 15.86 166.804 16.46ZM165.676 16.232C165.676 15.816 165.584 15.46 165.4 15.164C165.216 14.86 164.964 14.632 164.644 14.48C164.332 14.32 163.984 14.24 163.6 14.24C163.048 14.24 162.576 14.416 162.184 14.768C161.8 15.12 161.58 15.608 161.524 16.232H165.676ZM167.837 16.688C167.837 16.016 167.973 15.428 168.245 14.924C168.517 14.412 168.889 14.016 169.361 13.736C169.841 13.456 170.373 13.316 170.957 13.316C171.533 13.316 172.033 13.44 172.457 13.688C172.881 13.936 173.197 14.248 173.405 14.624V13.424H174.509V20H173.405V18.776C173.189 19.16 172.865 19.48 172.433 19.736C172.009 19.984 171.513 20.108 170.945 20.108C170.361 20.108 169.833 19.964 169.361 19.676C168.889 19.388 168.517 18.984 168.245 18.464C167.973 17.944 167.837 17.352 167.837 16.688ZM173.405 16.7C173.405 16.204 173.305 15.772 173.105 15.404C172.905 15.036 172.633 14.756 172.289 14.564C171.953 14.364 171.581 14.264 171.173 14.264C170.765 14.264 170.393 14.36 170.057 14.552C169.721 14.744 169.453 15.024 169.253 15.392C169.053 15.76 168.953 16.192 168.953 16.688C168.953 17.192 169.053 17.632 169.253 18.008C169.453 18.376 169.721 18.66 170.057 18.86C170.393 19.052 170.765 19.148 171.173 19.148C171.581 19.148 171.953 19.052 172.289 18.86C172.633 18.66 172.905 18.376 173.105 18.008C173.305 17.632 173.405 17.196 173.405 16.7ZM177.446 14.492C177.638 14.116 177.91 13.824 178.262 13.616C178.622 13.408 179.058 13.304 179.57 13.304V14.432H179.282C178.058 14.432 177.446 15.096 177.446 16.424V20H176.354V13.424H177.446V14.492ZM183.622 16.688C183.622 16.016 183.758 15.428 184.03 14.924C184.302 14.412 184.674 14.016 185.146 13.736C185.626 13.456 186.158 13.316 186.742 13.316C187.318 13.316 187.818 13.44 188.242 13.688C188.666 13.936 188.982 14.248 189.19 14.624V13.424H190.294V20H189.19V18.776C188.974 19.16 188.65 19.48 188.218 19.736C187.794 19.984 187.298 20.108 186.73 20.108C186.146 20.108 185.618 19.964 185.146 19.676C184.674 19.388 184.302 18.984 184.03 18.464C183.758 17.944 183.622 17.352 183.622 16.688ZM189.19 16.7C189.19 16.204 189.09 15.772 188.89 15.404C188.69 15.036 188.418 14.756 188.074 14.564C187.738 14.364 187.366 14.264 186.958 14.264C186.55 14.264 186.178 14.36 185.842 14.552C185.506 14.744 185.238 15.024 185.038 15.392C184.838 15.76 184.738 16.192 184.738 16.688C184.738 17.192 184.838 17.632 185.038 18.008C185.238 18.376 185.506 18.66 185.842 18.86C186.178 19.052 186.55 19.148 186.958 19.148C187.366 19.148 187.738 19.052 188.074 18.86C188.418 18.66 188.69 18.376 188.89 18.008C189.09 17.632 189.19 17.196 189.19 16.7ZM193.232 14.648C193.456 14.256 193.784 13.936 194.216 13.688C194.648 13.44 195.14 13.316 195.692 13.316C196.284 13.316 196.816 13.456 197.288 13.736C197.76 14.016 198.132 14.412 198.404 14.924C198.676 15.428 198.812 16.016 198.812 16.688C198.812 17.352 198.676 17.944 198.404 18.464C198.132 18.984 197.756 19.388 197.276 19.676C196.804 19.964 196.276 20.108 195.692 20.108C195.124 20.108 194.624 19.984 194.192 19.736C193.768 19.488 193.448 19.172 193.232 18.788V20H192.14V11.12H193.232V14.648ZM197.696 16.688C197.696 16.192 197.596 15.76 197.396 15.392C197.196 15.024 196.924 14.744 196.58 14.552C196.244 14.36 195.872 14.264 195.464 14.264C195.064 14.264 194.692 14.364 194.348 14.564C194.012 14.756 193.74 15.04 193.532 15.416C193.332 15.784 193.232 16.212 193.232 16.7C193.232 17.196 193.332 17.632 193.532 18.008C193.74 18.376 194.012 18.66 194.348 18.86C194.692 19.052 195.064 19.148 195.464 19.148C195.872 19.148 196.244 19.052 196.58 18.86C196.924 18.66 197.196 18.376 197.396 18.008C197.596 17.632 197.696 17.192 197.696 16.688ZM203.117 20.108C202.501 20.108 201.941 19.968 201.437 19.688C200.941 19.408 200.549 19.012 200.261 18.5C199.981 17.98 199.841 17.38 199.841 16.7C199.841 16.028 199.985 15.436 200.273 14.924C200.569 14.404 200.969 14.008 201.473 13.736C201.977 13.456 202.541 13.316 203.165 13.316C203.789 13.316 204.353 13.456 204.857 13.736C205.361 14.008 205.757 14.4 206.045 14.912C206.341 15.424 206.489 16.02 206.489 16.7C206.489 17.38 206.337 17.98 206.033 18.5C205.737 19.012 205.333 19.408 204.821 19.688C204.309 19.968 203.741 20.108 203.117 20.108ZM203.117 19.148C203.509 19.148 203.877 19.056 204.221 18.872C204.565 18.688 204.841 18.412 205.049 18.044C205.265 17.676 205.373 17.228 205.373 16.7C205.373 16.172 205.269 15.724 205.061 15.356C204.853 14.988 204.581 14.716 204.245 14.54C203.909 14.356 203.545 14.264 203.153 14.264C202.753 14.264 202.385 14.356 202.049 14.54C201.721 14.716 201.457 14.988 201.257 15.356C201.057 15.724 200.957 16.172 200.957 16.7C200.957 17.236 201.053 17.688 201.245 18.056C201.445 18.424 201.709 18.7 202.037 18.884C202.365 19.06 202.725 19.148 203.117 19.148ZM213.757 13.424V20H212.665V19.028C212.457 19.364 212.165 19.628 211.789 19.82C211.421 20.004 211.013 20.096 210.565 20.096C210.053 20.096 209.593 19.992 209.185 19.784C208.777 19.568 208.453 19.248 208.213 18.824C207.981 18.4 207.865 17.884 207.865 17.276V13.424H208.945V17.132C208.945 17.78 209.109 18.28 209.437 18.632C209.765 18.976 210.213 19.148 210.781 19.148C211.365 19.148 211.825 18.968 212.161 18.608C212.497 18.248 212.665 17.724 212.665 17.036V13.424H213.757ZM216.933 14.324V18.2C216.933 18.52 217.001 18.748 217.137 18.884C217.273 19.012 217.509 19.076 217.845 19.076H218.649V20H217.665C217.057 20 216.601 19.86 216.297 19.58C215.993 19.3 215.841 18.84 215.841 18.2V14.324H214.989V13.424H215.841V11.768H216.933V13.424H218.649V14.324H216.933ZM224.503 14.324V18.2C224.503 18.52 224.571 18.748 224.707 18.884C224.843 19.012 225.079 19.076 225.415 19.076H226.219V20H225.235C224.627 20 224.171 19.86 223.867 19.58C223.563 19.3 223.411 18.84 223.411 18.2V14.324H222.559V13.424H223.411V11.768H224.503V13.424H226.219V14.324H224.503ZM230.806 13.304C231.302 13.304 231.75 13.412 232.15 13.628C232.55 13.836 232.862 14.152 233.086 14.576C233.318 15 233.434 15.516 233.434 16.124V20H232.354V16.28C232.354 15.624 232.19 15.124 231.862 14.78C231.534 14.428 231.086 14.252 230.518 14.252C229.942 14.252 229.482 14.432 229.138 14.792C228.802 15.152 228.634 15.676 228.634 16.364V20H227.542V11.12H228.634V14.36C228.85 14.024 229.146 13.764 229.522 13.58C229.906 13.396 230.334 13.304 230.806 13.304ZM235.782 12.356C235.574 12.356 235.398 12.284 235.254 12.14C235.11 11.996 235.038 11.82 235.038 11.612C235.038 11.404 235.11 11.228 235.254 11.084C235.398 10.94 235.574 10.868 235.782 10.868C235.982 10.868 236.15 10.94 236.286 11.084C236.43 11.228 236.502 11.404 236.502 11.612C236.502 11.82 236.43 11.996 236.286 12.14C236.15 12.284 235.982 12.356 235.782 12.356ZM236.31 13.424V20H235.218V13.424H236.31ZM240.499 20.108C239.995 20.108 239.543 20.024 239.143 19.856C238.743 19.68 238.427 19.44 238.195 19.136C237.963 18.824 237.835 18.468 237.811 18.068H238.939C238.971 18.396 239.123 18.664 239.395 18.872C239.675 19.08 240.039 19.184 240.487 19.184C240.903 19.184 241.231 19.092 241.471 18.908C241.711 18.724 241.831 18.492 241.831 18.212C241.831 17.924 241.703 17.712 241.447 17.576C241.191 17.432 240.795 17.292 240.259 17.156C239.771 17.028 239.371 16.9 239.059 16.772C238.755 16.636 238.491 16.44 238.267 16.184C238.051 15.92 237.943 15.576 237.943 15.152C237.943 14.816 238.043 14.508 238.243 14.228C238.443 13.948 238.727 13.728 239.095 13.568C239.463 13.4 239.883 13.316 240.355 13.316C241.083 13.316 241.671 13.5 242.119 13.868C242.567 14.236 242.807 14.74 242.839 15.38H241.747C241.723 15.036 241.583 14.76 241.327 14.552C241.079 14.344 240.743 14.24 240.319 14.24C239.927 14.24 239.615 14.324 239.383 14.492C239.151 14.66 239.035 14.88 239.035 15.152C239.035 15.368 239.103 15.548 239.239 15.692C239.383 15.828 239.559 15.94 239.767 16.028C239.983 16.108 240.279 16.2 240.655 16.304C241.127 16.432 241.511 16.56 241.807 16.688C242.103 16.808 242.355 16.992 242.563 17.24C242.779 17.488 242.891 17.812 242.899 18.212C242.899 18.572 242.799 18.896 242.599 19.184C242.399 19.472 242.115 19.7 241.747 19.868C241.387 20.028 240.971 20.108 240.499 20.108ZM248.732 14.636C248.948 14.26 249.268 13.948 249.692 13.7C250.124 13.444 250.624 13.316 251.192 13.316C251.776 13.316 252.304 13.456 252.776 13.736C253.256 14.016 253.632 14.412 253.904 14.924C254.176 15.428 254.312 16.016 254.312 16.688C254.312 17.352 254.176 17.944 253.904 18.464C253.632 18.984 253.256 19.388 252.776 19.676C252.304 19.964 251.776 20.108 251.192 20.108C250.632 20.108 250.136 19.984 249.704 19.736C249.28 19.48 248.956 19.164 248.732 18.788V23.12H247.64V13.424H248.732V14.636ZM253.196 16.688C253.196 16.192 253.096 15.76 252.896 15.392C252.696 15.024 252.424 14.744 252.08 14.552C251.744 14.36 251.372 14.264 250.964 14.264C250.564 14.264 250.192 14.364 249.848 14.564C249.512 14.756 249.24 15.04 249.032 15.416C248.832 15.784 248.732 16.212 248.732 16.7C248.732 17.196 248.832 17.632 249.032 18.008C249.24 18.376 249.512 18.66 249.848 18.86C250.192 19.052 250.564 19.148 250.964 19.148C251.372 19.148 251.744 19.052 252.08 18.86C252.424 18.66 252.696 18.376 252.896 18.008C253.096 17.632 253.196 17.192 253.196 16.688ZM256.841 14.492C257.033 14.116 257.305 13.824 257.657 13.616C258.017 13.408 258.453 13.304 258.965 13.304V14.432H258.677C257.453 14.432 256.841 15.096 256.841 16.424V20H255.749V13.424H256.841V14.492ZM263.094 20.108C262.478 20.108 261.918 19.968 261.414 19.688C260.918 19.408 260.526 19.012 260.238 18.5C259.958 17.98 259.818 17.38 259.818 16.7C259.818 16.028 259.962 15.436 260.25 14.924C260.546 14.404 260.946 14.008 261.45 13.736C261.954 13.456 262.518 13.316 263.142 13.316C263.766 13.316 264.33 13.456 264.834 13.736C265.338 14.008 265.734 14.4 266.022 14.912C266.318 15.424 266.466 16.02 266.466 16.7C266.466 17.38 266.314 17.98 266.01 18.5C265.714 19.012 265.31 19.408 264.798 19.688C264.286 19.968 263.718 20.108 263.094 20.108ZM263.094 19.148C263.486 19.148 263.854 19.056 264.198 18.872C264.542 18.688 264.818 18.412 265.026 18.044C265.242 17.676 265.35 17.228 265.35 16.7C265.35 16.172 265.246 15.724 265.038 15.356C264.83 14.988 264.558 14.716 264.222 14.54C263.886 14.356 263.522 14.264 263.13 14.264C262.73 14.264 262.362 14.356 262.026 14.54C261.698 14.716 261.434 14.988 261.234 15.356C261.034 15.724 260.934 16.172 260.934 16.7C260.934 17.236 261.03 17.688 261.222 18.056C261.422 18.424 261.686 18.7 262.014 18.884C262.342 19.06 262.702 19.148 263.094 19.148ZM267.493 16.688C267.493 16.016 267.629 15.428 267.901 14.924C268.173 14.412 268.545 14.016 269.017 13.736C269.497 13.456 270.033 13.316 270.625 13.316C271.137 13.316 271.613 13.436 272.053 13.676C272.493 13.908 272.829 14.216 273.061 14.6V11.12H274.165V20H273.061V18.764C272.845 19.156 272.525 19.48 272.101 19.736C271.677 19.984 271.181 20.108 270.613 20.108C270.029 20.108 269.497 19.964 269.017 19.676C268.545 19.388 268.173 18.984 267.901 18.464C267.629 17.944 267.493 17.352 267.493 16.688ZM273.061 16.7C273.061 16.204 272.961 15.772 272.761 15.404C272.561 15.036 272.289 14.756 271.945 14.564C271.609 14.364 271.237 14.264 270.829 14.264C270.421 14.264 270.049 14.36 269.713 14.552C269.377 14.744 269.109 15.024 268.909 15.392C268.709 15.76 268.609 16.192 268.609 16.688C268.609 17.192 268.709 17.632 268.909 18.008C269.109 18.376 269.377 18.66 269.713 18.86C270.049 19.052 270.421 19.148 270.829 19.148C271.237 19.148 271.609 19.052 271.945 18.86C272.289 18.66 272.561 18.376 272.761 18.008C272.961 17.632 273.061 17.196 273.061 16.7ZM281.843 13.424V20H280.751V19.028C280.543 19.364 280.251 19.628 279.875 19.82C279.507 20.004 279.099 20.096 278.651 20.096C278.139 20.096 277.679 19.992 277.271 19.784C276.863 19.568 276.539 19.248 276.299 18.824C276.067 18.4 275.951 17.884 275.951 17.276V13.424H277.031V17.132C277.031 17.78 277.195 18.28 277.523 18.632C277.851 18.976 278.299 19.148 278.867 19.148C279.451 19.148 279.911 18.968 280.247 18.608C280.583 18.248 280.751 17.724 280.751 17.036V13.424H281.843ZM283.278 16.7C283.278 16.02 283.414 15.428 283.686 14.924C283.958 14.412 284.334 14.016 284.814 13.736C285.302 13.456 285.858 13.316 286.482 13.316C287.29 13.316 287.954 13.512 288.474 13.904C289.002 14.296 289.35 14.84 289.518 15.536H288.342C288.23 15.136 288.01 14.82 287.682 14.588C287.362 14.356 286.962 14.24 286.482 14.24C285.858 14.24 285.354 14.456 284.97 14.888C284.586 15.312 284.394 15.916 284.394 16.7C284.394 17.492 284.586 18.104 284.97 18.536C285.354 18.968 285.858 19.184 286.482 19.184C286.962 19.184 287.362 19.072 287.682 18.848C288.002 18.624 288.222 18.304 288.342 17.888H289.518C289.342 18.56 288.99 19.1 288.462 19.508C287.934 19.908 287.274 20.108 286.482 20.108C285.858 20.108 285.302 19.968 284.814 19.688C284.334 19.408 283.958 19.012 283.686 18.5C283.414 17.988 283.278 17.388 283.278 16.7ZM292.308 14.324V18.2C292.308 18.52 292.376 18.748 292.512 18.884C292.648 19.012 292.884 19.076 293.22 19.076H294.024V20H293.04C292.432 20 291.976 19.86 291.672 19.58C291.368 19.3 291.216 18.84 291.216 18.2V14.324H290.364V13.424H291.216V11.768H292.308V13.424H294.024V14.324H292.308ZM297.483 11.528C298.275 11.528 298.915 11.752 299.403 12.2C299.891 12.648 300.135 13.248 300.135 14C300.135 14.84 299.875 15.464 299.355 15.872C298.835 16.272 298.131 16.472 297.243 16.472L297.207 17.612H296.259L296.211 15.716H296.559C297.351 15.716 297.971 15.596 298.419 15.356C298.867 15.116 299.091 14.664 299.091 14C299.091 13.52 298.947 13.14 298.659 12.86C298.371 12.58 297.983 12.44 297.495 12.44C296.999 12.44 296.607 12.576 296.319 12.848C296.039 13.112 295.899 13.476 295.899 13.94H294.867C294.867 13.46 294.975 13.04 295.191 12.68C295.407 12.312 295.711 12.028 296.103 11.828C296.503 11.628 296.963 11.528 297.483 11.528ZM296.727 20.072C296.519 20.072 296.343 20 296.199 19.856C296.055 19.712 295.983 19.536 295.983 19.328C295.983 19.12 296.055 18.944 296.199 18.8C296.343 18.656 296.519 18.584 296.727 18.584C296.927 18.584 297.095 18.656 297.231 18.8C297.375 18.944 297.447 19.12 297.447 19.328C297.447 19.536 297.375 19.712 297.231 19.856C297.095 20 296.927 20.072 296.727 20.072Z" fill="black"/>
<path d="M75.4929 21.2H91.4815V21.8H75.4929V21.2ZM91.4773 21.2H104.525V21.8H91.4773V21.2ZM104.52 21.2H112.632V21.8H104.52V21.2ZM112.63 21.2H123.695V21.8H112.63V21.2ZM123.692 21.2H126.896V21.8H123.692V21.2ZM126.891 21.2H141.333V21.8H126.891V21.2ZM141.329 21.2H149.009V21.8H141.329V21.2ZM149.005 21.2H152.209V21.8H149.005V21.2ZM152.204 21.2H159.884V21.8H152.204V21.2ZM159.88 21.2H175.433V21.8H159.88V21.2ZM175.43 21.2H183.111V21.8H175.43V21.2ZM183.106 21.2H191.218V21.8H183.106V21.2ZM191.216 21.2H199.328V21.8H191.216V21.2ZM199.325 21.2H207.005V21.8H199.325V21.2ZM207.001 21.2H214.681V21.8H207.001V21.2ZM214.677 21.2H222.252V21.8H214.677V21.2ZM222.247 21.2H234.298V21.8H222.247V21.2ZM234.294 21.2H246.72V21.8H234.294V21.2ZM246.716 21.2H254.828V21.8H246.716V21.2ZM254.825 21.2H266.982V21.8H254.825V21.2ZM266.977 21.2H275.089V21.8H266.977V21.2ZM275.087 21.2H282.767V21.8H275.087V21.2ZM282.762 21.2H300.711V21.8H282.762V21.2Z" fill="black"/>
<path d="M294.255 139.818C293.479 139.818 292.771 139.638 292.131 139.278C291.491 138.91 290.983 138.402 290.607 137.754C290.239 137.098 290.055 136.362 290.055 135.546C290.055 134.73 290.239 133.998 290.607 133.35C290.983 132.694 291.491 132.186 292.131 131.826C292.771 131.458 293.479 131.274 294.255 131.274C295.039 131.274 295.751 131.458 296.391 131.826C297.031 132.186 297.535 132.69 297.903 133.338C298.271 133.986 298.455 134.722 298.455 135.546C298.455 136.37 298.271 137.106 297.903 137.754C297.535 138.402 297.031 138.91 296.391 139.278C295.751 139.638 295.039 139.818 294.255 139.818ZM294.255 138.87C294.839 138.87 295.363 138.734 295.827 138.462C296.299 138.19 296.667 137.802 296.931 137.298C297.203 136.794 297.339 136.21 297.339 135.546C297.339 134.874 297.203 134.29 296.931 133.794C296.667 133.29 296.303 132.902 295.839 132.63C295.375 132.358 294.847 132.222 294.255 132.222C293.663 132.222 293.135 132.358 292.671 132.63C292.207 132.902 291.839 133.29 291.567 133.794C291.303 134.29 291.171 134.874 291.171 135.546C291.171 136.21 291.303 136.794 291.567 137.298C291.839 137.802 292.207 138.19 292.671 138.462C293.143 138.734 293.671 138.87 294.255 138.87ZM301.229 134.058V137.934C301.229 138.254 301.297 138.482 301.433 138.618C301.569 138.746 301.805 138.81 302.141 138.81H302.945V139.734H301.961C301.353 139.734 300.897 139.594 300.593 139.314C300.289 139.034 300.137 138.574 300.137 137.934V134.058H299.285V133.158H300.137V131.502H301.229V133.158H302.945V134.058H301.229ZM307.532 133.038C308.028 133.038 308.476 133.146 308.876 133.362C309.276 133.57 309.588 133.886 309.812 134.31C310.044 134.734 310.16 135.25 310.16 135.858V139.734H309.08V136.014C309.08 135.358 308.916 134.858 308.588 134.514C308.26 134.162 307.812 133.986 307.244 133.986C306.668 133.986 306.208 134.166 305.864 134.526C305.528 134.886 305.36 135.41 305.36 136.098V139.734H304.268V130.854H305.36V134.094C305.576 133.758 305.872 133.498 306.248 133.314C306.632 133.13 307.06 133.038 307.532 133.038ZM317.944 136.194C317.944 136.402 317.932 136.622 317.908 136.854H312.652C312.692 137.502 312.912 138.01 313.312 138.378C313.72 138.738 314.212 138.918 314.788 138.918C315.26 138.918 315.652 138.81 315.964 138.594C316.284 138.37 316.508 138.074 316.636 137.706H317.812C317.636 138.338 317.284 138.854 316.756 139.254C316.228 139.646 315.572 139.842 314.788 139.842C314.164 139.842 313.604 139.702 313.108 139.422C312.62 139.142 312.236 138.746 311.956 138.234C311.676 137.714 311.536 137.114 311.536 136.434C311.536 135.754 311.672 135.158 311.944 134.646C312.216 134.134 312.596 133.742 313.084 133.47C313.58 133.19 314.148 133.05 314.788 133.05C315.412 133.05 315.964 133.186 316.444 133.458C316.924 133.73 317.292 134.106 317.548 134.586C317.812 135.058 317.944 135.594 317.944 136.194ZM316.816 135.966C316.816 135.55 316.724 135.194 316.54 134.898C316.356 134.594 316.104 134.366 315.784 134.214C315.472 134.054 315.124 133.974 314.74 133.974C314.188 133.974 313.716 134.15 313.324 134.502C312.94 134.854 312.72 135.342 312.664 135.966H316.816ZM320.477 134.226C320.669 133.85 320.941 133.558 321.293 133.35C321.653 133.142 322.089 133.038 322.601 133.038V134.166H322.313C321.089 134.166 320.477 134.83 320.477 136.158V139.734H319.385V133.158H320.477V134.226Z" fill="#797979"/>
<path d="M60.8055 136.901H57.1575L56.4855 138.761H55.3335L58.3575 130.445H59.6175L62.6295 138.761H61.4775L60.8055 136.901ZM60.4935 136.013L58.9815 131.789L57.4695 136.013H60.4935ZM63.5394 135.449C63.5394 134.777 63.6754 134.189 63.9474 133.685C64.2194 133.173 64.5914 132.777 65.0634 132.497C65.5434 132.217 66.0794 132.077 66.6714 132.077C67.1834 132.077 67.6594 132.197 68.0994 132.437C68.5394 132.669 68.8754 132.977 69.1074 133.361V129.881H70.2114V138.761H69.1074V137.525C68.8914 137.917 68.5714 138.241 68.1474 138.497C67.7234 138.745 67.2274 138.869 66.6594 138.869C66.0754 138.869 65.5434 138.725 65.0634 138.437C64.5914 138.149 64.2194 137.745 63.9474 137.225C63.6754 136.705 63.5394 136.113 63.5394 135.449ZM69.1074 135.461C69.1074 134.965 69.0074 134.533 68.8074 134.165C68.6074 133.797 68.3354 133.517 67.9914 133.325C67.6554 133.125 67.2834 133.025 66.8754 133.025C66.4674 133.025 66.0954 133.121 65.7594 133.313C65.4234 133.505 65.1554 133.785 64.9554 134.153C64.7554 134.521 64.6554 134.953 64.6554 135.449C64.6554 135.953 64.7554 136.393 64.9554 136.769C65.1554 137.137 65.4234 137.421 65.7594 137.621C66.0954 137.813 66.4674 137.909 66.8754 137.909C67.2834 137.909 67.6554 137.813 67.9914 137.621C68.3354 137.421 68.6074 137.137 68.8074 136.769C69.0074 136.393 69.1074 135.957 69.1074 135.461ZM74.3848 138.869C73.8808 138.869 73.4288 138.785 73.0288 138.617C72.6288 138.441 72.3128 138.201 72.0808 137.897C71.8488 137.585 71.7208 137.229 71.6968 136.829H72.8248C72.8568 137.157 73.0088 137.425 73.2808 137.633C73.5608 137.841 73.9248 137.945 74.3728 137.945C74.7888 137.945 75.1168 137.853 75.3568 137.669C75.5968 137.485 75.7168 137.253 75.7168 136.973C75.7168 136.685 75.5888 136.473 75.3328 136.337C75.0768 136.193 74.6808 136.053 74.1448 135.917C73.6568 135.789 73.2568 135.661 72.9448 135.533C72.6408 135.397 72.3768 135.201 72.1528 134.945C71.9368 134.681 71.8288 134.337 71.8288 133.913C71.8288 133.577 71.9288 133.269 72.1288 132.989C72.3288 132.709 72.6128 132.489 72.9808 132.329C73.3488 132.161 73.7688 132.077 74.2408 132.077C74.9688 132.077 75.5568 132.261 76.0048 132.629C76.4528 132.997 76.6928 133.501 76.7248 134.141H75.6328C75.6088 133.797 75.4688 133.521 75.2128 133.313C74.9648 133.105 74.6288 133.001 74.2048 133.001C73.8128 133.001 73.5008 133.085 73.2688 133.253C73.0368 133.421 72.9208 133.641 72.9208 133.913C72.9208 134.129 72.9888 134.309 73.1248 134.453C73.2688 134.589 73.4448 134.701 73.6528 134.789C73.8688 134.869 74.1648 134.961 74.5408 135.065C75.0128 135.193 75.3968 135.321 75.6928 135.449C75.9888 135.569 76.2408 135.753 76.4488 136.001C76.6648 136.249 76.7768 136.573 76.7848 136.973C76.7848 137.333 76.6848 137.657 76.4848 137.945C76.2848 138.233 76.0008 138.461 75.6328 138.629C75.2728 138.789 74.8568 138.869 74.3848 138.869Z" fill="#797979"/>
<path d="M87.3685 136.386C87.3685 137.859 88.5624 139.052 90.0352 139.052C91.5079 139.052 92.7018 137.859 92.7018 136.386C92.7018 134.913 91.5079 133.719 90.0352 133.719C88.5624 133.719 87.3685 134.913 87.3685 136.386ZM90.0352 136.886L130.301 136.886L130.301 135.886L90.0352 135.886L90.0352 136.886Z" fill="#797979"/>
<path d="M202.902 70.3421C201.43 70.3421 200.236 71.536 200.236 73.0088C200.236 74.4815 201.43 75.6755 202.902 75.6755C204.375 75.6755 205.569 74.4815 205.569 73.0088C205.569 71.536 204.375 70.3421 202.902 70.3421ZM202.402 73.0088L202.402 100.286L203.402 100.286L203.402 73.0088L202.402 73.0088Z" fill="#797979"/>
<path d="M296.12 150.885C296.12 149.412 294.926 148.218 293.453 148.218C291.98 148.218 290.786 149.412 290.786 150.885C290.786 152.358 291.98 153.551 293.453 153.551C294.926 153.551 296.12 152.358 296.12 150.885ZM293.453 150.385H266.176V151.385H293.453V150.385Z" fill="#797979"/>
</svg>
