<svg width="335" height="257" viewBox="0 0 335 257" fill="none" xmlns="http://www.w3.org/2000/svg">
<rect width="335" height="257" rx="6" fill="#F2F2F2"/>
<path d="M193.086 95.3937C206.493 101.359 217.824 111.176 225.638 123.596C233.453 136.017 237.398 150.48 236.973 165.148L163.004 163.004L193.086 95.3937Z" fill="#42577F"/>
<path d="M89.0214 161.392C89.265 150.214 92.038 139.237 97.1322 129.285C102.226 119.333 109.509 110.665 118.434 103.931L163.004 163.004L89.0214 161.392Z" fill="#75A5FF"/>
<path d="M236.974 160.897C237.28 171.654 235.237 182.348 230.986 192.234C226.735 202.12 220.38 210.96 212.362 218.138C204.344 225.316 194.858 230.658 184.563 233.793C174.269 236.929 163.415 237.781 152.757 236.291C142.1 234.801 131.895 231.004 122.856 225.166C113.816 219.327 106.158 211.588 100.417 202.486C94.6753 193.385 90.9878 183.14 89.6115 172.468C88.2353 161.795 89.2033 150.95 92.4482 140.69L163.004 163.004L236.974 160.897Z" fill="#27354F"/>
<path d="M118.074 104.205C130.114 95.0045 144.688 89.7222 159.827 89.0718C174.966 88.4214 189.94 92.4341 202.725 100.568L163.004 163.004L118.074 104.205Z" fill="#567BC0"/>
<path d="M119.202 174.636V183H118.11V174.636H119.202ZM127.526 176.304C128.022 176.304 128.47 176.412 128.87 176.628C129.27 176.836 129.582 177.152 129.806 177.576C130.038 178 130.154 178.516 130.154 179.124V183H129.074V179.28C129.074 178.624 128.91 178.124 128.582 177.78C128.254 177.428 127.806 177.252 127.238 177.252C126.662 177.252 126.202 177.432 125.858 177.792C125.522 178.152 125.354 178.676 125.354 179.364V183H124.262V174.12H125.354V177.36C125.57 177.024 125.866 176.764 126.242 176.58C126.626 176.396 127.054 176.304 127.526 176.304ZM137.938 179.46C137.938 179.668 137.926 179.888 137.902 180.12H132.646C132.686 180.768 132.906 181.276 133.306 181.644C133.714 182.004 134.206 182.184 134.782 182.184C135.254 182.184 135.646 182.076 135.958 181.86C136.278 181.636 136.502 181.34 136.63 180.972H137.806C137.63 181.604 137.278 182.12 136.75 182.52C136.222 182.912 135.566 183.108 134.782 183.108C134.158 183.108 133.598 182.968 133.102 182.688C132.614 182.408 132.23 182.012 131.95 181.5C131.67 180.98 131.53 180.38 131.53 179.7C131.53 179.02 131.666 178.424 131.938 177.912C132.21 177.4 132.59 177.008 133.078 176.736C133.574 176.456 134.142 176.316 134.782 176.316C135.406 176.316 135.958 176.452 136.438 176.724C136.918 176.996 137.286 177.372 137.542 177.852C137.806 178.324 137.938 178.86 137.938 179.46ZM136.81 179.232C136.81 178.816 136.718 178.46 136.534 178.164C136.35 177.86 136.098 177.632 135.778 177.48C135.466 177.32 135.118 177.24 134.734 177.24C134.182 177.24 133.71 177.416 133.318 177.768C132.934 178.12 132.714 178.608 132.658 179.232H136.81ZM138.971 179.688C138.971 179.016 139.107 178.428 139.379 177.924C139.651 177.412 140.023 177.016 140.495 176.736C140.975 176.456 141.507 176.316 142.091 176.316C142.667 176.316 143.167 176.44 143.591 176.688C144.015 176.936 144.331 177.248 144.539 177.624V176.424H145.643V183H144.539V181.776C144.323 182.16 143.999 182.48 143.567 182.736C143.143 182.984 142.647 183.108 142.079 183.108C141.495 183.108 140.967 182.964 140.495 182.676C140.023 182.388 139.651 181.984 139.379 181.464C139.107 180.944 138.971 180.352 138.971 179.688ZM144.539 179.7C144.539 179.204 144.439 178.772 144.239 178.404C144.039 178.036 143.767 177.756 143.423 177.564C143.087 177.364 142.715 177.264 142.307 177.264C141.899 177.264 141.527 177.36 141.191 177.552C140.855 177.744 140.587 178.024 140.387 178.392C140.187 178.76 140.087 179.192 140.087 179.688C140.087 180.192 140.187 180.632 140.387 181.008C140.587 181.376 140.855 181.66 141.191 181.86C141.527 182.052 141.899 182.148 142.307 182.148C142.715 182.148 143.087 182.052 143.423 181.86C143.767 181.66 144.039 181.376 144.239 181.008C144.439 180.632 144.539 180.196 144.539 179.7ZM148.58 177.492C148.772 177.116 149.044 176.824 149.396 176.616C149.756 176.408 150.192 176.304 150.704 176.304V177.432H150.416C149.192 177.432 148.58 178.096 148.58 179.424V183H147.488V176.424H148.58V177.492ZM151.557 179.688C151.557 179.016 151.693 178.428 151.965 177.924C152.237 177.412 152.609 177.016 153.081 176.736C153.561 176.456 154.097 176.316 154.689 176.316C155.201 176.316 155.677 176.436 156.117 176.676C156.557 176.908 156.893 177.216 157.125 177.6V174.12H158.229V183H157.125V181.764C156.909 182.156 156.589 182.48 156.165 182.736C155.741 182.984 155.245 183.108 154.677 183.108C154.093 183.108 153.561 182.964 153.081 182.676C152.609 182.388 152.237 181.984 151.965 181.464C151.693 180.944 151.557 180.352 151.557 179.688ZM157.125 179.7C157.125 179.204 157.025 178.772 156.825 178.404C156.625 178.036 156.353 177.756 156.009 177.564C155.673 177.364 155.301 177.264 154.893 177.264C154.485 177.264 154.113 177.36 153.777 177.552C153.441 177.744 153.173 178.024 152.973 178.392C152.773 178.76 152.673 179.192 152.673 179.688C152.673 180.192 152.773 180.632 152.973 181.008C153.173 181.376 153.441 181.66 153.777 181.86C154.113 182.052 154.485 182.148 154.893 182.148C155.301 182.148 155.673 182.052 156.009 181.86C156.353 181.66 156.625 181.376 156.825 181.008C157.025 180.632 157.125 180.196 157.125 179.7ZM162.866 179.688C162.866 179.016 163.002 178.428 163.274 177.924C163.546 177.412 163.918 177.016 164.39 176.736C164.87 176.456 165.402 176.316 165.986 176.316C166.562 176.316 167.062 176.44 167.486 176.688C167.91 176.936 168.226 177.248 168.434 177.624V176.424H169.538V183H168.434V181.776C168.218 182.16 167.894 182.48 167.462 182.736C167.038 182.984 166.542 183.108 165.974 183.108C165.39 183.108 164.862 182.964 164.39 182.676C163.918 182.388 163.546 181.984 163.274 181.464C163.002 180.944 162.866 180.352 162.866 179.688ZM168.434 179.7C168.434 179.204 168.334 178.772 168.134 178.404C167.934 178.036 167.662 177.756 167.318 177.564C166.982 177.364 166.61 177.264 166.202 177.264C165.794 177.264 165.422 177.36 165.086 177.552C164.75 177.744 164.482 178.024 164.282 178.392C164.082 178.76 163.982 179.192 163.982 179.688C163.982 180.192 164.082 180.632 164.282 181.008C164.482 181.376 164.75 181.66 165.086 181.86C165.422 182.052 165.794 182.148 166.202 182.148C166.61 182.148 166.982 182.052 167.318 181.86C167.662 181.66 167.934 181.376 168.134 181.008C168.334 180.632 168.434 180.196 168.434 179.7ZM172.475 177.648C172.699 177.256 173.027 176.936 173.459 176.688C173.891 176.44 174.383 176.316 174.935 176.316C175.527 176.316 176.059 176.456 176.531 176.736C177.003 177.016 177.375 177.412 177.647 177.924C177.919 178.428 178.055 179.016 178.055 179.688C178.055 180.352 177.919 180.944 177.647 181.464C177.375 181.984 176.999 182.388 176.519 182.676C176.047 182.964 175.519 183.108 174.935 183.108C174.367 183.108 173.867 182.984 173.435 182.736C173.011 182.488 172.691 182.172 172.475 181.788V183H171.383V174.12H172.475V177.648ZM176.939 179.688C176.939 179.192 176.839 178.76 176.639 178.392C176.439 178.024 176.167 177.744 175.823 177.552C175.487 177.36 175.115 177.264 174.707 177.264C174.307 177.264 173.935 177.364 173.591 177.564C173.255 177.756 172.983 178.04 172.775 178.416C172.575 178.784 172.475 179.212 172.475 179.7C172.475 180.196 172.575 180.632 172.775 181.008C172.983 181.376 173.255 181.66 173.591 181.86C173.935 182.052 174.307 182.148 174.707 182.148C175.115 182.148 175.487 182.052 175.823 181.86C176.167 181.66 176.439 181.376 176.639 181.008C176.839 180.632 176.939 180.192 176.939 179.688ZM182.36 183.108C181.744 183.108 181.184 182.968 180.68 182.688C180.184 182.408 179.792 182.012 179.504 181.5C179.224 180.98 179.084 180.38 179.084 179.7C179.084 179.028 179.228 178.436 179.516 177.924C179.812 177.404 180.212 177.008 180.716 176.736C181.22 176.456 181.784 176.316 182.408 176.316C183.032 176.316 183.596 176.456 184.1 176.736C184.604 177.008 185 177.4 185.288 177.912C185.584 178.424 185.732 179.02 185.732 179.7C185.732 180.38 185.58 180.98 185.276 181.5C184.98 182.012 184.576 182.408 184.064 182.688C183.552 182.968 182.984 183.108 182.36 183.108ZM182.36 182.148C182.752 182.148 183.12 182.056 183.464 181.872C183.808 181.688 184.084 181.412 184.292 181.044C184.508 180.676 184.616 180.228 184.616 179.7C184.616 179.172 184.512 178.724 184.304 178.356C184.096 177.988 183.824 177.716 183.488 177.54C183.152 177.356 182.788 177.264 182.396 177.264C181.996 177.264 181.628 177.356 181.292 177.54C180.964 177.716 180.7 177.988 180.5 178.356C180.3 178.724 180.2 179.172 180.2 179.7C180.2 180.236 180.296 180.688 180.488 181.056C180.688 181.424 180.952 181.7 181.28 181.884C181.608 182.06 181.968 182.148 182.36 182.148ZM193 176.424V183H191.908V182.028C191.7 182.364 191.408 182.628 191.032 182.82C190.664 183.004 190.256 183.096 189.808 183.096C189.296 183.096 188.836 182.992 188.428 182.784C188.02 182.568 187.696 182.248 187.456 181.824C187.224 181.4 187.108 180.884 187.108 180.276V176.424H188.188V180.132C188.188 180.78 188.352 181.28 188.68 181.632C189.008 181.976 189.456 182.148 190.024 182.148C190.608 182.148 191.068 181.968 191.404 181.608C191.74 181.248 191.908 180.724 191.908 180.036V176.424H193ZM196.176 177.324V181.2C196.176 181.52 196.244 181.748 196.38 181.884C196.516 182.012 196.752 182.076 197.088 182.076H197.892V183H196.908C196.3 183 195.844 182.86 195.54 182.58C195.236 182.3 195.084 181.84 195.084 181.2V177.324H194.232V176.424H195.084V174.768H196.176V176.424H197.892V177.324H196.176ZM202.978 175.356C202.77 175.356 202.594 175.284 202.45 175.14C202.306 174.996 202.234 174.82 202.234 174.612C202.234 174.404 202.306 174.228 202.45 174.084C202.594 173.94 202.77 173.868 202.978 173.868C203.178 173.868 203.346 173.94 203.482 174.084C203.626 174.228 203.698 174.404 203.698 174.612C203.698 174.82 203.626 174.996 203.482 175.14C203.346 175.284 203.178 175.356 202.978 175.356ZM203.506 176.424V183H202.414V176.424H203.506ZM206.699 177.324V181.2C206.699 181.52 206.767 181.748 206.903 181.884C207.039 182.012 207.275 182.076 207.611 182.076H208.415V183H207.431C206.823 183 206.367 182.86 206.063 182.58C205.759 182.3 205.607 181.84 205.607 181.2V177.324H204.755V176.424H205.607V174.768H206.699V176.424H208.415V177.324H206.699ZM127.811 195.324H126.431V201H125.339V195.324H124.487V194.424H125.339V193.956C125.339 193.22 125.527 192.684 125.903 192.348C126.287 192.004 126.899 191.832 127.739 191.832V192.744C127.259 192.744 126.919 192.84 126.719 193.032C126.527 193.216 126.431 193.524 126.431 193.956V194.424H127.811V195.324ZM130.176 195.492C130.368 195.116 130.64 194.824 130.992 194.616C131.352 194.408 131.788 194.304 132.3 194.304V195.432H132.012C130.788 195.432 130.176 196.096 130.176 197.424V201H129.084V194.424H130.176V195.492ZM136.429 201.108C135.813 201.108 135.253 200.968 134.749 200.688C134.253 200.408 133.861 200.012 133.573 199.5C133.293 198.98 133.153 198.38 133.153 197.7C133.153 197.028 133.297 196.436 133.585 195.924C133.881 195.404 134.281 195.008 134.785 194.736C135.289 194.456 135.853 194.316 136.477 194.316C137.101 194.316 137.665 194.456 138.169 194.736C138.673 195.008 139.069 195.4 139.357 195.912C139.653 196.424 139.801 197.02 139.801 197.7C139.801 198.38 139.649 198.98 139.345 199.5C139.049 200.012 138.645 200.408 138.133 200.688C137.621 200.968 137.053 201.108 136.429 201.108ZM136.429 200.148C136.821 200.148 137.189 200.056 137.533 199.872C137.877 199.688 138.153 199.412 138.361 199.044C138.577 198.676 138.685 198.228 138.685 197.7C138.685 197.172 138.581 196.724 138.373 196.356C138.165 195.988 137.893 195.716 137.557 195.54C137.221 195.356 136.857 195.264 136.465 195.264C136.065 195.264 135.697 195.356 135.361 195.54C135.033 195.716 134.769 195.988 134.569 196.356C134.369 196.724 134.269 197.172 134.269 197.7C134.269 198.236 134.365 198.688 134.557 199.056C134.757 199.424 135.021 199.7 135.349 199.884C135.677 200.06 136.037 200.148 136.429 200.148ZM149.145 194.304C149.657 194.304 150.113 194.412 150.513 194.628C150.913 194.836 151.229 195.152 151.461 195.576C151.693 196 151.809 196.516 151.809 197.124V201H150.729V197.28C150.729 196.624 150.565 196.124 150.237 195.78C149.917 195.428 149.481 195.252 148.929 195.252C148.361 195.252 147.909 195.436 147.573 195.804C147.237 196.164 147.069 196.688 147.069 197.376V201H145.989V197.28C145.989 196.624 145.825 196.124 145.497 195.78C145.177 195.428 144.741 195.252 144.189 195.252C143.621 195.252 143.169 195.436 142.833 195.804C142.497 196.164 142.329 196.688 142.329 197.376V201H141.237V194.424H142.329V195.372C142.545 195.028 142.833 194.764 143.193 194.58C143.561 194.396 143.965 194.304 144.405 194.304C144.957 194.304 145.445 194.428 145.869 194.676C146.293 194.924 146.609 195.288 146.817 195.768C147.001 195.304 147.305 194.944 147.729 194.688C148.153 194.432 148.625 194.304 149.145 194.304ZM156.391 197.688C156.391 197.016 156.527 196.428 156.799 195.924C157.071 195.412 157.443 195.016 157.915 194.736C158.395 194.456 158.927 194.316 159.511 194.316C160.087 194.316 160.587 194.44 161.011 194.688C161.435 194.936 161.751 195.248 161.959 195.624V194.424H163.063V201H161.959V199.776C161.743 200.16 161.419 200.48 160.987 200.736C160.563 200.984 160.067 201.108 159.499 201.108C158.915 201.108 158.387 200.964 157.915 200.676C157.443 200.388 157.071 199.984 156.799 199.464C156.527 198.944 156.391 198.352 156.391 197.688ZM161.959 197.7C161.959 197.204 161.859 196.772 161.659 196.404C161.459 196.036 161.187 195.756 160.843 195.564C160.507 195.364 160.135 195.264 159.727 195.264C159.319 195.264 158.947 195.36 158.611 195.552C158.275 195.744 158.007 196.024 157.807 196.392C157.607 196.76 157.507 197.192 157.507 197.688C157.507 198.192 157.607 198.632 157.807 199.008C158.007 199.376 158.275 199.66 158.611 199.86C158.947 200.052 159.319 200.148 159.727 200.148C160.135 200.148 160.507 200.052 160.843 199.86C161.187 199.66 161.459 199.376 161.659 199.008C161.859 198.632 161.959 198.196 161.959 197.7ZM170.784 195.324H169.404V201H168.312V195.324H167.46V194.424H168.312V193.956C168.312 193.22 168.5 192.684 168.876 192.348C169.26 192.004 169.872 191.832 170.712 191.832V192.744C170.232 192.744 169.892 192.84 169.692 193.032C169.5 193.216 169.404 193.524 169.404 193.956V194.424H170.784V195.324ZM173.149 195.492C173.341 195.116 173.613 194.824 173.965 194.616C174.325 194.408 174.761 194.304 175.273 194.304V195.432H174.985C173.761 195.432 173.149 196.096 173.149 197.424V201H172.057V194.424H173.149V195.492ZM177.097 193.356C176.889 193.356 176.713 193.284 176.569 193.14C176.425 192.996 176.353 192.82 176.353 192.612C176.353 192.404 176.425 192.228 176.569 192.084C176.713 191.94 176.889 191.868 177.097 191.868C177.297 191.868 177.465 191.94 177.601 192.084C177.745 192.228 177.817 192.404 177.817 192.612C177.817 192.82 177.745 192.996 177.601 193.14C177.465 193.284 177.297 193.356 177.097 193.356ZM177.625 194.424V201H176.533V194.424H177.625ZM185.487 197.46C185.487 197.668 185.475 197.888 185.451 198.12H180.195C180.235 198.768 180.455 199.276 180.855 199.644C181.263 200.004 181.755 200.184 182.331 200.184C182.803 200.184 183.195 200.076 183.507 199.86C183.827 199.636 184.051 199.34 184.179 198.972H185.355C185.179 199.604 184.827 200.12 184.299 200.52C183.771 200.912 183.115 201.108 182.331 201.108C181.707 201.108 181.147 200.968 180.651 200.688C180.163 200.408 179.779 200.012 179.499 199.5C179.219 198.98 179.079 198.38 179.079 197.7C179.079 197.02 179.215 196.424 179.487 195.912C179.759 195.4 180.139 195.008 180.627 194.736C181.123 194.456 181.691 194.316 182.331 194.316C182.955 194.316 183.507 194.452 183.987 194.724C184.467 194.996 184.835 195.372 185.091 195.852C185.355 196.324 185.487 196.86 185.487 197.46ZM184.359 197.232C184.359 196.816 184.267 196.46 184.083 196.164C183.899 195.86 183.647 195.632 183.327 195.48C183.015 195.32 182.667 195.24 182.283 195.24C181.731 195.24 181.259 195.416 180.867 195.768C180.483 196.12 180.263 196.608 180.207 197.232H184.359ZM190.132 194.304C190.932 194.304 191.58 194.548 192.076 195.036C192.572 195.516 192.82 196.212 192.82 197.124V201H191.74V197.28C191.74 196.624 191.576 196.124 191.248 195.78C190.92 195.428 190.472 195.252 189.904 195.252C189.328 195.252 188.868 195.432 188.524 195.792C188.188 196.152 188.02 196.676 188.02 197.364V201H186.928V194.424H188.02V195.36C188.236 195.024 188.528 194.764 188.896 194.58C189.272 194.396 189.684 194.304 190.132 194.304ZM194.196 197.688C194.196 197.016 194.332 196.428 194.604 195.924C194.876 195.412 195.248 195.016 195.72 194.736C196.2 194.456 196.736 194.316 197.328 194.316C197.84 194.316 198.316 194.436 198.756 194.676C199.196 194.908 199.532 195.216 199.764 195.6V192.12H200.868V201H199.764V199.764C199.548 200.156 199.228 200.48 198.804 200.736C198.38 200.984 197.884 201.108 197.316 201.108C196.732 201.108 196.2 200.964 195.72 200.676C195.248 200.388 194.876 199.984 194.604 199.464C194.332 198.944 194.196 198.352 194.196 197.688ZM199.764 197.7C199.764 197.204 199.664 196.772 199.464 196.404C199.264 196.036 198.992 195.756 198.648 195.564C198.312 195.364 197.94 195.264 197.532 195.264C197.124 195.264 196.752 195.36 196.416 195.552C196.08 195.744 195.812 196.024 195.612 196.392C195.412 196.76 195.312 197.192 195.312 197.688C195.312 198.192 195.412 198.632 195.612 199.008C195.812 199.376 196.08 199.66 196.416 199.86C196.752 200.052 197.124 200.148 197.532 200.148C197.94 200.148 198.312 200.052 198.648 199.86C198.992 199.66 199.264 199.376 199.464 199.008C199.664 198.632 199.764 198.196 199.764 197.7ZM149.195 221.232C148.427 220.48 147.827 219.524 147.395 218.364C146.971 217.204 146.759 215.952 146.759 214.608C146.759 213.232 146.983 211.948 147.431 210.756C147.887 209.556 148.535 208.568 149.375 207.792H150.515V207.9C149.619 208.74 148.943 209.752 148.487 210.936C148.039 212.112 147.815 213.336 147.815 214.608C147.815 215.848 148.027 217.032 148.451 218.16C148.883 219.288 149.511 220.276 150.335 221.124V221.232H149.195ZM157.188 211.272H152.976V214.008C153.16 213.752 153.432 213.544 153.792 213.384C154.152 213.216 154.54 213.132 154.956 213.132C155.62 213.132 156.16 213.272 156.576 213.552C156.992 213.824 157.288 214.18 157.464 214.62C157.648 215.052 157.74 215.512 157.74 216C157.74 216.576 157.632 217.092 157.416 217.548C157.2 218.004 156.868 218.364 156.42 218.628C155.98 218.892 155.432 219.024 154.776 219.024C153.936 219.024 153.256 218.808 152.736 218.376C152.216 217.944 151.9 217.368 151.788 216.648H152.856C152.96 217.104 153.18 217.46 153.516 217.716C153.852 217.972 154.276 218.1 154.788 218.1C155.42 218.1 155.896 217.912 156.216 217.536C156.536 217.152 156.696 216.648 156.696 216.024C156.696 215.4 156.536 214.92 156.216 214.584C155.896 214.24 155.424 214.068 154.8 214.068C154.376 214.068 154.004 214.172 153.684 214.38C153.372 214.58 153.144 214.856 153 215.208H151.968V210.312H157.188V211.272ZM164.723 211.272H160.511V214.008C160.695 213.752 160.967 213.544 161.327 213.384C161.687 213.216 162.075 213.132 162.491 213.132C163.155 213.132 163.695 213.272 164.111 213.552C164.527 213.824 164.823 214.18 164.999 214.62C165.183 215.052 165.275 215.512 165.275 216C165.275 216.576 165.167 217.092 164.951 217.548C164.735 218.004 164.403 218.364 163.955 218.628C163.515 218.892 162.967 219.024 162.311 219.024C161.471 219.024 160.791 218.808 160.271 218.376C159.751 217.944 159.435 217.368 159.323 216.648H160.391C160.495 217.104 160.715 217.46 161.051 217.716C161.387 217.972 161.811 218.1 162.323 218.1C162.955 218.1 163.431 217.912 163.751 217.536C164.071 217.152 164.231 216.648 164.231 216.024C164.231 215.4 164.071 214.92 163.751 214.584C163.431 214.24 162.959 214.068 162.335 214.068C161.911 214.068 161.539 214.172 161.219 214.38C160.907 214.58 160.679 214.856 160.535 215.208H159.503V210.312H164.723V211.272ZM166.486 212.28C166.486 211.736 166.65 211.304 166.978 210.984C167.306 210.656 167.726 210.492 168.238 210.492C168.75 210.492 169.17 210.656 169.498 210.984C169.826 211.304 169.99 211.736 169.99 212.28C169.99 212.832 169.826 213.272 169.498 213.6C169.17 213.92 168.75 214.08 168.238 214.08C167.726 214.08 167.306 213.92 166.978 213.6C166.65 213.272 166.486 212.832 166.486 212.28ZM173.494 210.624L168.634 219H167.554L172.414 210.624H173.494ZM168.238 211.164C167.966 211.164 167.75 211.26 167.59 211.452C167.438 211.636 167.362 211.912 167.362 212.28C167.362 212.648 167.438 212.928 167.59 213.12C167.75 213.312 167.966 213.408 168.238 213.408C168.51 213.408 168.726 213.312 168.886 213.12C169.046 212.92 169.126 212.64 169.126 212.28C169.126 211.912 169.046 211.636 168.886 211.452C168.726 211.26 168.51 211.164 168.238 211.164ZM171.082 217.344C171.082 216.792 171.246 216.356 171.574 216.036C171.902 215.708 172.322 215.544 172.834 215.544C173.346 215.544 173.762 215.708 174.082 216.036C174.41 216.356 174.574 216.792 174.574 217.344C174.574 217.888 174.41 218.324 174.082 218.652C173.762 218.98 173.346 219.144 172.834 219.144C172.322 219.144 171.902 218.984 171.574 218.664C171.246 218.336 171.082 217.896 171.082 217.344ZM172.822 216.228C172.55 216.228 172.334 216.324 172.174 216.516C172.014 216.7 171.934 216.976 171.934 217.344C171.934 217.704 172.014 217.98 172.174 218.172C172.334 218.356 172.55 218.448 172.822 218.448C173.094 218.448 173.31 218.356 173.47 218.172C173.63 217.98 173.71 217.704 173.71 217.344C173.71 216.976 173.63 216.7 173.47 216.516C173.31 216.324 173.094 216.228 172.822 216.228ZM175.664 221.232V221.124C176.488 220.276 177.112 219.288 177.536 218.16C177.968 217.032 178.184 215.848 178.184 214.608C178.184 213.336 177.956 212.112 177.5 210.936C177.052 209.752 176.38 208.74 175.484 207.9V207.792H176.624C177.464 208.568 178.108 209.556 178.556 210.756C179.012 211.948 179.24 213.232 179.24 214.608C179.24 215.952 179.024 217.204 178.592 218.364C178.168 219.524 177.572 220.48 176.804 221.232H175.664Z" fill="white"/>
<path d="M117.576 71.084C117.024 71.084 116.528 70.988 116.088 70.796C115.656 70.596 115.316 70.324 115.068 69.98C114.82 69.628 114.692 69.224 114.684 68.768H115.848C115.888 69.16 116.048 69.492 116.328 69.764C116.616 70.028 117.032 70.16 117.576 70.16C118.096 70.16 118.504 70.032 118.8 69.776C119.104 69.512 119.256 69.176 119.256 68.768C119.256 68.448 119.168 68.188 118.992 67.988C118.816 67.788 118.596 67.636 118.332 67.532C118.068 67.428 117.712 67.316 117.264 67.196C116.712 67.052 116.268 66.908 115.932 66.764C115.604 66.62 115.32 66.396 115.08 66.092C114.848 65.78 114.732 65.364 114.732 64.844C114.732 64.388 114.848 63.984 115.08 63.632C115.312 63.28 115.636 63.008 116.052 62.816C116.476 62.624 116.96 62.528 117.504 62.528C118.288 62.528 118.928 62.724 119.424 63.116C119.928 63.508 120.212 64.028 120.276 64.676H119.076C119.036 64.356 118.868 64.076 118.572 63.836C118.276 63.588 117.884 63.464 117.396 63.464C116.94 63.464 116.568 63.584 116.28 63.824C115.992 64.056 115.848 64.384 115.848 64.808C115.848 65.112 115.932 65.36 116.1 65.552C116.276 65.744 116.488 65.892 116.736 65.996C116.992 66.092 117.348 66.204 117.804 66.332C118.356 66.484 118.8 66.636 119.136 66.788C119.472 66.932 119.76 67.16 120 67.472C120.24 67.776 120.36 68.192 120.36 68.72C120.36 69.128 120.252 69.512 120.036 69.872C119.82 70.232 119.5 70.524 119.076 70.748C118.652 70.972 118.152 71.084 117.576 71.084ZM127.967 67.46C127.967 67.668 127.955 67.888 127.931 68.12H122.675C122.715 68.768 122.935 69.276 123.335 69.644C123.743 70.004 124.235 70.184 124.811 70.184C125.283 70.184 125.675 70.076 125.987 69.86C126.307 69.636 126.531 69.34 126.659 68.972H127.835C127.659 69.604 127.307 70.12 126.779 70.52C126.251 70.912 125.595 71.108 124.811 71.108C124.187 71.108 123.627 70.968 123.131 70.688C122.643 70.408 122.259 70.012 121.979 69.5C121.699 68.98 121.559 68.38 121.559 67.7C121.559 67.02 121.695 66.424 121.967 65.912C122.239 65.4 122.619 65.008 123.107 64.736C123.603 64.456 124.171 64.316 124.811 64.316C125.435 64.316 125.987 64.452 126.467 64.724C126.947 64.996 127.315 65.372 127.571 65.852C127.835 66.324 127.967 66.86 127.967 67.46ZM126.839 67.232C126.839 66.816 126.747 66.46 126.563 66.164C126.379 65.86 126.127 65.632 125.807 65.48C125.495 65.32 125.147 65.24 124.763 65.24C124.211 65.24 123.739 65.416 123.347 65.768C122.963 66.12 122.743 66.608 122.687 67.232H126.839ZM129 67.688C129 67.016 129.136 66.428 129.408 65.924C129.68 65.412 130.052 65.016 130.524 64.736C131.004 64.456 131.536 64.316 132.12 64.316C132.696 64.316 133.196 64.44 133.62 64.688C134.044 64.936 134.36 65.248 134.568 65.624V64.424H135.672V71H134.568V69.776C134.352 70.16 134.028 70.48 133.596 70.736C133.172 70.984 132.676 71.108 132.108 71.108C131.524 71.108 130.996 70.964 130.524 70.676C130.052 70.388 129.68 69.984 129.408 69.464C129.136 68.944 129 68.352 129 67.688ZM134.568 67.7C134.568 67.204 134.468 66.772 134.268 66.404C134.068 66.036 133.796 65.756 133.452 65.564C133.116 65.364 132.744 65.264 132.336 65.264C131.928 65.264 131.556 65.36 131.22 65.552C130.884 65.744 130.616 66.024 130.416 66.392C130.216 66.76 130.116 67.192 130.116 67.688C130.116 68.192 130.216 68.632 130.416 69.008C130.616 69.376 130.884 69.66 131.22 69.86C131.556 70.052 131.928 70.148 132.336 70.148C132.744 70.148 133.116 70.052 133.452 69.86C133.796 69.66 134.068 69.376 134.268 69.008C134.468 68.632 134.568 68.196 134.568 67.7ZM138.61 65.492C138.802 65.116 139.074 64.824 139.426 64.616C139.786 64.408 140.222 64.304 140.734 64.304V65.432H140.446C139.222 65.432 138.61 66.096 138.61 67.424V71H137.518V64.424H138.61V65.492ZM141.586 67.7C141.586 67.02 141.722 66.428 141.994 65.924C142.266 65.412 142.642 65.016 143.122 64.736C143.61 64.456 144.166 64.316 144.79 64.316C145.598 64.316 146.262 64.512 146.782 64.904C147.31 65.296 147.658 65.84 147.826 66.536H146.65C146.538 66.136 146.318 65.82 145.99 65.588C145.67 65.356 145.27 65.24 144.79 65.24C144.166 65.24 143.662 65.456 143.278 65.888C142.894 66.312 142.702 66.916 142.702 67.7C142.702 68.492 142.894 69.104 143.278 69.536C143.662 69.968 144.166 70.184 144.79 70.184C145.27 70.184 145.67 70.072 145.99 69.848C146.31 69.624 146.53 69.304 146.65 68.888H147.826C147.65 69.56 147.298 70.1 146.77 70.508C146.242 70.908 145.582 71.108 144.79 71.108C144.166 71.108 143.61 70.968 143.122 70.688C142.642 70.408 142.266 70.012 141.994 69.5C141.722 68.988 141.586 68.388 141.586 67.7ZM152.547 64.304C153.043 64.304 153.491 64.412 153.891 64.628C154.291 64.836 154.603 65.152 154.827 65.576C155.059 66 155.175 66.516 155.175 67.124V71H154.095V67.28C154.095 66.624 153.931 66.124 153.603 65.78C153.275 65.428 152.827 65.252 152.259 65.252C151.683 65.252 151.223 65.432 150.879 65.792C150.543 66.152 150.375 66.676 150.375 67.364V71H149.283V62.12H150.375V65.36C150.591 65.024 150.887 64.764 151.263 64.58C151.647 64.396 152.075 64.304 152.547 64.304ZM162.959 67.46C162.959 67.668 162.947 67.888 162.923 68.12H157.667C157.707 68.768 157.927 69.276 158.327 69.644C158.735 70.004 159.227 70.184 159.803 70.184C160.275 70.184 160.667 70.076 160.979 69.86C161.299 69.636 161.523 69.34 161.651 68.972H162.827C162.651 69.604 162.299 70.12 161.771 70.52C161.243 70.912 160.587 71.108 159.803 71.108C159.179 71.108 158.619 70.968 158.123 70.688C157.635 70.408 157.251 70.012 156.971 69.5C156.691 68.98 156.551 68.38 156.551 67.7C156.551 67.02 156.687 66.424 156.959 65.912C157.231 65.4 157.611 65.008 158.099 64.736C158.595 64.456 159.163 64.316 159.803 64.316C160.427 64.316 160.979 64.452 161.459 64.724C161.939 64.996 162.307 65.372 162.563 65.852C162.827 66.324 162.959 66.86 162.959 67.46ZM161.831 67.232C161.831 66.816 161.739 66.46 161.555 66.164C161.371 65.86 161.119 65.632 160.799 65.48C160.487 65.32 160.139 65.24 159.755 65.24C159.203 65.24 158.731 65.416 158.339 65.768C157.955 66.12 157.735 66.608 157.679 67.232H161.831ZM163.993 67.688C163.993 67.016 164.129 66.428 164.401 65.924C164.673 65.412 165.045 65.016 165.517 64.736C165.997 64.456 166.533 64.316 167.125 64.316C167.637 64.316 168.113 64.436 168.553 64.676C168.993 64.908 169.329 65.216 169.561 65.6V62.12H170.665V71H169.561V69.764C169.345 70.156 169.025 70.48 168.601 70.736C168.177 70.984 167.681 71.108 167.113 71.108C166.529 71.108 165.997 70.964 165.517 70.676C165.045 70.388 164.673 69.984 164.401 69.464C164.129 68.944 163.993 68.352 163.993 67.688ZM169.561 67.7C169.561 67.204 169.461 66.772 169.261 66.404C169.061 66.036 168.789 65.756 168.445 65.564C168.109 65.364 167.737 65.264 167.329 65.264C166.921 65.264 166.549 65.36 166.213 65.552C165.877 65.744 165.609 66.024 165.409 66.392C165.209 66.76 165.109 67.192 165.109 67.688C165.109 68.192 165.209 68.632 165.409 69.008C165.609 69.376 165.877 69.66 166.213 69.86C166.549 70.052 166.921 70.148 167.329 70.148C167.737 70.148 168.109 70.052 168.445 69.86C168.789 69.66 169.061 69.376 169.261 69.008C169.461 68.632 169.561 68.196 169.561 67.7ZM178.385 65.324H177.005V71H175.913V65.324H175.061V64.424H175.913V63.956C175.913 63.22 176.101 62.684 176.477 62.348C176.861 62.004 177.473 61.832 178.313 61.832V62.744C177.833 62.744 177.493 62.84 177.293 63.032C177.101 63.216 177.005 63.524 177.005 63.956V64.424H178.385V65.324ZM182.526 71.108C181.91 71.108 181.35 70.968 180.846 70.688C180.35 70.408 179.958 70.012 179.67 69.5C179.39 68.98 179.25 68.38 179.25 67.7C179.25 67.028 179.394 66.436 179.682 65.924C179.978 65.404 180.378 65.008 180.882 64.736C181.386 64.456 181.95 64.316 182.574 64.316C183.198 64.316 183.762 64.456 184.266 64.736C184.77 65.008 185.166 65.4 185.454 65.912C185.75 66.424 185.898 67.02 185.898 67.7C185.898 68.38 185.746 68.98 185.442 69.5C185.146 70.012 184.742 70.408 184.23 70.688C183.718 70.968 183.15 71.108 182.526 71.108ZM182.526 70.148C182.918 70.148 183.286 70.056 183.63 69.872C183.974 69.688 184.25 69.412 184.458 69.044C184.674 68.676 184.782 68.228 184.782 67.7C184.782 67.172 184.678 66.724 184.47 66.356C184.262 65.988 183.99 65.716 183.654 65.54C183.318 65.356 182.954 65.264 182.562 65.264C182.162 65.264 181.794 65.356 181.458 65.54C181.13 65.716 180.866 65.988 180.666 66.356C180.466 66.724 180.366 67.172 180.366 67.7C180.366 68.236 180.462 68.688 180.654 69.056C180.854 69.424 181.118 69.7 181.446 69.884C181.774 70.06 182.134 70.148 182.526 70.148ZM188.426 65.492C188.618 65.116 188.89 64.824 189.242 64.616C189.602 64.408 190.038 64.304 190.55 64.304V65.432H190.262C189.038 65.432 188.426 66.096 188.426 67.424V71H187.334V64.424H188.426V65.492ZM195.574 63.356C195.366 63.356 195.19 63.284 195.046 63.14C194.902 62.996 194.83 62.82 194.83 62.612C194.83 62.404 194.902 62.228 195.046 62.084C195.19 61.94 195.366 61.868 195.574 61.868C195.774 61.868 195.942 61.94 196.078 62.084C196.222 62.228 196.294 62.404 196.294 62.612C196.294 62.82 196.222 62.996 196.078 63.14C195.942 63.284 195.774 63.356 195.574 63.356ZM196.102 64.424V71H195.01V64.424H196.102ZM199.295 65.324V69.2C199.295 69.52 199.363 69.748 199.499 69.884C199.635 70.012 199.871 70.076 200.207 70.076H201.011V71H200.027C199.419 71 198.963 70.86 198.659 70.58C198.355 70.3 198.203 69.84 198.203 69.2V65.324H197.351V64.424H198.203V62.768H199.295V64.424H201.011V65.324H199.295Z" fill="#797979"/>
<path d="M55.2567 27.636V36H54.1647V32.208H49.9047V36H48.8127V27.636H49.9047V31.308H54.1647V27.636H55.2567ZM59.9893 36.108C59.3733 36.108 58.8133 35.968 58.3093 35.688C57.8133 35.408 57.4213 35.012 57.1333 34.5C56.8533 33.98 56.7133 33.38 56.7133 32.7C56.7133 32.028 56.8573 31.436 57.1453 30.924C57.4413 30.404 57.8413 30.008 58.3453 29.736C58.8493 29.456 59.4133 29.316 60.0373 29.316C60.6613 29.316 61.2253 29.456 61.7293 29.736C62.2333 30.008 62.6293 30.4 62.9173 30.912C63.2133 31.424 63.3613 32.02 63.3613 32.7C63.3613 33.38 63.2093 33.98 62.9053 34.5C62.6093 35.012 62.2053 35.408 61.6933 35.688C61.1813 35.968 60.6133 36.108 59.9893 36.108ZM59.9893 35.148C60.3813 35.148 60.7493 35.056 61.0933 34.872C61.4373 34.688 61.7133 34.412 61.9213 34.044C62.1373 33.676 62.2453 33.228 62.2453 32.7C62.2453 32.172 62.1413 31.724 61.9333 31.356C61.7253 30.988 61.4533 30.716 61.1173 30.54C60.7813 30.356 60.4173 30.264 60.0253 30.264C59.6253 30.264 59.2573 30.356 58.9213 30.54C58.5933 30.716 58.3293 30.988 58.1293 31.356C57.9293 31.724 57.8293 32.172 57.8293 32.7C57.8293 33.236 57.9253 33.688 58.1173 34.056C58.3173 34.424 58.5813 34.7 58.9093 34.884C59.2373 35.06 59.5973 35.148 59.9893 35.148ZM73.557 29.424L71.505 36H70.377L68.793 30.78L67.209 36H66.081L64.017 29.424H65.133L66.645 34.944L68.277 29.424H69.393L70.989 34.956L72.477 29.424H73.557ZM77.432 32.688C77.432 32.016 77.568 31.428 77.84 30.924C78.112 30.412 78.484 30.016 78.956 29.736C79.436 29.456 79.972 29.316 80.564 29.316C81.076 29.316 81.552 29.436 81.992 29.676C82.432 29.908 82.768 30.216 83 30.6V27.12H84.104V36H83V34.764C82.784 35.156 82.464 35.48 82.04 35.736C81.616 35.984 81.12 36.108 80.552 36.108C79.968 36.108 79.436 35.964 78.956 35.676C78.484 35.388 78.112 34.984 77.84 34.464C77.568 33.944 77.432 33.352 77.432 32.688ZM83 32.7C83 32.204 82.9 31.772 82.7 31.404C82.5 31.036 82.228 30.756 81.884 30.564C81.548 30.364 81.176 30.264 80.768 30.264C80.36 30.264 79.988 30.36 79.652 30.552C79.316 30.744 79.048 31.024 78.848 31.392C78.648 31.76 78.548 32.192 78.548 32.688C78.548 33.192 78.648 33.632 78.848 34.008C79.048 34.376 79.316 34.66 79.652 34.86C79.988 35.052 80.36 35.148 80.768 35.148C81.176 35.148 81.548 35.052 81.884 34.86C82.228 34.66 82.5 34.376 82.7 34.008C82.9 33.632 83 33.196 83 32.7ZM86.5134 28.356C86.3054 28.356 86.1294 28.284 85.9854 28.14C85.8414 27.996 85.7694 27.82 85.7694 27.612C85.7694 27.404 85.8414 27.228 85.9854 27.084C86.1294 26.94 86.3054 26.868 86.5134 26.868C86.7134 26.868 86.8814 26.94 87.0174 27.084C87.1614 27.228 87.2334 27.404 87.2334 27.612C87.2334 27.82 87.1614 27.996 87.0174 28.14C86.8814 28.284 86.7134 28.356 86.5134 28.356ZM87.0414 29.424V36H85.9494V29.424H87.0414ZM88.4945 32.688C88.4945 32.016 88.6305 31.428 88.9025 30.924C89.1745 30.412 89.5465 30.016 90.0185 29.736C90.4985 29.456 91.0345 29.316 91.6265 29.316C92.1385 29.316 92.6145 29.436 93.0545 29.676C93.4945 29.908 93.8305 30.216 94.0625 30.6V27.12H95.1665V36H94.0625V34.764C93.8465 35.156 93.5265 35.48 93.1025 35.736C92.6785 35.984 92.1825 36.108 91.6145 36.108C91.0305 36.108 90.4985 35.964 90.0185 35.676C89.5465 35.388 89.1745 34.984 88.9025 34.464C88.6305 33.944 88.4945 33.352 88.4945 32.688ZM94.0625 32.7C94.0625 32.204 93.9625 31.772 93.7625 31.404C93.5625 31.036 93.2905 30.756 92.9465 30.564C92.6105 30.364 92.2385 30.264 91.8305 30.264C91.4225 30.264 91.0505 30.36 90.7145 30.552C90.3785 30.744 90.1105 31.024 89.9105 31.392C89.7105 31.76 89.6105 32.192 89.6105 32.688C89.6105 33.192 89.7105 33.632 89.9105 34.008C90.1105 34.376 90.3785 34.66 90.7145 34.86C91.0505 35.052 91.4225 35.148 91.8305 35.148C92.2385 35.148 92.6105 35.052 92.9465 34.86C93.2905 34.66 93.5625 34.376 93.7625 34.008C93.9625 33.632 94.0625 33.196 94.0625 32.7ZM105.875 29.424L101.915 39.096H100.787L102.083 35.928L99.4311 29.424H100.643L102.707 34.752L104.747 29.424H105.875ZM109.841 36.108C109.225 36.108 108.665 35.968 108.161 35.688C107.665 35.408 107.273 35.012 106.985 34.5C106.705 33.98 106.565 33.38 106.565 32.7C106.565 32.028 106.709 31.436 106.997 30.924C107.293 30.404 107.693 30.008 108.197 29.736C108.701 29.456 109.265 29.316 109.889 29.316C110.513 29.316 111.077 29.456 111.581 29.736C112.085 30.008 112.481 30.4 112.769 30.912C113.065 31.424 113.213 32.02 113.213 32.7C113.213 33.38 113.061 33.98 112.757 34.5C112.461 35.012 112.057 35.408 111.545 35.688C111.033 35.968 110.465 36.108 109.841 36.108ZM109.841 35.148C110.233 35.148 110.601 35.056 110.945 34.872C111.289 34.688 111.565 34.412 111.773 34.044C111.989 33.676 112.097 33.228 112.097 32.7C112.097 32.172 111.993 31.724 111.785 31.356C111.577 30.988 111.305 30.716 110.969 30.54C110.633 30.356 110.269 30.264 109.877 30.264C109.477 30.264 109.109 30.356 108.773 30.54C108.445 30.716 108.181 30.988 107.981 31.356C107.781 31.724 107.681 32.172 107.681 32.7C107.681 33.236 107.777 33.688 107.969 34.056C108.169 34.424 108.433 34.7 108.761 34.884C109.089 35.06 109.449 35.148 109.841 35.148ZM120.481 29.424V36H119.389V35.028C119.181 35.364 118.889 35.628 118.513 35.82C118.145 36.004 117.737 36.096 117.289 36.096C116.777 36.096 116.317 35.992 115.909 35.784C115.501 35.568 115.177 35.248 114.937 34.824C114.705 34.4 114.589 33.884 114.589 33.276V29.424H115.669V33.132C115.669 33.78 115.833 34.28 116.161 34.632C116.489 34.976 116.937 35.148 117.505 35.148C118.089 35.148 118.549 34.968 118.885 34.608C119.221 34.248 119.389 33.724 119.389 33.036V29.424H120.481ZM128.788 29.304C129.284 29.304 129.732 29.412 130.132 29.628C130.532 29.836 130.844 30.152 131.068 30.576C131.3 31 131.416 31.516 131.416 32.124V36H130.336V32.28C130.336 31.624 130.172 31.124 129.844 30.78C129.516 30.428 129.068 30.252 128.5 30.252C127.924 30.252 127.464 30.432 127.12 30.792C126.784 31.152 126.616 31.676 126.616 32.364V36H125.524V27.12H126.616V30.36C126.832 30.024 127.128 29.764 127.504 29.58C127.888 29.396 128.316 29.304 128.788 29.304ZM139.199 32.46C139.199 32.668 139.187 32.888 139.163 33.12H133.907C133.947 33.768 134.167 34.276 134.567 34.644C134.975 35.004 135.467 35.184 136.043 35.184C136.515 35.184 136.907 35.076 137.219 34.86C137.539 34.636 137.763 34.34 137.891 33.972H139.067C138.891 34.604 138.539 35.12 138.011 35.52C137.483 35.912 136.827 36.108 136.043 36.108C135.419 36.108 134.859 35.968 134.363 35.688C133.875 35.408 133.491 35.012 133.211 34.5C132.931 33.98 132.791 33.38 132.791 32.7C132.791 32.02 132.927 31.424 133.199 30.912C133.471 30.4 133.851 30.008 134.339 29.736C134.835 29.456 135.403 29.316 136.043 29.316C136.667 29.316 137.219 29.452 137.699 29.724C138.179 29.996 138.547 30.372 138.803 30.852C139.067 31.324 139.199 31.86 139.199 32.46ZM138.071 32.232C138.071 31.816 137.979 31.46 137.795 31.164C137.611 30.86 137.359 30.632 137.039 30.48C136.727 30.32 136.379 30.24 135.995 30.24C135.443 30.24 134.971 30.416 134.579 30.768C134.195 31.12 133.975 31.608 133.919 32.232H138.071ZM140.233 32.688C140.233 32.016 140.369 31.428 140.641 30.924C140.913 30.412 141.285 30.016 141.757 29.736C142.237 29.456 142.769 29.316 143.353 29.316C143.929 29.316 144.429 29.44 144.853 29.688C145.277 29.936 145.593 30.248 145.801 30.624V29.424H146.905V36H145.801V34.776C145.585 35.16 145.261 35.48 144.829 35.736C144.405 35.984 143.909 36.108 143.341 36.108C142.757 36.108 142.229 35.964 141.757 35.676C141.285 35.388 140.913 34.984 140.641 34.464C140.369 33.944 140.233 33.352 140.233 32.688ZM145.801 32.7C145.801 32.204 145.701 31.772 145.501 31.404C145.301 31.036 145.029 30.756 144.685 30.564C144.349 30.364 143.977 30.264 143.569 30.264C143.161 30.264 142.789 30.36 142.453 30.552C142.117 30.744 141.849 31.024 141.649 31.392C141.449 31.76 141.349 32.192 141.349 32.688C141.349 33.192 141.449 33.632 141.649 34.008C141.849 34.376 142.117 34.66 142.453 34.86C142.789 35.052 143.161 35.148 143.569 35.148C143.977 35.148 144.349 35.052 144.685 34.86C145.029 34.66 145.301 34.376 145.501 34.008C145.701 33.632 145.801 33.196 145.801 32.7ZM149.842 30.492C150.034 30.116 150.306 29.824 150.658 29.616C151.018 29.408 151.454 29.304 151.966 29.304V30.432H151.678C150.454 30.432 149.842 31.096 149.842 32.424V36H148.75V29.424H149.842V30.492ZM156.018 32.688C156.018 32.016 156.154 31.428 156.426 30.924C156.698 30.412 157.07 30.016 157.542 29.736C158.022 29.456 158.554 29.316 159.138 29.316C159.714 29.316 160.214 29.44 160.638 29.688C161.062 29.936 161.378 30.248 161.586 30.624V29.424H162.69V36H161.586V34.776C161.37 35.16 161.046 35.48 160.614 35.736C160.19 35.984 159.694 36.108 159.126 36.108C158.542 36.108 158.014 35.964 157.542 35.676C157.07 35.388 156.698 34.984 156.426 34.464C156.154 33.944 156.018 33.352 156.018 32.688ZM161.586 32.7C161.586 32.204 161.486 31.772 161.286 31.404C161.086 31.036 160.814 30.756 160.47 30.564C160.134 30.364 159.762 30.264 159.354 30.264C158.946 30.264 158.574 30.36 158.238 30.552C157.902 30.744 157.634 31.024 157.434 31.392C157.234 31.76 157.134 32.192 157.134 32.688C157.134 33.192 157.234 33.632 157.434 34.008C157.634 34.376 157.902 34.66 158.238 34.86C158.574 35.052 158.946 35.148 159.354 35.148C159.762 35.148 160.134 35.052 160.47 34.86C160.814 34.66 161.086 34.376 161.286 34.008C161.486 33.632 161.586 33.196 161.586 32.7ZM165.627 30.648C165.851 30.256 166.179 29.936 166.611 29.688C167.043 29.44 167.535 29.316 168.087 29.316C168.679 29.316 169.211 29.456 169.683 29.736C170.155 30.016 170.527 30.412 170.799 30.924C171.071 31.428 171.207 32.016 171.207 32.688C171.207 33.352 171.071 33.944 170.799 34.464C170.527 34.984 170.151 35.388 169.671 35.676C169.199 35.964 168.671 36.108 168.087 36.108C167.519 36.108 167.019 35.984 166.587 35.736C166.163 35.488 165.843 35.172 165.627 34.788V36H164.535V27.12H165.627V30.648ZM170.091 32.688C170.091 32.192 169.991 31.76 169.791 31.392C169.591 31.024 169.319 30.744 168.975 30.552C168.639 30.36 168.267 30.264 167.859 30.264C167.459 30.264 167.087 30.364 166.743 30.564C166.407 30.756 166.135 31.04 165.927 31.416C165.727 31.784 165.627 32.212 165.627 32.7C165.627 33.196 165.727 33.632 165.927 34.008C166.135 34.376 166.407 34.66 166.743 34.86C167.087 35.052 167.459 35.148 167.859 35.148C168.267 35.148 168.639 35.052 168.975 34.86C169.319 34.66 169.591 34.376 169.791 34.008C169.991 33.632 170.091 33.192 170.091 32.688ZM175.513 36.108C174.897 36.108 174.337 35.968 173.833 35.688C173.337 35.408 172.945 35.012 172.657 34.5C172.377 33.98 172.237 33.38 172.237 32.7C172.237 32.028 172.381 31.436 172.669 30.924C172.965 30.404 173.365 30.008 173.869 29.736C174.373 29.456 174.937 29.316 175.561 29.316C176.185 29.316 176.749 29.456 177.253 29.736C177.757 30.008 178.153 30.4 178.441 30.912C178.737 31.424 178.885 32.02 178.885 32.7C178.885 33.38 178.733 33.98 178.429 34.5C178.133 35.012 177.729 35.408 177.217 35.688C176.705 35.968 176.137 36.108 175.513 36.108ZM175.513 35.148C175.905 35.148 176.273 35.056 176.617 34.872C176.961 34.688 177.237 34.412 177.445 34.044C177.661 33.676 177.769 33.228 177.769 32.7C177.769 32.172 177.665 31.724 177.457 31.356C177.249 30.988 176.977 30.716 176.641 30.54C176.305 30.356 175.941 30.264 175.549 30.264C175.149 30.264 174.781 30.356 174.445 30.54C174.117 30.716 173.853 30.988 173.653 31.356C173.453 31.724 173.353 32.172 173.353 32.7C173.353 33.236 173.449 33.688 173.641 34.056C173.841 34.424 174.105 34.7 174.433 34.884C174.761 35.06 175.121 35.148 175.513 35.148ZM186.152 29.424V36H185.06V35.028C184.852 35.364 184.56 35.628 184.184 35.82C183.816 36.004 183.408 36.096 182.96 36.096C182.448 36.096 181.988 35.992 181.58 35.784C181.172 35.568 180.848 35.248 180.608 34.824C180.376 34.4 180.26 33.884 180.26 33.276V29.424H181.34V33.132C181.34 33.78 181.504 34.28 181.832 34.632C182.16 34.976 182.608 35.148 183.176 35.148C183.76 35.148 184.22 34.968 184.556 34.608C184.892 34.248 185.06 33.724 185.06 33.036V29.424H186.152ZM189.328 30.324V34.2C189.328 34.52 189.396 34.748 189.532 34.884C189.668 35.012 189.904 35.076 190.24 35.076H191.044V36H190.06C189.452 36 188.996 35.86 188.692 35.58C188.388 35.3 188.236 34.84 188.236 34.2V30.324H187.384V29.424H188.236V27.768H189.328V29.424H191.044V30.324H189.328ZM196.899 30.324V34.2C196.899 34.52 196.967 34.748 197.103 34.884C197.239 35.012 197.475 35.076 197.811 35.076H198.615V36H197.631C197.023 36 196.567 35.86 196.263 35.58C195.959 35.3 195.807 34.84 195.807 34.2V30.324H194.955V29.424H195.807V27.768H196.899V29.424H198.615V30.324H196.899ZM203.202 29.304C203.698 29.304 204.146 29.412 204.546 29.628C204.946 29.836 205.258 30.152 205.482 30.576C205.714 31 205.83 31.516 205.83 32.124V36H204.75V32.28C204.75 31.624 204.586 31.124 204.258 30.78C203.93 30.428 203.482 30.252 202.914 30.252C202.338 30.252 201.878 30.432 201.534 30.792C201.198 31.152 201.03 31.676 201.03 32.364V36H199.938V27.12H201.03V30.36C201.246 30.024 201.542 29.764 201.918 29.58C202.302 29.396 202.73 29.304 203.202 29.304ZM208.177 28.356C207.969 28.356 207.793 28.284 207.649 28.14C207.505 27.996 207.433 27.82 207.433 27.612C207.433 27.404 207.505 27.228 207.649 27.084C207.793 26.94 207.969 26.868 208.177 26.868C208.377 26.868 208.545 26.94 208.681 27.084C208.825 27.228 208.897 27.404 208.897 27.612C208.897 27.82 208.825 27.996 208.681 28.14C208.545 28.284 208.377 28.356 208.177 28.356ZM208.705 29.424V36H207.613V29.424H208.705ZM212.895 36.108C212.391 36.108 211.939 36.024 211.539 35.856C211.139 35.68 210.823 35.44 210.591 35.136C210.359 34.824 210.231 34.468 210.207 34.068H211.335C211.367 34.396 211.519 34.664 211.791 34.872C212.071 35.08 212.435 35.184 212.883 35.184C213.299 35.184 213.627 35.092 213.867 34.908C214.107 34.724 214.227 34.492 214.227 34.212C214.227 33.924 214.099 33.712 213.843 33.576C213.587 33.432 213.191 33.292 212.655 33.156C212.167 33.028 211.767 32.9 211.455 32.772C211.151 32.636 210.887 32.44 210.663 32.184C210.447 31.92 210.339 31.576 210.339 31.152C210.339 30.816 210.439 30.508 210.639 30.228C210.839 29.948 211.123 29.728 211.491 29.568C211.859 29.4 212.279 29.316 212.751 29.316C213.479 29.316 214.067 29.5 214.515 29.868C214.963 30.236 215.203 30.74 215.235 31.38H214.143C214.119 31.036 213.979 30.76 213.723 30.552C213.475 30.344 213.139 30.24 212.715 30.24C212.323 30.24 212.011 30.324 211.779 30.492C211.547 30.66 211.431 30.88 211.431 31.152C211.431 31.368 211.499 31.548 211.635 31.692C211.779 31.828 211.955 31.94 212.163 32.028C212.379 32.108 212.675 32.2 213.051 32.304C213.523 32.432 213.907 32.56 214.203 32.688C214.499 32.808 214.751 32.992 214.959 33.24C215.175 33.488 215.287 33.812 215.295 34.212C215.295 34.572 215.195 34.896 214.995 35.184C214.795 35.472 214.511 35.7 214.143 35.868C213.783 36.028 213.367 36.108 212.895 36.108ZM221.127 30.636C221.343 30.26 221.663 29.948 222.087 29.7C222.519 29.444 223.019 29.316 223.587 29.316C224.171 29.316 224.699 29.456 225.171 29.736C225.651 30.016 226.027 30.412 226.299 30.924C226.571 31.428 226.707 32.016 226.707 32.688C226.707 33.352 226.571 33.944 226.299 34.464C226.027 34.984 225.651 35.388 225.171 35.676C224.699 35.964 224.171 36.108 223.587 36.108C223.027 36.108 222.531 35.984 222.099 35.736C221.675 35.48 221.351 35.164 221.127 34.788V39.12H220.035V29.424H221.127V30.636ZM225.591 32.688C225.591 32.192 225.491 31.76 225.291 31.392C225.091 31.024 224.819 30.744 224.475 30.552C224.139 30.36 223.767 30.264 223.359 30.264C222.959 30.264 222.587 30.364 222.243 30.564C221.907 30.756 221.635 31.04 221.427 31.416C221.227 31.784 221.127 32.212 221.127 32.7C221.127 33.196 221.227 33.632 221.427 34.008C221.635 34.376 221.907 34.66 222.243 34.86C222.587 35.052 222.959 35.148 223.359 35.148C223.767 35.148 224.139 35.052 224.475 34.86C224.819 34.66 225.091 34.376 225.291 34.008C225.491 33.632 225.591 33.192 225.591 32.688ZM229.237 30.492C229.429 30.116 229.701 29.824 230.053 29.616C230.413 29.408 230.849 29.304 231.361 29.304V30.432H231.073C229.849 30.432 229.237 31.096 229.237 32.424V36H228.145V29.424H229.237V30.492ZM235.489 36.108C234.873 36.108 234.313 35.968 233.809 35.688C233.313 35.408 232.921 35.012 232.633 34.5C232.353 33.98 232.213 33.38 232.213 32.7C232.213 32.028 232.357 31.436 232.645 30.924C232.941 30.404 233.341 30.008 233.845 29.736C234.349 29.456 234.913 29.316 235.537 29.316C236.161 29.316 236.725 29.456 237.229 29.736C237.733 30.008 238.129 30.4 238.417 30.912C238.713 31.424 238.861 32.02 238.861 32.7C238.861 33.38 238.709 33.98 238.405 34.5C238.109 35.012 237.705 35.408 237.193 35.688C236.681 35.968 236.113 36.108 235.489 36.108ZM235.489 35.148C235.881 35.148 236.249 35.056 236.593 34.872C236.937 34.688 237.213 34.412 237.421 34.044C237.637 33.676 237.745 33.228 237.745 32.7C237.745 32.172 237.641 31.724 237.433 31.356C237.225 30.988 236.953 30.716 236.617 30.54C236.281 30.356 235.917 30.264 235.525 30.264C235.125 30.264 234.757 30.356 234.421 30.54C234.093 30.716 233.829 30.988 233.629 31.356C233.429 31.724 233.329 32.172 233.329 32.7C233.329 33.236 233.425 33.688 233.617 34.056C233.817 34.424 234.081 34.7 234.409 34.884C234.737 35.06 235.097 35.148 235.489 35.148ZM239.889 32.688C239.889 32.016 240.025 31.428 240.297 30.924C240.569 30.412 240.941 30.016 241.413 29.736C241.893 29.456 242.429 29.316 243.021 29.316C243.533 29.316 244.009 29.436 244.449 29.676C244.889 29.908 245.225 30.216 245.457 30.6V27.12H246.561V36H245.457V34.764C245.241 35.156 244.921 35.48 244.497 35.736C244.073 35.984 243.577 36.108 243.009 36.108C242.425 36.108 241.893 35.964 241.413 35.676C240.941 35.388 240.569 34.984 240.297 34.464C240.025 33.944 239.889 33.352 239.889 32.688ZM245.457 32.7C245.457 32.204 245.357 31.772 245.157 31.404C244.957 31.036 244.685 30.756 244.341 30.564C244.005 30.364 243.633 30.264 243.225 30.264C242.817 30.264 242.445 30.36 242.109 30.552C241.773 30.744 241.505 31.024 241.305 31.392C241.105 31.76 241.005 32.192 241.005 32.688C241.005 33.192 241.105 33.632 241.305 34.008C241.505 34.376 241.773 34.66 242.109 34.86C242.445 35.052 242.817 35.148 243.225 35.148C243.633 35.148 244.005 35.052 244.341 34.86C244.685 34.66 244.957 34.376 245.157 34.008C245.357 33.632 245.457 33.196 245.457 32.7ZM254.238 29.424V36H253.146V35.028C252.938 35.364 252.646 35.628 252.27 35.82C251.902 36.004 251.494 36.096 251.046 36.096C250.534 36.096 250.074 35.992 249.666 35.784C249.258 35.568 248.934 35.248 248.694 34.824C248.462 34.4 248.346 33.884 248.346 33.276V29.424H249.426V33.132C249.426 33.78 249.59 34.28 249.918 34.632C250.246 34.976 250.694 35.148 251.262 35.148C251.846 35.148 252.306 34.968 252.642 34.608C252.978 34.248 253.146 33.724 253.146 33.036V29.424H254.238ZM255.674 32.7C255.674 32.02 255.81 31.428 256.082 30.924C256.354 30.412 256.73 30.016 257.21 29.736C257.698 29.456 258.254 29.316 258.878 29.316C259.686 29.316 260.35 29.512 260.87 29.904C261.398 30.296 261.746 30.84 261.914 31.536H260.738C260.626 31.136 260.406 30.82 260.078 30.588C259.758 30.356 259.358 30.24 258.878 30.24C258.254 30.24 257.75 30.456 257.366 30.888C256.982 31.312 256.79 31.916 256.79 32.7C256.79 33.492 256.982 34.104 257.366 34.536C257.75 34.968 258.254 35.184 258.878 35.184C259.358 35.184 259.758 35.072 260.078 34.848C260.398 34.624 260.618 34.304 260.738 33.888H261.914C261.738 34.56 261.386 35.1 260.858 35.508C260.33 35.908 259.67 36.108 258.878 36.108C258.254 36.108 257.698 35.968 257.21 35.688C256.73 35.408 256.354 35.012 256.082 34.5C255.81 33.988 255.674 33.388 255.674 32.7ZM264.703 30.324V34.2C264.703 34.52 264.771 34.748 264.907 34.884C265.043 35.012 265.279 35.076 265.615 35.076H266.419V36H265.435C264.827 36 264.371 35.86 264.067 35.58C263.763 35.3 263.611 34.84 263.611 34.2V30.324H262.759V29.424H263.611V27.768H264.703V29.424H266.419V30.324H264.703ZM269.878 27.528C270.67 27.528 271.31 27.752 271.798 28.2C272.286 28.648 272.53 29.248 272.53 30C272.53 30.84 272.27 31.464 271.75 31.872C271.23 32.272 270.526 32.472 269.638 32.472L269.602 33.612H268.654L268.606 31.716H268.954C269.746 31.716 270.366 31.596 270.814 31.356C271.262 31.116 271.486 30.664 271.486 30C271.486 29.52 271.342 29.14 271.054 28.86C270.766 28.58 270.378 28.44 269.89 28.44C269.394 28.44 269.002 28.576 268.714 28.848C268.434 29.112 268.294 29.476 268.294 29.94H267.262C267.262 29.46 267.37 29.04 267.586 28.68C267.802 28.312 268.106 28.028 268.498 27.828C268.898 27.628 269.358 27.528 269.878 27.528ZM269.122 36.072C268.914 36.072 268.738 36 268.594 35.856C268.45 35.712 268.378 35.536 268.378 35.328C268.378 35.12 268.45 34.944 268.594 34.8C268.738 34.656 268.914 34.584 269.122 34.584C269.322 34.584 269.49 34.656 269.626 34.8C269.77 34.944 269.842 35.12 269.842 35.328C269.842 35.536 269.77 35.712 269.626 35.856C269.49 36 269.322 36.072 269.122 36.072Z" fill="black"/>
<path d="M47.8887 37.2H63.8773V37.8H47.8887V37.2ZM63.873 37.2H76.9208V37.8H63.873V37.2ZM76.916 37.2H85.028V37.8H76.916V37.2ZM85.0254 37.2H96.0905V37.8H85.0254V37.2ZM96.0879 37.2H99.2919V37.8H96.0879V37.2ZM99.2871 37.2H113.729V37.8H99.2871V37.2ZM113.725 37.2H121.405V37.8H113.725V37.2ZM121.4 37.2H124.604V37.8H121.4V37.2ZM124.6 37.2H132.28V37.8H124.6V37.2ZM132.275 37.2H147.829V37.8H132.275V37.2ZM147.826 37.2H155.507V37.8H147.826V37.2ZM155.502 37.2H163.614V37.8H155.502V37.2ZM163.611 37.2H171.723V37.8H163.611V37.2ZM171.721 37.2H179.401V37.8H171.721V37.2ZM179.396 37.2H187.076V37.8H179.396V37.2ZM187.072 37.2H194.647V37.8H187.072V37.2ZM194.643 37.2H206.694V37.8H194.643V37.2ZM206.689 37.2H219.116V37.8H206.689V37.2ZM219.111 37.2H227.223V37.8H219.111V37.2ZM227.221 37.2H239.377V37.8H227.221V37.2ZM239.373 37.2H247.485V37.8H239.373V37.2ZM247.482 37.2H255.162V37.8H247.482V37.2ZM255.158 37.2H273.106V37.8H255.158V37.2Z" fill="black"/>
<path d="M232.576 110.084C232.024 110.084 231.528 109.988 231.088 109.796C230.656 109.596 230.316 109.324 230.068 108.98C229.82 108.628 229.692 108.224 229.684 107.768H230.848C230.888 108.16 231.048 108.492 231.328 108.764C231.616 109.028 232.032 109.16 232.576 109.16C233.096 109.16 233.504 109.032 233.8 108.776C234.104 108.512 234.256 108.176 234.256 107.768C234.256 107.448 234.168 107.188 233.992 106.988C233.816 106.788 233.596 106.636 233.332 106.532C233.068 106.428 232.712 106.316 232.264 106.196C231.712 106.052 231.268 105.908 230.932 105.764C230.604 105.62 230.32 105.396 230.08 105.092C229.848 104.78 229.732 104.364 229.732 103.844C229.732 103.388 229.848 102.984 230.08 102.632C230.312 102.28 230.636 102.008 231.052 101.816C231.476 101.624 231.96 101.528 232.504 101.528C233.288 101.528 233.928 101.724 234.424 102.116C234.928 102.508 235.212 103.028 235.276 103.676H234.076C234.036 103.356 233.868 103.076 233.572 102.836C233.276 102.588 232.884 102.464 232.396 102.464C231.94 102.464 231.568 102.584 231.28 102.824C230.992 103.056 230.848 103.384 230.848 103.808C230.848 104.112 230.932 104.36 231.1 104.552C231.276 104.744 231.488 104.892 231.736 104.996C231.992 105.092 232.348 105.204 232.804 105.332C233.356 105.484 233.8 105.636 234.136 105.788C234.472 105.932 234.76 106.16 235 106.472C235.24 106.776 235.36 107.192 235.36 107.72C235.36 108.128 235.252 108.512 235.036 108.872C234.82 109.232 234.5 109.524 234.076 109.748C233.652 109.972 233.152 110.084 232.576 110.084ZM236.559 106.688C236.559 106.016 236.695 105.428 236.967 104.924C237.239 104.412 237.611 104.016 238.083 103.736C238.563 103.456 239.095 103.316 239.679 103.316C240.255 103.316 240.755 103.44 241.179 103.688C241.603 103.936 241.919 104.248 242.127 104.624V103.424H243.231V110H242.127V108.776C241.911 109.16 241.587 109.48 241.155 109.736C240.731 109.984 240.235 110.108 239.667 110.108C239.083 110.108 238.555 109.964 238.083 109.676C237.611 109.388 237.239 108.984 236.967 108.464C236.695 107.944 236.559 107.352 236.559 106.688ZM242.127 106.7C242.127 106.204 242.027 105.772 241.827 105.404C241.627 105.036 241.355 104.756 241.011 104.564C240.675 104.364 240.303 104.264 239.895 104.264C239.487 104.264 239.115 104.36 238.779 104.552C238.443 104.744 238.175 105.024 237.975 105.392C237.775 105.76 237.675 106.192 237.675 106.688C237.675 107.192 237.775 107.632 237.975 108.008C238.175 108.376 238.443 108.66 238.779 108.86C239.115 109.052 239.487 109.148 239.895 109.148C240.303 109.148 240.675 109.052 241.011 108.86C241.355 108.66 241.627 108.376 241.827 108.008C242.027 107.632 242.127 107.196 242.127 106.7ZM253.836 103.424L251.784 110H250.656L249.072 104.78L247.488 110H246.36L244.296 103.424H245.412L246.924 108.944L248.556 103.424H249.672L251.268 108.956L252.756 103.424H253.836ZM257.711 106.688C257.711 106.016 257.847 105.428 258.119 104.924C258.391 104.412 258.763 104.016 259.235 103.736C259.715 103.456 260.247 103.316 260.831 103.316C261.407 103.316 261.907 103.44 262.331 103.688C262.755 103.936 263.071 104.248 263.279 104.624V103.424H264.383V110H263.279V108.776C263.063 109.16 262.739 109.48 262.307 109.736C261.883 109.984 261.387 110.108 260.819 110.108C260.235 110.108 259.707 109.964 259.235 109.676C258.763 109.388 258.391 108.984 258.119 108.464C257.847 107.944 257.711 107.352 257.711 106.688ZM263.279 106.7C263.279 106.204 263.179 105.772 262.979 105.404C262.779 105.036 262.507 104.756 262.163 104.564C261.827 104.364 261.455 104.264 261.047 104.264C260.639 104.264 260.267 104.36 259.931 104.552C259.595 104.744 259.327 105.024 259.127 105.392C258.927 105.76 258.827 106.192 258.827 106.688C258.827 107.192 258.927 107.632 259.127 108.008C259.327 108.376 259.595 108.66 259.931 108.86C260.267 109.052 260.639 109.148 261.047 109.148C261.455 109.148 261.827 109.052 262.163 108.86C262.507 108.66 262.779 108.376 262.979 108.008C263.179 107.632 263.279 107.196 263.279 106.7ZM269.433 103.304C270.233 103.304 270.881 103.548 271.377 104.036C271.873 104.516 272.121 105.212 272.121 106.124V110H271.041V106.28C271.041 105.624 270.877 105.124 270.549 104.78C270.221 104.428 269.773 104.252 269.205 104.252C268.629 104.252 268.169 104.432 267.825 104.792C267.489 105.152 267.321 105.676 267.321 106.364V110H266.229V103.424H267.321V104.36C267.537 104.024 267.829 103.764 268.197 103.58C268.573 103.396 268.985 103.304 269.433 103.304ZM276.696 106.688C276.696 106.016 276.832 105.428 277.104 104.924C277.376 104.412 277.748 104.016 278.22 103.736C278.7 103.456 279.232 103.316 279.816 103.316C280.392 103.316 280.892 103.44 281.316 103.688C281.74 103.936 282.056 104.248 282.264 104.624V103.424H283.368V110H282.264V108.776C282.048 109.16 281.724 109.48 281.292 109.736C280.868 109.984 280.372 110.108 279.804 110.108C279.22 110.108 278.692 109.964 278.22 109.676C277.748 109.388 277.376 108.984 277.104 108.464C276.832 107.944 276.696 107.352 276.696 106.688ZM282.264 106.7C282.264 106.204 282.164 105.772 281.964 105.404C281.764 105.036 281.492 104.756 281.148 104.564C280.812 104.364 280.44 104.264 280.032 104.264C279.624 104.264 279.252 104.36 278.916 104.552C278.58 104.744 278.312 105.024 278.112 105.392C277.912 105.76 277.812 106.192 277.812 106.688C277.812 107.192 277.912 107.632 278.112 108.008C278.312 108.376 278.58 108.66 278.916 108.86C279.252 109.052 279.624 109.148 280.032 109.148C280.44 109.148 280.812 109.052 281.148 108.86C281.492 108.66 281.764 108.376 281.964 108.008C282.164 107.632 282.264 107.196 282.264 106.7ZM284.805 106.688C284.805 106.016 284.941 105.428 285.213 104.924C285.485 104.412 285.857 104.016 286.329 103.736C286.809 103.456 287.345 103.316 287.937 103.316C288.449 103.316 288.925 103.436 289.365 103.676C289.805 103.908 290.141 104.216 290.373 104.6V101.12H291.477V110H290.373V108.764C290.157 109.156 289.837 109.48 289.413 109.736C288.989 109.984 288.493 110.108 287.925 110.108C287.341 110.108 286.809 109.964 286.329 109.676C285.857 109.388 285.485 108.984 285.213 108.464C284.941 107.944 284.805 107.352 284.805 106.688ZM290.373 106.7C290.373 106.204 290.273 105.772 290.073 105.404C289.873 105.036 289.601 104.756 289.257 104.564C288.921 104.364 288.549 104.264 288.141 104.264C287.733 104.264 287.361 104.36 287.025 104.552C286.689 104.744 286.421 105.024 286.221 105.392C286.021 105.76 285.921 106.192 285.921 106.688C285.921 107.192 286.021 107.632 286.221 108.008C286.421 108.376 286.689 108.66 287.025 108.86C287.361 109.052 287.733 109.148 288.141 109.148C288.549 109.148 288.921 109.052 289.257 108.86C289.601 108.66 289.873 108.376 290.073 108.008C290.273 107.632 290.373 107.196 290.373 106.7Z" fill="#797979"/>
<path d="M51.576 116.084C51.024 116.084 50.528 115.988 50.088 115.796C49.656 115.596 49.316 115.324 49.068 114.98C48.82 114.628 48.692 114.224 48.684 113.768H49.848C49.888 114.16 50.048 114.492 50.328 114.764C50.616 115.028 51.032 115.16 51.576 115.16C52.096 115.16 52.504 115.032 52.8 114.776C53.104 114.512 53.256 114.176 53.256 113.768C53.256 113.448 53.168 113.188 52.992 112.988C52.816 112.788 52.596 112.636 52.332 112.532C52.068 112.428 51.712 112.316 51.264 112.196C50.712 112.052 50.268 111.908 49.932 111.764C49.604 111.62 49.32 111.396 49.08 111.092C48.848 110.78 48.732 110.364 48.732 109.844C48.732 109.388 48.848 108.984 49.08 108.632C49.312 108.28 49.636 108.008 50.052 107.816C50.476 107.624 50.96 107.528 51.504 107.528C52.288 107.528 52.928 107.724 53.424 108.116C53.928 108.508 54.212 109.028 54.276 109.676H53.076C53.036 109.356 52.868 109.076 52.572 108.836C52.276 108.588 51.884 108.464 51.396 108.464C50.94 108.464 50.568 108.584 50.28 108.824C49.992 109.056 49.848 109.384 49.848 109.808C49.848 110.112 49.932 110.36 50.1 110.552C50.276 110.744 50.488 110.892 50.736 110.996C50.992 111.092 51.348 111.204 51.804 111.332C52.356 111.484 52.8 111.636 53.136 111.788C53.472 111.932 53.76 112.16 54 112.472C54.24 112.776 54.36 113.192 54.36 113.72C54.36 114.128 54.252 114.512 54.036 114.872C53.82 115.232 53.5 115.524 53.076 115.748C52.652 115.972 52.152 116.084 51.576 116.084ZM55.559 112.688C55.559 112.016 55.695 111.428 55.967 110.924C56.239 110.412 56.611 110.016 57.083 109.736C57.563 109.456 58.095 109.316 58.679 109.316C59.255 109.316 59.755 109.44 60.179 109.688C60.603 109.936 60.919 110.248 61.127 110.624V109.424H62.231V116H61.127V114.776C60.911 115.16 60.587 115.48 60.155 115.736C59.731 115.984 59.235 116.108 58.667 116.108C58.083 116.108 57.555 115.964 57.083 115.676C56.611 115.388 56.239 114.984 55.967 114.464C55.695 113.944 55.559 113.352 55.559 112.688ZM61.127 112.7C61.127 112.204 61.027 111.772 60.827 111.404C60.627 111.036 60.355 110.756 60.011 110.564C59.675 110.364 59.303 110.264 58.895 110.264C58.487 110.264 58.115 110.36 57.779 110.552C57.443 110.744 57.175 111.024 56.975 111.392C56.775 111.76 56.675 112.192 56.675 112.688C56.675 113.192 56.775 113.632 56.975 114.008C57.175 114.376 57.443 114.66 57.779 114.86C58.115 115.052 58.487 115.148 58.895 115.148C59.303 115.148 59.675 115.052 60.011 114.86C60.355 114.66 60.627 114.376 60.827 114.008C61.027 113.632 61.127 113.196 61.127 112.7ZM72.8363 109.424L70.7843 116H69.6563L68.0723 110.78L66.4883 116H65.3603L63.2963 109.424H64.4123L65.9243 114.944L67.5563 109.424H68.6723L70.2683 114.956L71.7563 109.424H72.8363ZM76.7113 112.688C76.7113 112.016 76.8473 111.428 77.1193 110.924C77.3913 110.412 77.7633 110.016 78.2353 109.736C78.7153 109.456 79.2473 109.316 79.8313 109.316C80.4073 109.316 80.9073 109.44 81.3313 109.688C81.7553 109.936 82.0713 110.248 82.2793 110.624V109.424H83.3833V116H82.2793V114.776C82.0633 115.16 81.7393 115.48 81.3073 115.736C80.8833 115.984 80.3873 116.108 79.8193 116.108C79.2353 116.108 78.7073 115.964 78.2353 115.676C77.7633 115.388 77.3913 114.984 77.1193 114.464C76.8473 113.944 76.7113 113.352 76.7113 112.688ZM82.2793 112.7C82.2793 112.204 82.1793 111.772 81.9793 111.404C81.7793 111.036 81.5073 110.756 81.1633 110.564C80.8273 110.364 80.4553 110.264 80.0473 110.264C79.6393 110.264 79.2673 110.36 78.9313 110.552C78.5953 110.744 78.3273 111.024 78.1273 111.392C77.9273 111.76 77.8273 112.192 77.8273 112.688C77.8273 113.192 77.9273 113.632 78.1273 114.008C78.3273 114.376 78.5953 114.66 78.9313 114.86C79.2673 115.052 79.6393 115.148 80.0473 115.148C80.4553 115.148 80.8273 115.052 81.1633 114.86C81.5073 114.66 81.7793 114.376 81.9793 114.008C82.1793 113.632 82.2793 113.196 82.2793 112.7ZM88.4327 109.304C89.2327 109.304 89.8807 109.548 90.3767 110.036C90.8727 110.516 91.1207 111.212 91.1207 112.124V116H90.0407V112.28C90.0407 111.624 89.8767 111.124 89.5487 110.78C89.2207 110.428 88.7727 110.252 88.2047 110.252C87.6287 110.252 87.1687 110.432 86.8247 110.792C86.4887 111.152 86.3207 111.676 86.3207 112.364V116H85.2287V109.424H86.3207V110.36C86.5367 110.024 86.8287 109.764 87.1967 109.58C87.5727 109.396 87.9847 109.304 88.4327 109.304ZM48.516 125.688C48.516 125.016 48.652 124.428 48.924 123.924C49.196 123.412 49.568 123.016 50.04 122.736C50.52 122.456 51.052 122.316 51.636 122.316C52.212 122.316 52.712 122.44 53.136 122.688C53.56 122.936 53.876 123.248 54.084 123.624V122.424H55.188V129H54.084V127.776C53.868 128.16 53.544 128.48 53.112 128.736C52.688 128.984 52.192 129.108 51.624 129.108C51.04 129.108 50.512 128.964 50.04 128.676C49.568 128.388 49.196 127.984 48.924 127.464C48.652 126.944 48.516 126.352 48.516 125.688ZM54.084 125.7C54.084 125.204 53.984 124.772 53.784 124.404C53.584 124.036 53.312 123.756 52.968 123.564C52.632 123.364 52.26 123.264 51.852 123.264C51.444 123.264 51.072 123.36 50.736 123.552C50.4 123.744 50.132 124.024 49.932 124.392C49.732 124.76 49.632 125.192 49.632 125.688C49.632 126.192 49.732 126.632 49.932 127.008C50.132 127.376 50.4 127.66 50.736 127.86C51.072 128.052 51.444 128.148 51.852 128.148C52.26 128.148 52.632 128.052 52.968 127.86C53.312 127.66 53.584 127.376 53.784 127.008C53.984 126.632 54.084 126.196 54.084 125.7ZM56.6254 125.688C56.6254 125.016 56.7614 124.428 57.0334 123.924C57.3054 123.412 57.6774 123.016 58.1494 122.736C58.6294 122.456 59.1654 122.316 59.7574 122.316C60.2694 122.316 60.7454 122.436 61.1854 122.676C61.6254 122.908 61.9614 123.216 62.1934 123.6V120.12H63.2974V129H62.1934V127.764C61.9774 128.156 61.6574 128.48 61.2334 128.736C60.8094 128.984 60.3134 129.108 59.7454 129.108C59.1614 129.108 58.6294 128.964 58.1494 128.676C57.6774 128.388 57.3054 127.984 57.0334 127.464C56.7614 126.944 56.6254 126.352 56.6254 125.688ZM62.1934 125.7C62.1934 125.204 62.0934 124.772 61.8934 124.404C61.6934 124.036 61.4214 123.756 61.0774 123.564C60.7414 123.364 60.3694 123.264 59.9614 123.264C59.5534 123.264 59.1814 123.36 58.8454 123.552C58.5094 123.744 58.2414 124.024 58.0414 124.392C57.8414 124.76 57.7414 125.192 57.7414 125.688C57.7414 126.192 57.8414 126.632 58.0414 127.008C58.2414 127.376 58.5094 127.66 58.8454 127.86C59.1814 128.052 59.5534 128.148 59.9614 128.148C60.3694 128.148 60.7414 128.052 61.0774 127.86C61.4214 127.66 61.6934 127.376 61.8934 127.008C62.0934 126.632 62.1934 126.196 62.1934 125.7Z" fill="#797979"/>
<path d="M82.3333 125C82.3333 126.473 83.5272 127.667 85 127.667C86.4728 127.667 87.6667 126.473 87.6667 125C87.6667 123.527 86.4728 122.333 85 122.333C83.5272 122.333 82.3333 123.527 82.3333 125ZM85 125.5L116 125.5L116 124.5L85 124.5L85 125.5Z" fill="#797979"/>
<path d="M156 74.3333C154.527 74.3333 153.333 75.5272 153.333 77C153.333 78.4728 154.527 79.6667 156 79.6667C157.473 79.6667 158.667 78.4728 158.667 77C158.667 75.5272 157.473 74.3333 156 74.3333ZM155.5 77L155.5 98L156.5 98L156.5 77L155.5 77Z" fill="#797979"/>
<path d="M222.667 103C222.667 101.527 221.473 100.333 220 100.333C218.527 100.333 217.333 101.527 217.333 103C217.333 104.473 218.527 105.667 220 105.667C221.473 105.667 222.667 104.473 222.667 103ZM220 102.5H199V103.5H220V102.5Z" fill="#797979"/>
</svg>
